<svg width="29" height="22" viewBox="0 0 29 22" fill="none" xmlns="http://www.w3.org/2000/svg">
<path d="M16.6031 16.8121C13.7643 16.8121 11.4531 14.501 11.4531 11.6621C11.4531 8.82329 13.7643 6.51212 16.6031 6.51212C19.442 6.51212 21.7531 8.82329 21.7531 11.6621C21.7531 14.501 19.442 16.8121 16.6031 16.8121Z" fill="#FFDE8A" stroke="#FFDE8A" stroke-width="2"/>
<path d="M16.6016 0V4.14556" stroke="#FFDE8A" stroke-width="2"/>
<path d="M24.377 11.6621L28.5225 11.6621" stroke="#FFDE8A" stroke-width="2"/>
<path d="M8.39258 3.32449L11.3239 6.25585" stroke="#FFDE8A" stroke-width="2"/>
<path d="M22.1367 17.0686L25.0681 19.9999" stroke="#FFDE8A" stroke-width="2"/>
<path d="M8.39258 20L11.3239 17.0686" stroke="#FFDE8A" stroke-width="2"/>
<path d="M22.1357 6.25595L25.0671 3.3246" stroke="#FFDE8A" stroke-width="2"/>
<path d="M17.4969 13.236C16.9589 12.6706 16.2782 12.2945 15.5412 12.0787C14.982 9.25176 12.6911 7 9.8 7C7.09105 7 4.90903 8.977 4.18479 11.5517C2.28767 12.1456 1 14.055 1 16.1818C1 18.7342 2.87288 21 5.4125 21H14.1875C16.7271 21 18.6 18.7342 18.6 16.1818C18.6 14.9905 18.209 13.9843 17.4969 13.236Z" fill="#89CDFF"/>
<path d="M17.4969 13.236C16.9589 12.6706 16.2782 12.2945 15.5412 12.0787C14.982 9.25176 12.6911 7 9.8 7C7.09105 7 4.90903 8.977 4.18479 11.5517C2.28767 12.1456 1 14.055 1 16.1818C1 18.7342 2.87288 21 5.4125 21H14.1875C16.7271 21 18.6 18.7342 18.6 16.1818C18.6 14.9905 18.209 13.9843 17.4969 13.236Z" fill="white" fill-opacity="0.33"/>
<path d="M17.4969 13.236C16.9589 12.6706 16.2782 12.2945 15.5412 12.0787C14.982 9.25176 12.6911 7 9.8 7C7.09105 7 4.90903 8.977 4.18479 11.5517C2.28767 12.1456 1 14.055 1 16.1818C1 18.7342 2.87288 21 5.4125 21H14.1875C16.7271 21 18.6 18.7342 18.6 16.1818C18.6 14.9905 18.209 13.9843 17.4969 13.236Z" stroke="#89CDFF" stroke-width="2" stroke-linejoin="round"/>
<path d="M17.4969 13.236C16.9589 12.6706 16.2782 12.2945 15.5412 12.0787C14.982 9.25176 12.6911 7 9.8 7C7.09105 7 4.90903 8.977 4.18479 11.5517C2.28767 12.1456 1 14.055 1 16.1818C1 18.7342 2.87288 21 5.4125 21H14.1875C16.7271 21 18.6 18.7342 18.6 16.1818C18.6 14.9905 18.209 13.9843 17.4969 13.236Z" stroke="white" stroke-opacity="0.33" stroke-width="2" stroke-linejoin="round"/>
</svg>
