<svg width="32" height="23" viewBox="0 0 32 23" fill="none" xmlns="http://www.w3.org/2000/svg">
<path d="M24.0019 11.4635C23.2244 10.7111 22.2223 10.2292 21.1335 9.97521L21.1329 9.97227L21.132 9.96764L21.1319 9.96733C21.1319 9.96719 21.1319 9.96704 21.1319 9.96689C21.1318 9.9668 21.1318 9.96667 21.1318 9.96657C20.4134 6.19508 17.177 3.3125 13.25 3.3125C9.56621 3.3125 6.49009 5.84915 5.5302 9.27664C2.9133 9.92214 1 12.3367 1 15.179C1 18.5036 3.62338 21.25 6.92187 21.25H19.5781C22.8766 21.25 25.5 18.5036 25.5 15.179C25.5 13.6466 24.9539 12.3847 24.0019 11.4635Z" fill="white" stroke="white" stroke-width="2" stroke-linejoin="round"/>
<path d="M20.8164 15.2063C17.9025 15.2063 15.5303 12.8341 15.5303 9.92025C15.5303 7.00638 17.9025 4.63416 20.8164 4.63416C23.7302 4.63416 26.1025 7.00638 26.1025 9.92025C26.1025 12.8341 23.7302 15.2063 20.8164 15.2063Z" fill="#C4F3EB" stroke="#C4F3EB" stroke-width="2"/>
<path d="M20.8164 0V2.5" stroke="#C4F3EB" stroke-width="2"/>
<path d="M21 18V20.5" stroke="#C4F3EB" stroke-width="2"/>
<path d="M28.7637 9.92017L31.2621 10.0093" stroke="#C4F3EB" stroke-width="2"/>
<path d="M11 10L13.4984 10.0892" stroke="#C4F3EB" stroke-width="2"/>
<path d="M27.2578 15.2578L29.1252 17.1252" stroke="#C4F3EB" stroke-width="2"/>
<path d="M13.4541 2.54547L15.3215 4.41286" stroke="#C4F3EB" stroke-width="2"/>
<path d="M13.4629 17.4626L15.5514 15.3741" stroke="#C4F3EB" stroke-width="2"/>
<path d="M26 4L28 2" stroke="#C4F3EB" stroke-width="2"/>
<path fill-rule="evenodd" clip-rule="evenodd" d="M20.1496 10.1544C20.1496 10.1544 20.2792 10.8324 20.3234 10.8389C22.7096 11.1895 24.5 12.6235 24.5 15.179C24.5 17.9796 22.2964 20.25 19.5781 20.25H6.92187C4.2036 20.25 2 17.9796 2 15.179C2 12.6235 3.83461 10.5096 6.22084 10.159C6.26505 10.1525 6.30837 10.1511 6.35041 10.1544C6.98437 6.82461 9.83244 4.3125 13.25 4.3125C16.6676 4.3125 19.5156 6.82462 20.1496 10.1544Z" fill="#89CDFF" fill-opacity="0.5"/>
<path fill-rule="evenodd" clip-rule="evenodd" d="M20.1496 10.1544C20.1496 10.1544 20.2792 10.8324 20.3234 10.8389C22.7096 11.1895 24.5 12.6235 24.5 15.179C24.5 17.9796 22.2964 20.25 19.5781 20.25H6.92187C4.2036 20.25 2 17.9796 2 15.179C2 12.6235 3.83461 10.5096 6.22084 10.159C6.26505 10.1525 6.30837 10.1511 6.35041 10.1544C6.98437 6.82461 9.83244 4.3125 13.25 4.3125C16.6676 4.3125 19.5156 6.82462 20.1496 10.1544Z" fill="white" fill-opacity="0.5"/>
<path d="M24.0019 11.4635C23.2244 10.7111 22.2223 10.2292 21.1335 9.97521L21.1329 9.97227L21.132 9.96764L21.1319 9.96733C21.1319 9.96719 21.1319 9.96704 21.1319 9.96689C21.1318 9.9668 21.1318 9.96667 21.1318 9.96657C20.4134 6.19508 17.177 3.3125 13.25 3.3125C9.56621 3.3125 6.49009 5.84915 5.5302 9.27664C2.9133 9.92214 1 12.3367 1 15.179C1 18.5036 3.62338 21.25 6.92187 21.25H19.5781C22.8766 21.25 25.5 18.5036 25.5 15.179C25.5 13.6466 24.9539 12.3847 24.0019 11.4635Z" stroke="#89CDFF" stroke-opacity="0.5" stroke-width="2" stroke-linejoin="round"/>
<path d="M24.0019 11.4635C23.2244 10.7111 22.2223 10.2292 21.1335 9.97521L21.1329 9.97227L21.132 9.96764L21.1319 9.96733C21.1319 9.96719 21.1319 9.96704 21.1319 9.96689C21.1318 9.9668 21.1318 9.96667 21.1318 9.96657C20.4134 6.19508 17.177 3.3125 13.25 3.3125C9.56621 3.3125 6.49009 5.84915 5.5302 9.27664C2.9133 9.92214 1 12.3367 1 15.179C1 18.5036 3.62338 21.25 6.92187 21.25H19.5781C22.8766 21.25 25.5 18.5036 25.5 15.179C25.5 13.6466 24.9539 12.3847 24.0019 11.4635Z" stroke="white" stroke-opacity="0.5" stroke-width="2" stroke-linejoin="round"/>
</svg>
