<svg width="30" height="22" viewBox="0 0 30 22" fill="none" xmlns="http://www.w3.org/2000/svg">
<path d="M17.2105 16.8121C14.3717 16.8121 12.0605 14.5009 12.0605 11.6621C12.0605 8.82326 14.3717 6.51208 17.2105 6.51208C20.0494 6.51208 22.3605 8.82326 22.3605 11.6621C22.3605 14.5009 20.0494 16.8121 17.2105 16.8121Z" fill="#C4F3EB" stroke="#C4F3EB" stroke-width="2"/>
<path d="M17.2109 0V4.14555" stroke="#C4F3EB" stroke-width="2"/>
<path d="M24.9863 11.662L29.1319 11.662" stroke="#C4F3EB" stroke-width="2"/>
<path d="M9 3.32452L11.9313 6.25587" stroke="#C4F3EB" stroke-width="2"/>
<path d="M22.7441 17.0686L25.6755 20" stroke="#C4F3EB" stroke-width="2"/>
<path d="M9.00098 20L11.9323 17.0687" stroke="#C4F3EB" stroke-width="2"/>
<path d="M22.7422 6.25592L25.6735 3.32458" stroke="#C4F3EB" stroke-width="2"/>
<path d="M17.4969 13.236C16.9589 12.6706 16.2782 12.2945 15.5412 12.0787C14.982 9.25176 12.6911 7 9.8 7C7.09105 7 4.90903 8.977 4.18479 11.5517C2.28767 12.1456 1 14.055 1 16.1818C1 18.7342 2.87288 21 5.4125 21H14.1875C16.7271 21 18.6 18.7342 18.6 16.1818C18.6 14.9905 18.209 13.9843 17.4969 13.236Z" fill="#89CDFF"/>
<path d="M17.4969 13.236C16.9589 12.6706 16.2782 12.2945 15.5412 12.0787C14.982 9.25176 12.6911 7 9.8 7C7.09105 7 4.90903 8.977 4.18479 11.5517C2.28767 12.1456 1 14.055 1 16.1818C1 18.7342 2.87288 21 5.4125 21H14.1875C16.7271 21 18.6 18.7342 18.6 16.1818C18.6 14.9905 18.209 13.9843 17.4969 13.236Z" fill="white" fill-opacity="0.33"/>
<path d="M17.4969 13.236C16.9589 12.6706 16.2782 12.2945 15.5412 12.0787C14.982 9.25176 12.6911 7 9.8 7C7.09105 7 4.90903 8.977 4.18479 11.5517C2.28767 12.1456 1 14.055 1 16.1818C1 18.7342 2.87288 21 5.4125 21H14.1875C16.7271 21 18.6 18.7342 18.6 16.1818C18.6 14.9905 18.209 13.9843 17.4969 13.236Z" stroke="#89CDFF" stroke-width="2" stroke-linejoin="round"/>
<path d="M17.4969 13.236C16.9589 12.6706 16.2782 12.2945 15.5412 12.0787C14.982 9.25176 12.6911 7 9.8 7C7.09105 7 4.90903 8.977 4.18479 11.5517C2.28767 12.1456 1 14.055 1 16.1818C1 18.7342 2.87288 21 5.4125 21H14.1875C16.7271 21 18.6 18.7342 18.6 16.1818C18.6 14.9905 18.209 13.9843 17.4969 13.236Z" stroke="white" stroke-opacity="0.33" stroke-width="2" stroke-linejoin="round"/>
</svg>
