<svg width="1280" height="423" viewBox="0 0 1280 423" fill="none" xmlns="http://www.w3.org/2000/svg">
<g clip-path="url(#clip0_16_25598)">
<g clip-path="url(#clip1_16_25598)">
<g clip-path="url(#clip2_16_25598)">
<path d="M503.252 166.14H486.849V175.81C460.08 166.936 434.564 159.655 410.416 153.967V119.04H350.499H335.577V140.542C333.071 140.201 330.565 139.973 328.059 139.632V126.435V118.926V141.225V103.909H268.143V126.321H243.766H235.906V138.381C228.161 139.063 220.643 139.973 213.238 141.111C201.164 131.782 183.052 136.333 175.762 148.733C168.016 150.781 160.498 152.943 153.322 155.446C143.184 151.577 130.768 155.787 125.756 166.14C121.2 168.187 116.757 170.235 112.429 172.397C104.683 166.026 92.0388 169.894 90.1023 180.702C86.5712 181.839 84.1791 185.025 83.9512 188.552C83.8373 188.552 83.8373 188.665 83.7234 188.665C74.6107 188.438 65.384 193.899 62.3085 203.683C43.5134 218.017 27.3383 233.49 13.2135 248.962C5.01202 247.028 0.683459 300.385 -0.797363 303.456C-0.797363 303.456 315.985 298.906 618.756 298.906" fill="#9CCDC4"/>
<path d="M1136.13 144.183H1119.73V153.853C1092.96 144.979 1067.45 137.698 1043.3 132.01V97.0831H983.38H968.458V118.585C965.952 118.244 963.446 118.016 960.94 117.675V104.478V96.9694V119.268V81.9521H901.023V104.25H876.533H868.673V116.424C860.927 117.106 853.409 118.016 846.005 119.154C833.931 109.825 815.819 114.376 808.529 126.776C800.783 128.824 793.265 130.986 786.089 133.489C775.951 129.62 763.535 133.83 758.523 144.183C753.966 146.23 749.524 148.278 745.195 150.44C737.45 144.069 724.806 147.937 722.869 158.745C719.338 159.882 716.946 163.068 716.718 166.595C716.604 166.595 716.604 166.708 716.49 166.708C707.377 166.481 698.151 171.942 695.075 181.726C676.28 196.06 660.105 211.533 645.98 227.005C637.779 225.071 628.894 227.119 622.401 233.376C612.947 242.477 612.605 253.285 616.933 261.931C613.972 265.686 611.238 269.44 608.504 273.08H626.046C623.996 275.697 622.287 278.428 620.92 281.499C620.92 281.499 948.865 276.949 1251.52 276.949" fill="#9CCDC4"/>
<path d="M728.223 155.104H711.82V164.774C685.051 155.9 659.535 148.619 635.387 142.931V108.005H575.47H560.548V129.506C558.042 129.165 555.536 128.938 553.03 128.596V115.399V107.891V130.189V92.8735H493.228V115.286H468.737H460.878V127.459C453.132 128.141 445.614 129.051 438.21 130.189C426.135 120.86 408.024 125.411 400.733 137.811C392.987 139.859 385.469 142.021 378.293 144.524C368.155 140.656 355.739 144.865 350.727 155.218C346.171 157.266 341.728 159.313 337.4 161.475C329.654 155.104 317.01 158.972 315.073 169.78C311.542 170.918 309.15 174.103 308.922 177.63C308.808 177.63 308.808 177.744 308.695 177.744C299.582 177.516 290.355 182.977 287.28 192.761C268.484 207.095 252.309 222.568 238.185 238.04C229.983 236.106 221.098 238.154 214.605 244.411C205.151 253.512 204.809 264.32 209.138 272.966C206.176 276.721 203.442 280.475 200.708 284.116H218.25C216.2 286.732 214.491 289.463 213.125 292.534C213.125 292.534 541.07 287.984 843.727 287.984" fill="#9CCDC4"/>
<path d="M1273.85 289.577C1278.18 280.93 1277.72 270.122 1268.38 261.021C1261.89 254.764 1253 252.716 1244.8 254.65C1230.68 239.178 1214.5 223.706 1195.71 209.371C1192.63 199.587 1183.4 194.126 1174.29 194.354C1174.18 194.354 1174.18 194.24 1174.06 194.24C1173.72 190.713 1171.44 187.528 1167.91 186.39C1165.98 175.582 1153.33 171.714 1145.59 178.085C1141.26 175.924 1136.82 173.876 1132.26 171.828C1127.25 161.475 1114.95 157.152 1104.69 161.134C1097.4 158.745 1090 156.469 1082.25 154.422C1074.85 142.021 1056.74 143.614 1044.78 153.056C1037.49 151.919 1036.12 119.268 1028.37 118.585L987.253 117.22L986.569 101.065H958.662V109.711H929.842V116.082V130.986V138.494V151.691C927.336 151.919 924.831 152.26 922.324 152.601V131.099H907.402H859.902V166.026C835.753 171.714 797.935 172.738 771.053 181.726V172.055H754.65H689.038V147.482H623.426V188.438V204.82V213.012V229.394V234.286C620.692 233.148 617.959 231.897 615.225 230.759V204.934H598.822H554.055C546.31 201.862 538.678 199.018 531.046 196.174C531.387 192.192 529.109 188.438 525.236 187.3C523.642 178.426 514.643 174.558 507.352 177.289H502.568V167.391H507.466V157.493H502.568V142.704H507.466V137.812H383.875V142.704H393.785V157.38C386.153 156.014 378.635 154.649 371.345 153.625C373.509 153.056 375.673 152.26 375.673 149.188C375.673 142.931 367.016 146.344 366.333 140.656C365.535 134.171 374.762 135.536 373.281 130.075C371.459 123.477 361.662 130.189 361.89 125.07C362.232 118.813 363.941 113.124 358.815 113.124C353.689 113.124 356.195 120.405 355.739 125.07C355.17 130.189 346.171 123.477 344.348 130.075C342.867 135.423 352.094 134.171 351.297 140.656C350.613 146.344 341.956 142.931 341.956 149.188C341.956 149.53 342.07 149.757 342.07 149.985C328.173 148.619 314.732 147.937 301.974 147.823V128.938H263.131V152.032H240.007V198.222H243.311C200.594 225.753 39.2988 260.566 15.0361 291.852C7.40415 295.606 1.9365 300.384 -1.02515 306.755C-1.02515 306.755 0.569585 306.755 3.64514 306.642C2.05041 308.803 0.455676 310.851 -1.02515 312.899L639.032 304.935C941.689 304.935 1269.63 309.486 1269.63 309.486C1268.27 306.414 1266.56 303.684 1264.51 301.067C1264.74 300.84 1276.7 293.445 1273.85 289.577ZM462.928 173.648V167.163V173.648ZM462.928 142.476V157.266V142.476Z" fill="#86C2A9"/>
<path d="M1279.43 186.959C1119.73 123.932 890.202 295.72 817.072 394.128H1279.77L1279.43 186.959Z" fill="url(#paint0_linear_16_25598)"/>
<path d="M-1.70862 164.433C157.992 101.52 390.482 296.63 463.611 394.925H-1.25298L-1.70862 164.433Z" fill="url(#paint1_linear_16_25598)"/>
<path d="M1011.97 22.5659V-42.6226" stroke="#8C8C8C" stroke-miterlimit="10" stroke-linecap="round"/>
<path d="M1039.54 10.3928C1039.54 16.7637 1034.41 21.8832 1028.03 21.8832C1021.65 21.8832 1016.53 16.7637 1016.53 10.3928C1016.53 4.02185 1021.65 -1.09766 1028.03 -1.09766C1034.41 -1.09766 1039.54 4.02185 1039.54 10.3928Z" fill="#EFEEEE"/>
<path d="M1013.45 176.379L989.645 169.553V16.6499H1013.45V176.379Z" fill="#EFEEEE"/>
<path d="M1037.15 169.553L1013.45 176.379V16.6499H1037.15V169.553Z" fill="#C4C4C3"/>
<path d="M989.645 58.8577L998.53 50.2114V28.5957H989.645V58.8577Z" fill="#76909E"/>
<path d="M1037.15 27.6855H1025.3V52.4867L1037.15 58.8577V27.6855Z" fill="#76909E"/>
<path d="M1016.41 17.3325L1010.38 17.7876V117.675L1016.41 117.902V17.3325Z" fill="#A8A8A8"/>
<path d="M1016.3 61.1328H1010.38V70.0066H1016.3V61.1328Z" fill="#C4C4C3"/>
<path d="M1016.3 70.5757H1010.38V76.4916H1016.3V70.5757Z" fill="#76909E"/>
<path d="M1016.3 76.4912H1010.38V82.4071H1016.3V76.4912Z" fill="#C4C4C3"/>
<path d="M1016.3 81.9521H1010.38V99.6998H1016.3V81.9521Z" fill="#8C8C8C"/>
<path d="M1019.38 17.3328C1019.38 22.111 1015.5 25.9791 1010.72 25.9791C1005.93 25.9791 1002.06 22.111 1002.06 17.3328C1002.06 12.5546 1005.93 8.68652 1010.72 8.68652C1010.72 8.68652 1010.72 8.68652 1010.83 8.68652C1015.5 8.68652 1019.38 12.5546 1019.38 17.3328Z" fill="#E0E0E0"/>
<path d="M1001.49 114.604H906.491V185.822H1001.49V114.604Z" fill="#C4C4C3"/>
<path d="M1075.76 132.351H1001.49V185.708H1075.76V132.351Z" fill="#A8A8A8"/>
<path d="M927.223 129.393H918.338V144.183H927.223V129.393Z" fill="#A8A8A8"/>
<path d="M927.223 156.128H918.338V170.918H927.223V156.128Z" fill="#A8A8A8"/>
<path d="M945.107 129.393H936.222V144.183H945.107V129.393Z" fill="#A8A8A8"/>
<path d="M945.107 156.128H936.222V170.918H945.107V156.128Z" fill="#A8A8A8"/>
<path d="M962.876 129.393H953.991V144.183H962.876V129.393Z" fill="#A8A8A8"/>
<path d="M962.876 156.128H953.991V170.918H962.876V156.128Z" fill="#A8A8A8"/>
<path d="M980.76 129.393H971.875V144.183H980.76V129.393Z" fill="#A8A8A8"/>
<path d="M1040.22 156.128H971.875V209.485H1040.22V156.128Z" fill="#E0E0E0"/>
<path d="M989.645 162.044H980.76V176.834H989.645V162.044Z" fill="#C4C4C3"/>
<path d="M1010.38 162.044H1001.49V176.834H1010.38V162.044Z" fill="#C4C4C3"/>
<path d="M1031.22 162.044H1022.34V176.834H1031.22V162.044Z" fill="#C4C4C3"/>
<path d="M989.645 185.708H980.76V200.497H989.645V185.708Z" fill="#C4C4C3"/>
<path d="M1010.38 185.708H1001.49V200.497H1010.38V185.708Z" fill="#C4C4C3"/>
<path d="M1031.22 185.708H1022.34V200.497H1031.22V185.708Z" fill="#C4C4C3"/>
<path d="M1179.76 277.745C1173.61 274.559 1166.2 278.996 1166.32 285.936L1187.39 304.48C1194 303.57 1197.76 296.403 1194.57 290.373C1204.48 280.362 1187.96 266.368 1179.76 277.745Z" fill="#8DAF5B"/>
<path d="M858.194 191.169L919.591 187.642C928.362 176.151 923.122 159.086 909.111 154.649C909.225 141.794 898.631 132.237 886.443 133.034C873.913 133.716 864.572 145.093 866.509 157.721C852.042 162.044 847.372 180.361 858.194 191.169Z" fill="#78B09A"/>
<path d="M960.94 201.066C969.483 207.892 981.443 209.371 991.581 204.365C1002.74 212.443 1018.69 205.958 1020.97 192.192C1022.56 182.408 1016.19 173.193 1006.62 171.031C999.897 146.458 966.863 142.248 954.105 164.205C945.22 164.547 937.474 171.031 935.994 180.133C933.715 194.354 947.498 205.73 960.94 201.066Z" fill="#78B09A"/>
<path d="M1052.41 210.167C1058.67 216.197 1068.13 218.358 1076.56 215.059C1084.87 222.34 1098.09 218.358 1100.82 207.551C1102.87 199.814 1098.43 192.078 1090.91 189.689C1087.38 169.666 1061.41 163.864 1049.56 180.36C1042.5 179.905 1035.89 184.57 1033.96 191.737C1031.22 202.886 1041.36 212.898 1052.41 210.167Z" fill="#78B09A"/>
<path d="M863.661 201.976C874.938 209.144 889.974 201.407 890.658 187.869C891.113 178.882 884.734 171.146 876.077 169.667C872.432 162.727 865.256 157.835 856.827 157.494C826.527 156.015 824.249 201.863 854.662 203.342C857.738 203.455 860.813 203 863.661 201.976Z" fill="#6C9E72"/>
<path d="M1095.69 258.632C1108.45 268.871 1127.7 262.728 1132.15 246.914C1138.41 224.502 1110.96 208.006 1094.1 224.161C1072.34 220.861 1065.62 252.602 1086.7 258.518C1089.77 259.315 1092.85 259.315 1095.69 258.632Z" fill="#6C9E72"/>
<path d="M1028.37 177.971C1015.96 175.923 1004.45 185.025 1003.66 197.767C988.62 199.018 980.077 215.856 988.278 228.711L1048.99 238.495C1060.04 229.166 1058.67 211.419 1045.92 204.024C1048.65 191.51 1040.33 179.905 1028.37 177.971Z" fill="#6C9E72"/>
<path d="M924.261 213.922C928.02 218.472 934.627 219.61 939.753 216.538C954.903 223.137 972.103 214.604 976.204 198.904C984.291 168.187 941.12 151.919 926.767 180.019C916.629 175.924 905.58 181.839 902.846 192.078C899.201 205.275 911.162 217.221 924.261 213.922Z" fill="#6C9E72"/>
<path d="M1053.09 255.788C1065.85 266.027 1085.1 259.883 1089.54 244.07C1095.81 221.658 1068.36 205.161 1051.5 221.316C1029.85 218.017 1023.02 249.758 1044.09 255.674C1047.17 256.47 1050.13 256.47 1053.09 255.788Z" fill="#8DAF5B"/>
<path d="M818.439 222.34C831.197 232.579 850.448 226.436 854.89 210.622C861.155 188.21 833.703 171.714 816.844 187.869C795.202 184.57 788.367 216.311 809.44 222.227C812.516 223.023 815.591 223.023 818.439 222.34Z" fill="#5F8E5C"/>
<path d="M904.213 181.271C892.252 179.337 880.748 187.755 879.495 200.497C865.028 203.455 858.08 219.838 865.712 232.238L926.425 242.022C938.272 232.352 935.424 213.694 921.641 207.778C924.717 195.605 916.629 183.205 904.213 181.271Z" fill="#8DAF5B"/>
<path d="M974.837 248.393C978.71 252.944 985.317 253.854 990.329 250.782C1001.61 257.95 1016.76 250.441 1017.67 236.789C1018.35 226.209 1009.69 217.221 998.758 217.79C993.974 186.618 947.84 188.438 945.79 220.179C944.765 236.448 958.548 249.872 974.837 248.393Z" fill="#5F8E5C"/>
<path d="M868.104 191.851C855.688 189.803 844.183 198.904 843.385 211.646C828.349 212.898 819.806 229.735 828.008 242.591L888.721 252.375C899.771 243.046 898.404 225.298 885.646 217.903C888.38 205.389 880.064 193.785 868.104 191.851Z" fill="#8DAF5B"/>
<path d="M938.955 257.153C950.232 264.32 965.268 256.584 965.952 243.046C966.407 234.058 960.028 226.322 951.371 224.843C947.726 217.904 940.55 213.012 932.121 212.67C901.821 211.191 899.542 257.039 929.956 258.518C933.146 258.746 936.221 258.291 938.955 257.153Z" fill="#4D7F6F"/>
<path d="M1124.17 297.768C1134.54 306.187 1150.37 300.498 1152.65 287.074C1154.13 278.2 1148.78 269.781 1140.35 267.278C1137.5 259.884 1131.01 254.195 1122.69 252.83C1092.73 247.711 1084.99 292.99 1114.95 298.109C1118.13 298.564 1121.21 298.451 1124.17 297.768Z" fill="#4D7F6F"/>
<path d="M995.568 264.662C999.327 269.213 1005.93 270.35 1011.06 267.279C1026.21 273.877 1043.41 265.345 1047.51 249.645C1055.6 218.928 1012.43 202.659 998.074 230.759C987.936 226.664 976.887 232.58 974.153 242.819C970.508 256.016 982.469 267.847 995.568 264.662Z" fill="#4D7F6F"/>
<path d="M892.936 268.302C905.694 278.541 924.945 272.398 929.387 256.584C935.652 234.172 908.2 217.676 891.341 233.831C869.698 230.532 862.864 262.273 883.937 268.189C887.013 268.985 890.088 268.985 892.936 268.302Z" fill="#82BE88"/>
<path d="M1148.09 289.463C1136.13 287.984 1126.56 298.906 1129.18 310.396L1173.49 333.718C1185.11 329.395 1187.85 314.15 1178.62 305.959C1192.29 285.254 1158.34 266.482 1148.09 289.463Z" fill="#82BE88"/>
<path d="M1083.39 337.131C1083.39 337.131 1091.25 294.013 788.481 294.013L135.894 292.876C209.024 194.581 354.372 34.5112 764.218 219.837C1044.21 346.346 1041.36 244.752 1083.39 337.131Z" fill="url(#paint2_linear_16_25598)"/>
<path d="M13.0996 389.578C13.0996 389.578 5.23986 346.46 308.011 346.46L960.598 345.322C887.468 247.028 742.12 86.958 332.274 272.284C52.2845 398.679 55.1322 297.085 13.0996 389.578Z" fill="url(#paint3_linear_16_25598)"/>
<path d="M1271.46 389.009C1271.46 389.009 943.511 384.458 640.854 384.458L-1.36688 392.422C71.7629 294.241 206.746 124.956 616.591 310.282C896.581 436.791 1229.42 296.516 1271.46 389.009Z" fill="url(#paint4_linear_16_25598)"/>
<path d="M-1.48083 404.936C-1.48083 404.936 328.629 400.385 631.286 400.385L1279.2 397.996C1206.07 299.702 1065.39 140.883 655.549 326.21C375.673 452.718 40.6657 312.444 -1.48083 404.936Z" fill="url(#paint5_linear_16_25598)"/>
<path d="M1280.11 392.763H-2.05035V401.637H1280.11V392.763Z" fill="#A8A8A8"/>
<path d="M1280.11 401.865H-2.05035V410.738H1280.11V401.865Z" fill="#76909E"/>
<path d="M1280.11 410.966H-2.05035V419.84H1280.11V410.966Z" fill="#A8A8A8"/>
<path d="M136.463 132.806L113.909 147.823V211.76H159.815V147.823L136.463 132.806Z" fill="#F1EAC6"/>
<path d="M175.42 147.823H159.815V211.76H175.42V147.823Z" fill="#ADC3AB"/>
<path d="M136.464 132.806C164.485 150.895 155.828 147.823 175.307 147.823C147.285 129.734 156.056 132.806 136.464 132.806Z" fill="#B1615B"/>
<path d="M181.344 174.331L159.815 182.863V218.927H203.67V182.863L181.344 174.331Z" fill="#F1EAC6"/>
<path d="M218.478 182.863H203.67V218.927H218.478V182.863Z" fill="#ADC3AB"/>
<path d="M196.266 174.33C175.99 174.33 174.623 171.714 203.67 182.863C223.946 182.863 225.313 185.366 196.266 174.33Z" fill="#B1615B"/>
<path d="M210.96 200.497L197.063 205.958V229.28H225.427V205.958L210.96 200.497Z" fill="#F1EAC6"/>
<path d="M234.995 205.958H225.427V229.28H234.995V205.958Z" fill="#ADC3AB"/>
<path d="M220.643 200.497C207.543 200.497 206.632 198.79 225.427 205.958C238.526 205.958 239.438 207.664 220.643 200.497Z" fill="#B1615B"/>
<path d="M141.703 158.745H136.805V167.732H141.703V158.745Z" fill="#656F6F"/>
<path d="M141.703 180.588H136.805V189.576H141.703V180.588Z" fill="#656F6F"/>
<path d="M183.85 207.892H178.952V220.065H183.85V207.892Z" fill="#656F6F"/>
<path d="M213.238 220.179H209.365V229.849H213.238V220.179Z" fill="#656F6F"/>
<path d="M68.5735 99.1309H28.1356V164.661H68.5735V99.1309Z" fill="#F1EAC6"/>
<path d="M48.2976 124.273H28.1356V134.399H48.2976V124.273Z" fill="#76909E"/>
<path d="M48.2976 139.518H28.1356V149.643H48.2976V139.518Z" fill="#76909E"/>
<path d="M109.011 114.262H58.4355V179.791H109.011V114.262Z" fill="#EFEEEE"/>
<path d="M78.7114 125.184H68.5735V135.309H78.7114V125.184Z" fill="#76909E"/>
<path d="M98.8734 125.184H88.7355V135.309H98.8734V125.184Z" fill="#76909E"/>
<path d="M78.7114 140.314H68.5735V150.44H78.7114V140.314Z" fill="#76909E"/>
<path d="M98.8734 140.314H88.7355V150.44H98.8734V140.314Z" fill="#76909E"/>
<path d="M78.7114 155.445H68.5735V165.571H78.7114V155.445Z" fill="#76909E"/>
<path d="M98.8734 155.445H88.7355V165.571H98.8734V155.445Z" fill="#76909E"/>
<path d="M119.035 114.262H108.897V179.791H119.035V114.262Z" fill="#F1EAC6"/>
<path d="M23.1236 134.398H-1.93646V189.917H23.1236V134.398Z" fill="#F1EAC6"/>
<path d="M649.964 168.116L649.905 210.551L701.506 210.623L701.565 168.188L649.964 168.116Z" fill="#658294"/>
<path d="M643.588 210.509L668.42 167.732L693.139 210.509H643.588Z" fill="#D1CBBE"/>
<path d="M640.627 81.4972L631.286 68.3003L611.807 81.4972H640.627Z" fill="#658294"/>
<path d="M624.228 81.4373L624.208 96.2271L650.066 96.2617L650.086 81.4719L624.228 81.4373Z" fill="#88806D"/>
<path d="M605.857 96.1701L605.705 210.392L642.612 210.441L642.764 96.2193L605.857 96.1701Z" fill="#BAAD92"/>
<path d="M657.257 210.509H642.563L642.677 94.9219L657.485 97.0834L657.257 210.509Z" fill="#88806D"/>
<path d="M657.485 121.885L642.677 125.184V96.2871L657.485 94.1255V121.885Z" fill="#BAAD92"/>
<path d="M605.814 96.1598L605.777 123.805L642.683 123.855L642.721 96.2101L605.814 96.1598Z" fill="#D1CBBE"/>
<path d="M620.525 121.942L620.487 147.767L629.713 147.78L629.752 121.955L620.525 121.942Z" fill="#D1CBBE"/>
<path d="M611.351 81.4002L611.331 96.1899L640.833 96.2297L640.853 81.44L611.351 81.4002Z" fill="#C5BCAB"/>
<path d="M649.853 81.4973L631.286 68.6416L639.715 81.4973H649.853Z" fill="#4E6472"/>
<path d="M632.539 85.1377V91.5087" stroke="#58646A" stroke-width="0.5" stroke-miterlimit="10" stroke-linecap="round"/>
<path d="M627.071 85.1377V91.5087" stroke="#58646A" stroke-width="0.5" stroke-miterlimit="10" stroke-linecap="round"/>
<path d="M621.49 85.1377V91.5087" stroke="#58646A" stroke-width="0.5" stroke-miterlimit="10" stroke-linecap="round"/>
<path d="M630.716 103.568V116.537" stroke="#58646A" stroke-width="0.5" stroke-miterlimit="10" stroke-linecap="round"/>
<path d="M625.135 103.568V116.537" stroke="#58646A" stroke-width="0.5" stroke-miterlimit="10" stroke-linecap="round"/>
<path d="M619.667 103.568V116.537" stroke="#58646A" stroke-width="0.5" stroke-miterlimit="10" stroke-linecap="round"/>
<path d="M647.347 103.682V116.537" stroke="#58646A" stroke-width="0.5" stroke-miterlimit="10" stroke-linecap="round"/>
<path d="M651.106 102.885L650.992 115.741" stroke="#58646A" stroke-width="0.5" stroke-miterlimit="10" stroke-linecap="round"/>
<path d="M383.989 140.087H363.599V198.677H383.989V140.087Z" fill="#C0B7A4"/>
<path d="M371.345 140.087H259.03V198.677H371.345V140.087Z" fill="#E5E0D9"/>
<path d="M361.093 180.929H330.451V198.791H361.093V180.929Z" fill="#76909E"/>
<path d="M282.04 180.929H269.282V198.791H282.04V180.929Z" fill="#76909E"/>
<path d="M322.819 157.948H292.178V198.677H322.819V157.948Z" fill="#76909E"/>
<path d="M350.955 193.671H289.672V211.532H350.955V193.671Z" fill="#5EA66F"/>
<path d="M343.209 193.671H289.672V206.413H343.209V193.671Z" fill="#2F4F36"/>
<path d="M350.955 193.671H289.672V196.174H350.955V193.671Z" fill="#9AC8A4"/>
<path d="M265.409 152.829V157.948" stroke="#587988" stroke-width="1.69" stroke-miterlimit="10"/>
<path d="M273.041 152.829V157.948" stroke="#587988" stroke-width="1.69" stroke-miterlimit="10"/>
<path d="M278.167 152.829V157.948" stroke="#587988" stroke-width="1.69" stroke-miterlimit="10"/>
<path d="M283.293 152.829V157.948" stroke="#587988" stroke-width="1.69" stroke-miterlimit="10"/>
<path d="M265.409 163.068V170.69" stroke="#587988" stroke-width="1.69" stroke-miterlimit="10"/>
<path d="M273.041 163.068V170.69" stroke="#587988" stroke-width="1.69" stroke-miterlimit="10"/>
<path d="M278.167 163.068V170.69" stroke="#587988" stroke-width="1.69" stroke-miterlimit="10"/>
<path d="M283.293 163.068V170.69" stroke="#587988" stroke-width="1.69" stroke-miterlimit="10"/>
<path d="M336.83 152.829V157.948" stroke="#587988" stroke-width="1.69" stroke-miterlimit="10"/>
<path d="M344.462 152.829V157.948" stroke="#587988" stroke-width="1.69" stroke-miterlimit="10"/>
<path d="M349.588 152.829V157.948" stroke="#587988" stroke-width="1.69" stroke-miterlimit="10"/>
<path d="M354.714 152.829V157.948" stroke="#587988" stroke-width="1.69" stroke-miterlimit="10"/>
<path d="M336.83 163.068V170.69" stroke="#587988" stroke-width="1.69" stroke-miterlimit="10"/>
<path d="M344.462 163.068V170.69" stroke="#587988" stroke-width="1.69" stroke-miterlimit="10"/>
<path d="M349.588 163.068V170.69" stroke="#587988" stroke-width="1.69" stroke-miterlimit="10"/>
<path d="M354.714 163.068V170.69" stroke="#587988" stroke-width="1.69" stroke-miterlimit="10"/>
<path d="M893.847 264.435H844.638V292.08H893.847V264.435Z" fill="#B3B2B2"/>
<path d="M875.394 264.435H832.336V292.08H875.394V264.435Z" fill="#E5E5E4"/>
<path d="M890.202 249.076H839.626L827.78 264.434H898.745L890.202 249.076Z" fill="#E47F84"/>
<path d="M846.119 270.578V276.721" stroke="#9B7E67" stroke-miterlimit="10" stroke-linecap="round"/>
<path d="M852.27 270.578V276.721" stroke="#9B7E67" stroke-miterlimit="10" stroke-linecap="round"/>
<path d="M858.422 270.578V276.721" stroke="#9B7E67" stroke-miterlimit="10" stroke-linecap="round"/>
<path d="M864.573 270.578V276.721" stroke="#9B7E67" stroke-miterlimit="10" stroke-linecap="round"/>
<path d="M787.114 273.649H740.981V304.367H787.114V273.649Z" fill="#B3B2B2"/>
<path d="M768.661 273.649H725.603V304.367H768.661V273.649Z" fill="#E5E5E4"/>
<path d="M784.722 261.363H734.146L722.3 273.65H793.151L784.722 261.363Z" fill="#E47F84"/>
<path d="M739.386 282.865V289.008" stroke="#9B7E67" stroke-miterlimit="10" stroke-linecap="round"/>
<path d="M745.537 282.865V289.008" stroke="#9B7E67" stroke-miterlimit="10" stroke-linecap="round"/>
<path d="M751.688 282.865V289.008" stroke="#9B7E67" stroke-miterlimit="10" stroke-linecap="round"/>
<path d="M753.397 300.498H707.264V331.215H753.397V300.498Z" fill="#B3B2B2"/>
<path d="M734.944 300.498H691.886V331.215H734.944V300.498Z" fill="#E5E5E4"/>
<path d="M751.005 288.211H700.429L688.582 300.498H759.434L751.005 288.211Z" fill="#E47F84"/>
<path d="M705.783 309.713V315.857" stroke="#9B7E67" stroke-miterlimit="10" stroke-linecap="round"/>
<path d="M711.934 309.713V315.857" stroke="#9B7E67" stroke-miterlimit="10" stroke-linecap="round"/>
<path d="M718.085 309.713V315.857" stroke="#9B7E67" stroke-miterlimit="10" stroke-linecap="round"/>
<path d="M757.839 282.865V289.008" stroke="#9B7E67" stroke-miterlimit="10" stroke-linecap="round"/>
<path d="M847.714 313.468H757.498L774.47 203H831.311L847.714 313.468Z" fill="#E5E5E4"/>
<path d="M769.914 203.91C769.914 185.708 784.722 170.918 802.948 170.918C821.173 170.918 835.981 185.708 835.981 203.91" fill="#758AA0"/>
<path d="M818.895 203L831.767 313.468H847.714L831.311 203H818.895Z" fill="#B3B2B2"/>
<path d="M470.218 159.313V180.247" stroke="#C4C4C3" stroke-width="2.41" stroke-miterlimit="10" stroke-linecap="round"/>
<path d="M493.228 184.456H434.564V276.607H493.228V184.456Z" fill="#C4C4C3"/>
<path d="M493.228 196.97H426.135V205.389H493.228V196.97Z" fill="#E0E0E0"/>
<path d="M493.228 213.694H426.135V222.113H493.228V213.694Z" fill="#E0E0E0"/>
<path d="M493.228 234.627H426.135V243.046H493.228V234.627Z" fill="#E0E0E0"/>
<path d="M493.228 251.465H426.135V263.979H493.228V251.465Z" fill="#E0E0E0"/>
<path d="M530.932 180.247H426.135V184.456H530.932V180.247Z" fill="#A8A8A8"/>
<path d="M526.717 184.456H493.228V276.607H526.717V184.456Z" fill="#A8A8A8"/>
<path d="M530.932 196.97H493.228V205.389H530.932V196.97Z" fill="#C4C4C3"/>
<path d="M530.932 213.694H493.228V222.113H530.932V213.694Z" fill="#C4C4C3"/>
<path d="M530.932 234.627H493.228V243.046H530.932V234.627Z" fill="#C4C4C3"/>
<path d="M530.932 251.465H493.228V263.979H530.932V251.465Z" fill="#C4C4C3"/>
<path d="M455.524 206.072H451.309V214.49H455.524V206.072Z" fill="#76909E"/>
<path d="M463.953 206.072H459.738V214.49H463.953V206.072Z" fill="#76909E"/>
<path d="M472.268 206.072H468.054V214.49H472.268V206.072Z" fill="#76909E"/>
<path d="M484.912 206.072H480.698V214.49H484.912V206.072Z" fill="#76909E"/>
<path d="M455.524 222.113H451.309V234.627H455.524V222.113Z" fill="#76909E"/>
<path d="M463.953 222.113H459.738V234.627H463.953V222.113Z" fill="#76909E"/>
<path d="M472.268 222.113H468.054V234.627H472.268V222.113Z" fill="#76909E"/>
<path d="M484.912 222.113H480.698V234.627H484.912V222.113Z" fill="#76909E"/>
<path d="M455.524 243.729H451.309V252.147H455.524V243.729Z" fill="#76909E"/>
<path d="M463.953 243.729H459.738V252.147H463.953V243.729Z" fill="#76909E"/>
<path d="M472.268 243.729H468.054V252.147H472.268V243.729Z" fill="#76909E"/>
<path d="M484.912 243.729H480.698V252.147H484.912V243.729Z" fill="#76909E"/>
<path d="M455.524 184.456H451.309V196.97H455.524V184.456Z" fill="#76909E"/>
<path d="M463.953 184.456H459.738V196.97H463.953V184.456Z" fill="#76909E"/>
<path d="M472.268 184.456H468.054V196.97H472.268V184.456Z" fill="#76909E"/>
<path d="M484.912 184.456H480.698V196.97H484.912V184.456Z" fill="#76909E"/>
<path d="M476.597 269.44L451.651 251.351L409.618 253.058L401.303 272.057L419.301 272.512" fill="#9CB72A"/>
<path d="M474.267 267.809L399.322 268.79L399.634 292.565L474.579 291.584L474.267 267.809Z" fill="#968973"/>
<path d="M474.381 267.714L419.824 268.428L420.136 292.203L474.693 291.489L474.381 267.714Z" fill="#B4A996"/>
<path d="M458.485 265.8L447.436 258.063" stroke="#BFD064" stroke-width="1.7" stroke-miterlimit="10" stroke-linecap="round"/>
<path d="M444.361 266.027L433.311 258.291" stroke="#BFD064" stroke-width="1.7" stroke-miterlimit="10" stroke-linecap="round"/>
<path d="M430.236 266.141L419.187 258.519" stroke="#BFD064" stroke-width="1.7" stroke-miterlimit="10" stroke-linecap="round"/>
<path d="M502.454 279.679C502.454 283.775 505.872 287.074 509.972 287.074C514.073 287.074 517.377 283.661 517.377 279.565C517.377 275.47 513.959 272.17 509.858 272.17C505.758 272.17 502.454 275.583 502.454 279.679Z" fill="#D85F64"/>
<path d="M483.659 279.907C483.659 284.002 487.077 287.301 491.177 287.301C495.278 287.301 498.582 283.888 498.582 279.793C498.582 275.697 495.164 272.398 491.064 272.398C486.849 272.398 483.545 275.811 483.659 279.907Z" fill="#D85F64"/>
<path d="M469.535 284.912C469.535 289.008 472.952 292.307 477.053 292.307C481.153 292.307 484.457 288.894 484.457 284.799C484.457 280.703 481.039 277.404 476.939 277.404C472.838 277.404 469.535 280.703 469.535 284.912Z" fill="#D85F64"/>
<path d="M460.08 280.248C460.08 284.343 463.497 287.643 467.598 287.643C471.699 287.643 475.002 284.23 475.002 280.134C475.002 276.038 471.585 272.739 467.484 272.739C463.384 272.739 460.08 276.038 460.08 280.248C460.08 280.134 460.08 280.134 460.08 280.248Z" fill="#D85F64"/>
<path d="M464.636 270.692C464.636 274.787 468.054 278.087 472.155 278.087C476.255 278.087 479.559 274.674 479.559 270.578C479.559 266.482 476.141 263.183 472.041 263.183C467.94 263.183 464.636 266.596 464.636 270.692Z" fill="#D85F64"/>
<path d="M507.239 284.344C507.239 288.439 510.656 291.738 514.757 291.738C518.857 291.738 522.161 288.325 522.161 284.23C522.161 280.134 518.744 276.835 514.643 276.835C510.542 276.835 507.239 280.248 507.239 284.344Z" fill="#E7757B"/>
<path d="M497.898 284.457C497.898 288.553 501.315 291.852 505.416 291.852C509.517 291.852 512.82 288.439 512.82 284.344C512.82 280.248 509.403 276.949 505.302 276.949C501.202 276.949 497.898 280.362 497.898 284.457Z" fill="#E7757B"/>
<path d="M493 275.014C493.114 279.11 496.417 282.409 500.518 282.295C504.619 282.182 507.922 278.882 507.808 274.787C507.694 270.691 504.391 267.392 500.29 267.506C496.303 267.506 493 270.919 493 275.014Z" fill="#E7757B"/>
<path d="M474.205 275.356C474.319 279.451 477.622 282.751 481.723 282.637C485.824 282.523 489.127 279.224 489.013 275.128C488.899 271.033 485.596 267.733 481.495 267.847C477.394 267.847 474.091 271.146 474.205 275.356C474.205 275.242 474.205 275.242 474.205 275.356Z" fill="#E7757B"/>
<path d="M450.626 280.362C450.626 284.457 454.043 287.756 458.144 287.756C462.245 287.756 465.548 284.343 465.548 280.248C465.548 276.152 462.131 272.853 458.03 272.853C453.929 272.853 450.626 276.152 450.626 280.362Z" fill="#E7757B"/>
<path d="M483.545 270.464C483.545 274.56 486.963 277.859 491.064 277.859C495.164 277.859 498.468 274.446 498.468 270.35C498.468 266.255 495.05 262.956 490.95 262.956C486.735 262.956 483.432 266.369 483.545 270.464Z" fill="#E7757B"/>
<path d="M522.244 284.191L447.299 285.171L447.568 305.647L522.513 304.667L522.244 284.191Z" fill="#968973"/>
<path d="M522.359 284.209L467.802 284.923L468.071 305.399L522.628 304.685L522.359 284.209Z" fill="#B4A996"/>
<path d="M534.691 291.283C534.805 296.972 539.361 301.409 545.057 301.409C550.752 301.295 555.195 296.744 555.195 291.056C555.081 285.368 550.524 280.931 544.829 280.931C539.133 281.044 534.577 285.709 534.691 291.283Z" fill="#E2A346"/>
<path d="M520.452 286.846C520.566 292.535 525.122 296.972 530.818 296.972C536.513 296.858 540.956 292.307 540.956 286.619C540.842 280.931 536.286 276.494 530.59 276.494C524.895 276.494 520.338 281.158 520.452 286.846C520.452 286.733 520.452 286.733 520.452 286.846Z" fill="#F3B963"/>
<path d="M506.327 286.96C506.441 292.649 510.998 297.085 516.693 297.085C522.389 297.085 526.831 292.421 526.831 286.733C526.831 281.044 522.161 276.607 516.465 276.607C510.77 276.721 506.213 281.272 506.327 286.96Z" fill="#E2A346"/>
<path d="M515.896 296.289C516.01 301.977 520.566 306.414 526.262 306.414C531.957 306.3 536.4 301.75 536.4 296.061C536.286 290.487 531.729 285.936 526.034 285.936C520.338 286.05 515.782 290.6 515.896 296.289Z" fill="#F3B963"/>
<path d="M530.021 296.061C530.134 301.75 534.691 306.187 540.386 306.187C546.082 306.073 550.524 301.522 550.524 295.834C550.41 290.145 545.854 285.708 540.159 285.708C534.463 285.822 529.907 290.487 530.021 296.061Z" fill="#E2A346"/>
<path d="M496.987 296.516C497.101 302.205 501.657 306.642 507.353 306.642C513.048 306.528 517.491 301.977 517.491 296.289C517.377 290.6 512.82 286.164 507.125 286.164C501.429 286.277 496.987 290.942 496.987 296.516Z" fill="#E2A346"/>
<path d="M570.199 297.159L495.255 298.14L495.523 318.616L570.468 317.635L570.199 297.159Z" fill="#968973"/>
<path d="M570.201 297.179L515.643 297.893L515.912 318.369L570.469 317.655L570.201 297.179Z" fill="#B4A996"/>
<path d="M1235.35 18.129C1235.35 26.434 1228.63 33.26 1220.31 33.26C1212 33.26 1205.16 26.5478 1205.16 18.2428C1205.16 9.93779 1211.88 3.11178 1220.2 3.11178H1220.31C1228.63 2.99801 1235.35 9.71026 1235.35 18.129Z" fill="#7FA588"/>
<path d="M1217.69 31.6672C1217.69 39.5171 1211.31 45.888 1203.45 45.888C1195.59 45.888 1189.21 39.5171 1189.21 31.6672C1189.21 23.8172 1195.59 17.4463 1203.45 17.4463C1211.31 17.5601 1217.69 23.931 1217.69 31.6672Z" fill="#7FA588"/>
<path d="M1251.18 25.7511C1251.18 33.146 1245.14 39.0619 1237.85 39.0619C1230.56 39.0619 1224.53 33.0322 1224.53 25.7511C1224.53 18.3563 1230.56 12.4404 1237.85 12.4404C1245.14 12.4404 1251.18 18.3563 1251.18 25.7511Z" fill="#7FA588"/>
<path d="M1217.69 29.0508V52.9418" stroke="#92745F" stroke-miterlimit="10" stroke-linecap="round"/>
<path d="M1236.83 33.8286V52.9415" stroke="#92745F" stroke-miterlimit="10" stroke-linecap="round"/>
<path d="M1201.74 39.9722V58.1749" stroke="#92745F" stroke-miterlimit="10" stroke-linecap="round"/>
<path d="M1217.69 62.7256H1204.02V164.547H1217.69V62.7256Z" fill="#A8A8A8"/>
<path d="M1224.98 57.7197H1210.63V163.637H1224.98V57.7197Z" fill="#8C8C8C"/>
<path d="M1234.44 57.7197H1224.87V163.637H1234.44V57.7197Z" fill="#A8A8A8"/>
<path d="M1244 48.1636H1191.49V57.72H1244V48.1636Z" fill="#8C8C8C"/>
<path d="M1253.46 163.637H1181.92V173.193H1253.46V163.637Z" fill="#E7DBC6"/>
<path d="M1266.45 173.193H1172.47V182.75H1266.45V173.193Z" fill="#D0B592"/>
<path d="M1215.53 179.792H1169.74V204.251H1215.53V179.792Z" fill="#E0E0E0"/>
<path d="M1213.02 167.619H1174.29L1165.29 179.792H1219.4L1213.02 167.619Z" fill="#E5727A"/>
<path d="M1206.41 185.935H1200.26V195.036H1206.41V185.935Z" fill="#C4C4C3"/>
<path d="M1249.02 194.126H1203.23V218.586H1249.02V194.126Z" fill="#E0E0E0"/>
<path d="M1246.4 181.953H1207.78L1198.78 194.126H1252.89L1246.4 181.953Z" fill="#E5727A"/>
<path d="M1215.41 200.27H1209.26V209.371H1215.41V200.27Z" fill="#C4C4C3"/>
<path d="M1227.72 200.27H1221.56V209.371H1227.72V200.27Z" fill="#C4C4C3"/>
<path d="M1239.9 200.27H1233.75V209.371H1239.9V200.27Z" fill="#C4C4C3"/>
<path d="M954.789 180.474V209.143" stroke="#FADEA1" stroke-miterlimit="10" stroke-linecap="round"/>
<path d="M972.331 241.112V210.167C972.331 200.611 964.585 192.875 955.016 192.761C954.903 192.761 954.789 192.761 954.675 192.761C944.879 192.875 937.019 200.952 937.133 210.622V240.998" fill="#FADB93"/>
<path d="M959.573 193.785V237.926H972.331V210.167C973.128 202.203 967.547 195.036 959.573 193.785Z" fill="#D7B563"/>
<path d="M978.71 225.071H927.678V349.418H978.71V225.071Z" fill="#EFC56F"/>
<path d="M978.71 225.071H962.762V349.418H978.71V225.071Z" fill="#B39858"/>
<path d="M927.678 239.519H978.71" stroke="#CFAA53" stroke-miterlimit="10" stroke-linecap="round"/>
<path d="M927.678 258.632H978.71" stroke="#CFAA53" stroke-miterlimit="10" stroke-linecap="round"/>
<path d="M927.678 271.374H978.71" stroke="#CFAA53" stroke-miterlimit="10" stroke-linecap="round"/>
<path d="M927.678 293.672H978.71" stroke="#CFAA53" stroke-miterlimit="10" stroke-linecap="round"/>
<path d="M927.678 306.414H978.71" stroke="#CFAA53" stroke-miterlimit="10" stroke-linecap="round"/>
<path d="M946.815 327.12H940.436V349.418H946.815V327.12Z" fill="#CCA13A"/>
<path d="M940.778 323.82V336.904H930.868V323.82H914.92V377.632H958.776V323.82H940.778Z" fill="#E4B853"/>
<path d="M970.736 323.82H958.776V377.518H970.736V323.82Z" fill="#CFAA53"/>
<path d="M1036.23 269.781H1017.1V339.862H1036.23V269.781Z" fill="#B39858"/>
<path d="M1017.1 269.781H1001.15V378.201H1017.1V269.781Z" fill="#D7B563"/>
<path d="M1029.85 231.441H1017.1V269.667H1029.85V231.441Z" fill="#B39858"/>
<path d="M1017.1 231.441H1004.34V269.667H1017.1V231.441Z" fill="#D7B563"/>
<path d="M1042.5 263.41H994.657V269.781H1042.5V263.41Z" fill="#AB9C78"/>
<path d="M1042.5 269.781H994.657V276.152H1042.5V269.781Z" fill="#C0B18A"/>
<path d="M1004.57 232.807C1004.57 224.729 1017.67 218.358 1017.67 218.358C1017.67 218.358 1030.77 224.729 1030.77 232.807" fill="#8FA6B1"/>
<path d="M1088.86 241.112V276.152" stroke="#DCA859" stroke-miterlimit="10" stroke-linecap="round"/>
<path d="M1031.11 315.743C1031.11 282.523 1058.1 255.674 1091.25 255.674C1124.4 255.674 1151.4 282.523 1151.4 315.743" fill="#DCA859"/>
<path d="M1090.45 265.686C1068.13 265.686 1050.13 285.708 1050.13 304.821H1090.45V265.686Z" fill="#E2B977"/>
<path d="M1096.83 378.884L1017.1 356.358V311.192H1096.83V378.884Z" fill="#8FA6B1"/>
<path d="M1163.81 356.358L1090.45 378.884V311.192H1163.81V356.358Z" fill="#76909E"/>
<path d="M992.607 333.491V346.46H982.583V333.491H966.749V387.189H1010.49V333.491H992.607Z" fill="#EFC56F"/>
<path d="M1022.45 333.491H1010.49V387.189H1022.45V333.491Z" fill="#D7B563"/>
<path d="M1045.35 333.491V346.46H1035.44V333.491H1019.49V387.189H1063.23V333.491H1045.35Z" fill="#EFC56F"/>
<path d="M1075.19 333.491H1063.23V387.189H1075.19V333.491Z" fill="#D7B563"/>
<path d="M1101.05 333.491V346.46H1091.14V333.491H1075.19V387.189H1119.05V333.491H1101.05Z" fill="#EFC56F"/>
<path d="M1131.01 333.491H1119.05V387.189H1131.01V333.491Z" fill="#D7B563"/>
<path d="M1152.88 323.82V336.904H1142.85V323.82H1127.02V377.632H1170.76V323.82H1152.88Z" fill="#E4B853"/>
<path d="M1182.72 323.82H1170.76V377.518H1182.72V323.82Z" fill="#CFAA53"/>
<path d="M1127.02 373.537H1119.16L1040.68 373.764H1032.7C1022.45 373.764 1014.14 384.686 1014.14 395.721L1035.09 395.608L1124.63 395.38L1145.59 395.266C1145.59 384.572 1137.27 373.537 1127.02 373.537Z" fill="#E0E0E0"/>
<path d="M1015.73 386.961H1031.56V373.878C1024.5 374.447 1018.58 379.908 1015.73 386.961Z" fill="#76909E"/>
<path d="M1053.53 378.078L1044.76 378.099L1044.8 395.619L1053.57 395.598L1053.53 378.078Z" fill="#76909E"/>
<path d="M1079.96 377.964L1071.19 377.986L1071.23 395.506L1080 395.484L1079.96 377.964Z" fill="#76909E"/>
<path d="M1106.15 377.963L1097.38 377.988L1097.43 395.508L1106.2 395.483L1106.15 377.963Z" fill="#76909E"/>
<path d="M1132.58 377.851L1123.81 377.871L1123.85 395.391L1132.62 395.371L1132.58 377.851Z" fill="#76909E"/>
<path d="M1070.97 378.068L1053.43 378.109L1053.45 386.869L1070.99 386.828L1070.97 378.068Z" fill="#A9BBC4"/>
<path d="M1044.77 378.185L1031.56 378.22L1031.58 386.98L1044.79 386.945L1044.77 378.185Z" fill="#A9BBC4"/>
<path d="M1097.4 378.068L1079.85 378.109L1079.87 386.869L1097.42 386.828L1097.4 378.068Z" fill="#A9BBC4"/>
<path d="M1123.82 377.839L1106.28 377.883L1106.3 386.643L1123.84 386.599L1123.82 377.839Z" fill="#A9BBC4"/>
<path d="M1258.7 373.195H1250.73L1172.13 373.423H1164.15C1153.9 373.423 1145.59 384.344 1145.59 395.38L1166.55 395.266L1256.19 395.152L1277.15 395.039C1277.27 384.117 1268.95 373.195 1258.7 373.195Z" fill="#E0E0E0"/>
<path d="M1147.41 386.62H1163.24V373.537C1156.29 374.105 1150.26 379.68 1147.41 386.62Z" fill="#76909E"/>
<path d="M1185.21 377.737L1176.44 377.757L1176.48 395.277L1185.25 395.257L1185.21 377.737Z" fill="#76909E"/>
<path d="M1211.41 377.736L1202.64 377.759L1202.68 395.279L1211.45 395.256L1211.41 377.736Z" fill="#76909E"/>
<path d="M1237.83 377.621L1229.06 377.646L1229.11 395.167L1237.88 395.142L1237.83 377.621Z" fill="#76909E"/>
<path d="M1264.15 377.623L1255.38 377.644L1255.42 395.164L1264.19 395.143L1264.15 377.623Z" fill="#76909E"/>
<path d="M1202.76 377.727L1185.22 377.768L1185.24 386.528L1202.78 386.487L1202.76 377.727Z" fill="#A9BBC4"/>
<path d="M1176.34 377.847L1163.12 377.874L1163.14 386.634L1176.35 386.607L1176.34 377.847Z" fill="#A9BBC4"/>
<path d="M1228.96 377.727L1211.42 377.768L1211.44 386.528L1228.98 386.487L1228.96 377.727Z" fill="#A9BBC4"/>
<path d="M1255.5 377.614L1237.96 377.652L1237.98 386.412L1255.52 386.374L1255.5 377.614Z" fill="#A9BBC4"/>
<path d="M109.809 239.747C109.809 244.07 105.594 247.483 101.835 247.483C98.076 247.483 93.8613 243.956 93.8613 239.747C93.8613 235.424 98.076 223.137 101.835 223.137C105.594 223.137 109.809 235.537 109.809 239.747Z" fill="#406E60"/>
<path d="M102.063 244.639V251.351" stroke="#9B7F68" stroke-miterlimit="10" stroke-linecap="round"/>
<path d="M98.8734 240.088L101.949 244.752L104.227 240.202" stroke="#9B7F68" stroke-miterlimit="10" stroke-linecap="round"/>
<path d="M77.2306 255.901C77.2306 260.225 75.1802 263.638 72.6742 263.638C70.1682 263.638 68.1178 260.111 68.1178 255.901C68.1178 251.578 70.1682 224.388 72.6742 224.388C75.1802 224.274 77.2306 251.578 77.2306 255.901Z" fill="#CFDB77"/>
<path d="M72.7881 260.68V267.392" stroke="#B79B88" stroke-miterlimit="10" stroke-linecap="round"/>
<path d="M71.1934 258.518L72.6742 260.793L73.8133 258.518" stroke="#B79B88" stroke-miterlimit="10" stroke-linecap="round"/>
<path d="M44.7664 241.34C44.7664 244.98 40.324 247.938 37.1345 247.824C33.945 247.824 29.5026 244.866 29.5026 241.226C29.5026 237.585 33.945 231.101 37.1345 231.101C40.324 231.214 44.7664 237.699 44.7664 241.34Z" fill="#27313F"/>
<path d="M37.5901 244.98V251.692" stroke="#576466" stroke-miterlimit="10" stroke-linecap="round" stroke-linejoin="round"/>
<path d="M34.4007 240.43L37.3623 245.094L39.7544 240.543" stroke="#576466" stroke-miterlimit="10" stroke-linecap="round" stroke-linejoin="round"/>
<path d="M245.93 270.122L229.528 258.859C226.224 256.584 222.465 256.47 220.187 259.77C217.909 263.069 219.504 266.482 222.807 268.757L239.21 280.02" fill="#EFEEEE"/>
<path d="M193.077 337.472C193.646 298.905 225.427 268.188 264.042 268.757C301.86 269.326 332.274 299.816 332.843 337.472" fill="#EFEEEE"/>
<path d="M226.338 339.407C226.794 318.701 243.994 302.205 264.725 302.546C284.887 303.001 301.176 319.156 301.632 339.407" fill="#27343A"/>
<path d="M237.957 279.907C237.957 285.822 233.173 290.714 227.135 290.714C221.212 290.714 216.314 285.936 216.314 279.907C216.314 273.991 221.098 269.099 227.135 269.099C233.173 269.099 237.957 273.877 237.957 279.907Z" fill="#27343A"/>
<path d="M310.745 282.523C310.745 288.439 305.961 293.331 299.923 293.331C294 293.331 289.102 288.553 289.102 282.523C289.102 276.607 293.886 271.715 299.923 271.715C305.961 271.829 310.745 276.607 310.745 282.523Z" fill="#27343A"/>
<path d="M308.467 282.523C308.467 287.188 304.594 291.056 299.923 291.056C295.253 291.056 291.38 287.188 291.38 282.523C291.38 277.859 295.253 273.991 299.923 273.991C304.708 273.991 308.467 277.859 308.467 282.523Z" fill="#EFEEEE"/>
<path d="M305.847 282.523C305.847 285.709 303.227 288.325 300.037 288.325C296.848 288.325 294.228 285.709 294.228 282.523C294.228 279.338 296.848 276.721 300.037 276.721C303.227 276.721 305.847 279.338 305.847 282.523Z" fill="#27343A"/>
<path d="M233.97 279.907C233.97 283.661 230.894 286.619 227.249 286.619C223.604 286.619 220.529 283.547 220.529 279.907C220.529 276.266 223.604 273.194 227.249 273.194C230.894 273.081 233.97 276.152 233.97 279.907Z" fill="#EFEEEE"/>
<path d="M231.236 279.907C231.236 282.182 229.414 283.889 227.135 283.889C224.857 283.889 223.149 282.068 223.149 279.793C223.149 277.518 224.971 275.811 227.249 275.811C229.414 275.811 231.236 277.631 231.236 279.907Z" fill="#C5A479"/>
<path d="M287.052 300.157C287.052 307.324 276.572 313.126 263.7 313.126C250.829 313.126 240.349 307.324 240.349 300.157C240.349 292.99 250.829 287.188 263.7 287.188C276.572 287.188 287.052 292.99 287.052 300.157Z" fill="#E5727A"/>
<path d="M260.397 302.66V354.879" stroke="#E5727A" stroke-width="4.38" stroke-miterlimit="10" stroke-linecap="round"/>
<path d="M308.353 344.526C288.533 344.526 272.471 328.485 272.471 308.689" stroke="#E5727A" stroke-width="4.38" stroke-miterlimit="10" stroke-linecap="round"/>
<path d="M217.225 344.526C237.046 344.526 253.107 328.485 253.107 308.689" stroke="#E5727A" stroke-width="4.38" stroke-miterlimit="10" stroke-linecap="round"/>
<path d="M289.216 278.086L299.468 261.021C301.518 257.608 301.518 253.854 298.101 251.806C294.684 249.758 291.38 251.465 289.216 254.992L278.964 272.057" fill="#EFEEEE"/>
<path d="M316.896 306.187L335.121 298.223C338.767 296.63 340.931 293.445 339.336 289.804C337.741 286.164 333.982 285.595 330.337 287.187L312.112 295.151" fill="#EFEEEE"/>
<path d="M205.834 299.247L186.128 296.289C182.141 295.72 178.724 297.199 178.154 301.067C177.585 304.935 180.433 307.438 184.419 308.007L204.126 310.965" fill="#EFEEEE"/>
<path d="M280.673 304.48C280.673 309.258 273.041 313.127 263.7 313.127C254.36 313.127 246.728 309.258 246.728 304.48C246.728 299.702 254.36 295.834 263.7 295.834C273.041 295.834 280.673 299.702 280.673 304.48Z" fill="#27343A"/>
<path d="M647.575 256.015C647.575 256.015 649.17 256.356 649.967 257.949C650.878 259.542 650.081 261.135 649.967 261.135C649.853 261.021 647.917 259.428 647.575 256.015Z" fill="#BC6437"/>
<path d="M649.967 261.021C650.081 261.021 650.309 260.68 650.423 259.997C649.853 261.248 649.284 256.584 648.145 256.356C647.803 256.356 648.258 257.494 648.258 257.949C648.714 260.111 649.853 261.021 649.967 261.021Z" fill="#E6855A"/>
<path d="M632.995 245.208L631.4 244.184C631.4 244.184 631.286 245.89 632.995 246.118V245.208Z" fill="#BC6437"/>
<path d="M632.767 246.004V245.776C631.742 245.435 631.4 244.184 631.4 244.184C631.4 244.184 631.4 245.776 632.767 246.004Z" fill="#E6855A"/>
<path d="M632.767 245.207C632.767 245.207 632.767 245.094 632.767 244.866C632.767 244.639 632.653 244.297 632.425 243.956C632.311 243.842 632.197 243.615 631.969 243.501C631.856 243.387 631.628 243.273 631.286 243.273C631.058 243.273 630.717 243.16 630.489 243.046C630.147 242.932 629.919 242.818 629.691 242.591C629.464 242.363 629.236 242.136 629.122 241.908C629.008 241.681 628.894 241.339 628.78 241.112C628.552 240.543 628.438 240.088 628.438 239.633C628.324 238.836 628.211 238.154 628.211 238.154C628.211 238.04 628.211 238.04 628.324 238.04C628.438 238.04 628.438 238.04 628.438 238.154C628.438 238.154 628.438 238.723 628.666 239.519C628.78 239.974 628.894 240.429 629.122 240.884C629.236 241.112 629.35 241.339 629.464 241.567C629.577 241.794 629.691 242.022 629.919 242.136C630.147 242.249 630.375 242.363 630.603 242.477C630.83 242.591 631.172 242.591 631.4 242.591C631.628 242.591 631.969 242.704 632.197 242.818C632.425 242.932 632.653 243.16 632.767 243.387C632.995 243.842 633.109 244.183 633.222 244.411C633.222 244.639 633.222 244.866 633.222 244.866C633.222 244.98 633.109 245.094 632.995 245.094C632.881 245.549 632.767 245.435 632.767 245.207Z" fill="#AB542D"/>
<path d="M632.767 245.094C632.767 244.98 632.767 244.98 632.767 244.866C632.767 244.752 632.767 244.525 632.767 244.183C632.767 243.956 632.653 243.615 632.539 243.273C632.425 242.932 632.197 242.591 631.969 242.249C631.628 241.453 631.4 240.77 631.286 240.088C631.172 239.519 631.172 239.064 631.172 239.064C631.172 239.064 631.172 238.95 631.286 238.95C631.286 238.95 631.4 238.95 631.4 239.064C631.4 239.064 631.4 239.405 631.514 239.974C631.628 240.543 631.856 241.339 632.311 242.022C632.539 242.363 632.767 242.704 632.881 243.046C633.109 243.387 633.222 243.728 633.222 244.07C633.336 244.411 633.336 244.639 633.336 244.866C633.336 244.98 633.336 245.094 633.336 245.094C633.336 245.207 633.336 245.207 633.336 245.207C633.336 245.321 633.109 245.435 632.995 245.321C632.881 245.321 632.767 245.207 632.767 245.094Z" fill="#AB542D"/>
<path d="M631.742 241.681C631.742 241.681 631.514 241.567 631.286 241.339C631.058 241.112 630.716 240.657 630.602 240.315C630.375 239.86 630.261 239.519 630.147 239.178C630.033 238.836 630.033 238.609 630.033 238.609C630.033 238.609 630.033 238.495 630.147 238.495C630.147 238.495 630.261 238.495 630.261 238.609C630.261 238.609 630.261 238.836 630.375 239.178C630.489 239.519 630.603 239.86 630.83 240.315C631.058 240.657 631.286 240.998 631.514 241.225C631.628 241.339 631.742 241.453 631.855 241.453C631.969 241.453 631.969 241.567 631.969 241.567C632.083 241.567 632.083 241.681 632.083 241.794C631.969 241.681 631.855 241.681 631.742 241.681Z" fill="#AB542D"/>
<path d="M631.514 240.77C631.514 240.77 631.514 240.657 631.628 240.429C631.628 240.202 631.742 239.974 631.742 239.633C631.856 239.064 631.856 238.495 631.856 238.495C631.856 238.495 631.856 239.064 631.856 239.633C631.856 239.86 631.742 240.202 631.742 240.429C631.742 240.657 631.628 240.77 631.628 240.77C631.628 240.884 631.514 240.884 631.514 240.884C631.628 240.998 631.514 240.884 631.514 240.77C631.514 240.884 631.514 240.884 631.514 240.77Z" fill="#AB542D"/>
<path d="M630.147 242.932C630.147 242.932 630.147 242.932 630.033 242.818C629.919 242.704 629.805 242.591 629.805 242.363C629.691 241.908 629.463 241.339 629.463 240.77C629.463 240.202 629.463 239.633 629.463 239.178C629.577 238.723 629.577 238.495 629.577 238.495L629.691 238.381L629.805 238.495C629.805 238.495 629.691 238.723 629.691 239.178C629.691 239.633 629.577 240.088 629.691 240.657C629.691 241.225 629.919 241.794 630.033 242.136C630.147 242.363 630.147 242.477 630.261 242.591C630.375 242.704 630.375 242.704 630.375 242.704C630.489 242.818 630.375 242.818 630.375 242.932C630.261 243.046 630.147 243.046 630.147 242.932Z" fill="#AB542D"/>
<path d="M628.78 240.884C628.78 240.884 628.666 240.77 628.438 240.543C628.21 240.315 627.983 240.088 627.869 239.747C627.641 239.405 627.527 239.064 627.527 238.836C627.413 238.609 627.413 238.381 627.413 238.381V238.268H627.527C627.527 238.268 627.527 238.381 627.641 238.723C627.755 238.95 627.869 239.292 628.097 239.519C628.324 239.747 628.552 240.088 628.666 240.202C628.894 240.315 629.008 240.429 629.008 240.429C629.122 240.429 629.122 240.543 629.122 240.657C629.122 240.77 628.894 240.884 628.78 240.884Z" fill="#AB542D"/>
<path d="M631.514 243.273C631.4 243.273 631.514 243.273 631.514 243.273C631.4 243.16 631.4 243.16 631.286 243.046C631.172 242.932 631.058 242.705 631.058 242.477C630.944 242.022 630.944 241.567 630.944 241.567C630.944 241.567 630.944 241.453 631.058 241.453C631.058 241.453 631.172 241.453 631.172 241.567C631.172 241.567 631.286 242.022 631.4 242.363C631.514 242.591 631.628 242.705 631.742 242.818L631.856 242.932C631.97 242.932 631.97 243.046 631.856 243.16C631.742 243.273 631.514 243.387 631.514 243.273Z" fill="#AB542D"/>
<path d="M633.792 245.207V245.094C633.792 244.98 633.906 244.866 633.906 244.638C634.02 244.297 634.362 243.842 634.931 243.501C635.159 243.387 635.501 243.16 635.842 243.16C636.184 243.046 636.526 243.046 636.867 243.046C637.551 242.932 638.348 242.932 639.032 242.818C639.373 242.704 639.715 242.591 640.057 242.477C640.399 242.249 640.626 242.136 640.854 241.794C641.082 241.567 641.31 241.339 641.538 240.998C641.766 240.77 641.879 240.429 641.993 240.202C642.221 239.747 642.449 239.291 642.449 238.95C642.563 238.609 642.563 238.495 642.563 238.495C642.563 238.381 642.677 238.381 642.677 238.381C642.791 238.381 642.791 238.495 642.791 238.495C642.791 238.495 642.791 238.723 642.677 239.064C642.563 239.405 642.449 239.86 642.221 240.429C642.107 240.657 641.993 240.998 641.766 241.226C641.538 241.453 641.31 241.794 641.082 242.022C640.854 242.249 640.513 242.591 640.171 242.704C639.829 242.932 639.487 243.046 639.032 243.16C638.234 243.387 637.437 243.387 636.754 243.501C636.412 243.501 636.07 243.615 635.728 243.728C635.387 243.842 635.159 243.956 634.931 244.07C634.475 244.411 634.248 244.752 634.134 244.98C634.02 245.094 634.02 245.207 634.02 245.321C634.02 245.435 634.02 245.435 634.02 245.435C634.02 245.549 633.906 245.662 633.792 245.662C633.678 245.662 633.792 245.321 633.792 245.207Z" fill="#AB542D"/>
<path d="M633.792 245.321C633.792 245.207 633.792 245.321 633.792 245.321C633.678 245.094 633.678 245.094 633.678 244.98C633.678 244.866 633.678 244.752 633.678 244.525C633.678 244.411 633.792 244.183 633.792 244.07C633.906 243.728 634.248 243.387 634.475 243.046C634.589 242.932 634.817 242.704 634.931 242.591C635.045 242.477 635.273 242.249 635.387 242.136C636.07 241.567 636.526 240.77 636.754 240.202C636.867 239.86 636.981 239.633 636.981 239.405C636.981 239.178 637.095 239.064 637.095 239.064C637.095 239.064 637.095 238.95 637.209 238.95C637.209 238.95 637.323 238.95 637.323 239.064C637.323 239.064 637.323 239.519 636.981 240.202C636.754 240.884 636.298 241.681 635.614 242.363C635.501 242.477 635.273 242.704 635.159 242.818C635.045 242.932 634.817 243.16 634.703 243.273C634.475 243.615 634.248 243.842 634.134 244.183C634.134 244.297 634.02 244.411 634.02 244.525C634.02 244.639 634.02 244.752 634.02 244.752C634.02 244.866 634.02 244.866 634.02 244.866C634.134 244.98 634.02 245.094 633.906 245.207C634.02 245.435 633.906 245.435 633.792 245.321Z" fill="#AB542D"/>
<path d="M636.298 241.453C636.298 241.453 636.526 241.339 636.981 241.226C637.323 240.998 637.893 240.77 638.348 240.429C638.576 240.202 638.804 240.088 638.918 239.86C639.032 239.747 639.032 239.633 639.146 239.519C639.259 239.405 639.259 239.291 639.373 239.178C639.487 238.95 639.601 238.836 639.601 238.723C639.601 238.609 639.715 238.495 639.715 238.495H639.829V238.609C639.829 238.609 639.829 238.723 639.715 238.836C639.715 238.95 639.601 239.178 639.487 239.291C639.487 239.405 639.373 239.519 639.259 239.633C639.146 239.747 639.146 239.86 639.032 239.974C638.804 240.202 638.69 240.429 638.462 240.657C638.006 241.112 637.551 241.339 637.095 241.567C636.64 241.794 636.412 241.908 636.412 241.908C636.298 241.908 636.298 241.908 636.298 241.794C636.184 241.453 636.184 241.453 636.298 241.453Z" fill="#AB542D"/>
<path d="M636.526 240.884C636.526 240.884 636.412 240.77 636.412 240.543C636.298 240.315 636.298 240.088 636.184 239.747C636.07 239.178 636.07 238.609 636.07 238.609C636.07 238.609 636.07 239.178 636.298 239.747C636.412 239.974 636.526 240.315 636.526 240.429C636.64 240.657 636.64 240.77 636.64 240.77C636.64 240.884 636.64 240.884 636.64 240.998C636.64 240.998 636.526 240.998 636.526 240.884Z" fill="#AB542D"/>
<path d="M639.374 242.704C639.374 242.704 639.487 242.704 639.601 242.591C639.715 242.591 639.715 242.477 639.829 242.477C639.943 242.477 639.943 242.363 640.057 242.249C640.171 242.136 640.171 242.136 640.285 242.022C640.399 241.908 640.399 241.794 640.513 241.681C640.626 241.453 640.74 241.112 640.854 240.884C640.968 240.315 640.968 239.747 640.854 239.291C640.854 239.064 640.74 238.95 640.74 238.836C640.74 238.723 640.626 238.609 640.626 238.609V238.495H640.74C640.74 238.495 640.74 238.609 640.854 238.723C640.854 238.836 640.968 239.064 641.082 239.291C641.196 239.747 641.196 240.429 641.082 240.998C640.968 241.339 640.854 241.567 640.74 241.908C640.626 242.022 640.626 242.136 640.513 242.249C640.399 242.363 640.399 242.477 640.285 242.591C640.171 242.818 639.943 242.932 639.829 242.932C639.715 243.046 639.601 243.046 639.601 243.046C639.487 243.046 639.374 243.046 639.374 243.046C639.26 242.818 639.26 242.704 639.374 242.704Z" fill="#AB542D"/>
<path d="M641.993 240.543C641.993 240.543 642.221 240.429 642.449 240.315C642.791 240.202 643.133 239.974 643.474 239.747C643.702 239.633 643.816 239.519 643.93 239.291C644.044 239.178 644.158 238.95 644.272 238.836C644.385 238.723 644.385 238.609 644.499 238.495C644.499 238.381 644.613 238.381 644.613 238.381C644.613 238.381 644.613 238.381 644.727 238.381C644.727 238.381 644.727 238.381 644.727 238.495C644.727 238.495 644.727 238.495 644.613 238.609C644.613 238.723 644.499 238.836 644.386 238.95C644.272 239.064 644.158 239.291 644.044 239.405C643.93 239.519 643.702 239.747 643.588 239.86C643.246 240.202 642.791 240.429 642.563 240.543C642.221 240.657 641.993 240.77 641.993 240.77C641.879 240.77 641.766 240.77 641.766 240.657C641.88 240.657 641.879 240.543 641.993 240.543Z" fill="#AB542D"/>
<path d="M636.867 243.046C636.867 243.046 636.981 243.046 637.095 242.932C637.209 242.818 637.437 242.704 637.665 242.477C637.779 242.249 638.007 242.022 638.007 241.908C638.12 241.68 638.12 241.567 638.12 241.567C638.12 241.567 638.12 241.453 638.234 241.567C638.234 241.567 638.234 241.567 638.234 241.68C638.234 241.68 638.234 241.794 638.12 242.022C638.007 242.249 637.893 242.477 637.779 242.704C637.665 242.932 637.437 243.159 637.209 243.273C637.095 243.387 636.867 243.501 636.867 243.501C636.754 243.501 636.64 243.501 636.64 243.387C636.64 243.159 636.754 243.046 636.867 243.046Z" fill="#AB542D"/>
<path d="M647.006 260.566C646.892 261.135 646.778 261.704 646.892 262.159C647.12 263.296 647.575 264.32 647.917 265.344C648.259 266.368 646.778 273.194 646.778 273.194H646.436C646.436 273.194 646.664 268.075 646.778 266.823C646.892 265.23 644.727 265.117 642.791 261.59L647.006 260.566Z" fill="#AB542D"/>
<path d="M633.564 273.194C631.286 253.513 633.564 251.123 632.197 249.417C631.514 248.734 628.894 249.531 628.894 247.483C628.894 247.483 629.577 247.71 630.83 246.914C631.969 246.231 631.856 245.208 633.564 245.208C637.095 245.208 635.273 253.399 638.234 254.764C641.196 256.129 647.119 254.65 648.486 256.698C649.853 258.746 648.486 261.135 648.714 262.273C648.942 263.41 649.398 264.434 649.739 265.458C650.081 266.482 648.6 273.308 648.6 273.308H648.145C648.145 273.308 648.372 268.188 648.486 266.937C648.6 265.344 646.664 265.344 644.613 262.159C644.044 261.476 640.057 262.159 637.095 262.273C636.298 262.273 635.842 273.308 635.842 273.308H635.387C635.387 273.308 635.045 262.273 634.475 262.273C633.906 262.273 634.134 273.308 634.134 273.308H633.564V273.194Z" fill="#BC6437"/>
<path d="M633.792 245.321L637.209 244.411C637.209 244.411 636.868 246.345 634.931 246.345C632.995 246.231 633.792 245.321 633.792 245.321Z" fill="#BC6437"/>
<path d="M632.539 246.573C632.539 246.8 632.425 246.914 632.197 246.914C631.969 246.914 631.856 246.8 631.856 246.573C631.856 246.345 631.969 246.231 632.197 246.231C632.425 246.231 632.539 246.345 632.539 246.573Z" fill="#574238"/>
<path d="M629.008 248.165C628.894 248.165 628.552 247.482 628.78 247.369C628.894 247.369 629.464 247.369 629.464 247.369C629.464 247.596 629.236 248.279 629.008 248.165Z" fill="#574238"/>
<path d="M644.5 261.931C644.386 261.704 643.36 260.68 640.968 260.566C637.893 260.452 637.209 262.159 637.209 262.159C639.829 262.045 643.588 261.476 644.5 261.931Z" fill="#E6855A"/>
<path d="M634.931 246.345C636.298 246.345 636.982 245.321 637.209 244.866C636.184 246.118 634.248 246.345 634.248 246.345C634.362 246.345 634.589 246.345 634.931 246.345Z" fill="#E6855A"/>
<path d="M372.826 82.6348L371.573 87.9818" stroke="#587988" stroke-miterlimit="10" stroke-linecap="round"/>
<path d="M383.875 82.6348L382.622 87.9818" stroke="#587988" stroke-miterlimit="10" stroke-linecap="round"/>
<path d="M384.9 88.5508H365.08" stroke="#587988" stroke-miterlimit="10" stroke-linecap="round"/>
<path d="M373.623 79.9043L374.876 85.8202" stroke="#587988" stroke-miterlimit="10" stroke-linecap="round"/>
<path d="M384.33 79.9043L385.925 85.8202" stroke="#587988" stroke-miterlimit="10" stroke-linecap="round"/>
<path d="M388.203 86.3892H368.383" stroke="#587988" stroke-miterlimit="10" stroke-linecap="round"/>
<path d="M390.368 83.6589V71.5996H373.167C368.269 71.5996 364.282 75.5814 364.168 80.4734C364.168 81.4973 364.396 82.635 364.624 83.6589H390.368Z" fill="#7FA588"/>
<path d="M373.965 79.2215V71.4854H373.281C368.839 71.4854 365.08 74.7846 364.396 79.2215H373.965Z" fill="#CADBCD"/>
<path d="M404.72 75.0121L390.368 76.8324V71.4854H404.72V75.0121Z" fill="#7FA588"/>
<path d="M405.29 78.5393C403.809 78.5393 402.556 76.1502 402.556 73.1922C402.556 70.2343 403.809 67.8452 405.29 67.8452" fill="#7FA588"/>
<path d="M381.597 65.001H379.432V72.7371H381.597V65.001Z" fill="#7FA588"/>
<path d="M358.245 68.4139L406.087 60.2227" stroke="#8C8C8C" stroke-miterlimit="10" stroke-linecap="round"/>
<path d="M357.903 63.1807L406.429 65.3423" stroke="#8C8C8C" stroke-miterlimit="10" stroke-linecap="round"/>
<path d="M761.309 128.047L757.628 131.771L843.954 216.9L847.636 213.176L761.309 128.047Z" fill="#8A806D"/>
<path d="M813.085 186.504L810.693 188.893L841.449 219.383L843.955 216.88L813.085 186.504Z" fill="#E5E5E4"/>
<path d="M819.123 180.36L816.73 182.749L847.6 213.239L849.992 210.736L819.123 180.36Z" fill="#E5E5E4"/>
<path d="M757.597 131.746L755.19 134.169L785.918 164.617L788.325 162.194L757.597 131.746Z" fill="#E5E5E4"/>
<path d="M763.604 125.548L761.201 127.974L791.973 158.374L794.376 155.948L763.604 125.548Z" fill="#E5E5E4"/>
<path d="M843.349 126.308L758.053 212.466L761.779 216.146L847.075 129.988L843.349 126.308Z" fill="#8A806D"/>
<path d="M786.083 179.332L755.627 210.052L758.055 212.453L788.511 181.733L786.083 179.332Z" fill="#E5E5E4"/>
<path d="M792.243 185.398L761.787 216.118L764.216 218.52L794.671 187.799L792.243 185.398Z" fill="#E5E5E4"/>
<path d="M840.843 123.894L810.435 154.662L812.867 157.06L843.275 126.292L840.843 123.894Z" fill="#E5E5E4"/>
<path d="M847.047 130.037L816.587 160.752L819.015 163.154L849.475 132.438L847.047 130.037Z" fill="#E5E5E4"/>
<path d="M542.323 143.386C486.051 120.178 434.564 123.932 382.166 155.218C380.343 152.488 379.318 151.236 377.496 148.506C432.628 115.627 486.735 111.645 545.968 136.105C544.487 138.95 543.804 140.429 542.323 143.386Z" fill="#E5E5E4"/>
<path d="M539.931 148.165C484.685 125.866 436.729 129.393 385.242 159.541C383.989 157.721 383.419 156.925 382.166 155.104C434.564 123.818 486.051 120.064 542.323 143.273C541.298 145.32 540.842 146.231 539.931 148.165Z" fill="#C1DEDE"/>
<path d="M439.235 80.7007L446.639 18.2427L450.17 83.7724L418.047 142.59L411.782 145.093L439.235 80.7007Z" fill="#F1F1F1"/>
<path d="M539.361 134.967C482.065 107.436 446.525 19.2666 446.183 18.4702L446.867 18.2427C447.208 19.1528 482.634 106.981 539.589 134.399L539.361 134.967Z" fill="#F1F1F1"/>
<path d="M379.204 148.392L378.749 147.823C379.204 147.368 428.413 102.772 442.994 49.6426L443.677 49.8701C428.983 103.227 379.66 147.937 379.204 148.392Z" fill="#F1F1F1"/>
<path d="M501.543 124.501C482.862 106.298 468.851 80.0182 460.308 61.2467C458.257 56.5822 456.321 52.2591 454.726 48.1635C462.586 70.6893 475.23 103.682 487.874 121.998L487.304 122.453C467.37 93.6702 447.436 28.3681 446.297 24.7275C446.297 24.6138 446.297 24.6138 446.297 24.6138L446.98 24.3862C446.98 24.3862 446.98 24.3862 446.98 24.5C447.892 27.3442 467.142 90.0297 502.113 124.16L501.543 124.501Z" fill="#F1F1F1"/>
<path d="M446.703 41.5886L446.057 41.8101L473.438 121.551L474.085 121.329L446.703 41.5886Z" fill="#F1F1F1"/>
<path d="M446.806 29.853L446.541 30.4824L452.843 33.1241L453.108 32.4946L446.806 29.853Z" fill="#F1F1F1"/>
<path d="M401.986 136.788L401.417 136.333C401.758 135.764 437.982 81.2697 443.563 66.3662L444.247 66.5937C438.551 81.7247 402.328 136.219 401.986 136.788Z" fill="#F1F1F1"/>
<path d="M445.731 33.6149L445.439 34.2319L456.045 39.2426L456.338 38.6255L445.731 33.6149Z" fill="#F1F1F1"/>
<path d="M446.119 39.7418L445.879 40.3809L459.53 45.4965L459.771 44.8575L446.119 39.7418Z" fill="#F1F1F1"/>
<path d="M462.017 51.1214L446.183 45.0918L446.411 44.4092L462.244 50.4388L462.017 51.1214Z" fill="#F1F1F1"/>
<path d="M465.889 57.9475L444.474 49.3013L444.702 48.6187L466.117 57.2649L465.889 57.9475Z" fill="#F1F1F1"/>
<path d="M445.844 54.7493L445.631 55.3979L469.443 63.1994L469.656 62.5508L445.844 54.7493Z" fill="#F1F1F1"/>
<path d="M472.952 69.6653L446.525 59.085L446.866 58.4023L473.18 68.9827L472.952 69.6653Z" fill="#F1F1F1"/>
<path d="M447.705 62.1032L447.413 62.7207L477.399 76.8339L477.69 76.2164L447.705 62.1032Z" fill="#F1F1F1"/>
<path d="M484.343 86.2754L446.753 67.5039L447.094 66.9351L484.685 85.5928L484.343 86.2754Z" fill="#F1F1F1"/>
<path d="M448.855 72.2243L448.542 72.8315L490.393 94.2852L490.705 93.678L448.855 72.2243Z" fill="#F1F1F1"/>
<path d="M498.126 102.544L448.006 78.6528L448.233 78.084L498.468 101.861L498.126 102.544Z" fill="#F1F1F1"/>
<path d="M514.529 127.231C492.886 111.418 475.458 82.976 464.636 61.9292C452.904 39.1758 446.183 19.8354 446.183 19.7217L446.867 19.4941C446.98 19.7217 453.587 38.9483 465.32 61.5879C476.141 82.521 493.456 110.849 514.984 126.663L514.529 127.231Z" fill="#F1F1F1"/>
<path d="M473.635 118.813L470.674 119.04L442.082 121.202L439.121 121.429C435.362 121.771 432.628 125.98 432.97 129.962L440.602 129.393L473.294 126.89L480.925 126.321C480.698 122.226 477.394 118.471 473.635 118.813Z" fill="#C8CED9"/>
<path d="M433.311 126.662L439.121 126.207L438.779 121.429C436.159 121.884 434.223 124.046 433.311 126.662Z" fill="#7777A6"/>
<path d="M446.858 122.462L443.678 122.706L444.165 129.058L447.346 128.814L446.858 122.462Z" fill="#7777A6"/>
<path d="M456.543 121.663L453.363 121.907L453.852 128.26L457.032 128.015L456.543 121.663Z" fill="#7777A6"/>
<path d="M466.083 120.97L462.903 121.216L463.395 127.568L466.575 127.322L466.083 120.97Z" fill="#7777A6"/>
<path d="M475.673 120.187L472.492 120.43L472.98 126.783L476.16 126.539L475.673 120.187Z" fill="#7777A6"/>
<path d="M453.239 121.994L446.879 122.48L447.123 125.656L453.483 125.17L453.239 121.994Z" fill="#A6BDC6"/>
<path d="M443.665 122.731L438.895 123.095L439.138 126.271L443.908 125.907L443.665 122.731Z" fill="#A6BDC6"/>
<path d="M462.921 121.193L456.56 121.68L456.804 124.856L463.165 124.369L462.921 121.193Z" fill="#A6BDC6"/>
<path d="M472.482 120.509L466.122 120.994L466.364 124.17L472.725 123.685L472.482 120.509Z" fill="#A6BDC6"/>
<path d="M523.755 124.273L520.908 123.818L492.43 119.836L489.583 119.381C485.824 118.812 482.292 122.453 481.723 126.435L489.355 127.459L521.819 131.896L529.451 132.919C529.906 129.165 527.514 124.842 523.755 124.273Z" fill="#C8CED9"/>
<path d="M482.748 123.477L488.444 124.273L489.127 119.495C486.507 119.381 484.115 121.088 482.748 123.477Z" fill="#7777A6"/>
<path d="M493.709 121.817L492.837 128.128L495.996 128.564L496.869 122.253L493.709 121.817Z" fill="#7777A6"/>
<path d="M503.155 123.115L502.284 129.426L505.444 129.861L506.314 123.55L503.155 123.115Z" fill="#7777A6"/>
<path d="M512.787 124.376L511.917 130.688L515.077 131.122L515.947 124.81L512.787 124.376Z" fill="#7777A6"/>
<path d="M522.37 125.79L521.496 132.101L524.655 132.537L525.53 126.226L522.37 125.79Z" fill="#7777A6"/>
<path d="M496.925 122.211L496.488 125.366L502.807 126.239L503.244 123.083L496.925 122.211Z" fill="#A6BDC6"/>
<path d="M488.93 121.169L488.492 124.324L493.231 124.98L493.669 121.825L488.93 121.169Z" fill="#A6BDC6"/>
<path d="M506.392 123.497L505.955 126.652L512.274 127.525L512.711 124.369L506.392 123.497Z" fill="#A6BDC6"/>
<path d="M516.004 124.952L515.566 128.107L521.884 128.982L522.322 125.827L516.004 124.952Z" fill="#A6BDC6"/>
</g>
</g>
</g>
<defs>
<linearGradient id="paint0_linear_16_25598" x1="1044.84" y1="180.234" x2="1051.47" y2="397.602" gradientUnits="userSpaceOnUse">
<stop stop-color="#C0D375"/>
<stop offset="1" stop-color="#62967A"/>
</linearGradient>
<linearGradient id="paint1_linear_16_25598" x1="234.641" y1="159.514" x2="227.355" y2="398.181" gradientUnits="userSpaceOnUse">
<stop stop-color="#C0D375"/>
<stop offset="1" stop-color="#62967A"/>
</linearGradient>
<linearGradient id="paint2_linear_16_25598" x1="604.016" y1="131.237" x2="610.639" y2="348.162" gradientUnits="userSpaceOnUse">
<stop stop-color="#C0D375"/>
<stop offset="1" stop-color="#62967A"/>
</linearGradient>
<linearGradient id="paint3_linear_16_25598" x1="492.473" y1="183.628" x2="485.85" y2="400.553" gradientUnits="userSpaceOnUse">
<stop stop-color="#C0D375"/>
<stop offset="1" stop-color="#62967A"/>
</linearGradient>
<linearGradient id="paint4_linear_16_25598" x1="629.765" y1="218.784" x2="635.465" y2="405.494" gradientUnits="userSpaceOnUse">
<stop offset="0.00134342" stop-color="#CEE0A3"/>
<stop offset="0.965" stop-color="#9DC265"/>
</linearGradient>
<linearGradient id="paint5_linear_16_25598" x1="644.111" y1="231.787" x2="638.321" y2="421.438" gradientUnits="userSpaceOnUse">
<stop offset="0.00134342" stop-color="#E8EDB8"/>
<stop offset="0.965" stop-color="#AECA7C"/>
</linearGradient>
<clipPath id="clip0_16_25598">
<rect width="1280" height="423" fill="white"/>
</clipPath>
<clipPath id="clip1_16_25598">
<rect width="1280" height="464.237" fill="white"/>
</clipPath>
<clipPath id="clip2_16_25598">
<rect width="1280" height="487.491" fill="white" transform="translate(0 -67.5376)"/>
</clipPath>
</defs>
</svg>
