<svg width="32" height="30" viewBox="0 0 32 30" fill="none" xmlns="http://www.w3.org/2000/svg">
<path d="M20.8164 16.2063C17.9025 16.2063 15.5303 13.8341 15.5303 10.9202C15.5303 8.00637 17.9025 5.63415 20.8164 5.63415C23.7302 5.63415 26.1025 8.00637 26.1025 10.9202C26.1025 13.8341 23.7302 16.2063 20.8164 16.2063Z" fill="#C4F3EB" stroke="#C4F3EB" stroke-width="2"/>
<path d="M20.8164 1V3.5" stroke="#C4F3EB" stroke-width="2"/>
<path d="M28.7637 10.9202L31.2621 11.0093" stroke="#C4F3EB" stroke-width="2"/>
<path d="M12.4258 19.4423L15.422 16.446" stroke="#C4F3EB" stroke-width="2"/>
<path d="M26.4746 5.3942L28.2424 3.62644" stroke="#C4F3EB" stroke-width="2"/>
<path d="M24.0019 12.4635C23.2244 11.7111 22.2223 11.2292 21.1335 10.9752L21.1329 10.9723L21.132 10.9676L21.1319 10.9673C21.1319 10.9672 21.1319 10.967 21.1319 10.9669C21.1318 10.9668 21.1318 10.9667 21.1318 10.9666C20.4134 7.19508 17.177 4.3125 13.25 4.3125C9.56621 4.3125 6.49009 6.84915 5.5302 10.2766C2.9133 10.9221 1 13.3367 1 16.179C1 19.5036 3.62338 22.25 6.92187 22.25H19.5781C22.8766 22.25 25.5 19.5036 25.5 16.179C25.5 14.6466 24.9539 13.3847 24.0019 12.4635Z" fill="#BEBEBE" stroke="#BEBEBE" stroke-width="2" stroke-linejoin="round"/>
<line x1="19.7071" y1="25.7071" x2="16.7071" y2="28.7071" stroke="#BEBEBE" stroke-width="2"/>
<line x1="13.7071" y1="25.7071" x2="10.7071" y2="28.7071" stroke="#BEBEBE" stroke-width="2"/>
<line x1="7.70711" y1="25.7071" x2="4.70711" y2="28.7071" stroke="#BEBEBE" stroke-width="2"/>
</svg>
