<svg width="30" height="32" viewBox="0 0 30 32" fill="none" xmlns="http://www.w3.org/2000/svg">
<path d="M17.2105 26.8121C14.3717 26.8121 12.0605 24.5009 12.0605 21.6621C12.0605 18.8233 14.3717 16.5121 17.2105 16.5121C20.0494 16.5121 22.3605 18.8233 22.3605 21.6621C22.3605 24.5009 20.0494 26.8121 17.2105 26.8121Z" fill="#C4F3EB" stroke="#C4F3EB" stroke-width="2"/>
<path d="M17.2109 10V14.1455" stroke="#C4F3EB" stroke-width="2"/>
<path d="M24.9863 21.6621L29.1319 21.6621" stroke="#C4F3EB" stroke-width="2"/>
<path d="M9 13.3245L11.9313 16.2559" stroke="#C4F3EB" stroke-width="2"/>
<path d="M22.7441 27.0686L25.6755 30" stroke="#C4F3EB" stroke-width="2"/>
<path d="M9.00098 30L11.9323 27.0687" stroke="#C4F3EB" stroke-width="2"/>
<path d="M22.7422 16.2559L25.6735 13.3246" stroke="#C4F3EB" stroke-width="2"/>
<path d="M17.4969 23.236C16.9589 22.6706 16.2782 22.2945 15.5412 22.0787C14.982 19.2518 12.6911 17 9.8 17C7.09105 17 4.90903 18.977 4.18479 21.5517C2.28767 22.1456 1 24.055 1 26.1818C1 28.7342 2.87288 31 5.4125 31H14.1875C16.7271 31 18.6 28.7342 18.6 26.1818C18.6 24.9905 18.209 23.9843 17.4969 23.236Z" fill="#89CDFF"/>
<path d="M17.4969 23.236C16.9589 22.6706 16.2782 22.2945 15.5412 22.0787C14.982 19.2518 12.6911 17 9.8 17C7.09105 17 4.90903 18.977 4.18479 21.5517C2.28767 22.1456 1 24.055 1 26.1818C1 28.7342 2.87288 31 5.4125 31H14.1875C16.7271 31 18.6 28.7342 18.6 26.1818C18.6 24.9905 18.209 23.9843 17.4969 23.236Z" fill="white" fill-opacity="0.8"/>
<path d="M17.4969 23.236C16.9589 22.6706 16.2782 22.2945 15.5412 22.0787C14.982 19.2518 12.6911 17 9.8 17C7.09105 17 4.90903 18.977 4.18479 21.5517C2.28767 22.1456 1 24.055 1 26.1818C1 28.7342 2.87288 31 5.4125 31H14.1875C16.7271 31 18.6 28.7342 18.6 26.1818C18.6 24.9905 18.209 23.9843 17.4969 23.236Z" stroke="#89CDFF" stroke-width="2" stroke-linejoin="round"/>
<path d="M17.4969 23.236C16.9589 22.6706 16.2782 22.2945 15.5412 22.0787C14.982 19.2518 12.6911 17 9.8 17C7.09105 17 4.90903 18.977 4.18479 21.5517C2.28767 22.1456 1 24.055 1 26.1818C1 28.7342 2.87288 31 5.4125 31H14.1875C16.7271 31 18.6 28.7342 18.6 26.1818C18.6 24.9905 18.209 23.9843 17.4969 23.236Z" stroke="white" stroke-opacity="0.8" stroke-width="2" stroke-linejoin="round"/>
</svg>
