<svg width="30" height="30" viewBox="0 0 30 30" fill="none" xmlns="http://www.w3.org/2000/svg">
<path d="M26.0019 18.151C25.2244 17.3986 24.2223 16.9167 23.1335 16.6627L23.1329 16.6598L23.132 16.6551L23.1319 16.6548C23.1319 16.6547 23.1319 16.6545 23.1319 16.6544C23.1318 16.6543 23.1318 16.6542 23.1318 16.6541C22.4134 12.8826 19.177 10 15.25 10C11.5662 10 8.49009 12.5367 7.5302 15.9641C4.9133 16.6096 3 19.0242 3 21.8665C3 25.1911 5.62338 27.9375 8.92187 27.9375H21.5781C24.8766 27.9375 27.5 25.1911 27.5 21.8665C27.5 20.3341 26.9539 19.0722 26.0019 18.151Z" fill="#89CDFF"/>
<path d="M26.0019 18.151C25.2244 17.3986 24.2223 16.9167 23.1335 16.6627L23.1329 16.6598L23.132 16.6551L23.1319 16.6548C23.1319 16.6547 23.1319 16.6545 23.1319 16.6544C23.1318 16.6543 23.1318 16.6542 23.1318 16.6541C22.4134 12.8826 19.177 10 15.25 10C11.5662 10 8.49009 12.5367 7.5302 15.9641C4.9133 16.6096 3 19.0242 3 21.8665C3 25.1911 5.62338 27.9375 8.92187 27.9375H21.5781C24.8766 27.9375 27.5 25.1911 27.5 21.8665C27.5 20.3341 26.9539 19.0722 26.0019 18.151Z" fill="white" fill-opacity="0.8"/>
<path d="M26.0019 18.151C25.2244 17.3986 24.2223 16.9167 23.1335 16.6627L23.1329 16.6598L23.132 16.6551L23.1319 16.6548C23.1319 16.6547 23.1319 16.6545 23.1319 16.6544C23.1318 16.6543 23.1318 16.6542 23.1318 16.6541C22.4134 12.8826 19.177 10 15.25 10C11.5662 10 8.49009 12.5367 7.5302 15.9641C4.9133 16.6096 3 19.0242 3 21.8665C3 25.1911 5.62338 27.9375 8.92187 27.9375H21.5781C24.8766 27.9375 27.5 25.1911 27.5 21.8665C27.5 20.3341 26.9539 19.0722 26.0019 18.151Z" stroke="#89CDFF" stroke-width="2" stroke-linejoin="round"/>
<path d="M26.0019 18.151C25.2244 17.3986 24.2223 16.9167 23.1335 16.6627L23.1329 16.6598L23.132 16.6551L23.1319 16.6548C23.1319 16.6547 23.1319 16.6545 23.1319 16.6544C23.1318 16.6543 23.1318 16.6542 23.1318 16.6541C22.4134 12.8826 19.177 10 15.25 10C11.5662 10 8.49009 12.5367 7.5302 15.9641C4.9133 16.6096 3 19.0242 3 21.8665C3 25.1911 5.62338 27.9375 8.92187 27.9375H21.5781C24.8766 27.9375 27.5 25.1911 27.5 21.8665C27.5 20.3341 26.9539 19.0722 26.0019 18.151Z" stroke="white" stroke-opacity="0.8" stroke-width="2" stroke-linejoin="round"/>
</svg>
