<svg width="27" height="22" viewBox="0 0 27 22" fill="none" xmlns="http://www.w3.org/2000/svg">
<path d="M14.6021 16.812C11.7633 16.812 9.45215 14.5008 9.45215 11.662C9.45215 8.82321 11.7633 6.51205 14.6021 6.51205C17.4409 6.51205 19.752 8.82321 19.752 11.662C19.752 14.5008 17.4409 16.812 14.6021 16.812Z" fill="#FF8E3C" stroke="#FF8E3C" stroke-width="2"/>
<path d="M14.6016 0V4.14552" stroke="#FF8E3C" stroke-width="2"/>
<path d="M22.377 11.662L26.5225 11.662" stroke="#FF8E3C" stroke-width="2"/>
<path d="M6.39258 3.32455L9.3239 6.25588" stroke="#FF8E3C" stroke-width="2"/>
<path d="M20.1367 17.0685L23.068 19.9998" stroke="#FF8E3C" stroke-width="2"/>
<path d="M6.39355 19.9998L9.32488 17.0685" stroke="#FF8E3C" stroke-width="2"/>
<path d="M20.1377 6.25589L23.069 3.32456" stroke="#FF8E3C" stroke-width="2"/>
<path d="M17.4969 13.236C16.9589 12.6706 16.2782 12.2945 15.5412 12.0787C14.982 9.25176 12.6911 7 9.8 7C7.09105 7 4.90903 8.977 4.18479 11.5517C2.28767 12.1456 1 14.055 1 16.1818C1 18.7342 2.87288 21 5.4125 21H14.1875C16.7271 21 18.6 18.7342 18.6 16.1818C18.6 14.9905 18.209 13.9843 17.4969 13.236Z" fill="#89CDFF"/>
<path d="M17.4969 13.236C16.9589 12.6706 16.2782 12.2945 15.5412 12.0787C14.982 9.25176 12.6911 7 9.8 7C7.09105 7 4.90903 8.977 4.18479 11.5517C2.28767 12.1456 1 14.055 1 16.1818C1 18.7342 2.87288 21 5.4125 21H14.1875C16.7271 21 18.6 18.7342 18.6 16.1818C18.6 14.9905 18.209 13.9843 17.4969 13.236Z" fill="white" fill-opacity="0.33"/>
<path d="M17.4969 13.236C16.9589 12.6706 16.2782 12.2945 15.5412 12.0787C14.982 9.25176 12.6911 7 9.8 7C7.09105 7 4.90903 8.977 4.18479 11.5517C2.28767 12.1456 1 14.055 1 16.1818C1 18.7342 2.87288 21 5.4125 21H14.1875C16.7271 21 18.6 18.7342 18.6 16.1818C18.6 14.9905 18.209 13.9843 17.4969 13.236Z" stroke="#89CDFF" stroke-width="2" stroke-linejoin="round"/>
<path d="M17.4969 13.236C16.9589 12.6706 16.2782 12.2945 15.5412 12.0787C14.982 9.25176 12.6911 7 9.8 7C7.09105 7 4.90903 8.977 4.18479 11.5517C2.28767 12.1456 1 14.055 1 16.1818C1 18.7342 2.87288 21 5.4125 21H14.1875C16.7271 21 18.6 18.7342 18.6 16.1818C18.6 14.9905 18.209 13.9843 17.4969 13.236Z" stroke="white" stroke-opacity="0.33" stroke-width="2" stroke-linejoin="round"/>
</svg>
