<svg width="30" height="30" viewBox="0 0 30 30" fill="none" xmlns="http://www.w3.org/2000/svg">
<path d="M27.7476 12.7073C27.1253 12.0933 26.3351 11.6933 25.4812 11.4716C24.853 8.37898 22.2202 6 19 6C15.9809 6 13.4781 8.09111 12.6596 10.9009C10.5248 11.4926 9 13.5176 9 15.8636C9 18.6534 11.1647 21 13.9375 21H24.0625C26.8353 21 29 18.6534 29 15.8636C29 14.573 28.5479 13.4969 27.7476 12.7073Z" fill="#EAF3F5" stroke="#EAF3F5" stroke-width="2" stroke-linejoin="round"/>
<path d="M24.0019 18.151C23.2244 17.3986 22.2223 16.9167 21.1335 16.6627L21.1329 16.6598L21.132 16.6551L21.1319 16.6548C21.1319 16.6547 21.1319 16.6545 21.1319 16.6544C21.1318 16.6543 21.1318 16.6542 21.1318 16.6541C20.4134 12.8826 17.177 10 13.25 10C9.56621 10 6.49009 12.5367 5.5302 15.9641C2.9133 16.6096 1 19.0242 1 21.8665C1 25.1911 3.62338 27.9375 6.92187 27.9375H19.5781C22.8766 27.9375 25.5 25.1911 25.5 21.8665C25.5 20.3341 24.9539 19.0722 24.0019 18.151Z" fill="#EAF3F5" stroke="#EAF3F5" stroke-width="2" stroke-linejoin="round"/>
</svg>
