<svg width="30" height="30" viewBox="0 0 30 30" fill="none" xmlns="http://www.w3.org/2000/svg">
<path d="M26.0019 9.46349C25.2244 8.71111 24.2223 8.22922 23.1335 7.97521L23.1329 7.97227L23.132 7.96764L23.1319 7.96733C23.1319 7.96719 23.1319 7.96704 23.1319 7.96689C23.1318 7.9668 23.1318 7.96667 23.1318 7.96657C22.4134 4.19508 19.177 1.3125 15.25 1.3125C11.5662 1.3125 8.49009 3.84915 7.5302 7.27664C4.9133 7.92214 3 10.3367 3 13.179C3 16.5036 5.62338 19.25 8.92187 19.25H21.5781C24.8766 19.25 27.5 16.5036 27.5 13.179C27.5 11.6466 26.9539 10.3847 26.0019 9.46349Z" fill="#BEBEBE" stroke="#BEBEBE" stroke-width="2" stroke-linejoin="round"/>
<line x1="20.5351" y1="23.9635" x2="21.9493" y2="22.5493" stroke="#BEBEBE" stroke-width="2"/>
<line x1="16.2929" y1="28.2062" x2="17.7071" y2="26.7919" stroke="#BEBEBE" stroke-width="2"/>
<line x1="18.414" y1="26.0848" x2="19.8282" y2="24.6706" stroke="#BEBEBE" stroke-width="2"/>
<line x1="15.5351" y1="23.8768" x2="16.9493" y2="22.4626" stroke="#BEBEBE" stroke-width="2"/>
<line x1="11.2929" y1="28.1195" x2="12.7071" y2="26.7053" stroke="#BEBEBE" stroke-width="2"/>
<line x1="13.414" y1="25.9982" x2="14.8282" y2="24.5839" stroke="#BEBEBE" stroke-width="2"/>
<line x1="10.5351" y1="23.8768" x2="11.9493" y2="22.4626" stroke="#BEBEBE" stroke-width="2"/>
<line x1="6.29289" y1="28.1195" x2="7.70711" y2="26.7053" stroke="#BEBEBE" stroke-width="2"/>
<line x1="8.41399" y1="25.9982" x2="9.8282" y2="24.5839" stroke="#BEBEBE" stroke-width="2"/>
</svg>
