<svg width="30" height="32" viewBox="0 0 30 32" fill="none" xmlns="http://www.w3.org/2000/svg">
<path d="M16.6031 26.8121C13.7643 26.8121 11.4531 24.501 11.4531 21.6621C11.4531 18.8233 13.7643 16.5121 16.6031 16.5121C19.442 16.5121 21.7531 18.8233 21.7531 21.6621C21.7531 24.501 19.442 26.8121 16.6031 26.8121Z" fill="#FFC224" stroke="#FFC224" stroke-width="2"/>
<path d="M16.6016 10V14.1456" stroke="#FFC224" stroke-width="2"/>
<path d="M24.377 21.6621L28.5225 21.6621" stroke="#FFC224" stroke-width="2"/>
<path d="M8.39258 13.3245L11.3239 16.2558" stroke="#FFC224" stroke-width="2"/>
<path d="M22.1367 27.0686L25.0681 29.9999" stroke="#FFC224" stroke-width="2"/>
<path d="M8.39258 30L11.3239 27.0686" stroke="#FFC224" stroke-width="2"/>
<path d="M22.1357 16.2559L25.0671 13.3246" stroke="#FFC224" stroke-width="2"/>
<path d="M17.4969 23.236C16.9589 22.6706 16.2782 22.2945 15.5412 22.0787C14.982 19.2518 12.6911 17 9.8 17C7.09105 17 4.90903 18.977 4.18479 21.5517C2.28767 22.1456 1 24.055 1 26.1818C1 28.7342 2.87288 31 5.4125 31H14.1875C16.7271 31 18.6 28.7342 18.6 26.1818C18.6 24.9905 18.209 23.9843 17.4969 23.236Z" fill="#89CDFF"/>
<path d="M17.4969 23.236C16.9589 22.6706 16.2782 22.2945 15.5412 22.0787C14.982 19.2518 12.6911 17 9.8 17C7.09105 17 4.90903 18.977 4.18479 21.5517C2.28767 22.1456 1 24.055 1 26.1818C1 28.7342 2.87288 31 5.4125 31H14.1875C16.7271 31 18.6 28.7342 18.6 26.1818C18.6 24.9905 18.209 23.9843 17.4969 23.236Z" fill="white" fill-opacity="0.8"/>
<path d="M17.4969 23.236C16.9589 22.6706 16.2782 22.2945 15.5412 22.0787C14.982 19.2518 12.6911 17 9.8 17C7.09105 17 4.90903 18.977 4.18479 21.5517C2.28767 22.1456 1 24.055 1 26.1818C1 28.7342 2.87288 31 5.4125 31H14.1875C16.7271 31 18.6 28.7342 18.6 26.1818C18.6 24.9905 18.209 23.9843 17.4969 23.236Z" stroke="#89CDFF" stroke-width="2" stroke-linejoin="round"/>
<path d="M17.4969 23.236C16.9589 22.6706 16.2782 22.2945 15.5412 22.0787C14.982 19.2518 12.6911 17 9.8 17C7.09105 17 4.90903 18.977 4.18479 21.5517C2.28767 22.1456 1 24.055 1 26.1818C1 28.7342 2.87288 31 5.4125 31H14.1875C16.7271 31 18.6 28.7342 18.6 26.1818C18.6 24.9905 18.209 23.9843 17.4969 23.236Z" stroke="white" stroke-opacity="0.8" stroke-width="2" stroke-linejoin="round"/>
</svg>
