<svg width="30" height="32" viewBox="0 0 30 32" fill="none" xmlns="http://www.w3.org/2000/svg">
<path d="M14.6021 26.812C11.7633 26.812 9.45215 24.5008 9.45215 21.662C9.45215 18.8232 11.7633 16.5121 14.6021 16.5121C17.4409 16.5121 19.752 18.8232 19.752 21.662C19.752 24.5008 17.4409 26.812 14.6021 26.812Z" fill="#FF8E3C" stroke="#FF8E3C" stroke-width="2"/>
<path d="M14.6016 10V14.1455" stroke="#FF8E3C" stroke-width="2"/>
<path d="M22.377 21.662L26.5225 21.662" stroke="#FF8E3C" stroke-width="2"/>
<path d="M6.39258 13.3246L9.3239 16.2559" stroke="#FF8E3C" stroke-width="2"/>
<path d="M20.1367 27.0685L23.068 29.9998" stroke="#FF8E3C" stroke-width="2"/>
<path d="M6.39355 29.9998L9.32488 27.0685" stroke="#FF8E3C" stroke-width="2"/>
<path d="M20.1377 16.2559L23.069 13.3246" stroke="#FF8E3C" stroke-width="2"/>
<path d="M17.4969 23.236C16.9589 22.6706 16.2782 22.2945 15.5412 22.0787C14.982 19.2518 12.6911 17 9.8 17C7.09105 17 4.90903 18.977 4.18479 21.5517C2.28767 22.1456 1 24.055 1 26.1818C1 28.7342 2.87288 31 5.4125 31H14.1875C16.7271 31 18.6 28.7342 18.6 26.1818C18.6 24.9905 18.209 23.9843 17.4969 23.236Z" fill="#89CDFF"/>
<path d="M17.4969 23.236C16.9589 22.6706 16.2782 22.2945 15.5412 22.0787C14.982 19.2518 12.6911 17 9.8 17C7.09105 17 4.90903 18.977 4.18479 21.5517C2.28767 22.1456 1 24.055 1 26.1818C1 28.7342 2.87288 31 5.4125 31H14.1875C16.7271 31 18.6 28.7342 18.6 26.1818C18.6 24.9905 18.209 23.9843 17.4969 23.236Z" fill="white" fill-opacity="0.8"/>
<path d="M17.4969 23.236C16.9589 22.6706 16.2782 22.2945 15.5412 22.0787C14.982 19.2518 12.6911 17 9.8 17C7.09105 17 4.90903 18.977 4.18479 21.5517C2.28767 22.1456 1 24.055 1 26.1818C1 28.7342 2.87288 31 5.4125 31H14.1875C16.7271 31 18.6 28.7342 18.6 26.1818C18.6 24.9905 18.209 23.9843 17.4969 23.236Z" stroke="#89CDFF" stroke-width="2" stroke-linejoin="round"/>
<path d="M17.4969 23.236C16.9589 22.6706 16.2782 22.2945 15.5412 22.0787C14.982 19.2518 12.6911 17 9.8 17C7.09105 17 4.90903 18.977 4.18479 21.5517C2.28767 22.1456 1 24.055 1 26.1818C1 28.7342 2.87288 31 5.4125 31H14.1875C16.7271 31 18.6 28.7342 18.6 26.1818C18.6 24.9905 18.209 23.9843 17.4969 23.236Z" stroke="white" stroke-opacity="0.8" stroke-width="2" stroke-linejoin="round"/>
</svg>
