<svg width="32" height="31" viewBox="0 0 32 31" fill="none" xmlns="http://www.w3.org/2000/svg">
<path d="M20.8164 23.2063C17.9025 23.2063 15.5303 20.8341 15.5303 17.9202C15.5303 15.0064 17.9025 12.6342 20.8164 12.6342C23.7302 12.6342 26.1025 15.0064 26.1025 17.9202C26.1025 20.8341 23.7302 23.2063 20.8164 23.2063Z" fill="#FFC224" stroke="#FFC224" stroke-width="2"/>
<path d="M20.8164 8V10.5" stroke="#FFC224" stroke-width="2"/>
<path d="M28.7637 17.9202L31.2621 18.0093" stroke="#FFC224" stroke-width="2"/>
<path d="M12.4258 26.4423L15.422 23.446" stroke="#FFC224" stroke-width="2"/>
<path d="M26.4746 12.3942L28.2424 10.6264" stroke="#FFC224" stroke-width="2"/>
<path d="M24.0019 19.4635C23.2244 18.7111 22.2223 18.2292 21.1335 17.9752L21.1329 17.9723L21.132 17.9676L21.1319 17.9673C21.1319 17.9672 21.1319 17.967 21.1319 17.9669C21.1318 17.9668 21.1318 17.9667 21.1318 17.9666C20.4134 14.1951 17.177 11.3125 13.25 11.3125C9.56621 11.3125 6.49009 13.8492 5.5302 17.2766C2.9133 17.9221 1 20.3367 1 23.179C1 26.5036 3.62338 29.25 6.92187 29.25H19.5781C22.8766 29.25 25.5 26.5036 25.5 23.179C25.5 21.6466 24.9539 20.3847 24.0019 19.4635Z" fill="#89CDFF"/>
<path d="M24.0019 19.4635C23.2244 18.7111 22.2223 18.2292 21.1335 17.9752L21.1329 17.9723L21.132 17.9676L21.1319 17.9673C21.1319 17.9672 21.1319 17.967 21.1319 17.9669C21.1318 17.9668 21.1318 17.9667 21.1318 17.9666C20.4134 14.1951 17.177 11.3125 13.25 11.3125C9.56621 11.3125 6.49009 13.8492 5.5302 17.2766C2.9133 17.9221 1 20.3367 1 23.179C1 26.5036 3.62338 29.25 6.92187 29.25H19.5781C22.8766 29.25 25.5 26.5036 25.5 23.179C25.5 21.6466 24.9539 20.3847 24.0019 19.4635Z" fill="white" fill-opacity="0.8"/>
<path d="M24.0019 19.4635C23.2244 18.7111 22.2223 18.2292 21.1335 17.9752L21.1329 17.9723L21.132 17.9676L21.1319 17.9673C21.1319 17.9672 21.1319 17.967 21.1319 17.9669C21.1318 17.9668 21.1318 17.9667 21.1318 17.9666C20.4134 14.1951 17.177 11.3125 13.25 11.3125C9.56621 11.3125 6.49009 13.8492 5.5302 17.2766C2.9133 17.9221 1 20.3367 1 23.179C1 26.5036 3.62338 29.25 6.92187 29.25H19.5781C22.8766 29.25 25.5 26.5036 25.5 23.179C25.5 21.6466 24.9539 20.3847 24.0019 19.4635Z" stroke="#89CDFF" stroke-width="2" stroke-linejoin="round"/>
<path d="M24.0019 19.4635C23.2244 18.7111 22.2223 18.2292 21.1335 17.9752L21.1329 17.9723L21.132 17.9676L21.1319 17.9673C21.1319 17.9672 21.1319 17.967 21.1319 17.9669C21.1318 17.9668 21.1318 17.9667 21.1318 17.9666C20.4134 14.1951 17.177 11.3125 13.25 11.3125C9.56621 11.3125 6.49009 13.8492 5.5302 17.2766C2.9133 17.9221 1 20.3367 1 23.179C1 26.5036 3.62338 29.25 6.92187 29.25H19.5781C22.8766 29.25 25.5 26.5036 25.5 23.179C25.5 21.6466 24.9539 20.3847 24.0019 19.4635Z" stroke="white" stroke-opacity="0.8" stroke-width="2" stroke-linejoin="round"/>
</svg>
