<svg width="30" height="30" viewBox="0 0 30 30" fill="none" xmlns="http://www.w3.org/2000/svg">
<g clip-path="url(#clip0)">
<path d="M8.9591 14.9045C10.6798 17.8848 15.4175 22.6333 20.3252 22.8861C14.3046 26.2512 6.65185 24.1582 3.19238 18.1662C-0.296962 12.1225 1.78117 4.36682 7.82489 0.877472C7.82758 0.87592 7.83033 0.874469 7.83307 0.872887C5.49716 5.28428 7.2384 11.9241 8.9591 14.9045Z" fill="#FFEBB6" stroke="#FFEBB6" stroke-width="2"/>
</g>
<path d="M8.52461 20.2385C8.10794 18.9569 6.93078 18 5.5 18C4.15296 18 3.03072 18.8481 2.55626 20.017C1.62737 20.4128 1 21.3514 1 22.4091C1 23.8036 2.0976 25 3.53125 25H7.46875C8.9024 25 10 23.8036 10 22.4091C10 21.7563 9.76417 21.1797 9.32709 20.7532C9.08962 20.5215 8.81393 20.3541 8.52461 20.2385Z" fill="#89CDFF"/>
<path d="M8.52461 20.2385C8.10794 18.9569 6.93078 18 5.5 18C4.15296 18 3.03072 18.8481 2.55626 20.017C1.62737 20.4128 1 21.3514 1 22.4091C1 23.8036 2.0976 25 3.53125 25H7.46875C8.9024 25 10 23.8036 10 22.4091C10 21.7563 9.76417 21.1797 9.32709 20.7532C9.08962 20.5215 8.81393 20.3541 8.52461 20.2385Z" fill="white" fill-opacity="0.8"/>
<path d="M8.52461 20.2385C8.10794 18.9569 6.93078 18 5.5 18C4.15296 18 3.03072 18.8481 2.55626 20.017C1.62737 20.4128 1 21.3514 1 22.4091C1 23.8036 2.0976 25 3.53125 25H7.46875C8.9024 25 10 23.8036 10 22.4091C10 21.7563 9.76417 21.1797 9.32709 20.7532C9.08962 20.5215 8.81393 20.3541 8.52461 20.2385Z" stroke="#89CDFF" stroke-width="2" stroke-linejoin="round"/>
<path d="M8.52461 20.2385C8.10794 18.9569 6.93078 18 5.5 18C4.15296 18 3.03072 18.8481 2.55626 20.017C1.62737 20.4128 1 21.3514 1 22.4091C1 23.8036 2.0976 25 3.53125 25H7.46875C8.9024 25 10 23.8036 10 22.4091C10 21.7563 9.76417 21.1797 9.32709 20.7532C9.08962 20.5215 8.81393 20.3541 8.52461 20.2385Z" stroke="white" stroke-opacity="0.8" stroke-width="2" stroke-linejoin="round"/>
<defs>
<clipPath id="clip0">
<rect width="30" height="30" fill="white"/>
</clipPath>
</defs>
</svg>
