<svg width="34" height="31" viewBox="0 0 34 31" fill="none" xmlns="http://www.w3.org/2000/svg">
<g clip-path="url(#clip0)">
<path d="M20.6757 9.43951C21.7655 11.3271 24.766 14.3344 27.8742 14.4946C24.0612 16.6258 19.2144 15.3002 17.0234 11.5053C14.8135 7.6776 16.1297 2.76566 19.9574 0.555741C19.9591 0.554757 19.9608 0.553838 19.9625 0.552836C18.4831 3.34672 19.5859 7.55196 20.6757 9.43951Z" fill="#FFEBB6" stroke="#FFEBB6" stroke-width="2"/>
</g>
<path d="M24.0019 13.4635C23.2244 12.7111 22.2223 12.2292 21.1335 11.9752L21.1329 11.9723L21.132 11.9676L21.1319 11.9673C21.1319 11.9672 21.1319 11.967 21.1319 11.9669C21.1318 11.9668 21.1318 11.9667 21.1318 11.9666C20.4134 8.19508 17.177 5.3125 13.25 5.3125C9.56621 5.3125 6.49009 7.84915 5.5302 11.2766C2.9133 11.9221 1 14.3367 1 17.179C1 20.5036 3.62338 23.25 6.92187 23.25H19.5781C22.8766 23.25 25.5 20.5036 25.5 17.179C25.5 15.6466 24.9539 14.3847 24.0019 13.4635Z" fill="#BEBEBE" stroke="#BEBEBE" stroke-width="2" stroke-linejoin="round"/>
<line x1="13.7071" y1="26.7071" x2="10.7071" y2="29.7071" stroke="#BEBEBE" stroke-width="2"/>
<defs>
<clipPath id="clip0">
<rect width="19" height="19" fill="white" transform="translate(15.001)"/>
</clipPath>
</defs>
</svg>
