<svg width="32" height="30" viewBox="0 0 32 30" fill="none" xmlns="http://www.w3.org/2000/svg">
<g clip-path="url(#clip0)">
<path d="M18.6747 14.9168C19.7645 16.8043 22.765 19.8117 25.8732 19.9718C22.0602 22.103 17.2135 20.7775 15.0225 16.9825C12.8125 13.1548 14.1287 8.24291 17.9564 6.03299C17.9581 6.03201 17.9598 6.03109 17.9616 6.03009C16.4822 8.82397 17.5849 13.0292 18.6747 14.9168Z" fill="#FFEBB6" stroke="#FFEBB6" stroke-width="2"/>
</g>
<path d="M15.0349 16.2484C14.587 15.7777 14.0288 15.4592 13.4275 15.2684C12.9156 12.8945 10.9688 11 8.5 11C6.18572 11 4.33021 12.6648 3.68525 14.8285C2.0744 15.3766 1 17.0145 1 18.8182C1 21.0191 2.61824 23 4.84375 23H12.1562C14.3818 23 16 21.0191 16 18.8182C16 17.7872 15.6607 16.9061 15.0349 16.2484Z" fill="#89CDFF"/>
<path d="M15.0349 16.2484C14.587 15.7777 14.0288 15.4592 13.4275 15.2684C12.9156 12.8945 10.9688 11 8.5 11C6.18572 11 4.33021 12.6648 3.68525 14.8285C2.0744 15.3766 1 17.0145 1 18.8182C1 21.0191 2.61824 23 4.84375 23H12.1562C14.3818 23 16 21.0191 16 18.8182C16 17.7872 15.6607 16.9061 15.0349 16.2484Z" fill="white" fill-opacity="0.8"/>
<path d="M15.0349 16.2484C14.587 15.7777 14.0288 15.4592 13.4275 15.2684C12.9156 12.8945 10.9688 11 8.5 11C6.18572 11 4.33021 12.6648 3.68525 14.8285C2.0744 15.3766 1 17.0145 1 18.8182C1 21.0191 2.61824 23 4.84375 23H12.1562C14.3818 23 16 21.0191 16 18.8182C16 17.7872 15.6607 16.9061 15.0349 16.2484Z" stroke="#89CDFF" stroke-width="2" stroke-linejoin="round"/>
<path d="M15.0349 16.2484C14.587 15.7777 14.0288 15.4592 13.4275 15.2684C12.9156 12.8945 10.9688 11 8.5 11C6.18572 11 4.33021 12.6648 3.68525 14.8285C2.0744 15.3766 1 17.0145 1 18.8182C1 21.0191 2.61824 23 4.84375 23H12.1562C14.3818 23 16 21.0191 16 18.8182C16 17.7872 15.6607 16.9061 15.0349 16.2484Z" stroke="white" stroke-opacity="0.8" stroke-width="2" stroke-linejoin="round"/>
<defs>
<clipPath id="clip0">
<rect width="19" height="19" fill="white" transform="translate(13 5.47723)"/>
</clipPath>
</defs>
</svg>
