<svg width="36" height="33" viewBox="0 0 36 33" fill="none" xmlns="http://www.w3.org/2000/svg">
<g clip-path="url(#clip0)">
<path d="M22.6747 9.43951C23.7645 11.3271 26.765 14.3344 29.8732 14.4946C26.0602 16.6258 21.2135 15.3002 19.0225 11.5053C16.8125 7.6776 18.1287 2.76566 21.9564 0.555741C21.9581 0.554757 21.9598 0.553838 21.9616 0.552836C20.4822 3.34672 21.5849 7.55196 22.6747 9.43951Z" fill="#FFEBB6" stroke="#FFEBB6" stroke-width="2"/>
</g>
<path d="M24.0019 15.4635C23.2244 14.7111 22.2223 14.2292 21.1335 13.9752L21.1329 13.9723L21.132 13.9676L21.1319 13.9673C21.1319 13.9672 21.1319 13.967 21.1319 13.9669C21.1318 13.9668 21.1318 13.9667 21.1318 13.9666C20.4134 10.1951 17.177 7.3125 13.25 7.3125C9.56621 7.3125 6.49009 9.84915 5.5302 13.2766C2.9133 13.9221 1 16.3367 1 19.179C1 22.5036 3.62338 25.25 6.92187 25.25H19.5781C22.8766 25.25 25.5 22.5036 25.5 19.179C25.5 17.6466 24.9539 16.3847 24.0019 15.4635Z" fill="#BEBEBE" stroke="#BEBEBE" stroke-width="2" stroke-linejoin="round"/>
<line x1="16.7071" y1="28.7071" x2="13.7071" y2="31.7071" stroke="#BEBEBE" stroke-width="2"/>
<line x1="10.7071" y1="28.7071" x2="7.70711" y2="31.7071" stroke="#BEBEBE" stroke-width="2"/>
<defs>
<clipPath id="clip0">
<rect width="19" height="19" fill="white" transform="translate(17)"/>
</clipPath>
</defs>
</svg>
