<svg width="37" height="31" viewBox="0 0 37 31" fill="none" xmlns="http://www.w3.org/2000/svg">
<g clip-path="url(#clip0)">
<rect width="19" height="19" transform="translate(17.9346 3.93503)" fill="white"/>
<path d="M23.6093 13.3746C24.6991 15.2621 27.6996 18.2695 30.8078 18.4296C26.9948 20.5608 22.148 19.2352 19.957 15.4403C17.7471 11.6126 19.0633 6.7007 22.891 4.49078C22.8927 4.4898 22.8944 4.48888 22.8961 4.48788C21.4167 7.28176 22.5195 11.487 23.6093 13.3746Z" fill="#FFEBB6" stroke="#FFEBB6" stroke-width="2"/>
</g>
<path d="M24.0019 19.4635C23.2244 18.7111 22.2223 18.2292 21.1335 17.9752L21.1329 17.9723L21.132 17.9676L21.1319 17.9673C21.1319 17.9672 21.1319 17.967 21.1319 17.9669C21.1318 17.9668 21.1318 17.9667 21.1318 17.9666C20.4134 14.1951 17.177 11.3125 13.25 11.3125C9.56621 11.3125 6.49009 13.8492 5.5302 17.2766C2.9133 17.9221 1 20.3367 1 23.179C1 26.5036 3.62338 29.25 6.92187 29.25H19.5781C22.8766 29.25 25.5 26.5036 25.5 23.179C25.5 21.6466 24.9539 20.3847 24.0019 19.4635Z" fill="#89CDFF"/>
<path d="M24.0019 19.4635C23.2244 18.7111 22.2223 18.2292 21.1335 17.9752L21.1329 17.9723L21.132 17.9676L21.1319 17.9673C21.1319 17.9672 21.1319 17.967 21.1319 17.9669C21.1318 17.9668 21.1318 17.9667 21.1318 17.9666C20.4134 14.1951 17.177 11.3125 13.25 11.3125C9.56621 11.3125 6.49009 13.8492 5.5302 17.2766C2.9133 17.9221 1 20.3367 1 23.179C1 26.5036 3.62338 29.25 6.92187 29.25H19.5781C22.8766 29.25 25.5 26.5036 25.5 23.179C25.5 21.6466 24.9539 20.3847 24.0019 19.4635Z" fill="white" fill-opacity="0.8"/>
<path d="M24.0019 19.4635C23.2244 18.7111 22.2223 18.2292 21.1335 17.9752L21.1329 17.9723L21.132 17.9676L21.1319 17.9673C21.1319 17.9672 21.1319 17.967 21.1319 17.9669C21.1318 17.9668 21.1318 17.9667 21.1318 17.9666C20.4134 14.1951 17.177 11.3125 13.25 11.3125C9.56621 11.3125 6.49009 13.8492 5.5302 17.2766C2.9133 17.9221 1 20.3367 1 23.179C1 26.5036 3.62338 29.25 6.92187 29.25H19.5781C22.8766 29.25 25.5 26.5036 25.5 23.179C25.5 21.6466 24.9539 20.3847 24.0019 19.4635Z" stroke="#89CDFF" stroke-width="2" stroke-linejoin="round"/>
<path d="M24.0019 19.4635C23.2244 18.7111 22.2223 18.2292 21.1335 17.9752L21.1329 17.9723L21.132 17.9676L21.1319 17.9673C21.1319 17.9672 21.1319 17.967 21.1319 17.9669C21.1318 17.9668 21.1318 17.9667 21.1318 17.9666C20.4134 14.1951 17.177 11.3125 13.25 11.3125C9.56621 11.3125 6.49009 13.8492 5.5302 17.2766C2.9133 17.9221 1 20.3367 1 23.179C1 26.5036 3.62338 29.25 6.92187 29.25H19.5781C22.8766 29.25 25.5 26.5036 25.5 23.179C25.5 21.6466 24.9539 20.3847 24.0019 19.4635Z" stroke="white" stroke-opacity="0.8" stroke-width="2" stroke-linejoin="round"/>
<defs>
<clipPath id="clip0">
<rect width="19" height="19" fill="white" transform="translate(17.9346 3.93503)"/>
</clipPath>
</defs>
</svg>
