<svg width="30" height="31" viewBox="0 0 30 31" fill="none" xmlns="http://www.w3.org/2000/svg">
<path d="M26.0019 13.4635C25.2244 12.7111 24.2223 12.2292 23.1335 11.9752L23.1329 11.9723L23.132 11.9676L23.1319 11.9673C23.1319 11.9672 23.1319 11.967 23.1319 11.9669C23.1318 11.9668 23.1318 11.9667 23.1318 11.9666C22.4134 8.19508 19.177 5.3125 15.25 5.3125C11.5662 5.3125 8.49009 7.84915 7.5302 11.2766C4.9133 11.9221 3 14.3367 3 17.179C3 20.5036 5.62338 23.25 8.92187 23.25H21.5781C24.8766 23.25 27.5 20.5036 27.5 17.179C27.5 15.6466 26.9539 14.3847 26.0019 13.4635Z" fill="#BEBEBE" stroke="#BEBEBE" stroke-width="2" stroke-linejoin="round"/>
<line x1="21.7071" y1="26.7071" x2="18.7071" y2="29.7071" stroke="#BEBEBE" stroke-width="2"/>
<line x1="15.7071" y1="26.7071" x2="12.7071" y2="29.7071" stroke="#BEBEBE" stroke-width="2"/>
<line x1="9.70711" y1="26.7071" x2="6.70711" y2="29.7071" stroke="#BEBEBE" stroke-width="2"/>
</svg>
