<svg width="35" height="31" viewBox="0 0 35 31" fill="none" xmlns="http://www.w3.org/2000/svg">
<g clip-path="url(#clip0)">
<path d="M21.6093 10.3746C22.6991 12.2621 25.6996 15.2695 28.8078 15.4296C24.9948 17.5608 20.148 16.2353 17.957 12.4403C15.7471 8.61266 17.0633 3.70072 20.891 1.4908C20.8927 1.48982 20.8944 1.4889 20.8961 1.48789C19.4167 4.28178 20.5195 8.48702 21.6093 10.3746Z" fill="#FFEBB6" stroke="#FFEBB6" stroke-width="2"/>
</g>
<path d="M24.0019 13.4635C23.2244 12.7111 22.2223 12.2292 21.1335 11.9752L21.1329 11.9723L21.132 11.9676L21.1319 11.9673C21.1319 11.9672 21.1319 11.967 21.1319 11.9669C21.1318 11.9668 21.1318 11.9667 21.1318 11.9666C20.4134 8.19508 17.177 5.3125 13.25 5.3125C9.56621 5.3125 6.49009 7.84915 5.5302 11.2766C2.9133 11.9221 1 14.3367 1 17.179C1 20.5036 3.62338 23.25 6.92187 23.25H19.5781C22.8766 23.25 25.5 20.5036 25.5 17.179C25.5 15.6466 24.9539 14.3847 24.0019 13.4635Z" fill="#BEBEBE" stroke="#BEBEBE" stroke-width="2" stroke-linejoin="round"/>
<line x1="19.7071" y1="26.7071" x2="16.7071" y2="29.7071" stroke="#BEBEBE" stroke-width="2"/>
<line x1="13.7071" y1="26.7071" x2="10.7071" y2="29.7071" stroke="#BEBEBE" stroke-width="2"/>
<line x1="7.70711" y1="26.7071" x2="4.70711" y2="29.7071" stroke="#BEBEBE" stroke-width="2"/>
<defs>
<clipPath id="clip0">
<rect width="19" height="19" fill="white" transform="translate(15.9346 0.935059)"/>
</clipPath>
</defs>
</svg>
