<svg width="30" height="30" viewBox="0 0 30 30" fill="none" xmlns="http://www.w3.org/2000/svg">
<path d="M26.0019 9.46349C25.2244 8.71111 24.2223 8.22922 23.1335 7.97521L23.1329 7.97227L23.132 7.96764L23.1319 7.96733C23.1319 7.96719 23.1319 7.96704 23.1319 7.96689C23.1318 7.9668 23.1318 7.96667 23.1318 7.96657C22.4134 4.19508 19.177 1.3125 15.25 1.3125C11.5662 1.3125 8.49009 3.84915 7.5302 7.27664C4.9133 7.92214 3 10.3367 3 13.179C3 16.5036 5.62338 19.25 8.92187 19.25H21.5781C24.8766 19.25 27.5 16.5036 27.5 13.179C27.5 11.6466 26.9539 10.3847 26.0019 9.46349Z" fill="#BEBEBE" stroke="#BEBEBE" stroke-width="2" stroke-linejoin="round"/>
<line x1="11.9566" y1="22.8413" x2="7.3766" y2="29.4005" stroke="#EAF3F5" stroke-width="2"/>
<line y1="-1" x2="8" y2="-1" transform="matrix(0.572503 0.819903 0.819903 -0.572503 8.55664 22.2688)" stroke="#EAF3F5" stroke-width="2"/>
<line x1="14" y1="26" x2="6" y2="26" stroke="#EAF3F5" stroke-width="2"/>
<line x1="23.9566" y1="22.5725" x2="19.3766" y2="29.1317" stroke="#EAF3F5" stroke-width="2"/>
<line y1="-1" x2="8" y2="-1" transform="matrix(0.572503 0.819903 0.819903 -0.572503 20.5566 22)" stroke="#EAF3F5" stroke-width="2"/>
<line x1="26" y1="25.7312" x2="18" y2="25.7312" stroke="#EAF3F5" stroke-width="2"/>
</svg>
