<svg width="32" height="31" viewBox="0 0 32 31" fill="none" xmlns="http://www.w3.org/2000/svg">
<path d="M20.8164 17.2062C17.9025 17.2062 15.5303 14.834 15.5303 11.9201C15.5303 9.00626 17.9025 6.63403 20.8164 6.63403C23.7302 6.63403 26.1025 9.00626 26.1025 11.9201C26.1025 14.834 23.7302 17.2062 20.8164 17.2062Z" fill="#FFDE8A" stroke="#FFDE8A" stroke-width="2"/>
<path d="M20.8164 2V4.5" stroke="#FFDE8A" stroke-width="2"/>
<path d="M28.7637 11.9202L31.2621 12.0093" stroke="#FFDE8A" stroke-width="2"/>
<path d="M12.4258 20.4423L15.422 17.446" stroke="#FFDE8A" stroke-width="2"/>
<path d="M26.4746 6.3942L28.2424 4.62643" stroke="#FFDE8A" stroke-width="2"/>
<path d="M24.0019 13.4635C23.2244 12.7111 22.2223 12.2292 21.1335 11.9752L21.1329 11.9723L21.132 11.9676L21.1319 11.9673C21.1319 11.9672 21.1319 11.967 21.1319 11.9669C21.1318 11.9668 21.1318 11.9667 21.1318 11.9666C20.4134 8.19508 17.177 5.3125 13.25 5.3125C9.56621 5.3125 6.49009 7.84915 5.5302 11.2766C2.9133 11.9221 1 14.3367 1 17.179C1 20.5036 3.62338 23.25 6.92187 23.25H19.5781C22.8766 23.25 25.5 20.5036 25.5 17.179C25.5 15.6466 24.9539 14.3847 24.0019 13.4635Z" fill="#BEBEBE" stroke="#BEBEBE" stroke-width="2" stroke-linejoin="round"/>
<line x1="16.7071" y1="26.7071" x2="13.7071" y2="29.7071" stroke="#BEBEBE" stroke-width="2"/>
<line x1="10.7071" y1="26.7071" x2="7.70711" y2="29.7071" stroke="#BEBEBE" stroke-width="2"/>
</svg>
