<svg width="30" height="30" viewBox="0 0 30 30" fill="none" xmlns="http://www.w3.org/2000/svg">
<path d="M14.8353 21.6593C11.0737 21.6593 8.01172 18.5974 8.01172 14.8358C8.01172 11.0741 11.0737 8.01221 14.8353 8.01221C18.5969 8.01221 21.6589 11.0741 21.6589 14.8358C21.6589 18.5974 18.5969 21.6593 14.8353 21.6593Z" fill="#C4F3EB" stroke="#C4F3EB" stroke-width="2"/>
<path d="M14.8359 0V5.27366" stroke="#C4F3EB" stroke-width="2"/>
<path d="M15 24.375V29.6487" stroke="#C4F3EB" stroke-width="2"/>
<path d="M24.7266 14.8357L30.0002 14.8357" stroke="#C4F3EB" stroke-width="2"/>
<path d="M4.39258 4.22925L8.12162 7.95829" stroke="#C4F3EB" stroke-width="2"/>
<path d="M21.877 21.7134L25.606 25.4425" stroke="#C4F3EB" stroke-width="2"/>
<path d="M4.39355 25.4425L8.1226 21.7134" stroke="#C4F3EB" stroke-width="2"/>
<path d="M21.8779 7.95834L25.607 4.2293" stroke="#C4F3EB" stroke-width="2"/>
<path fill-rule="evenodd" clip-rule="evenodd" d="M9.67978 14.2989C9.67978 14.2989 9.74889 14.6818 9.77247 14.6855C11.0451 14.8835 12 15.6933 12 17.1364C12 18.7179 10.8247 20 9.375 20H2.625C1.17525 20 0 18.7179 0 17.1364C0 15.6933 0.97846 14.4995 2.25111 14.3016C2.27469 14.2979 2.2978 14.2971 2.32022 14.2989C2.65833 12.4186 4.1773 11 6 11C7.8227 11 9.34167 12.4186 9.67978 14.2989Z" fill="#89CDFF"/>
<path fill-rule="evenodd" clip-rule="evenodd" d="M9.67978 14.2989C9.67978 14.2989 9.74889 14.6818 9.77247 14.6855C11.0451 14.8835 12 15.6933 12 17.1364C12 18.7179 10.8247 20 9.375 20H2.625C1.17525 20 0 18.7179 0 17.1364C0 15.6933 0.97846 14.4995 2.25111 14.3016C2.27469 14.2979 2.2978 14.2971 2.32022 14.2989C2.65833 12.4186 4.1773 11 6 11C7.8227 11 9.34167 12.4186 9.67978 14.2989Z" fill="white" fill-opacity="0.33"/>
</svg>
