<svg width="30" height="31" viewBox="0 0 30 31" fill="none" xmlns="http://www.w3.org/2000/svg">
<line x1="21.7071" y1="22.7071" x2="18.7071" y2="25.7071" stroke="#BEBEBE" stroke-width="2"/>
<path d="M15.707 19.707L12.707 22.707L17 22.707L11 28.707" stroke="#FFC224" stroke-width="2"/>
<line x1="17.7071" y1="26.7071" x2="14.7071" y2="29.7071" stroke="#BEBEBE" stroke-width="2"/>
<path d="M26.0019 9.46349C25.2244 8.71111 24.2223 8.22922 23.1335 7.97521L23.1329 7.97227L23.132 7.96764L23.1319 7.96733C23.1319 7.96719 23.1319 7.96704 23.1319 7.96689C23.1318 7.9668 23.1318 7.96667 23.1318 7.96657C22.4134 4.19508 19.177 1.3125 15.25 1.3125C11.5662 1.3125 8.49009 3.84915 7.5302 7.27664C4.9133 7.92214 3 10.3367 3 13.179C3 16.5036 5.62338 19.25 8.92187 19.25H21.5781C24.8766 19.25 27.5 16.5036 27.5 13.179C27.5 11.6466 26.9539 10.3847 26.0019 9.46349Z" fill="#BEBEBE" stroke="#BEBEBE" stroke-width="2" stroke-linejoin="round"/>
</svg>
