<svg width="30" height="30" viewBox="0 0 30 30" fill="none" xmlns="http://www.w3.org/2000/svg">
<path d="M20.73 16.73C21.0208 16.4399 21.3787 16.2259 21.7719 16.107C22.1652 15.9881 22.5816 15.9679 22.9845 16.0483C23.3874 16.1286 23.7642 16.307 24.0817 16.5677C24.3993 16.8283 24.6477 17.1632 24.805 17.5427C24.9623 17.9222 25.0236 18.3346 24.9836 18.7434C24.9436 19.1523 24.8035 19.545 24.5756 19.8868C24.3477 20.2286 24.0391 20.509 23.6771 20.7031C23.3151 20.8973 22.9108 20.9992 22.5 21H5" fill="white"/>
<path d="M12.59 13.59C12.8223 13.3563 13.1088 13.1836 13.4239 13.0873C13.739 12.991 14.073 12.9741 14.3963 13.038C14.7195 13.1019 15.022 13.2447 15.2768 13.4536C15.5315 13.6626 15.7307 13.9313 15.8566 14.2358C15.9825 14.5403 16.0313 14.8712 15.9985 15.199C15.9657 15.5269 15.8524 15.8416 15.6687 16.1151C15.4849 16.3887 15.2365 16.6126 14.9454 16.7669C14.6542 16.9213 14.3295 17.0014 14 17H5M15.59 28.41C15.8223 28.6437 16.1088 28.8163 16.4239 28.9126C16.739 29.0089 17.073 29.0259 17.3963 28.962C17.7195 28.8981 18.022 28.7553 18.2768 28.5463C18.5315 28.3374 18.7307 28.0687 18.8566 27.7642C18.9825 27.4597 19.0313 27.1288 18.9985 26.8009C18.9657 26.473 18.8524 26.1584 18.6687 25.8848C18.4849 25.6113 18.2365 25.3874 17.9454 25.233C17.6542 25.0786 17.3295 24.9986 17 25H5M20.73 16.73C21.0208 16.4399 21.3787 16.2259 21.7719 16.107C22.1652 15.9881 22.5816 15.9679 22.9845 16.0483C23.3874 16.1286 23.7642 16.307 24.0817 16.5677C24.3993 16.8283 24.6477 17.1632 24.805 17.5427C24.9623 17.9222 25.0236 18.3346 24.9836 18.7434C24.9436 19.1523 24.8035 19.545 24.5756 19.8868C24.3477 20.2286 24.0391 20.509 23.6771 20.7031C23.3151 20.8973 22.9108 20.9992 22.5 21H5" stroke="#111111" stroke-width="2" stroke-linecap="square" stroke-linejoin="round"/>
</svg>
