<svg width="30" height="30" viewBox="0 0 30 30" fill="none" xmlns="http://www.w3.org/2000/svg">
<path d="M20.73 12.73C21.0208 12.4399 21.3787 12.2259 21.7719 12.107C22.1652 11.9881 22.5816 11.9679 22.9845 12.0483C23.3874 12.1286 23.7642 12.307 24.0817 12.5677C24.3993 12.8283 24.6477 13.1632 24.805 13.5427C24.9623 13.9222 25.0236 14.3346 24.9836 14.7434C24.9436 15.1523 24.8035 15.545 24.5756 15.8868C24.3477 16.2286 24.0391 16.509 23.6771 16.7031C23.3151 16.8973 22.9108 16.9992 22.5 17H5" fill="white"/>
<path d="M12.59 9.58998C12.8223 9.3563 13.1088 9.18363 13.4239 9.08732C13.739 8.99102 14.073 8.97407 14.3963 9.03797C14.7195 9.10188 15.022 9.24466 15.2768 9.45363C15.5315 9.66259 15.7307 9.93127 15.8566 10.2358C15.9825 10.5403 16.0313 10.8712 15.9985 11.199C15.9657 11.5269 15.8524 11.8416 15.6687 12.1151C15.4849 12.3887 15.2365 12.6126 14.9454 12.7669C14.6542 12.9213 14.3295 13.0014 14 13H5M15.59 24.41C15.8223 24.6437 16.1088 24.8163 16.4239 24.9126C16.739 25.0089 17.073 25.0259 17.3963 24.962C17.7195 24.8981 18.022 24.7553 18.2768 24.5463C18.5315 24.3374 18.7307 24.0687 18.8566 23.7642C18.9825 23.4597 19.0313 23.1288 18.9985 22.8009C18.9657 22.473 18.8524 22.1584 18.6687 21.8848C18.4849 21.6113 18.2365 21.3874 17.9454 21.233C17.6542 21.0786 17.3295 20.9986 17 21H5M20.73 12.73C21.0208 12.4399 21.3787 12.2259 21.7719 12.107C22.1652 11.9881 22.5816 11.9679 22.9845 12.0483C23.3874 12.1286 23.7642 12.307 24.0817 12.5677C24.3993 12.8283 24.6477 13.1632 24.805 13.5427C24.9623 13.9222 25.0236 14.3346 24.9836 14.7434C24.9436 15.1523 24.8035 15.545 24.5756 15.8868C24.3477 16.2286 24.0391 16.509 23.6771 16.7031C23.3151 16.8973 22.9108 16.9992 22.5 17H5" stroke="#111111" stroke-width="2" stroke-linecap="square" stroke-linejoin="round"/>
<path d="M7.59 28.41C7.82231 28.6437 8.10875 28.8164 8.42387 28.9127C8.73899 29.009 9.07303 29.0259 9.39628 28.962C9.71953 28.8981 10.022 28.7553 10.2768 28.5464C10.5315 28.3374 10.7307 28.0687 10.8566 27.7642C10.9825 27.4597 11.0313 27.1288 10.9985 26.801C10.9657 26.4731 10.8524 26.1584 10.6687 25.8849C10.4849 25.6113 10.2365 25.3874 9.94536 25.2331C9.65425 25.0787 9.3295 24.9986 9 25H5" stroke="#111111" stroke-width="2" stroke-linecap="square" stroke-linejoin="round"/>
</svg>
