<svg width="30" height="30" viewBox="0 0 30 30" fill="none" xmlns="http://www.w3.org/2000/svg">
<path d="M12.59 20.59C12.8223 20.3563 13.1088 20.1836 13.4239 20.0873C13.739 19.991 14.073 19.9741 14.3963 20.038C14.7195 20.1019 15.022 20.2447 15.2768 20.4536C15.5315 20.6626 15.7307 20.9313 15.8566 21.2358C15.9825 21.5403 16.0313 21.8712 15.9985 22.199C15.9657 22.5269 15.8524 22.8416 15.6687 23.1151C15.4849 23.3887 15.2365 23.6126 14.9454 23.7669C14.6542 23.9213 14.3295 24.0014 14 24H5" stroke="#111111" stroke-width="2" stroke-linecap="square" stroke-linejoin="round"/>
<path d="M20.73 24.73C21.0208 24.4399 21.3787 24.2259 21.7719 24.107C22.1652 23.9881 22.5816 23.9679 22.9845 24.0483C23.3874 24.1286 23.7642 24.307 24.0817 24.5677C24.3993 24.8283 24.6477 25.1632 24.805 25.5427C24.9623 25.9222 25.0236 26.3346 24.9836 26.7434C24.9436 27.1523 24.8035 27.545 24.5756 27.8868C24.3477 28.2286 24.0391 28.509 23.6771 28.7031C23.3151 28.8973 22.9108 28.9993 22.5 29H5" fill="white"/>
<path d="M20.73 24.73C21.0208 24.4399 21.3787 24.2259 21.7719 24.107C22.1652 23.9881 22.5816 23.9679 22.9845 24.0483C23.3874 24.1286 23.7642 24.307 24.0817 24.5677C24.3993 24.8283 24.6477 25.1632 24.805 25.5427C24.9623 25.9222 25.0236 26.3346 24.9836 26.7434C24.9436 27.1523 24.8035 27.545 24.5756 27.8868C24.3477 28.2286 24.0391 28.509 23.6771 28.7031C23.3151 28.8973 22.9108 28.9993 22.5 29H5" stroke="#111111" stroke-width="2" stroke-linecap="square" stroke-linejoin="round"/>
</svg>
