<svg width="79" height="46" viewBox="0 0 79 46" fill="none" xmlns="http://www.w3.org/2000/svg">
<g clip-path="url(#clip0_1106:40080)">
<path d="M44.5145 35.0841C43.4411 37.013 41.0751 38.1671 37.7611 37.258L8.67166 37.258C5.65539 37.9063 3.49307 36.8707 2.51375 35.0683C2.41781 34.8952 2.38984 34.692 2.43541 34.4991C4.1155 27.7836 5.44398 20.9836 6.41533 14.1271C8.06057 3.98462 11.7663 4.73563 11.7663 4.73563L35.2698 4.73563C35.2698 4.73563 38.9755 3.94509 40.6207 14.1271C41.5859 20.9814 42.9118 27.779 44.5928 34.4912C44.6447 34.6915 44.6165 34.9044 44.5145 35.0841Z" fill="#15A3DC"/>
<path d="M39.4219 37.4793C35.0816 37.1394 47.131 37.0525 8.6715 37.258C8.14516 37.3943 7.60756 37.4816 7.06543 37.5189C7.06543 37.4556 7.06543 37.3924 7.12027 37.3291C10.2541 25.653 9.97203 19.0916 9.36877 16.1271C9.27071 15.6552 9.3914 15.164 9.69654 14.793C10.0017 14.4219 10.4579 14.2117 10.9357 14.2219L36.006 14.2219C36.4951 14.2216 36.9564 14.4517 37.253 14.8441C37.5497 15.2365 37.6477 15.7461 37.5181 16.222C35.1129 24.6807 39.5002 37.3687 39.4219 37.4793Z" fill="#15A3DC"/>
<path d="M38.4038 39.5191C38.4038 39.5191 37.6203 49.4008 25.8059 44.5706C25.5709 44.4837 25.328 44.3809 25.0851 44.2702L24.3487 44.5311C12.2522 48.7446 8.79722 42.7445 8.03728 40.8551C7.76307 40.1832 7.99027 39.8749 8.67187 37.2661C13.0043 20.5464 10.1996 13.4316 10.1996 13.4316L36.8369 13.4316C36.8369 13.4316 33.2408 20.0958 37.7613 37.2582C37.9572 38.0092 38.1687 38.7286 38.4038 39.5191Z" fill="#15A3DC"/>
<path d="M25.8687 14.2222C25.8687 46.3888 25.8687 44.3256 25.806 44.5627C25.5709 44.4758 25.3281 44.373 25.0852 44.2623L24.3488 44.5232C24.3018 44.3414 24.3018 46.4126 24.3018 14.2222C24.3018 13.7856 24.6525 13.4316 25.0852 13.4316C25.5179 13.4316 25.8687 13.7856 25.8687 14.2222Z" fill="#15A3DC"/>
<path d="M28.4068 0.459099C21.3949 -0.95595 12.3774 1.02038 11.7663 4.73587C11.7663 4.73587 9.76066 10.4435 16.467 11.8506C25.0849 13.653 25.0849 16.5938 25.0849 17.3844C25.461 14.9416 26.4951 12.57 29.0022 11.8506C35.0896 10.0957 35.0739 5.24971 35.2698 4.73587C34.9172 2.8386 32.2065 1.21801 28.4068 0.459099Z" fill="#15A3DC"/>
<path d="M28.4225 4.49879C26.5345 6.39385 24.8871 8.51819 23.5181 10.823C22.144 8.51959 20.4942 6.39554 18.6059 4.49879C18.3834 4.26986 18.32 3.92801 18.4454 3.6334C18.5708 3.33878 18.8601 3.14976 19.1778 3.15489L27.8584 3.15489C28.1747 3.15301 28.4611 3.34322 28.5844 3.6371C28.7078 3.93098 28.6439 4.27087 28.4225 4.49879Z" fill="#15A3DC"/>
<path d="M28.219 18.9653H25.0852C24.6525 18.9653 24.3018 18.6113 24.3018 18.1747C24.3018 17.7381 24.6525 17.3842 25.0852 17.3842H28.219C28.6517 17.3842 29.0024 17.7381 29.0024 18.1747C29.0024 18.6113 28.6517 18.9653 28.219 18.9653Z" fill="#15A3DC"/>
<path d="M29.7856 19.7559C30.651 19.7559 31.3525 19.048 31.3525 18.1748C31.3525 17.3016 30.651 16.5938 29.7856 16.5938C28.9203 16.5938 28.2188 17.3016 28.2188 18.1748C28.2188 19.048 28.9203 19.7559 29.7856 19.7559Z" fill="#15A3DC"/>
<path d="M44.5145 35.0841C43.4411 37.013 41.0751 38.1671 37.7611 37.258L8.67166 37.258C5.65539 37.9063 3.49307 36.8707 2.51375 35.0683C2.41781 34.8952 2.38984 34.692 2.43541 34.4991C4.1155 27.7836 5.44398 20.9836 6.41533 14.1271C8.06057 3.98462 11.7663 4.73563 11.7663 4.73563L35.2698 4.73563C35.2698 4.73563 38.9755 3.94509 40.6207 14.1271C41.5859 20.9814 42.9118 27.779 44.5928 34.4912C44.6447 34.6915 44.6165 34.9044 44.5145 35.0841Z" fill="#15A3DC"/>
<path d="M39.4219 37.4793C35.0816 37.1394 47.131 37.0525 8.6715 37.258C8.14516 37.3943 7.60756 37.4816 7.06543 37.5189C7.06543 37.4556 7.06543 37.3924 7.12027 37.3291C10.2541 25.653 9.97203 19.0916 9.36877 16.1271C9.27071 15.6552 9.3914 15.164 9.69654 14.793C10.0017 14.4219 10.4579 14.2117 10.9357 14.2219L36.006 14.2219C36.4951 14.2216 36.9564 14.4517 37.253 14.8441C37.5497 15.2365 37.6477 15.7461 37.5181 16.222C35.1129 24.6807 39.5002 37.3687 39.4219 37.4793Z" fill="#110000" fill-opacity="0.1"/>
<path d="M38.4038 39.5191C38.4038 39.5191 37.6203 49.4008 25.8059 44.5706C25.5709 44.4837 25.328 44.3809 25.0851 44.2702L24.3487 44.5311C12.2522 48.7446 8.79722 42.7445 8.03728 40.8551C7.76307 40.1832 7.99027 39.8749 8.67187 37.2661C13.0043 20.5464 10.1996 13.4316 10.1996 13.4316L36.8369 13.4316C36.8369 13.4316 33.2408 20.0958 37.7613 37.2582C37.9572 38.0092 38.1687 38.7286 38.4038 39.5191Z" fill="#15A3DC"/>
<path d="M25.8687 14.2222C25.8687 46.3888 25.8687 44.3256 25.806 44.5627C25.5709 44.4758 25.3281 44.373 25.0852 44.2623L24.3488 44.5232C24.3018 44.3414 24.3018 46.4126 24.3018 14.2222C24.3018 13.7856 24.6525 13.4316 25.0852 13.4316C25.5179 13.4316 25.8687 13.7856 25.8687 14.2222Z" fill="#110000" fill-opacity="0.1"/>
<path d="M28.219 18.9653H25.0852C24.6525 18.9653 24.3018 18.6113 24.3018 18.1747C24.3018 17.7381 24.6525 17.3842 25.0852 17.3842H28.219C28.6517 17.3842 29.0024 17.7381 29.0024 18.1747C29.0024 18.6113 28.6517 18.9653 28.219 18.9653Z" fill="white" fill-opacity="0.66"/>
<path d="M29.7856 19.7559C30.651 19.7559 31.3525 19.048 31.3525 18.1748C31.3525 17.3016 30.651 16.5938 29.7856 16.5938C28.9203 16.5938 28.2188 17.3016 28.2188 18.1748C28.2188 19.048 28.9203 19.7559 29.7856 19.7559Z" fill="white"/>
<path d="M28.4068 0.459099C21.3949 -0.95595 12.3774 1.02038 11.7663 4.73587C11.7663 4.73587 9.76066 10.4435 16.467 11.8506C25.0849 13.653 25.0849 16.5938 25.0849 17.3844C25.461 14.9416 26.4951 12.57 29.0022 11.8506C35.0896 10.0957 35.0739 5.24971 35.2698 4.73587C34.9172 2.8386 32.2065 1.21801 28.4068 0.459099Z" fill="white" fill-opacity="0.66"/>
<path d="M28.4225 4.49879C26.5345 6.39385 24.8871 8.51819 23.5181 10.823C22.144 8.51959 20.4942 6.39554 18.6059 4.49879C18.3834 4.26986 18.32 3.92801 18.4454 3.6334C18.5708 3.33878 18.8601 3.14976 19.1778 3.15489L27.8584 3.15489C28.1747 3.15301 28.4611 3.34322 28.5844 3.6371C28.7078 3.93098 28.6439 4.27087 28.4225 4.49879Z" fill="black" fill-opacity="0.5"/>
</g>
<mask id="path-17-outside-1_1106:40080" maskUnits="userSpaceOnUse" x="65.4004" y="0.459686" width="13" height="46" fill="black">
<rect fill="white" x="65.4004" y="0.459686" width="13" height="46"/>
<path fill-rule="evenodd" clip-rule="evenodd" d="M71.7746 1.45969C70.2905 1.45969 69.0875 2.66273 69.0875 4.14676V34.4424C67.4811 35.4116 66.4004 37.2232 66.4004 39.2981C66.4004 42.3941 68.8065 44.9038 71.7745 44.9038C74.7426 44.9038 77.1487 42.3941 77.1487 39.2981C77.1487 37.2232 76.068 35.4116 74.4616 34.4424V4.14676C74.4616 2.66273 73.2586 1.45969 71.7746 1.45969Z"/>
</mask>
<path d="M69.0875 34.4424L69.6041 35.2986L70.0875 35.0069V34.4424H69.0875ZM74.4616 34.4424H73.4616V35.0069L73.945 35.2986L74.4616 34.4424ZM70.0875 4.14676C70.0875 3.21502 70.8428 2.45969 71.7746 2.45969V0.459686C69.7383 0.459686 68.0875 2.11044 68.0875 4.14676H70.0875ZM70.0875 34.4424V4.14676H68.0875V34.4424H70.0875ZM67.4004 39.2981C67.4004 37.5742 68.2972 36.0871 69.6041 35.2986L68.5709 33.5861C66.6651 34.7361 65.4004 36.8722 65.4004 39.2981H67.4004ZM71.7745 43.9038C69.3981 43.9038 67.4004 41.882 67.4004 39.2981H65.4004C65.4004 42.9062 68.2149 45.9038 71.7745 45.9038V43.9038ZM76.1487 39.2981C76.1487 41.882 74.151 43.9038 71.7745 43.9038V45.9038C75.3342 45.9038 78.1487 42.9062 78.1487 39.2981H76.1487ZM73.945 35.2986C75.2519 36.0872 76.1487 37.5743 76.1487 39.2981H78.1487C78.1487 36.8722 76.884 34.7361 74.9783 33.5862L73.945 35.2986ZM73.4616 4.14676V34.4424H75.4616V4.14676H73.4616ZM71.7746 2.45969C72.7063 2.45969 73.4616 3.21502 73.4616 4.14676H75.4616C75.4616 2.11045 73.8109 0.459686 71.7746 0.459686V2.45969Z" fill="black" mask="url(#path-17-outside-1_1106:40080)"/>
<path fill-rule="evenodd" clip-rule="evenodd" d="M72.6994 26.2857H70.5994V35.2752C68.9462 35.7996 67.7432 37.4024 67.7432 39.2983C67.7432 41.6202 69.5477 43.5025 71.7738 43.5025C73.9998 43.5025 75.8044 41.6202 75.8044 39.2983C75.8044 37.3086 74.4793 35.6417 72.6994 35.2054V26.2857Z" fill="#15A3DC"/>
<path d="M63.25 27.9286L59.3125 30.2998L59.3125 25.5573L63.25 27.9286Z" fill="#111111"/>
<ellipse cx="69.55" cy="39.4286" rx="1.05" ry="1.09524" fill="white" fill-opacity="0.1"/>
<defs>
<clipPath id="clip0_1106:40080">
<rect width="45.1321" height="46" fill="white" transform="translate(0.90918)"/>
</clipPath>
</defs>
</svg>
