<svg width="79" height="46" viewBox="0 0 79 46" fill="none" xmlns="http://www.w3.org/2000/svg">
<g clip-path="url(#clip0_1106:40091)">
<path d="M35.5019 42.0344V45.2068C35.5019 45.6449 35.15 45.9999 34.7159 45.9999H12.7079C12.2738 45.9999 11.9219 45.6449 11.9219 45.2068V42.0344H35.5019Z" fill="#00D5F2"/>
<path d="M10.6958 9.1127C9.96485 33.802 11.136 -4.88558 9.97271 33.3103C9.53754 35.0046 7.82466 36.0232 6.1449 35.5865L3.276 34.841C2.4495 34.6282 1.74414 34.0858 1.32175 33.338C0.899358 32.5903 0.796184 31.7015 1.0359 30.8755C4.28208 19.5658 4.848 17.5355 6.27852 12.5468C6.8507 10.5523 8.63855 9.16233 10.6958 9.1127Z" fill="#00D5F2"/>
<path d="M7.8827 35.5311L7.20674 38.307C7.15202 38.5155 7.0155 38.6925 6.82865 38.7972C6.6418 38.902 6.42073 38.9254 6.21638 38.8621L1.64972 37.6963C1.44732 37.644 1.27387 37.5126 1.16769 37.331C1.0615 37.1495 1.03132 36.9327 1.0838 36.7287L1.7912 33.9608L7.8827 35.5311Z" fill="#00D5F2"/>
<path d="M44.1484 34.841L41.2873 35.5865C40.4795 35.7986 39.6213 35.6779 38.9017 35.2509C38.1822 34.8239 37.6605 34.1258 37.4516 33.3103C36.925 15.7431 37.1687 23.8724 36.7285 9.1127C38.7858 9.16233 40.5736 10.5523 41.1458 12.5468L46.3806 30.931C46.6035 31.7483 46.493 32.6217 46.0736 33.3563C45.6542 34.0909 44.9609 34.6255 44.1484 34.841Z" fill="#00D5F2"/>
<path d="M45.6337 33.9608L46.3411 36.7287C46.3936 36.9327 46.3634 37.1495 46.2572 37.331C46.151 37.5126 45.9776 37.644 45.7752 37.6963L41.2085 38.8621C41.0042 38.9254 40.7831 38.902 40.5962 38.7972C40.4094 38.6925 40.2729 38.5155 40.2181 38.307L39.5107 35.5311L45.6337 33.9608Z" fill="#00D5F2"/>
<path d="M9.72794 20.9856C9.55502 20.9856 9.99518 21.1045 4.32812 19.3994L4.76042 17.8766C10.2624 19.5501 10.1445 19.4232 10.3725 19.7642C10.5261 20.0057 10.5385 20.3121 10.4048 20.5654C10.2711 20.8187 10.0123 20.9794 9.72794 20.9856Z" fill="#00D5F2"/>
<path d="M9.90957 28.417L2.41113 26.0852L3.30717 22.9525L9.83097 24.9749L9.90957 28.417Z" fill="#00D5F2"/>
<path d="M37.5137 28.417L45.0121 26.0852L44.1161 22.9525L37.5923 24.9749L37.5137 28.417Z" fill="#00D5F2"/>
<path d="M43.0942 19.3835C37.4585 21.0966 37.8673 20.9697 37.6943 20.9697C37.4135 21.0108 37.1323 20.8976 36.9567 20.6728C36.781 20.4479 36.7375 20.1456 36.8427 19.8797C36.9478 19.6137 37.1856 19.4246 37.4664 19.3835C42.709 17.7973 42.5833 17.7973 42.6619 17.7973L43.0942 19.3835Z" fill="#00D5F2"/>
<path d="M37.8596 12.3803C37.781 15.8145 37.498 30.0903 37.2544 40.5038C37.2245 41.7961 36.1775 42.8279 34.8964 42.8276H12.5268C11.2457 42.8279 10.1987 41.7961 10.1688 40.5038C9.9723 31.9065 9.56358 12.4596 9.56358 12.3803C9.53877 11.1892 9.94064 10.029 10.6954 9.11274C11.9216 7.60585 13.2892 7.39171 15.152 6.84447L32.2711 6.84447L34.1575 7.39964C36.3627 8.02857 37.8787 10.0681 37.8596 12.3803Z" fill="#00D5F2"/>
<path d="M37.6635 21.4138V23L9.79199 23C9.79199 22.0245 9.79199 22.3894 9.79199 21.4138L37.6635 21.4138Z" fill="#00D5F2"/>
<path d="M24.4978 17.4483L24.4978 46H22.9258L22.9258 17.4483C22.9258 17.0102 23.2777 16.6552 23.7118 16.6552C24.1459 16.6552 24.4978 17.0102 24.4978 17.4483Z" fill="#00D5F2"/>
<path d="M23.7116 13.4828L22.0689 16.2507C21.9249 16.4958 21.9222 16.8001 22.062 17.0477C22.2018 17.2953 22.4624 17.4483 22.7448 17.4483H24.6863C24.9673 17.4454 25.2254 17.2914 25.3632 17.0443C25.5011 16.7972 25.4977 16.4946 25.3544 16.2507L23.7116 13.4828Z" fill="#00D5F2"/>
<path d="M24.4977 2.37933C24.4977 2.37933 16.6377 2.37933 16.6377 5.55175C16.6377 8.72416 20.5677 14.2759 25.2837 12.6897C29.9997 11.1035 31.5717 6.34485 30.7857 4.75865C29.9997 3.17244 27.6417 2.37933 27.6417 2.37933L24.4977 2.37933Z" fill="#00D5F2"/>
<path d="M30.7857 1.58621C30.7189 2.8046 30.3602 3.98847 29.7403 5.03621C25.8458 3.60839 21.5776 3.60839 17.6831 5.03621C17.0632 3.98847 16.7044 2.8046 16.6377 1.58621C16.6377 0.713793 19.7817 0 23.7117 0C27.6417 0 30.7857 0.713793 30.7857 1.58621Z" fill="#00D5F2"/>
<path d="M23.7124 13.4827C16.6384 12.6896 15.0664 7.13791 15.0664 7.13791L16.6384 1.58618C16.7052 2.80458 17.0639 3.98844 17.6838 5.03618C18.3874 6.23165 19.3798 7.22761 20.5684 7.93101C22.5315 9.07452 23.7327 11.1956 23.7124 13.4827Z" fill="#00D5F2"/>
<path d="M32.358 7.13791C32.358 7.13791 30.786 12.6896 23.712 13.4827C23.7016 11.1982 24.9002 9.08176 26.856 7.93101C28.0446 7.22761 29.0371 6.23165 29.7407 5.03618C30.3606 3.98844 30.7193 2.80458 30.786 1.58618L32.358 7.13791Z" fill="#00D5F2"/>
<path d="M35.5019 42.0344V45.2068C35.5019 45.6449 35.15 45.9999 34.7159 45.9999H12.7079C12.2738 45.9999 11.9219 45.6449 11.9219 45.2068V42.0344H35.5019Z" fill="black" fill-opacity="0.25"/>
<path d="M10.6958 9.1127C9.96485 33.802 11.136 -4.88558 9.97271 33.3103C9.53754 35.0046 7.82466 36.0232 6.1449 35.5865L3.276 34.841C2.4495 34.6282 1.74414 34.0858 1.32175 33.338C0.899358 32.5903 0.796184 31.7015 1.0359 30.8755C4.28208 19.5658 4.848 17.5355 6.27852 12.5468C6.8507 10.5523 8.63855 9.16233 10.6958 9.1127Z" fill="#00D5F2"/>
<path d="M7.8827 35.5311L7.20674 38.307C7.15202 38.5155 7.0155 38.6925 6.82865 38.7972C6.6418 38.902 6.42073 38.9254 6.21638 38.8621L1.64972 37.6963C1.44732 37.644 1.27387 37.5126 1.16769 37.331C1.0615 37.1495 1.03132 36.9327 1.0838 36.7287L1.7912 33.9608L7.8827 35.5311Z" fill="black" fill-opacity="0.25"/>
<path d="M44.1484 34.841L41.2873 35.5865C40.4795 35.7986 39.6213 35.6779 38.9017 35.2509C38.1822 34.8239 37.6605 34.1258 37.4516 33.3103C36.925 15.7431 37.1687 23.8724 36.7285 9.1127C38.7858 9.16233 40.5736 10.5523 41.1458 12.5468L46.3806 30.931C46.6035 31.7483 46.493 32.6217 46.0736 33.3563C45.6542 34.0909 44.9609 34.6255 44.1484 34.841Z" fill="#00D5F2"/>
<path d="M45.6337 33.9608L46.3411 36.7287C46.3936 36.9327 46.3634 37.1495 46.2572 37.331C46.151 37.5126 45.9776 37.644 45.7752 37.6963L41.2085 38.8621C41.0042 38.9254 40.7831 38.902 40.5962 38.7972C40.4094 38.6925 40.2729 38.5155 40.2181 38.307L39.5107 35.5311L45.6337 33.9608Z" fill="black" fill-opacity="0.25"/>
<path d="M9.72794 20.9856C9.55502 20.9856 9.99518 21.1045 4.32812 19.3994L4.76042 17.8766C10.2624 19.5501 10.1445 19.4232 10.3725 19.7642C10.5261 20.0057 10.5385 20.3121 10.4048 20.5654C10.2711 20.8187 10.0123 20.9794 9.72794 20.9856Z" fill="white"/>
<path d="M9.90957 28.417L2.41113 26.0852L3.30717 22.9525L9.83097 24.9749L9.90957 28.417Z" fill="white" fill-opacity="0.66"/>
<path d="M37.5137 28.417L45.0121 26.0852L44.1161 22.9525L37.5923 24.9749L37.5137 28.417Z" fill="white" fill-opacity="0.66"/>
<path d="M43.0942 19.3835C37.4585 21.0966 37.8673 20.9697 37.6943 20.9697C37.4135 21.0108 37.1323 20.8976 36.9567 20.6728C36.781 20.4479 36.7375 20.1456 36.8427 19.8797C36.9478 19.6137 37.1856 19.4246 37.4664 19.3835C42.709 17.7973 42.5833 17.7973 42.6619 17.7973L43.0942 19.3835Z" fill="white"/>
<path d="M37.8596 12.3803C37.781 15.8145 37.498 30.0903 37.2544 40.5038C37.2245 41.7961 36.1775 42.8279 34.8964 42.8276H12.5268C11.2457 42.8279 10.1987 41.7961 10.1688 40.5038C9.9723 31.9065 9.56358 12.4596 9.56358 12.3803C9.53877 11.1892 9.94064 10.029 10.6954 9.11274C11.9216 7.60585 13.2892 7.39171 15.152 6.84447L32.2711 6.84447L34.1575 7.39964C36.3627 8.02857 37.8787 10.0681 37.8596 12.3803Z" fill="#00D5F2"/>
<path d="M37.6635 21.4138V23L9.79199 23C9.79199 22.0245 9.79199 22.3894 9.79199 21.4138L37.6635 21.4138Z" fill="white"/>
<path fill-rule="evenodd" clip-rule="evenodd" d="M22.0689 16.2507L23.7116 13.4828L25.3544 16.2507C25.4977 16.4946 25.5011 16.7972 25.3632 17.0443C25.2254 17.2914 24.9673 17.4454 24.6863 17.4483H24.4977L24.4977 46H22.9257L22.9257 17.4483H22.7448C22.4624 17.4483 22.2018 17.2953 22.062 17.0477C21.9222 16.8001 21.9249 16.4958 22.0689 16.2507Z" fill="#110000" fill-opacity="0.1"/>
<path d="M24.4977 2.37933C24.4977 2.37933 16.6377 2.37933 16.6377 5.55175C16.6377 8.72416 20.5677 14.2759 25.2837 12.6897C29.9997 11.1035 31.5717 6.34485 30.7857 4.75865C29.9997 3.17244 27.6417 2.37933 27.6417 2.37933L24.4977 2.37933Z" fill="black" fill-opacity="0.5"/>
<path d="M30.7857 1.58621C30.7189 2.8046 30.3602 3.98847 29.7403 5.03621C25.8458 3.60839 21.5776 3.60839 17.6831 5.03621C17.0632 3.98847 16.7044 2.8046 16.6377 1.58621C16.6377 0.713793 19.7817 0 23.7117 0C27.6417 0 30.7857 0.713793 30.7857 1.58621Z" fill="#00D5F2"/>
<path d="M23.7124 13.4827C16.6384 12.6896 15.0664 7.13791 15.0664 7.13791L16.6384 1.58618C16.7052 2.80458 17.0639 3.98844 17.6838 5.03618C18.3874 6.23165 19.3798 7.22761 20.5684 7.93101C22.5315 9.07452 23.7327 11.1956 23.7124 13.4827Z" fill="white" fill-opacity="0.25"/>
<path d="M32.358 7.13791C32.358 7.13791 30.786 12.6896 23.712 13.4827C23.7016 11.1982 24.9002 9.08176 26.856 7.93101C28.0446 7.22761 29.0371 6.23165 29.7407 5.03618C30.3606 3.98844 30.7193 2.80458 30.786 1.58618L32.358 7.13791Z" fill="white" fill-opacity="0.25"/>
</g>
<mask id="path-34-outside-1_1106:40091" maskUnits="userSpaceOnUse" x="65.4004" y="0.0942993" width="13" height="46" fill="black">
<rect fill="white" x="65.4004" y="0.0942993" width="13" height="46"/>
<path fill-rule="evenodd" clip-rule="evenodd" d="M71.7746 1.0943C70.2905 1.0943 69.0875 2.29734 69.0875 3.78138V34.077C67.4811 35.0462 66.4004 36.8578 66.4004 38.9327C66.4004 42.0287 68.8065 44.5384 71.7745 44.5384C74.7426 44.5384 77.1487 42.0287 77.1487 38.9327C77.1487 36.8578 76.068 35.0463 74.4616 34.077V3.78138C74.4616 2.29735 73.2586 1.0943 71.7746 1.0943Z"/>
</mask>
<path d="M69.0875 34.077L69.6041 34.9332L70.0875 34.6415V34.077H69.0875ZM74.4616 34.077H73.4616V34.6415L73.945 34.9332L74.4616 34.077ZM70.0875 3.78138C70.0875 2.84963 70.8428 2.0943 71.7746 2.0943V0.0942993C69.7383 0.0942993 68.0875 1.74506 68.0875 3.78138H70.0875ZM70.0875 34.077V3.78138H68.0875V34.077H70.0875ZM67.4004 38.9327C67.4004 37.2089 68.2972 35.7218 69.6041 34.9332L68.5709 33.2208C66.6651 34.3707 65.4004 36.5068 65.4004 38.9327H67.4004ZM71.7745 43.5384C69.3981 43.5384 67.4004 41.5166 67.4004 38.9327H65.4004C65.4004 42.5408 68.2149 45.5384 71.7745 45.5384V43.5384ZM76.1487 38.9327C76.1487 41.5166 74.151 43.5384 71.7745 43.5384V45.5384C75.3342 45.5384 78.1487 42.5408 78.1487 38.9327H76.1487ZM73.945 34.9332C75.2519 35.7218 76.1487 37.2089 76.1487 38.9327H78.1487C78.1487 36.5068 76.884 34.3707 74.9783 33.2208L73.945 34.9332ZM73.4616 3.78138V34.077H75.4616V3.78138H73.4616ZM71.7746 2.0943C72.7063 2.0943 73.4616 2.84963 73.4616 3.78138H75.4616C75.4616 1.74506 73.8109 0.0942993 71.7746 0.0942993V2.0943Z" fill="black" mask="url(#path-34-outside-1_1106:40091)"/>
<path fill-rule="evenodd" clip-rule="evenodd" d="M72.6994 21.9048H70.5994V34.9099C68.9462 35.4343 67.7432 37.037 67.7432 38.9329C67.7432 41.2548 69.5477 43.1372 71.7738 43.1372C73.9998 43.1372 75.8044 41.2548 75.8044 38.9329C75.8044 36.9432 74.4793 35.2763 72.6994 34.84V21.9048Z" fill="#00D5F2"/>
<ellipse cx="69.55" cy="39.4286" rx="1.05" ry="1.09524" fill="white" fill-opacity="0.25"/>
<path d="M63.25 22.4524L59.3125 24.8236L59.3125 20.0811L63.25 22.4524Z" fill="#111111"/>
<defs>
<clipPath id="clip0_1106:40091">
<rect width="45.1321" height="46" fill="white" transform="translate(0.90918)"/>
</clipPath>
</defs>
</svg>
