<svg width="79" height="46" viewBox="0 0 79 46" fill="none" xmlns="http://www.w3.org/2000/svg">
<g clip-path="url(#clip0_1106:40056)">
<g clip-path="url(#clip1_1106:40056)">
<path d="M17.6924 6.34486L18.6354 7.79448L18.5481 9.51787L20.0967 10.3033L20.8881 11.8402L22.6249 11.7538L24.0858 12.6896L25.5466 11.7538L27.2831 11.8404L28.0746 10.3036L29.6232 9.51823L29.5361 7.79466L30.4792 6.34486L29.5361 4.89514L29.6235 3.17184L28.0748 2.38634L27.2834 0.849383L25.5467 0.935902L24.0858 0L22.625 0.935902L20.8885 0.849203L20.097 2.38607L18.5484 3.17139L18.6354 4.89505L17.6924 6.34486Z" fill="#5F55D0"/>
<path d="M26.1422 9.66548L26.5781 8.81906L27.5459 8.32816L27.4915 7.25102L28.0809 6.34486L27.4915 5.43869L27.546 4.36165L26.5782 3.87074L26.0836 2.91022L24.9981 2.96422L24.0851 2.37933L23.1722 2.96422L22.0868 2.91013L21.5922 3.87056L20.6243 4.36138L20.6787 5.43869L20.0893 6.34486L20.6787 7.25084L20.6242 8.32798L21.592 8.81888L22.0279 9.66548C21.271 9.77195 20.5252 9.93223 19.7939 10.1501L20.096 10.3034L20.8875 11.8402L22.6243 11.7538L24.0851 12.6896L25.5459 11.7537L27.2824 11.8403L28.0739 10.3036L28.3765 10.1501C27.6452 9.93232 26.8992 9.77195 26.1422 9.66548Z" fill="#5F55D0"/>
<path d="M24.0853 11.1034C13.4924 11.1034 4.90527 23.5313 4.90527 38.8621H43.2654C43.2654 23.5313 34.6783 11.1034 24.0853 11.1034Z" fill="#5F55D0"/>
<path d="M40.5188 24.5448C40.376 24.5655 40.2331 24.5862 40.0641 24.5862C38.064 24.5862 38.064 23 36.0639 23C34.0652 23 34.0652 24.5862 32.0663 24.5862C30.0693 24.5862 30.0693 23 28.0723 23C26.0742 23 26.0742 24.5862 24.0761 24.5862C22.0784 24.5862 22.0784 23 20.0809 23C18.0835 23 18.0834 24.5862 16.0858 24.5862C14.0882 24.5862 14.0882 23 12.0907 23C10.094 23 10.094 24.5862 8.09736 24.5862C7.9344 24.5862 7.78566 24.5749 7.64723 24.5555C6.77099 26.66 6.08612 28.9483 5.61816 31.3683C6.33553 31.8378 6.78918 32.5172 8.09745 32.5172C10.0942 32.5172 10.0942 30.931 12.0908 30.931C14.0884 30.931 14.0884 32.5172 16.0859 32.5172C18.0836 32.5172 18.0836 30.931 20.081 30.931C22.0787 30.931 22.0787 32.5172 24.0762 32.5172C26.0743 32.5172 26.0743 30.931 28.0724 30.931C30.0694 30.931 30.0694 32.5172 32.0664 32.5172C34.0652 32.5172 34.0652 30.931 36.064 30.931C38.0641 30.931 38.0641 32.5172 40.0642 32.5172C41.3783 32.5172 41.8296 31.8331 42.5514 31.3634C42.0825 28.9413 41.3966 26.6507 40.5188 24.5448Z" fill="#5F55D0"/>
<path d="M4.90527 38.8621L43.2654 38.8621C43.2654 38.0599 43.2365 37.2677 43.1905 36.4828L4.98023 36.4828C4.93415 37.2677 4.90527 38.0599 4.90527 38.8621Z" fill="#5F55D0"/>
<path d="M43.2658 46L4.90565 46C4.46431 46 4.10645 45.6448 4.10645 45.2068L4.10645 38.862C4.10645 38.424 4.46431 38.0688 4.90565 38.0688L43.2658 38.0688C43.7071 38.0688 44.065 38.424 44.065 38.862V45.2068C44.065 45.6448 43.7071 46 43.2658 46Z" fill="#5F55D0"/>
<path d="M24.0931 22.2069C23.6514 22.2069 23.29 21.8522 23.29 21.4137C23.29 20.9754 23.6436 20.6206 24.0854 20.6206H24.0931C24.5348 20.6206 24.8924 20.9753 24.8924 21.4137C24.8924 21.8522 24.5349 22.2069 24.0931 22.2069Z" fill="#5F55D0"/>
<path d="M20.097 34.8966C19.6553 34.8966 19.2939 34.5419 19.2939 34.1034C19.2939 33.6651 19.6475 33.3103 20.0893 33.3103H20.097C20.5387 33.3103 20.8963 33.665 20.8963 34.1034C20.8963 34.5419 20.5388 34.8966 20.097 34.8966Z" fill="#5F55D0"/>
<path d="M28.0892 34.8966C27.6475 34.8966 27.2861 34.5419 27.2861 34.1034C27.2861 33.6651 27.6397 33.3103 28.0814 33.3103H28.0892C28.5309 33.3103 28.8884 33.665 28.8884 34.1034C28.8884 34.5419 28.5309 34.8966 28.0892 34.8966Z" fill="#5F55D0"/>
<path d="M36.0726 34.8966C35.6309 34.8966 35.2695 34.5419 35.2695 34.1034C35.2695 33.6651 35.6231 33.3103 36.0648 33.3103H36.0726C36.5143 33.3103 36.8718 33.665 36.8718 34.1034C36.8717 34.5419 36.5143 34.8966 36.0726 34.8966Z" fill="#5F55D0"/>
<path d="M12.1058 34.8966C11.6641 34.8966 11.3027 34.5419 11.3027 34.1034C11.3027 33.6651 11.6563 33.3103 12.098 33.3103H12.1058C12.5475 33.3103 12.905 33.665 12.905 34.1034C12.905 34.5419 12.5476 34.8966 12.1058 34.8966Z" fill="#5F55D0"/>
<path d="M32.0843 22.2069C31.6426 22.2069 31.2812 21.8522 31.2812 21.4137C31.2812 20.9754 31.6348 20.6206 32.0766 20.6206H32.0843C32.526 20.6206 32.8836 20.9753 32.8836 21.4137C32.8836 21.8522 32.526 22.2069 32.0843 22.2069Z" fill="#5F55D0"/>
<path d="M16.0941 22.2069C15.6524 22.2069 15.291 21.8522 15.291 21.4137C15.291 20.9754 15.6445 20.6206 16.0863 20.6206H16.0941C16.5358 20.6206 16.8933 20.9753 16.8933 21.4137C16.8933 21.8522 16.5359 22.2069 16.0941 22.2069Z" fill="#5F55D0"/>
<path d="M14.4965 45.2068C14.0551 45.2068 13.6973 44.8517 13.6973 44.4137V38.0688H15.2956V44.4137C15.2957 44.8518 14.9378 45.2068 14.4965 45.2068Z" fill="#5F55D0"/>
<path d="M17.6918 45.2068C17.2504 45.2068 16.8926 44.8517 16.8926 44.4137V38.0688H18.4909V44.4137C18.491 44.8518 18.1331 45.2068 17.6918 45.2068Z" fill="#5F55D0"/>
<path d="M8.10292 45.2068C7.66158 45.2068 7.30371 44.8517 7.30371 44.4137L7.30371 38.0688H8.90204V44.4137C8.90213 44.8518 8.54426 45.2068 8.10292 45.2068Z" fill="#5F55D0"/>
<path d="M4.90565 45.2068C4.46431 45.2068 4.10645 44.8517 4.10645 44.4137L4.10645 38.862C4.10645 38.424 4.46431 38.0688 4.90565 38.0688H5.70486L5.70486 44.4137C5.70486 44.8518 5.34699 45.2068 4.90565 45.2068Z" fill="#5F55D0"/>
<path d="M43.266 45.2068C43.7073 45.2068 44.0652 44.8517 44.0652 44.4137V38.862C44.0652 38.424 43.7073 38.0688 43.266 38.0688H42.4668V44.4137C42.4668 44.8518 42.8247 45.2068 43.266 45.2068Z" fill="#5F55D0"/>
<path d="M11.2992 45.2068C10.8579 45.2068 10.5 44.8517 10.5 44.4137V38.0688H12.0983V44.4137C12.0983 44.8518 11.7405 45.2068 11.2992 45.2068Z" fill="#5F55D0"/>
<path d="M27.2826 45.2068C26.8413 45.2068 26.4834 44.8517 26.4834 44.4137V38.0688H28.0817V44.4137C28.0818 44.8518 27.7239 45.2068 27.2826 45.2068Z" fill="#5F55D0"/>
<path d="M30.4789 45.2068C30.0376 45.2068 29.6797 44.8517 29.6797 44.4137V38.0688H31.278V44.4137C31.278 44.8518 30.9202 45.2068 30.4789 45.2068Z" fill="#5F55D0"/>
<path d="M20.8891 45.2068C20.4477 45.2068 20.0898 44.8517 20.0898 44.4137V38.0688H21.6882V44.4137C21.6882 44.8518 21.3304 45.2068 20.8891 45.2068Z" fill="#5F55D0"/>
<path d="M24.0853 45.2068C23.644 45.2068 23.2861 44.8517 23.2861 44.4137V38.0688H24.8845V44.4137C24.8845 44.8518 24.5267 45.2068 24.0853 45.2068Z" fill="#5F55D0"/>
<path d="M36.8734 45.2068C36.4321 45.2068 36.0742 44.8517 36.0742 44.4137V38.0688H37.6725V44.4137C37.6726 44.8518 37.3148 45.2068 36.8734 45.2068Z" fill="#5F55D0"/>
<path d="M40.0687 45.2068C39.6274 45.2068 39.2695 44.8517 39.2695 44.4137V38.0688H40.8679V44.4137C40.8679 44.8518 40.5101 45.2068 40.0687 45.2068Z" fill="#5F55D0"/>
<path d="M33.6762 45.2068C33.2348 45.2068 32.877 44.8517 32.877 44.4137V38.0688H34.4753V44.4137C34.4754 44.8518 34.1175 45.2068 33.6762 45.2068Z" fill="#5F55D0"/>
<path d="M7.51863 25.3391C7.69571 25.3655 7.88773 25.3793 8.09776 25.3793C9.37696 25.3793 10.052 24.8434 10.5943 24.412C11.0634 24.0394 11.3733 23.7931 12.0912 23.7931C12.8099 23.7931 13.1198 24.0394 13.5896 24.4128C14.1321 24.8434 14.8072 25.3794 16.0862 25.3794C17.3653 25.3794 18.0411 24.8435 18.5836 24.4121C19.0526 24.0395 19.3633 23.7932 20.0813 23.7932C20.8 23.7932 21.1099 24.0395 21.5797 24.4129C22.1222 24.8435 22.7973 25.3795 24.0763 25.3795C25.3562 25.3795 26.0312 24.8436 26.5745 24.4129C27.0444 24.0395 27.3542 23.7932 28.073 23.7932C28.7911 23.7932 29.1016 24.0395 29.5706 24.4121C30.1131 24.8435 30.7882 25.3794 32.0672 25.3794C33.3471 25.3794 34.0222 24.8435 34.5654 24.4128C35.0353 24.0394 35.3459 23.7931 36.0647 23.7931C36.785 23.7931 37.1128 24.0534 37.5662 24.4128C38.1087 24.8434 38.7845 25.3794 40.0644 25.3794C40.3259 25.3794 40.567 25.3577 40.7995 25.3136L40.8233 25.31C40.6218 24.7899 40.4087 24.2811 40.1852 23.7824C40.1433 23.7844 40.1088 23.7931 40.0644 23.7931C39.3449 23.7931 39.0171 23.5337 38.5637 23.1735C38.0212 22.7429 37.3454 22.2068 36.0647 22.2068C34.7848 22.2068 34.1098 22.7428 33.5665 23.1735C33.0966 23.5469 32.786 23.7931 32.0672 23.7931C31.3491 23.7931 31.0386 23.5469 30.5695 23.1743C30.0271 22.7429 29.352 22.2069 28.073 22.2069C26.7939 22.2069 26.1187 22.7429 25.5756 23.1736C25.1057 23.547 24.7951 23.7932 24.0763 23.7932C23.3582 23.7932 23.0477 23.547 22.5786 23.1744C22.0362 22.7429 21.3604 22.207 20.0813 22.207C18.802 22.207 18.127 22.7429 17.5847 23.1737C17.1148 23.547 16.805 23.7933 16.0862 23.7933C15.3681 23.7933 15.0576 23.547 14.5886 23.1745C14.0461 22.743 13.3703 22.2071 12.0912 22.2071C10.8128 22.2071 10.1377 22.743 9.59532 23.1737C9.12628 23.5471 8.81567 23.7934 8.09767 23.7934C8.05684 23.7934 8.02035 23.7915 7.98296 23.79C7.76125 24.2851 7.54959 24.7901 7.34961 25.3062L7.51863 25.3391Z" fill="#5F55D0"/>
<path d="M42.3936 30.5674L42.271 30.6157C42.2226 30.6343 42.1757 30.6583 42.132 30.6869C41.9306 30.8163 41.748 30.9595 41.5654 31.1044C41.1119 31.4638 40.7842 31.7241 40.0638 31.7241C39.3443 31.7241 39.0165 31.4646 38.5631 31.1044C38.0206 30.6738 37.3448 30.1378 36.0641 30.1378C34.7841 30.1378 34.1091 30.6737 33.5659 31.1044C33.096 31.4778 32.7854 31.7241 32.0666 31.7241C31.3485 31.7241 31.038 31.4778 30.5689 31.1053C30.0265 30.6738 29.3514 30.1379 28.0724 30.1379C26.7933 30.1379 26.1181 30.6738 25.575 31.1045C25.1051 31.4779 24.7945 31.7242 24.0757 31.7242C23.3576 31.7242 23.0471 31.4779 22.578 31.1053C22.0356 30.6739 21.3598 30.138 20.0806 30.138C18.8014 30.138 18.1263 30.6739 17.5841 31.1046C17.1142 31.478 16.8044 31.7243 16.0856 31.7243C15.3675 31.7243 15.057 31.478 14.5879 31.1054C14.0455 30.674 13.3697 30.1381 12.0906 30.1381C10.8122 30.1381 10.1371 30.674 9.59471 31.1047C9.12567 31.4781 8.81506 31.7244 8.09706 31.7244C7.37978 31.7244 7.06998 31.4781 6.60094 31.1055C6.39028 30.9375 6.17798 30.7709 5.87832 30.5936L5.78182 30.5461C5.66123 31.1023 5.55549 31.6679 5.45898 32.2386C5.50516 32.2748 5.5563 32.3067 5.60211 32.3432C6.14367 32.7737 6.81795 33.3105 8.09715 33.3105C9.37635 33.3105 10.0514 32.7746 10.5937 32.3431C11.0628 31.9705 11.3726 31.7243 12.0906 31.7243C12.8093 31.7243 13.1192 31.9705 13.589 32.3439C14.1315 32.7746 14.8066 33.3106 16.0856 33.3106C17.3647 33.3106 18.0405 32.7746 18.583 32.3432C19.052 31.9706 19.3626 31.7244 20.0806 31.7244C20.7994 31.7244 21.1093 31.9706 21.5791 32.344C22.1216 32.7746 22.7967 33.3107 24.0757 33.3107C25.3556 33.3107 26.0306 32.7747 26.5739 32.344C27.0437 31.9706 27.3535 31.7244 28.0724 31.7244C28.7904 31.7244 29.101 31.9706 29.57 32.3432C30.1125 32.7746 30.7876 33.3106 32.0666 33.3106C33.3465 33.3106 34.0216 32.7746 34.5648 32.3439C35.0346 31.9705 35.3452 31.7243 36.0641 31.7243C36.7844 31.7243 37.1121 31.9846 37.5656 32.3439C38.1081 32.7746 38.7839 33.3106 40.0638 33.3106C41.3437 33.3106 42.0204 32.7746 42.5636 32.3439C42.6114 32.3058 42.6621 32.2703 42.7104 32.2326C42.6155 31.6711 42.512 31.1148 42.3936 30.5674Z" fill="#5F55D0"/>
</g>
<g clip-path="url(#clip2_1106:40056)">
<path d="M17.6924 6.34486L18.6354 7.79448L18.5481 9.51787L20.0967 10.3033L20.8881 11.8402L22.6249 11.7538L24.0858 12.6896L25.5466 11.7538L27.2831 11.8404L28.0746 10.3036L29.6232 9.51823L29.5361 7.79466L30.4792 6.34486L29.5361 4.89514L29.6235 3.17184L28.0748 2.38634L27.2834 0.849383L25.5467 0.935902L24.0858 0L22.625 0.935902L20.8885 0.849203L20.097 2.38607L18.5484 3.17139L18.6354 4.89505L17.6924 6.34486Z" fill="white" fill-opacity="0.25"/>
<path d="M26.1422 9.66548L26.5781 8.81906L27.5459 8.32816L27.4915 7.25102L28.0809 6.34486L27.4915 5.43869L27.546 4.36165L26.5782 3.87074L26.0836 2.91022L24.9981 2.96422L24.0851 2.37933L23.1722 2.96422L22.0868 2.91013L21.5922 3.87056L20.6243 4.36138L20.6787 5.43869L20.0893 6.34486L20.6787 7.25084L20.6242 8.32798L21.592 8.81888L22.0279 9.66548C21.271 9.77195 20.5252 9.93223 19.7939 10.1501L20.096 10.3034L20.8875 11.8402L22.6243 11.7538L24.0851 12.6896L25.5459 11.7537L27.2824 11.8403L28.0739 10.3036L28.3765 10.1501C27.6452 9.93232 26.8992 9.77195 26.1422 9.66548Z" fill="white" fill-opacity="0.66"/>
<path d="M24.0853 11.1034C13.4924 11.1034 4.90527 23.5313 4.90527 38.8621H43.2654C43.2654 23.5313 34.6783 11.1034 24.0853 11.1034Z" fill="#110000" fill-opacity="0.1"/>
<path d="M40.5188 24.5448C40.376 24.5655 40.2331 24.5862 40.0641 24.5862C38.064 24.5862 38.064 23 36.0639 23C34.0652 23 34.0652 24.5862 32.0663 24.5862C30.0693 24.5862 30.0693 23 28.0723 23C26.0742 23 26.0742 24.5862 24.0761 24.5862C22.0784 24.5862 22.0784 23 20.0809 23C18.0835 23 18.0834 24.5862 16.0858 24.5862C14.0882 24.5862 14.0882 23 12.0907 23C10.094 23 10.094 24.5862 8.09736 24.5862C7.9344 24.5862 7.78566 24.5749 7.64723 24.5555C6.77099 26.66 6.08612 28.9483 5.61816 31.3683C6.33553 31.8378 6.78918 32.5172 8.09745 32.5172C10.0942 32.5172 10.0942 30.931 12.0908 30.931C14.0884 30.931 14.0884 32.5172 16.0859 32.5172C18.0836 32.5172 18.0836 30.931 20.081 30.931C22.0787 30.931 22.0787 32.5172 24.0762 32.5172C26.0743 32.5172 26.0743 30.931 28.0724 30.931C30.0694 30.931 30.0694 32.5172 32.0664 32.5172C34.0652 32.5172 34.0652 30.931 36.064 30.931C38.0641 30.931 38.0641 32.5172 40.0642 32.5172C41.3783 32.5172 41.8296 31.8331 42.5514 31.3634C42.0825 28.9413 41.3966 26.6507 40.5188 24.5448Z" fill="white" fill-opacity="0.1"/>
<path d="M4.90527 38.8621L43.2654 38.8621C43.2654 38.0599 43.2365 37.2677 43.1905 36.4828L4.98023 36.4828C4.93415 37.2677 4.90527 38.0599 4.90527 38.8621Z" fill="#110000" fill-opacity="0.1"/>
<path d="M43.2658 46L4.90565 46C4.46431 46 4.10645 45.6448 4.10645 45.2068L4.10645 38.862C4.10645 38.424 4.46431 38.0688 4.90565 38.0688L43.2658 38.0688C43.7071 38.0688 44.065 38.424 44.065 38.862V45.2068C44.065 45.6448 43.7071 46 43.2658 46Z" fill="white" fill-opacity="0.25"/>
<path d="M24.0931 22.2069C23.6514 22.2069 23.29 21.8522 23.29 21.4137C23.29 20.9754 23.6436 20.6206 24.0854 20.6206H24.0931C24.5348 20.6206 24.8924 20.9753 24.8924 21.4137C24.8924 21.8522 24.5349 22.2069 24.0931 22.2069Z" fill="white" fill-opacity="0.1"/>
<path d="M20.097 34.8966C19.6553 34.8966 19.2939 34.5419 19.2939 34.1034C19.2939 33.6651 19.6475 33.3103 20.0893 33.3103H20.097C20.5387 33.3103 20.8963 33.665 20.8963 34.1034C20.8963 34.5419 20.5388 34.8966 20.097 34.8966Z" fill="white" fill-opacity="0.1"/>
<path d="M28.0892 34.8966C27.6475 34.8966 27.2861 34.5419 27.2861 34.1034C27.2861 33.6651 27.6397 33.3103 28.0814 33.3103H28.0892C28.5309 33.3103 28.8884 33.665 28.8884 34.1034C28.8884 34.5419 28.5309 34.8966 28.0892 34.8966Z" fill="white" fill-opacity="0.1"/>
<path d="M36.0726 34.8966C35.6309 34.8966 35.2695 34.5419 35.2695 34.1034C35.2695 33.6651 35.6231 33.3103 36.0648 33.3103H36.0726C36.5143 33.3103 36.8718 33.665 36.8718 34.1034C36.8717 34.5419 36.5143 34.8966 36.0726 34.8966Z" fill="white" fill-opacity="0.1"/>
<path d="M12.1058 34.8966C11.6641 34.8966 11.3027 34.5419 11.3027 34.1034C11.3027 33.6651 11.6563 33.3103 12.098 33.3103H12.1058C12.5475 33.3103 12.905 33.665 12.905 34.1034C12.905 34.5419 12.5476 34.8966 12.1058 34.8966Z" fill="white" fill-opacity="0.1"/>
<path d="M32.0843 22.2069C31.6426 22.2069 31.2812 21.8522 31.2812 21.4137C31.2812 20.9754 31.6348 20.6206 32.0766 20.6206H32.0843C32.526 20.6206 32.8836 20.9753 32.8836 21.4137C32.8836 21.8522 32.526 22.2069 32.0843 22.2069Z" fill="white" fill-opacity="0.1"/>
<path d="M16.0941 22.2069C15.6524 22.2069 15.291 21.8522 15.291 21.4137C15.291 20.9754 15.6445 20.6206 16.0863 20.6206H16.0941C16.5358 20.6206 16.8933 20.9753 16.8933 21.4137C16.8933 21.8522 16.5359 22.2069 16.0941 22.2069Z" fill="white" fill-opacity="0.1"/>
<path d="M14.4965 45.2068C14.0551 45.2068 13.6973 44.8517 13.6973 44.4137V38.0688H15.2956V44.4137C15.2957 44.8518 14.9378 45.2068 14.4965 45.2068Z" fill="white" fill-opacity="0.25"/>
<path d="M17.6918 45.2068C17.2504 45.2068 16.8926 44.8517 16.8926 44.4137V38.0688H18.4909V44.4137C18.491 44.8518 18.1331 45.2068 17.6918 45.2068Z" fill="white" fill-opacity="0.25"/>
<path d="M8.10292 45.2068C7.66158 45.2068 7.30371 44.8517 7.30371 44.4137L7.30371 38.0688H8.90204V44.4137C8.90213 44.8518 8.54426 45.2068 8.10292 45.2068Z" fill="white" fill-opacity="0.25"/>
<path d="M4.90565 45.2068C4.46431 45.2068 4.10645 44.8517 4.10645 44.4137L4.10645 38.862C4.10645 38.424 4.46431 38.0688 4.90565 38.0688H5.70486L5.70486 44.4137C5.70486 44.8518 5.34699 45.2068 4.90565 45.2068Z" fill="white" fill-opacity="0.25"/>
<path d="M43.266 45.2068C43.7073 45.2068 44.0652 44.8517 44.0652 44.4137V38.862C44.0652 38.424 43.7073 38.0688 43.266 38.0688H42.4668V44.4137C42.4668 44.8518 42.8247 45.2068 43.266 45.2068Z" fill="white" fill-opacity="0.25"/>
<path d="M11.2992 45.2068C10.8579 45.2068 10.5 44.8517 10.5 44.4137V38.0688H12.0983V44.4137C12.0983 44.8518 11.7405 45.2068 11.2992 45.2068Z" fill="white" fill-opacity="0.25"/>
<path d="M27.2826 45.2068C26.8413 45.2068 26.4834 44.8517 26.4834 44.4137V38.0688H28.0817V44.4137C28.0818 44.8518 27.7239 45.2068 27.2826 45.2068Z" fill="white" fill-opacity="0.25"/>
<path d="M30.4789 45.2068C30.0376 45.2068 29.6797 44.8517 29.6797 44.4137V38.0688H31.278V44.4137C31.278 44.8518 30.9202 45.2068 30.4789 45.2068Z" fill="white" fill-opacity="0.25"/>
<path d="M20.8891 45.2068C20.4477 45.2068 20.0898 44.8517 20.0898 44.4137V38.0688H21.6882V44.4137C21.6882 44.8518 21.3304 45.2068 20.8891 45.2068Z" fill="white" fill-opacity="0.25"/>
<path d="M24.0853 45.2068C23.644 45.2068 23.2861 44.8517 23.2861 44.4137V38.0688H24.8845V44.4137C24.8845 44.8518 24.5267 45.2068 24.0853 45.2068Z" fill="white" fill-opacity="0.25"/>
<path d="M36.8734 45.2068C36.4321 45.2068 36.0742 44.8517 36.0742 44.4137V38.0688H37.6725V44.4137C37.6726 44.8518 37.3148 45.2068 36.8734 45.2068Z" fill="white" fill-opacity="0.25"/>
<path d="M40.0687 45.2068C39.6274 45.2068 39.2695 44.8517 39.2695 44.4137V38.0688H40.8679V44.4137C40.8679 44.8518 40.5101 45.2068 40.0687 45.2068Z" fill="white" fill-opacity="0.25"/>
<path d="M33.6762 45.2068C33.2348 45.2068 32.877 44.8517 32.877 44.4137V38.0688H34.4753V44.4137C34.4754 44.8518 34.1175 45.2068 33.6762 45.2068Z" fill="white" fill-opacity="0.25"/>
<path d="M7.51863 25.3391C7.69571 25.3655 7.88773 25.3793 8.09776 25.3793C9.37696 25.3793 10.052 24.8434 10.5943 24.412C11.0634 24.0394 11.3733 23.7931 12.0912 23.7931C12.8099 23.7931 13.1198 24.0394 13.5896 24.4128C14.1321 24.8434 14.8072 25.3794 16.0862 25.3794C17.3653 25.3794 18.0411 24.8435 18.5836 24.4121C19.0526 24.0395 19.3633 23.7932 20.0813 23.7932C20.8 23.7932 21.1099 24.0395 21.5797 24.4129C22.1222 24.8435 22.7973 25.3795 24.0763 25.3795C25.3562 25.3795 26.0312 24.8436 26.5745 24.4129C27.0444 24.0395 27.3542 23.7932 28.073 23.7932C28.7911 23.7932 29.1016 24.0395 29.5706 24.4121C30.1131 24.8435 30.7882 25.3794 32.0672 25.3794C33.3471 25.3794 34.0222 24.8435 34.5654 24.4128C35.0353 24.0394 35.3459 23.7931 36.0647 23.7931C36.785 23.7931 37.1128 24.0534 37.5662 24.4128C38.1087 24.8434 38.7845 25.3794 40.0644 25.3794C40.3259 25.3794 40.567 25.3577 40.7995 25.3136L40.8233 25.31C40.6218 24.7899 40.4087 24.2811 40.1852 23.7824C40.1433 23.7844 40.1088 23.7931 40.0644 23.7931C39.3449 23.7931 39.0171 23.5337 38.5637 23.1735C38.0212 22.7429 37.3454 22.2068 36.0647 22.2068C34.7848 22.2068 34.1098 22.7428 33.5665 23.1735C33.0966 23.5469 32.786 23.7931 32.0672 23.7931C31.3491 23.7931 31.0386 23.5469 30.5695 23.1743C30.0271 22.7429 29.352 22.2069 28.073 22.2069C26.7939 22.2069 26.1187 22.7429 25.5756 23.1736C25.1057 23.547 24.7951 23.7932 24.0763 23.7932C23.3582 23.7932 23.0477 23.547 22.5786 23.1744C22.0362 22.7429 21.3604 22.207 20.0813 22.207C18.802 22.207 18.127 22.7429 17.5847 23.1737C17.1148 23.547 16.805 23.7933 16.0862 23.7933C15.3681 23.7933 15.0576 23.547 14.5886 23.1745C14.0461 22.743 13.3703 22.2071 12.0912 22.2071C10.8128 22.2071 10.1377 22.743 9.59532 23.1737C9.12628 23.5471 8.81567 23.7934 8.09767 23.7934C8.05684 23.7934 8.02035 23.7915 7.98296 23.79C7.76125 24.2851 7.54959 24.7901 7.34961 25.3062L7.51863 25.3391Z" fill="white"/>
<path d="M42.3936 30.5674L42.271 30.6157C42.2226 30.6343 42.1757 30.6583 42.132 30.6869C41.9306 30.8163 41.748 30.9595 41.5654 31.1044C41.1119 31.4638 40.7842 31.7241 40.0638 31.7241C39.3443 31.7241 39.0165 31.4646 38.5631 31.1044C38.0206 30.6738 37.3448 30.1378 36.0641 30.1378C34.7841 30.1378 34.1091 30.6737 33.5659 31.1044C33.096 31.4778 32.7854 31.7241 32.0666 31.7241C31.3485 31.7241 31.038 31.4778 30.5689 31.1053C30.0265 30.6738 29.3514 30.1379 28.0724 30.1379C26.7933 30.1379 26.1181 30.6738 25.575 31.1045C25.1051 31.4779 24.7945 31.7242 24.0757 31.7242C23.3576 31.7242 23.0471 31.4779 22.578 31.1053C22.0356 30.6739 21.3598 30.138 20.0806 30.138C18.8014 30.138 18.1263 30.6739 17.5841 31.1046C17.1142 31.478 16.8044 31.7243 16.0856 31.7243C15.3675 31.7243 15.057 31.478 14.5879 31.1054C14.0455 30.674 13.3697 30.1381 12.0906 30.1381C10.8122 30.1381 10.1371 30.674 9.59471 31.1047C9.12567 31.4781 8.81506 31.7244 8.09706 31.7244C7.37978 31.7244 7.06998 31.4781 6.60094 31.1055C6.39028 30.9375 6.17798 30.7709 5.87832 30.5936L5.78182 30.5461C5.66123 31.1023 5.55549 31.6679 5.45898 32.2386C5.50516 32.2748 5.5563 32.3067 5.60211 32.3432C6.14367 32.7737 6.81795 33.3105 8.09715 33.3105C9.37635 33.3105 10.0514 32.7746 10.5937 32.3431C11.0628 31.9705 11.3726 31.7243 12.0906 31.7243C12.8093 31.7243 13.1192 31.9705 13.589 32.3439C14.1315 32.7746 14.8066 33.3106 16.0856 33.3106C17.3647 33.3106 18.0405 32.7746 18.583 32.3432C19.052 31.9706 19.3626 31.7244 20.0806 31.7244C20.7994 31.7244 21.1093 31.9706 21.5791 32.344C22.1216 32.7746 22.7967 33.3107 24.0757 33.3107C25.3556 33.3107 26.0306 32.7747 26.5739 32.344C27.0437 31.9706 27.3535 31.7244 28.0724 31.7244C28.7904 31.7244 29.101 31.9706 29.57 32.3432C30.1125 32.7746 30.7876 33.3106 32.0666 33.3106C33.3465 33.3106 34.0216 32.7746 34.5648 32.3439C35.0346 31.9705 35.3452 31.7243 36.0641 31.7243C36.7844 31.7243 37.1121 31.9846 37.5656 32.3439C38.1081 32.7746 38.7839 33.3106 40.0638 33.3106C41.3437 33.3106 42.0204 32.7746 42.5636 32.3439C42.6114 32.3058 42.6621 32.2703 42.7104 32.2326C42.6155 31.6711 42.512 31.1148 42.3936 30.5674Z" fill="white"/>
</g>
</g>
<mask id="path-57-outside-1_1106:40056" maskUnits="userSpaceOnUse" x="64.7373" y="0.0952454" width="14" height="46" fill="black">
<rect fill="white" x="64.7373" y="0.0952454" width="14" height="46"/>
<path fill-rule="evenodd" clip-rule="evenodd" d="M71.3944 1.09525C69.8322 1.09525 68.5659 2.36161 68.5659 3.92375V34.0779C66.8749 35.0472 65.7373 36.8588 65.7373 38.9337C65.7373 42.0296 68.27 44.5394 71.3943 44.5394C74.5186 44.5394 77.0513 42.0296 77.0513 38.9337C77.0513 36.8588 75.9137 35.0472 74.2229 34.078V3.92375C74.2229 2.36161 72.9565 1.09525 71.3944 1.09525Z"/>
</mask>
<path d="M68.5659 34.0779L69.0632 34.9455L69.5659 34.6573V34.0779H68.5659ZM74.2229 34.078H73.2229V34.6574L73.7255 34.9455L74.2229 34.078ZM69.5659 3.92375C69.5659 2.91389 70.3845 2.09525 71.3944 2.09525V0.0952454C69.2799 0.0952454 67.5659 1.80932 67.5659 3.92375H69.5659ZM69.5659 34.0779V3.92375H67.5659V34.0779H69.5659ZM66.7373 38.9337C66.7373 37.2347 67.6677 35.7454 69.0632 34.9455L68.0686 33.2103C66.0822 34.3489 64.7373 36.4829 64.7373 38.9337H66.7373ZM71.3943 43.5394C68.8137 43.5394 66.7373 41.4688 66.7373 38.9337H64.7373C64.7373 42.5905 67.7264 45.5394 71.3943 45.5394V43.5394ZM76.0513 38.9337C76.0513 41.4688 73.9749 43.5394 71.3943 43.5394V45.5394C75.0623 45.5394 78.0513 42.5905 78.0513 38.9337H76.0513ZM73.7255 34.9455C75.121 35.7454 76.0513 37.2347 76.0513 38.9337H78.0513C78.0513 36.4829 76.7064 34.349 74.7202 33.2104L73.7255 34.9455ZM73.2229 3.92375V34.078H75.2229V3.92375H73.2229ZM71.3944 2.09525C72.4042 2.09525 73.2229 2.91389 73.2229 3.92375H75.2229C75.2229 1.80933 73.5088 0.0952454 71.3944 0.0952454V2.09525Z" fill="black" mask="url(#path-57-outside-1_1106:40056)"/>
<path fill-rule="evenodd" clip-rule="evenodd" d="M72.3685 31.7619H70.158V34.9108C68.4177 35.4352 67.1514 37.038 67.1514 38.9338C67.1514 41.2558 69.0509 43.1381 71.3941 43.1381C73.7373 43.1381 75.6369 41.2558 75.6369 38.9338C75.6369 36.9441 74.2421 35.2773 72.3685 34.841V31.7619Z" fill="#5F55D0"/>
<ellipse cx="70.158" cy="39.4286" rx="1.10526" ry="1.09524" fill="white" fill-opacity="0.1"/>
<path d="M62.4209 32.3095L58.2762 34.6808L58.2762 29.9383L62.4209 32.3095Z" fill="#111111"/>
<defs>
<clipPath id="clip0_1106:40056">
<rect width="45.1321" height="46" fill="white" transform="translate(0.90918)"/>
</clipPath>
<clipPath id="clip1_1106:40056">
<rect width="46.3519" height="46" fill="white" transform="translate(0.90918)"/>
</clipPath>
<clipPath id="clip2_1106:40056">
<rect width="46.3519" height="46" fill="white" transform="translate(0.90918)"/>
</clipPath>
</defs>
</svg>
