<svg width="79" height="46" viewBox="0 0 79 46" fill="none" xmlns="http://www.w3.org/2000/svg">
<g clip-path="url(#clip0_1106:40069)">
<path d="M24.9482 13.6411C25.9964 13.7079 26.9388 14.3186 27.4477 15.2607C27.9565 16.2029 27.9613 17.3462 27.4605 18.2929C27.1335 18.9065 26.6178 19.3919 25.9937 19.6734L21.0022 21.9063H20.9922L24.9482 13.6411Z" fill="#0F6ADB"/>
<path d="M25.4921 32.4169L25.486 32.4074L23.0744 27.4009C22.7138 26.6508 22.6589 25.7845 22.9218 24.9929C23.1847 24.2013 23.7438 23.5495 24.4758 23.1812C25.5089 22.6564 26.742 22.7725 27.6646 23.4816L25.4921 32.4169Z" fill="#0F6ADB"/>
<path d="M20.8539 45.2297C16.3816 45.2424 12.4096 42.3014 11.0138 37.9438C9.8744 34.2061 10.9477 30.1298 13.7667 27.4884L14.7761 28.6781C12.4117 30.8999 11.5152 34.3246 12.4767 37.4621C13.4508 40.4123 15.8219 42.6513 18.769 43.4037C21.7376 44.089 24.8473 43.2964 27.1577 41.2655L28.1571 42.4607C26.1194 44.2419 23.5312 45.2231 20.8539 45.2297Z" fill="#0F6ADB"/>
<path d="M25.5207 9.96703C25.5056 10.498 25.4568 11.0273 25.3746 11.5518C24.9422 14.1962 24.0601 16.7421 22.7685 19.0734C22.2491 20.0475 21.6634 20.9828 21.0158 21.8724C20.5954 22.4523 20.1436 23.0077 19.6627 23.536C18.6627 24.6476 17.5165 25.6108 16.2572 26.398L8.37739 23.6542L2.75009 18.8605C2.70612 17.3488 2.87178 15.8383 3.24209 14.3744C3.41552 13.6755 3.62335 12.986 3.86478 12.3087C4.2411 11.2648 4.69072 10.2503 5.21011 9.27321C6.41508 6.89711 8.01799 4.75678 9.94565 2.94998C10.3322 2.59597 10.7377 2.26431 11.1603 1.95655C14.1277 -0.187984 17.4872 -0.739886 20.8928 1.16024C24.2984 3.06036 25.6667 6.25351 25.5207 9.96703Z" fill="#0F6ADB"/>
<path d="M2.74609 18.8547L16.2455 26.3921L15.1431 28.4688C14.7372 29.2335 13.8037 29.5159 13.0582 29.0996L2.2587 23.0696C1.51315 22.6534 1.2378 21.696 1.6437 20.9314L2.74609 18.8547Z" fill="#0F6ADB"/>
<path d="M15.7462 11.6456C15.4752 11.6452 15.2244 11.4985 15.0861 11.2595C14.9479 11.0205 14.9425 10.7244 15.072 10.4803L15.4395 9.78726C15.648 9.41686 16.1065 9.28456 16.4728 9.48908C16.8391 9.69359 16.9796 10.1603 16.7894 10.541L16.422 11.234C16.2873 11.4879 16.028 11.6458 15.7462 11.6456Z" fill="#0F6ADB"/>
<path d="M13.914 15.1084C13.6428 15.1083 13.3918 14.9618 13.2533 14.7227C13.1149 14.4836 13.1094 14.1874 13.239 13.9431L13.6065 13.247C13.8094 12.8644 14.2763 12.723 14.6493 12.9312C15.0223 13.1393 15.1601 13.6182 14.9572 14.0007L14.5897 14.6937C14.4559 14.9488 14.1964 15.108 13.914 15.1084Z" fill="#0F6ADB"/>
<path d="M13.6637 12.2772C13.5355 12.2774 13.4093 12.2443 13.297 12.181L12.6213 11.8041C12.2483 11.596 12.1104 11.1171 12.3134 10.7346C12.5163 10.3521 12.9832 10.2107 13.3562 10.4188L14.0319 10.7957C14.3414 10.9679 14.4973 11.3336 14.4103 11.6835C14.3233 12.0334 14.0157 12.2779 13.6637 12.2772Z" fill="#0F6ADB"/>
<path d="M17.0406 14.1607C16.9125 14.1607 16.7863 14.1276 16.6739 14.0645L15.999 13.6884C15.633 13.477 15.5003 13.0035 15.7009 12.625C15.9015 12.2465 16.3611 12.1032 16.7331 12.3032L17.4081 12.68C17.7166 12.8525 17.8718 13.2175 17.7851 13.5667C17.6984 13.916 17.392 14.1605 17.0406 14.1607Z" fill="#0F6ADB"/>
<path d="M9.66789 8.25458C9.39675 8.25448 9.14572 8.1079 9.00724 7.86882C8.86876 7.62975 8.86332 7.33353 8.99293 7.08928L9.36039 6.39625C9.56334 6.01371 10.0302 5.87234 10.4032 6.08048C10.7762 6.28862 10.914 6.76745 10.7111 7.14999L10.3436 7.84302C10.2089 8.09685 9.94966 8.25477 9.66789 8.25458Z" fill="#0F6ADB"/>
<path d="M7.83217 11.7174C7.56116 11.717 7.31037 11.5703 7.17208 11.3313C7.03379 11.0922 7.02843 10.7962 7.15797 10.552L7.52466 9.85981C7.73083 9.48451 8.19253 9.34839 8.56155 9.5541C8.93058 9.75982 9.07031 10.2312 8.87537 10.6128L8.5079 11.305C8.37342 11.5591 8.1141 11.7174 7.83217 11.7174Z" fill="#0F6ADB"/>
<path d="M10.9608 10.7696C10.8327 10.7697 10.7067 10.7369 10.5941 10.6742L9.91684 10.2974C9.67109 10.1653 9.51379 9.90769 9.50525 9.62329C9.4967 9.33889 9.63824 9.07182 9.87559 8.9245C10.1129 8.77717 10.4093 8.77243 10.651 8.9121L11.326 9.28897C11.6345 9.46145 11.7897 9.82648 11.703 10.1757C11.6163 10.5249 11.3099 10.7694 10.9585 10.7696H10.9608Z" fill="#0F6ADB"/>
<path d="M21.8239 15.0359C21.5532 15.0353 21.3026 14.8888 21.1644 14.65C21.0261 14.4112 21.0206 14.1154 21.1497 13.8714L21.5164 13.1783C21.7226 12.803 22.1843 12.6669 22.5533 12.8726C22.9223 13.0783 23.0621 13.5497 22.8671 13.9313L22.5004 14.6243C22.3656 14.8784 22.106 15.0363 21.8239 15.0359Z" fill="#0F6ADB"/>
<path d="M19.9872 18.4987C19.7161 18.4986 19.4651 18.352 19.3266 18.1129C19.1881 17.8738 19.1827 17.5776 19.3123 17.3334L19.6797 16.6411C19.8827 16.2586 20.3496 16.1172 20.7225 16.3254C21.0955 16.5335 21.2334 17.0123 21.0304 17.3949L20.663 18.0871C20.5283 18.3409 20.269 18.4988 19.9872 18.4987Z" fill="#0F6ADB"/>
<path d="M19.7391 15.6682C19.6109 15.6682 19.4848 15.6351 19.3724 15.572L18.6974 15.1952C18.3244 14.987 18.1866 14.5082 18.3895 14.1256C18.5925 13.7431 19.0594 13.6017 19.4324 13.8099L20.1073 14.1867C20.4168 14.3589 20.5727 14.7247 20.4857 15.0745C20.3987 15.4244 20.0912 15.669 19.7391 15.6682Z" fill="#0F6ADB"/>
<path d="M25.5223 9.96702C25.5072 10.498 25.4584 11.0273 25.3762 11.5518C24.4742 11.6356 23.6069 11.1739 23.1545 10.3691L22.6395 9.45454C22.4971 9.19472 22.2222 9.0415 21.9322 9.06032L20.8944 9.10763C20.0224 9.15445 19.199 8.69408 18.7649 7.91709L18.2498 7.0104C18.1097 6.74739 17.8343 6.59081 17.5426 6.6083L16.5048 6.66349C15.6336 6.70682 14.8118 6.24738 14.3753 5.47295L13.8602 4.55837C13.7178 4.29772 13.444 4.14204 13.153 4.15627L12.1152 4.21146C11.2428 4.26033 10.4183 3.79942 9.9857 3.02093L9.94727 2.94997C10.3338 2.59596 10.7394 2.2643 11.1619 1.95654L11.3233 2.23249C11.4647 2.49424 11.7393 2.65034 12.0306 2.6346L13.0761 2.58729C13.9468 2.53715 14.7695 2.99881 15.1979 3.77782L15.7129 4.68452C15.8543 4.94627 16.1289 5.10237 16.4202 5.08662L17.4657 5.03143C18.3348 4.98837 19.1542 5.44813 19.5875 6.22196L20.1026 7.13655C20.2449 7.39637 20.5198 7.54959 20.8098 7.53076L21.8553 7.48346C22.7264 7.43141 23.5501 7.89359 23.9771 8.67399L24.4922 9.58069C24.6346 9.84133 24.9084 9.99702 25.1994 9.98279L25.5223 9.96702Z" fill="#0F6ADB"/>
<path d="M21.0178 21.8723C20.5974 22.4523 20.1457 23.0077 19.6648 23.5359C18.7738 23.5825 18.9537 23.5754 18.7807 23.5754C17.9553 23.5717 17.1941 23.1183 16.782 22.3848L16.2669 21.4702C16.1224 21.2126 15.849 21.0602 15.5596 21.076L14.5218 21.1233C13.6494 21.1722 12.825 20.7113 12.3923 19.9328L11.8773 19.0261C11.7383 18.7619 11.4621 18.6049 11.17 18.624L10.1322 18.6792C9.26104 18.7225 8.43926 18.2631 8.00275 17.4887L7.48768 16.5741C7.34383 16.3149 7.07095 16.1598 6.78042 16.172L5.7426 16.2272C4.86987 16.2775 4.04473 15.8162 3.61314 15.0366L3.24414 14.3743C3.41757 13.6754 3.6254 12.986 3.86683 12.3087L4.95078 14.2561C5.09525 14.5137 5.36869 14.6661 5.65804 14.6503L6.69586 14.603C7.569 14.5507 8.39506 15.0126 8.82532 15.7935L9.34038 16.7002C9.48173 16.962 9.7563 17.1181 10.0476 17.1023L11.0855 17.0471C11.9579 16.9983 12.7823 17.4592 13.2149 18.2377L13.73 19.1523C13.8776 19.4074 14.148 19.5612 14.4372 19.5544L15.4751 19.4992C16.3478 19.4486 17.1731 19.91 17.6045 20.6897L18.1196 21.5964C18.2609 21.8581 18.5355 22.0142 18.8268 21.9985L21.0178 21.8723Z" fill="#0F6ADB"/>
<path d="M45.5006 33.1942C45.2824 34.2837 44.9896 35.356 44.6242 36.4032C44.3848 37.0812 44.1076 37.7446 43.794 38.39C43.1562 39.7557 42.3332 41.0218 41.3493 42.1508L33.7463 41.7882L26.2894 38.9813C25.8147 37.5492 25.5453 36.054 25.4899 34.5425C25.4502 33.8229 25.4528 33.1015 25.4975 32.3822C25.5576 31.2717 25.699 30.1674 25.9204 29.0786C26.402 26.4441 27.3254 23.9152 28.6495 21.6043C28.9183 21.1502 29.2135 20.7132 29.5335 20.2955C31.7629 17.3625 34.8149 15.833 38.6125 16.6293C42.4102 17.4256 44.6319 20.0668 45.5467 23.67C45.678 24.184 45.7807 24.7052 45.8542 25.2311C46.1887 27.8864 46.0691 30.5811 45.5006 33.1942Z" fill="#0F6ADB"/>
<path d="M36.4476 28.2271C36.2168 28.2271 35.9981 28.1208 35.852 27.9374C35.706 27.754 35.6481 27.513 35.6942 27.281L35.848 26.5083C35.8972 26.2266 36.0915 25.9944 36.3554 25.9016C36.6194 25.8088 36.9117 25.87 37.1191 26.0615C37.3265 26.253 37.4164 26.5447 37.354 26.8237L37.2003 27.5963C37.1272 27.9632 36.8127 28.2268 36.4476 28.2271Z" fill="#0F6ADB"/>
<path d="M35.6752 32.0905C35.4443 32.0905 35.2256 31.9841 35.0796 31.8007C34.9336 31.6173 34.8756 31.3763 34.9218 31.1443L35.0755 30.3717C35.1248 30.0899 35.319 29.8577 35.583 29.7649C35.847 29.6721 36.1393 29.7333 36.3466 29.9248C36.554 30.1163 36.6439 30.4081 36.5815 30.687L36.4278 31.4597C36.3548 31.8266 36.0402 32.0902 35.6752 32.0905Z" fill="#0F6ADB"/>
<path d="M38.3983 30.2471C38.0911 30.2154 37.7871 30.1568 37.4896 30.072C37.0828 29.9763 36.8248 29.5652 36.9083 29.1458C36.9918 28.7265 37.3863 28.452 37.7971 28.5275L38.5505 28.6852C38.9375 28.7658 39.2021 29.1341 39.1624 29.5371C39.1227 29.9401 38.7917 30.2467 38.3967 30.2463L38.3983 30.2471Z" fill="#0F6ADB"/>
<path d="M34.6336 29.4547C34.3264 29.423 34.0224 29.3644 33.7249 29.2797C33.3181 29.184 33.0601 28.7729 33.1436 28.3535C33.2271 27.9341 33.6216 27.6596 34.0324 27.7351L34.7851 27.8928C35.1721 27.9734 35.4366 28.3417 35.3969 28.7447C35.3573 29.1478 35.0263 29.4543 34.6313 29.4539L34.6336 29.4547Z" fill="#0F6ADB"/>
<path d="M43.2267 29.6534C42.9957 29.6537 42.7768 29.5474 42.6306 29.364C42.4844 29.1806 42.4264 28.9394 42.4726 28.7073L42.6263 27.9346C42.6756 27.6529 42.8698 27.4207 43.1338 27.3279C43.3977 27.2351 43.69 27.2963 43.8974 27.4878C44.1048 27.6793 44.1947 27.971 44.1323 28.25L43.9786 29.0219C43.9059 29.3888 43.5917 29.6527 43.2267 29.6534Z" fill="#0F6ADB"/>
<path d="M42.4535 33.5152C42.2226 33.5152 42.0039 33.4088 41.8579 33.2254C41.7119 33.042 41.6539 32.801 41.7001 32.569L41.8539 31.7964C41.9472 31.3792 42.348 31.1145 42.7569 31.2002C43.1659 31.2858 43.4335 31.6904 43.3598 32.1117L43.2061 32.8836C43.1334 33.2508 42.8188 33.5148 42.4535 33.5152Z" fill="#0F6ADB"/>
<path d="M41.4112 30.881C41.1042 30.8492 40.8005 30.7906 40.5033 30.706C40.2286 30.6555 40.0021 30.4563 39.9117 30.1855C39.8212 29.9148 39.8809 29.615 40.0676 29.4023C40.2543 29.1896 40.5388 29.0974 40.8108 29.1614L41.5634 29.3191C41.9486 29.4014 42.2111 29.7687 42.1716 30.1703C42.132 30.5718 41.8031 30.8779 41.4096 30.8794L41.4112 30.881Z" fill="#0F6ADB"/>
<path d="M29.673 26.8001C29.442 26.8004 29.2231 26.6941 29.0769 26.5106C28.9307 26.3272 28.8727 26.0861 28.9189 25.8539L29.0726 25.0821C29.1218 24.8004 29.3161 24.5681 29.58 24.4753C29.844 24.3825 30.1363 24.4437 30.3437 24.6352C30.5511 24.8267 30.641 25.1185 30.5786 25.3974L30.4249 26.1693C30.3519 26.5359 30.0378 26.7994 29.673 26.8001Z" fill="#0F6ADB"/>
<path d="M28.8986 30.6618C28.6676 30.6621 28.4487 30.5558 28.3025 30.3724C28.1563 30.189 28.0982 29.9478 28.1444 29.7157L28.2982 28.9438C28.3474 28.6621 28.5417 28.4299 28.8056 28.3371C29.0696 28.2443 29.3619 28.3055 29.5693 28.497C29.7767 28.6885 29.8666 28.9802 29.8042 29.2592L29.6505 30.0311C29.5775 30.3976 29.2634 30.6611 28.8986 30.6618Z" fill="#0F6ADB"/>
<path d="M31.6219 28.8208C31.3147 28.7891 31.0107 28.7305 30.7132 28.6458C30.4385 28.5953 30.2121 28.3961 30.1216 28.1254C30.0311 27.8546 30.0908 27.5548 30.2776 27.3422C30.4643 27.1295 30.7487 27.0373 31.0207 27.1012L31.7741 27.2589C32.1612 27.3395 32.4257 27.7078 32.386 28.1108C32.3463 28.5138 32.0153 28.8204 31.6204 28.82L31.6219 28.8208Z" fill="#0F6ADB"/>
<path d="M45.8552 25.2311L45.7629 25.2626C45.5142 25.3561 45.2514 25.4041 44.9865 25.4045C44.3957 25.4016 43.8276 25.1708 43.3951 24.758L42.6418 24.0406C42.4359 23.8305 42.1296 23.7627 41.8576 23.8671L40.8736 24.2298C40.0524 24.5354 39.1334 24.3402 38.4982 23.7252L37.7525 23.0077C37.5413 22.8018 37.2354 22.7348 36.9606 22.8343L35.9766 23.1969C35.1579 23.5026 34.2411 23.3072 33.6089 22.6923L32.8555 21.9749C32.6434 21.7704 32.3369 21.7063 32.0637 21.8093L31.0873 22.1641C30.2677 22.4731 29.3482 22.2808 28.7119 21.6674L28.6504 21.6043C28.9192 21.1503 29.2144 20.7132 29.5345 20.2955L29.7651 20.5084C29.975 20.7164 30.2807 20.7864 30.5569 20.6897L31.5409 20.327C32.3596 20.0214 33.2765 20.2168 33.9087 20.8316L34.6621 21.5491C34.8742 21.7536 35.1807 21.8177 35.4539 21.7147L36.4302 21.352C37.2514 21.0464 38.1704 21.2416 38.8057 21.8566L39.559 22.5741C39.7649 22.7842 40.0712 22.8519 40.3432 22.7475L41.3272 22.3849C42.1484 22.0792 43.0674 22.2744 43.7026 22.8894L44.4483 23.6069C44.6595 23.8128 44.9654 23.8798 45.2402 23.7804L45.5477 23.67C45.6789 24.184 45.7816 24.7052 45.8552 25.2311Z" fill="#0F6ADB"/>
<path d="M44.6242 36.4032C44.3848 37.0813 44.1076 37.7446 43.794 38.3901L43.0867 38.6581C42.2655 38.9632 41.3468 38.7681 40.7113 38.1535L39.9656 37.4361C39.7535 37.2316 39.447 37.1675 39.1737 37.2705L38.1897 37.6253C37.371 37.9309 36.4542 37.7355 35.822 37.1207L35.0686 36.4111C34.8593 36.2016 34.5512 36.1341 34.2768 36.2376L33.2927 36.6003C32.474 36.9059 31.5572 36.7106 30.925 36.0957L30.1716 35.3782C29.9654 35.1689 29.6595 35.1012 29.3875 35.2048L28.4034 35.5675C27.5823 35.8731 26.6632 35.6779 26.028 35.0629L25.4899 34.5425C25.4502 33.8229 25.4528 33.1015 25.4975 32.3822L27.0889 33.9196C27.2979 34.124 27.6023 34.1882 27.873 34.0852L28.857 33.7225C29.6757 33.4169 30.5926 33.6123 31.2248 34.2271L31.9782 34.9446C32.1875 35.1541 32.4955 35.2216 32.77 35.1181L33.754 34.7554C34.5728 34.4505 35.4892 34.6458 36.1218 35.26L36.8752 35.9775C37.0863 36.1833 37.3922 36.2504 37.667 36.1509L38.6433 35.7882C39.4642 35.4787 40.3852 35.6744 41.0188 36.2928L41.7721 37.0024C41.978 37.2125 42.2843 37.2803 42.5563 37.1759L44.6242 36.4032Z" fill="#0F6ADB"/>
<path d="M39.0587 45.683L27.0046 43.1474C26.1724 42.9724 25.6362 42.1386 25.8068 41.2852L26.2704 38.9671L41.338 42.1367L40.8745 44.4547C40.7038 45.3081 39.8908 45.8581 39.0587 45.683Z" fill="#0F6ADB"/>
<path d="M24.9482 13.6411C25.9964 13.7079 26.9388 14.3186 27.4477 15.2607C27.9565 16.2029 27.9613 17.3462 27.4605 18.2929C27.1335 18.9065 26.6178 19.3919 25.9937 19.6734L21.0022 21.9063H20.9922L24.9482 13.6411Z" fill="#110000" fill-opacity="0.1"/>
<path d="M25.4921 32.4169L25.486 32.4074L23.0744 27.4009C22.7138 26.6508 22.6589 25.7845 22.9218 24.9929C23.1847 24.2013 23.7438 23.5495 24.4758 23.1812C25.5089 22.6564 26.742 22.7725 27.6646 23.4816L25.4921 32.4169Z" fill="#110000" fill-opacity="0.1"/>
<path d="M20.8539 45.2297C16.3816 45.2424 12.4096 42.3014 11.0138 37.9438C9.8744 34.2061 10.9477 30.1298 13.7667 27.4884L14.7761 28.6781C12.4117 30.8999 11.5152 34.3246 12.4767 37.4621C13.4508 40.4123 15.8219 42.6513 18.769 43.4037C21.7376 44.089 24.8473 43.2964 27.1577 41.2655L28.1571 42.4607C26.1194 44.2419 23.5312 45.2231 20.8539 45.2297Z" fill="#110000" fill-opacity="0.1"/>
<path d="M25.5207 9.96703C25.5056 10.498 25.4568 11.0273 25.3746 11.5518C24.9422 14.1962 24.0601 16.7421 22.7685 19.0734C22.2491 20.0475 21.6634 20.9828 21.0158 21.8724C20.5954 22.4523 20.1436 23.0077 19.6627 23.536C18.6627 24.6476 17.5165 25.6108 16.2572 26.398L8.37739 23.6542L2.75009 18.8605C2.70612 17.3488 2.87178 15.8383 3.24209 14.3744C3.41552 13.6755 3.62335 12.986 3.86478 12.3087C4.2411 11.2648 4.69072 10.2503 5.21011 9.27321C6.41508 6.89711 8.01799 4.75678 9.94565 2.94998C10.3322 2.59597 10.7377 2.26431 11.1603 1.95655C14.1277 -0.187984 17.4872 -0.739886 20.8928 1.16024C24.2984 3.06036 25.6667 6.25351 25.5207 9.96703Z" fill="#0F6ADB"/>
<path d="M2.74609 18.8547L16.2455 26.3921L15.1431 28.4688C14.7372 29.2335 13.8037 29.5159 13.0582 29.0996L2.2587 23.0696C1.51315 22.6534 1.2378 21.696 1.6437 20.9314L2.74609 18.8547Z" fill="white" fill-opacity="0.25"/>
<path d="M15.7462 11.6456C15.4752 11.6452 15.2244 11.4985 15.0861 11.2595C14.9479 11.0205 14.9425 10.7244 15.072 10.4803L15.4395 9.78726C15.648 9.41686 16.1065 9.28456 16.4728 9.48908C16.8391 9.69359 16.9796 10.1603 16.7894 10.541L16.422 11.234C16.2873 11.4879 16.028 11.6458 15.7462 11.6456Z" fill="white"/>
<path d="M13.914 15.1084C13.6428 15.1083 13.3918 14.9618 13.2533 14.7227C13.1149 14.4836 13.1094 14.1874 13.239 13.9431L13.6065 13.247C13.8094 12.8644 14.2763 12.723 14.6493 12.9312C15.0223 13.1393 15.1601 13.6182 14.9572 14.0007L14.5897 14.6937C14.4559 14.9488 14.1964 15.108 13.914 15.1084Z" fill="white"/>
<path d="M13.6637 12.2772C13.5355 12.2774 13.4093 12.2443 13.297 12.181L12.6213 11.8041C12.2483 11.596 12.1104 11.1171 12.3134 10.7346C12.5163 10.3521 12.9832 10.2107 13.3562 10.4188L14.0319 10.7957C14.3414 10.9679 14.4973 11.3336 14.4103 11.6835C14.3233 12.0334 14.0157 12.2779 13.6637 12.2772Z" fill="white"/>
<path d="M17.0406 14.1607C16.9125 14.1607 16.7863 14.1276 16.6739 14.0645L15.999 13.6884C15.633 13.477 15.5003 13.0035 15.7009 12.625C15.9015 12.2465 16.3611 12.1032 16.7331 12.3032L17.4081 12.68C17.7166 12.8525 17.8718 13.2175 17.7851 13.5667C17.6984 13.916 17.392 14.1605 17.0406 14.1607Z" fill="white"/>
<path d="M9.66789 8.25458C9.39675 8.25448 9.14572 8.1079 9.00724 7.86882C8.86876 7.62975 8.86332 7.33353 8.99293 7.08928L9.36039 6.39625C9.56334 6.01371 10.0302 5.87234 10.4032 6.08048C10.7762 6.28862 10.914 6.76745 10.7111 7.14999L10.3436 7.84302C10.2089 8.09685 9.94966 8.25477 9.66789 8.25458Z" fill="white"/>
<path d="M7.83217 11.7174C7.56116 11.717 7.31037 11.5703 7.17208 11.3313C7.03379 11.0922 7.02843 10.7962 7.15797 10.552L7.52466 9.85981C7.73083 9.48451 8.19253 9.34839 8.56155 9.5541C8.93058 9.75982 9.07031 10.2312 8.87537 10.6128L8.5079 11.305C8.37342 11.5591 8.1141 11.7174 7.83217 11.7174Z" fill="white"/>
<path d="M10.9608 10.7696C10.8327 10.7697 10.7067 10.7369 10.5941 10.6742L9.91684 10.2974C9.67109 10.1653 9.51379 9.90769 9.50525 9.62329C9.4967 9.33889 9.63824 9.07182 9.87559 8.9245C10.1129 8.77717 10.4093 8.77243 10.651 8.9121L11.326 9.28897C11.6345 9.46145 11.7897 9.82648 11.703 10.1757C11.6163 10.5249 11.3099 10.7694 10.9585 10.7696H10.9608Z" fill="white"/>
<path d="M21.8239 15.0359C21.5532 15.0353 21.3026 14.8888 21.1644 14.65C21.0261 14.4112 21.0206 14.1154 21.1497 13.8714L21.5164 13.1783C21.7226 12.803 22.1843 12.6669 22.5533 12.8726C22.9223 13.0783 23.0621 13.5497 22.8671 13.9313L22.5004 14.6243C22.3656 14.8784 22.106 15.0363 21.8239 15.0359Z" fill="white"/>
<path d="M19.9872 18.4987C19.7161 18.4986 19.4651 18.352 19.3266 18.1129C19.1881 17.8738 19.1827 17.5776 19.3123 17.3334L19.6797 16.6411C19.8827 16.2586 20.3496 16.1172 20.7225 16.3254C21.0955 16.5335 21.2334 17.0123 21.0304 17.3949L20.663 18.0871C20.5283 18.3409 20.269 18.4988 19.9872 18.4987Z" fill="white"/>
<path d="M19.7391 15.6682C19.6109 15.6682 19.4848 15.6351 19.3724 15.572L18.6974 15.1952C18.3244 14.987 18.1866 14.5082 18.3895 14.1256C18.5925 13.7431 19.0594 13.6017 19.4324 13.8099L20.1073 14.1867C20.4168 14.3589 20.5727 14.7247 20.4857 15.0745C20.3987 15.4244 20.0912 15.669 19.7391 15.6682Z" fill="white"/>
<path d="M25.5223 9.96702C25.5072 10.498 25.4584 11.0273 25.3762 11.5518C24.4742 11.6356 23.6069 11.1739 23.1545 10.3691L22.6395 9.45454C22.4971 9.19472 22.2222 9.0415 21.9322 9.06032L20.8944 9.10763C20.0224 9.15445 19.199 8.69408 18.7649 7.91709L18.2498 7.0104C18.1097 6.74739 17.8343 6.59081 17.5426 6.6083L16.5048 6.66349C15.6336 6.70682 14.8118 6.24738 14.3753 5.47295L13.8602 4.55837C13.7178 4.29772 13.444 4.14204 13.153 4.15627L12.1152 4.21146C11.2428 4.26033 10.4183 3.79942 9.9857 3.02093L9.94727 2.94997C10.3338 2.59596 10.7394 2.2643 11.1619 1.95654L11.3233 2.23249C11.4647 2.49424 11.7393 2.65034 12.0306 2.6346L13.0761 2.58729C13.9468 2.53715 14.7695 2.99881 15.1979 3.77782L15.7129 4.68452C15.8543 4.94627 16.1289 5.10237 16.4202 5.08662L17.4657 5.03143C18.3348 4.98837 19.1542 5.44813 19.5875 6.22196L20.1026 7.13655C20.2449 7.39637 20.5198 7.54959 20.8098 7.53076L21.8553 7.48346C22.7264 7.43141 23.5501 7.89359 23.9771 8.67399L24.4922 9.58069C24.6346 9.84133 24.9084 9.99702 25.1994 9.98279L25.5223 9.96702Z" fill="white" fill-opacity="0.25"/>
<path d="M21.0178 21.8723C20.5974 22.4523 20.1457 23.0077 19.6648 23.5359C18.7738 23.5825 18.9537 23.5754 18.7807 23.5754C17.9553 23.5717 17.1941 23.1183 16.782 22.3848L16.2669 21.4702C16.1224 21.2126 15.849 21.0602 15.5596 21.076L14.5218 21.1233C13.6494 21.1722 12.825 20.7113 12.3923 19.9328L11.8773 19.0261C11.7383 18.7619 11.4621 18.6049 11.17 18.624L10.1322 18.6792C9.26104 18.7225 8.43926 18.2631 8.00275 17.4887L7.48768 16.5741C7.34383 16.3149 7.07095 16.1598 6.78042 16.172L5.7426 16.2272C4.86987 16.2775 4.04473 15.8162 3.61314 15.0366L3.24414 14.3743C3.41757 13.6754 3.6254 12.986 3.86683 12.3087L4.95078 14.2561C5.09525 14.5137 5.36869 14.6661 5.65804 14.6503L6.69586 14.603C7.569 14.5507 8.39506 15.0126 8.82532 15.7935L9.34038 16.7002C9.48173 16.962 9.7563 17.1181 10.0476 17.1023L11.0855 17.0471C11.9579 16.9983 12.7823 17.4592 13.2149 18.2377L13.73 19.1523C13.8776 19.4074 14.148 19.5612 14.4372 19.5544L15.4751 19.4992C16.3478 19.4486 17.1731 19.91 17.6045 20.6897L18.1196 21.5964C18.2609 21.8581 18.5355 22.0142 18.8268 21.9985L21.0178 21.8723Z" fill="white" fill-opacity="0.25"/>
<path d="M45.5006 33.1942C45.2824 34.2837 44.9896 35.356 44.6242 36.4032C44.3848 37.0812 44.1076 37.7446 43.794 38.39C43.1562 39.7557 42.3332 41.0218 41.3493 42.1508L33.7463 41.7882L26.2894 38.9813C25.8147 37.5492 25.5453 36.054 25.4899 34.5425C25.4502 33.8229 25.4528 33.1015 25.4975 32.3822C25.5576 31.2717 25.699 30.1674 25.9204 29.0786C26.402 26.4441 27.3254 23.9152 28.6495 21.6043C28.9183 21.1502 29.2135 20.7132 29.5335 20.2955C31.7629 17.3625 34.8149 15.833 38.6125 16.6293C42.4102 17.4256 44.6319 20.0668 45.5467 23.67C45.678 24.184 45.7807 24.7052 45.8542 25.2311C46.1887 27.8864 46.0691 30.5811 45.5006 33.1942Z" fill="#0F6ADB"/>
<path d="M36.4476 28.2271C36.2168 28.2271 35.9981 28.1208 35.852 27.9374C35.706 27.754 35.6481 27.513 35.6942 27.281L35.848 26.5083C35.8972 26.2266 36.0915 25.9944 36.3554 25.9016C36.6194 25.8088 36.9117 25.87 37.1191 26.0615C37.3265 26.253 37.4164 26.5447 37.354 26.8237L37.2003 27.5963C37.1272 27.9632 36.8127 28.2268 36.4476 28.2271Z" fill="white"/>
<path d="M35.6752 32.0905C35.4443 32.0905 35.2256 31.9841 35.0796 31.8007C34.9336 31.6173 34.8756 31.3763 34.9218 31.1443L35.0755 30.3717C35.1248 30.0899 35.319 29.8577 35.583 29.7649C35.847 29.6721 36.1393 29.7333 36.3466 29.9248C36.554 30.1163 36.6439 30.4081 36.5815 30.687L36.4278 31.4597C36.3548 31.8266 36.0402 32.0902 35.6752 32.0905Z" fill="white"/>
<path d="M38.3983 30.2471C38.0911 30.2154 37.7871 30.1568 37.4896 30.072C37.0828 29.9763 36.8248 29.5652 36.9083 29.1458C36.9918 28.7265 37.3863 28.452 37.7971 28.5275L38.5505 28.6852C38.9375 28.7658 39.2021 29.1341 39.1624 29.5371C39.1227 29.9401 38.7917 30.2467 38.3967 30.2463L38.3983 30.2471Z" fill="white"/>
<path d="M34.6336 29.4547C34.3264 29.423 34.0224 29.3644 33.7249 29.2797C33.3181 29.184 33.0601 28.7729 33.1436 28.3535C33.2271 27.9341 33.6216 27.6596 34.0324 27.7351L34.7851 27.8928C35.1721 27.9734 35.4366 28.3417 35.3969 28.7447C35.3573 29.1478 35.0263 29.4543 34.6313 29.4539L34.6336 29.4547Z" fill="white"/>
<path d="M43.2267 29.6534C42.9957 29.6537 42.7768 29.5474 42.6306 29.364C42.4844 29.1806 42.4264 28.9394 42.4726 28.7073L42.6263 27.9346C42.6756 27.6529 42.8698 27.4207 43.1338 27.3279C43.3977 27.2351 43.69 27.2963 43.8974 27.4878C44.1048 27.6793 44.1947 27.971 44.1323 28.25L43.9786 29.0219C43.9059 29.3888 43.5917 29.6527 43.2267 29.6534Z" fill="white"/>
<path d="M42.4535 33.5152C42.2226 33.5152 42.0039 33.4088 41.8579 33.2254C41.7119 33.042 41.6539 32.801 41.7001 32.569L41.8539 31.7964C41.9472 31.3792 42.348 31.1145 42.7569 31.2002C43.1659 31.2858 43.4335 31.6904 43.3598 32.1117L43.2061 32.8836C43.1334 33.2508 42.8188 33.5148 42.4535 33.5152Z" fill="white"/>
<path d="M41.4112 30.881C41.1042 30.8492 40.8005 30.7906 40.5033 30.706C40.2286 30.6555 40.0021 30.4563 39.9117 30.1855C39.8212 29.9148 39.8809 29.615 40.0676 29.4023C40.2543 29.1896 40.5388 29.0974 40.8108 29.1614L41.5634 29.3191C41.9486 29.4014 42.2111 29.7687 42.1716 30.1703C42.132 30.5718 41.8031 30.8779 41.4096 30.8794L41.4112 30.881Z" fill="white"/>
<path d="M29.673 26.8001C29.442 26.8004 29.2231 26.6941 29.0769 26.5106C28.9307 26.3272 28.8727 26.0861 28.9189 25.8539L29.0726 25.0821C29.1218 24.8004 29.3161 24.5681 29.58 24.4753C29.844 24.3825 30.1363 24.4437 30.3437 24.6352C30.5511 24.8267 30.641 25.1185 30.5786 25.3974L30.4249 26.1693C30.3519 26.5359 30.0378 26.7994 29.673 26.8001Z" fill="white"/>
<path d="M28.8986 30.6618C28.6676 30.6621 28.4487 30.5558 28.3025 30.3724C28.1563 30.189 28.0982 29.9478 28.1444 29.7157L28.2982 28.9438C28.3474 28.6621 28.5417 28.4299 28.8056 28.3371C29.0696 28.2443 29.3619 28.3055 29.5693 28.497C29.7767 28.6885 29.8666 28.9802 29.8042 29.2592L29.6505 30.0311C29.5775 30.3976 29.2634 30.6611 28.8986 30.6618Z" fill="white"/>
<path d="M31.6219 28.8208C31.3147 28.7891 31.0107 28.7305 30.7132 28.6458C30.4385 28.5953 30.2121 28.3961 30.1216 28.1254C30.0311 27.8546 30.0908 27.5548 30.2776 27.3422C30.4643 27.1295 30.7487 27.0373 31.0207 27.1012L31.7741 27.2589C32.1612 27.3395 32.4257 27.7078 32.386 28.1108C32.3463 28.5138 32.0153 28.8204 31.6204 28.82L31.6219 28.8208Z" fill="white"/>
<path d="M45.8552 25.2311L45.7629 25.2626C45.5142 25.3561 45.2514 25.4041 44.9865 25.4045C44.3957 25.4016 43.8276 25.1708 43.3951 24.758L42.6418 24.0406C42.4359 23.8305 42.1296 23.7627 41.8576 23.8671L40.8736 24.2298C40.0524 24.5354 39.1334 24.3402 38.4982 23.7252L37.7525 23.0077C37.5413 22.8018 37.2354 22.7348 36.9606 22.8343L35.9766 23.1969C35.1579 23.5026 34.2411 23.3072 33.6089 22.6923L32.8555 21.9749C32.6434 21.7704 32.3369 21.7063 32.0637 21.8093L31.0873 22.1641C30.2677 22.4731 29.3482 22.2808 28.7119 21.6674L28.6504 21.6043C28.9192 21.1503 29.2144 20.7132 29.5345 20.2955L29.7651 20.5084C29.975 20.7164 30.2807 20.7864 30.5569 20.6897L31.5409 20.327C32.3596 20.0214 33.2765 20.2168 33.9087 20.8316L34.6621 21.5491C34.8742 21.7536 35.1807 21.8177 35.4539 21.7147L36.4302 21.352C37.2514 21.0464 38.1704 21.2416 38.8057 21.8566L39.559 22.5741C39.7649 22.7842 40.0712 22.8519 40.3432 22.7475L41.3272 22.3849C42.1484 22.0792 43.0674 22.2744 43.7026 22.8894L44.4483 23.6069C44.6595 23.8128 44.9654 23.8798 45.2402 23.7804L45.5477 23.67C45.6789 24.184 45.7816 24.7052 45.8552 25.2311Z" fill="white" fill-opacity="0.25"/>
<path d="M44.6242 36.4032C44.3848 37.0813 44.1076 37.7446 43.794 38.3901L43.0867 38.6581C42.2655 38.9632 41.3468 38.7681 40.7113 38.1535L39.9656 37.4361C39.7535 37.2316 39.447 37.1675 39.1737 37.2705L38.1897 37.6253C37.371 37.9309 36.4542 37.7355 35.822 37.1207L35.0686 36.4111C34.8593 36.2016 34.5512 36.1341 34.2768 36.2376L33.2927 36.6003C32.474 36.9059 31.5572 36.7106 30.925 36.0957L30.1716 35.3782C29.9654 35.1689 29.6595 35.1012 29.3875 35.2048L28.4034 35.5675C27.5823 35.8731 26.6632 35.6779 26.028 35.0629L25.4899 34.5425C25.4502 33.8229 25.4528 33.1015 25.4975 32.3822L27.0889 33.9196C27.2979 34.124 27.6023 34.1882 27.873 34.0852L28.857 33.7225C29.6757 33.4169 30.5926 33.6123 31.2248 34.2271L31.9782 34.9446C32.1875 35.1541 32.4955 35.2216 32.77 35.1181L33.754 34.7554C34.5728 34.4505 35.4892 34.6458 36.1218 35.26L36.8752 35.9775C37.0863 36.1833 37.3922 36.2504 37.667 36.1509L38.6433 35.7882C39.4642 35.4787 40.3852 35.6744 41.0188 36.2928L41.7721 37.0024C41.978 37.2125 42.2843 37.2803 42.5563 37.1759L44.6242 36.4032Z" fill="white" fill-opacity="0.25"/>
<path d="M39.0587 45.683L27.0046 43.1474C26.1724 42.9724 25.6362 42.1386 25.8068 41.2852L26.2704 38.9671L41.338 42.1367L40.8745 44.4547C40.7038 45.3081 39.8908 45.8581 39.0587 45.683Z" fill="white" fill-opacity="0.25"/>
</g>
<mask id="path-63-outside-1_1106:40069" maskUnits="userSpaceOnUse" x="65.4004" y="0.782654" width="13" height="45" fill="black">
<rect fill="white" x="65.4004" y="0.782654" width="13" height="45"/>
<path fill-rule="evenodd" clip-rule="evenodd" d="M71.7746 1.78265C70.2905 1.78265 69.0875 2.9857 69.0875 4.46973V33.9983C67.4811 34.945 66.4004 36.7145 66.4004 38.7411C66.4004 41.7651 68.8065 44.2165 71.7745 44.2165C74.7426 44.2165 77.1487 41.7651 77.1487 38.7411C77.1487 36.7145 76.068 34.945 74.4616 33.9983V4.46973C74.4616 2.9857 73.2586 1.78265 71.7746 1.78265Z"/>
</mask>
<path d="M69.0875 33.9983L69.5952 34.8598L70.0875 34.5697V33.9983H69.0875ZM74.4616 33.9983H73.4616V34.5697L73.9539 34.8598L74.4616 33.9983ZM70.0875 4.46973C70.0875 3.53798 70.8428 2.78265 71.7746 2.78265V0.782654C69.7383 0.782654 68.0875 2.43342 68.0875 4.46973H70.0875ZM70.0875 33.9983V4.46973H68.0875V33.9983H70.0875ZM67.4004 38.7411C67.4004 37.0768 68.2867 35.631 69.5952 34.8598L68.5798 33.1368C66.6755 34.259 65.4004 36.3522 65.4004 38.7411H67.4004ZM71.7745 43.2165C69.3763 43.2165 67.4004 41.2305 67.4004 38.7411H65.4004C65.4004 42.2997 68.2367 45.2165 71.7745 45.2165V43.2165ZM76.1487 38.7411C76.1487 41.2305 74.1728 43.2165 71.7745 43.2165V45.2165C75.3124 45.2165 78.1487 42.2997 78.1487 38.7411H76.1487ZM73.9539 34.8598C75.2624 35.631 76.1487 37.0768 76.1487 38.7411H78.1487C78.1487 36.3522 76.8736 34.2591 74.9694 33.1368L73.9539 34.8598ZM73.4616 4.46973V33.9983H75.4616V4.46973H73.4616ZM71.7746 2.78265C72.7063 2.78265 73.4616 3.53798 73.4616 4.46973H75.4616C75.4616 2.43341 73.8109 0.782654 71.7746 0.782654V2.78265Z" fill="black" mask="url(#path-63-outside-1_1106:40069)"/>
<path fill-rule="evenodd" clip-rule="evenodd" d="M72.6994 28.8837H70.5994V34.8118C68.9462 35.324 67.7432 36.8895 67.7432 38.7413C67.7432 41.0092 69.5477 42.8478 71.7738 42.8478C73.9998 42.8478 75.8044 41.0092 75.8044 38.7413C75.8044 36.7978 74.4793 35.1697 72.6994 34.7436V28.8837Z" fill="#0F6ADB"/>
<ellipse cx="69.55" cy="38.5116" rx="1.05" ry="1.06977" fill="white" fill-opacity="0.1"/>
<path d="M63.25 30.4884L59.3125 32.8045L59.3125 28.1723L63.25 30.4884Z" fill="#111111"/>
<defs>
<clipPath id="clip0_1106:40069">
<rect width="45.1321" height="46" fill="white" transform="translate(0.90918)"/>
</clipPath>
</defs>
</svg>
