<svg width="79" height="46" viewBox="0 0 79 46" fill="none" xmlns="http://www.w3.org/2000/svg">
<g clip-path="url(#clip0_1106:40113)">
<path d="M46.2296 25.887L46.2296 41.2414C46.2296 41.6794 45.8812 42.0345 45.4514 42.0345H40.0045C39.5747 42.0345 39.2263 41.6794 39.2263 41.2414L39.2263 29.5828C39.2292 27.8487 38.8348 26.1378 38.0747 24.5863L35.3357 19.0346L36.1138 43.4859C33.0013 45.1593 29.8887 46 23.6636 46C17.4385 46 14.326 45.1593 11.2134 43.4859L11.9916 19.0346L9.25253 24.5863C8.49241 26.1378 8.09807 27.8487 8.10088 29.5828V41.2414C8.10088 41.6794 7.7525 42.0345 7.32275 42.0345H1.87579C1.44604 42.0345 1.09766 41.6794 1.09766 41.2414L1.09766 25.887C1.10998 24.5013 1.3738 23.1299 1.87579 21.8422L7.08931 9.85047C7.78492 8.05682 9.16307 6.62642 10.91 5.88497C12.7648 5.06648 14.6898 4.42399 16.6604 3.96567L17.314 5.23464C17.3891 4.85941 17.7165 4.59244 18.0922 4.60016L29.2506 4.60016C29.6263 4.59244 29.9537 4.85941 30.0288 5.23464L30.6668 3.96567C32.6475 4.41699 34.583 5.05418 36.4484 5.86911C38.1953 6.61055 39.5734 8.04096 40.269 9.83461L45.4514 21.8422C45.9534 23.1299 46.2173 24.5013 46.2296 25.887Z" fill="#98DD71"/>
<path d="M18.6449 6.25784C18.2744 6.05533 18.1287 5.58949 18.3159 5.2058C18.5031 4.82211 18.9554 4.65933 19.3375 4.83819C20.7165 5.3752 22.189 5.61814 23.6639 5.55198C25.1387 5.61724 26.611 5.37433 27.9903 4.83819C28.3751 4.64994 28.8368 4.81271 29.0253 5.20301C29.2122 5.59097 29.0599 6.06006 28.6829 6.25784C26.3718 7.42369 20.9638 7.42369 18.6449 6.25784Z" fill="#98DD71"/>
<path d="M46.2298 38.8622V41.2415C46.2298 41.6795 45.8814 42.0346 45.4517 42.0346H40.0047C39.5749 42.0346 39.2266 41.6795 39.2266 41.2415V38.8622H46.2298Z" fill="#98DD71"/>
<path d="M8.10088 38.8622V41.2415C8.10088 41.6795 7.7525 42.0346 7.32275 42.0346H1.87579C1.44604 42.0346 1.09766 41.6795 1.09766 41.2415L1.09766 38.8622H8.10088Z" fill="#98DD71"/>
<path d="M35.5688 26.2518L33.6079 23.7932C33.4602 23.6055 33.2369 23.4964 33.0009 23.4964C32.7649 23.4964 32.5417 23.6055 32.394 23.7932L30.4953 26.1725C30.3476 26.3601 30.1244 26.4693 29.8884 26.4693C29.6524 26.4693 29.4291 26.3601 29.2814 26.1725L27.3828 23.7932C27.2351 23.6055 27.0118 23.4964 26.7758 23.4964C26.5398 23.4964 26.3166 23.6055 26.1689 23.7932L24.2702 26.1725C24.1226 26.3601 23.8993 26.4693 23.6633 26.4693C23.4273 26.4693 23.204 26.3601 23.0564 26.1725L21.1577 23.7932C21.01 23.6055 20.7868 23.4964 20.5508 23.4964C20.3147 23.4964 20.0915 23.6055 19.9438 23.7932L18.0452 26.1725C17.8975 26.3601 17.6742 26.4693 17.4382 26.4693C17.2022 26.4693 16.9789 26.3601 16.8313 26.1725L14.9326 23.7932C14.7849 23.6055 14.5617 23.4964 14.3257 23.4964C14.0897 23.4964 13.8664 23.6055 13.7187 23.7932L11.7578 26.2518L11.9212 21.3108L13.7187 19.0346C13.8664 18.8469 14.0897 18.7378 14.3257 18.7378C14.5617 18.7378 14.7849 18.8469 14.9326 19.0346L16.8313 21.4139C16.9789 21.6015 17.2022 21.7106 17.4382 21.7106C17.6742 21.7106 17.8975 21.6015 18.0452 21.4139L19.9438 19.0346C20.0915 18.8469 20.3147 18.7378 20.5508 18.7378C20.7868 18.7378 21.01 18.8469 21.1577 19.0346L23.0564 21.4139C23.204 21.6015 23.4273 21.7106 23.6633 21.7106C23.8993 21.7106 24.1226 21.6015 24.2702 21.4139L26.1689 19.0346C26.3166 18.8469 26.5398 18.7378 26.7758 18.7378C27.0118 18.7378 27.2351 18.8469 27.3828 19.0346L29.2814 21.4139C29.4291 21.6015 29.6524 21.7106 29.8884 21.7106C30.1244 21.7106 30.3476 21.6015 30.4953 21.4139L32.394 19.0346C32.5417 18.8469 32.7649 18.7378 33.0009 18.7378C33.2369 18.7378 33.4602 18.8469 33.6079 19.0346L35.4054 21.3266L35.5688 26.2518Z" fill="#98DD71"/>
<path d="M36.0135 40.3215L33.609 37.2759C33.4614 37.0883 33.2381 36.9792 33.0021 36.9792C32.7661 36.9792 32.5428 37.0883 32.3951 37.2759L30.4965 39.6552C30.3488 39.8429 30.1256 39.952 29.8895 39.952C29.6535 39.952 29.4303 39.8429 29.2826 39.6552L27.3839 37.2759C27.2363 37.0883 27.013 36.9792 26.777 36.9792C26.541 36.9792 26.3177 37.0883 26.1701 37.2759L24.2714 39.6552C24.1237 39.8429 23.9005 39.952 23.6645 39.952C23.4284 39.952 23.2052 39.8429 23.0575 39.6552L21.1589 37.2759C21.0112 37.0883 20.7879 36.9792 20.5519 36.9792C20.3159 36.9792 20.0927 37.0883 19.945 37.2759L18.0463 39.6552C17.8986 39.8429 17.6754 39.952 17.4394 39.952C17.2034 39.952 16.9801 39.8429 16.8324 39.6552L14.9338 37.2759C14.7861 37.0883 14.5628 36.9792 14.3268 36.9792C14.0908 36.9792 13.8676 37.0883 13.7199 37.2759C11.4321 40.1787 11.9068 39.5759 11.3154 40.3373L11.4711 35.3725L13.7199 32.5173C13.8676 32.3297 14.0908 32.2206 14.3268 32.2206C14.5628 32.2206 14.7861 32.3297 14.9338 32.5173L16.8324 34.8966C16.9801 35.0843 17.2034 35.1934 17.4394 35.1934C17.6754 35.1934 17.8986 35.0843 18.0463 34.8966L19.945 32.5173C20.0927 32.3297 20.3159 32.2206 20.5519 32.2206C20.7879 32.2206 21.0112 32.3297 21.1589 32.5173L23.0575 34.8966C23.2052 35.0843 23.4284 35.1934 23.6645 35.1934C23.9005 35.1934 24.1237 35.0843 24.2714 34.8966L26.1701 32.5173C26.3177 32.3297 26.541 32.2206 26.777 32.2206C27.013 32.2206 27.2363 32.3297 27.3839 32.5173L29.2826 34.8966C29.4303 35.0843 29.6535 35.1934 29.8895 35.1934C30.1256 35.1934 30.3488 35.0843 30.4965 34.8966L32.3951 32.5173C32.5428 32.3297 32.7661 32.2206 33.0021 32.2206C33.2381 32.2206 33.4614 32.3297 33.609 32.5173L35.8579 35.3804L36.0135 40.3215Z" fill="#98DD71"/>
<path d="M46.2296 25.887L46.2296 41.2414C46.2296 41.6794 45.8812 42.0345 45.4514 42.0345H40.0045C39.5747 42.0345 39.2263 41.6794 39.2263 41.2414L39.2263 29.5828C39.2292 27.8487 38.8348 26.1378 38.0747 24.5863L35.3357 19.0346L36.1138 43.4859C33.0013 45.1593 29.8887 46 23.6636 46C17.4385 46 14.326 45.1593 11.2134 43.4859L11.9916 19.0346L9.25253 24.5863C8.49241 26.1378 8.09807 27.8487 8.10088 29.5828V41.2414C8.10088 41.6794 7.7525 42.0345 7.32275 42.0345H1.87579C1.44604 42.0345 1.09766 41.6794 1.09766 41.2414L1.09766 25.887C1.10998 24.5013 1.3738 23.1299 1.87579 21.8422L7.08931 9.85047C7.78492 8.05682 9.16307 6.62641 10.91 5.88497C12.7648 5.06648 13.1854 4.42399 15.156 3.96567L15.8096 2.16798C15.8847 1.79274 16.2121 1.52577 16.5878 1.5335C16.5878 1.5335 21.9712 2.16798 23.4756 2.16798C24.98 2.16798 30.755 1.5335 30.755 1.5335C31.1307 1.52577 31.4581 1.79274 31.5332 2.16798L32.1712 3.96567C34.1519 4.41698 34.583 5.05418 36.4484 5.86911C38.1953 6.61055 39.5734 8.04096 40.269 9.83461L45.4514 21.8422C45.9534 23.1299 46.2173 24.5013 46.2296 25.887Z" fill="#98DD71"/>
<path d="M21.2202 2.3L21.3294 3.17287C21.3294 3.61088 20.981 3.96597 20.5513 3.96597C20.1215 3.96597 19.7731 3.61088 19.7731 3.17287L19.7158 2.3H21.2202Z" fill="#110000" fill-opacity="0.1"/>
<path d="M27.5543 2.3V3.17287C27.5543 3.61088 27.2059 3.96597 26.7762 3.96597C26.3464 3.96597 25.998 3.61088 25.998 3.17287V2.3H27.5543Z" fill="#110000" fill-opacity="0.1"/>
<path d="M46.2298 38.8622V41.2415C46.2298 41.6795 45.8814 42.0346 45.4517 42.0346H40.0047C39.5749 42.0346 39.2266 41.6795 39.2266 41.2415V38.8622H46.2298Z" fill="white" fill-opacity="0.4"/>
<path d="M8.10088 38.8622V41.2415C8.10088 41.6795 7.7525 42.0346 7.32275 42.0346H1.87579C1.44604 42.0346 1.09766 41.6795 1.09766 41.2415L1.09766 38.8622H8.10088Z" fill="white" fill-opacity="0.4"/>
<path d="M35.5688 26.2518L33.6079 23.7932C33.4602 23.6055 33.2369 23.4964 33.0009 23.4964C32.7649 23.4964 32.5417 23.6055 32.394 23.7932L30.4953 26.1725C30.3476 26.3601 30.1244 26.4692 29.8884 26.4692C29.6524 26.4692 29.4291 26.3601 29.2814 26.1725L27.3828 23.7932C27.2351 23.6055 27.0118 23.4964 26.7758 23.4964C26.5398 23.4964 26.3166 23.6055 26.1689 23.7932L24.2702 26.1725C24.1226 26.3601 23.8993 26.4692 23.6633 26.4692C23.4273 26.4692 23.204 26.3601 23.0564 26.1725L21.1577 23.7932C21.01 23.6055 20.7868 23.4964 20.5508 23.4964C20.3147 23.4964 20.0915 23.6055 19.9438 23.7932L18.0452 26.1725C17.8975 26.3601 17.6742 26.4692 17.4382 26.4692C17.2022 26.4692 16.9789 26.3601 16.8313 26.1725L14.9326 23.7932C14.7849 23.6055 14.5617 23.4964 14.3257 23.4964C14.0897 23.4964 13.8664 23.6055 13.7187 23.7932L11.7578 26.2518L11.9212 21.3107L13.7187 19.0345C13.8664 18.8469 14.0897 18.7378 14.3257 18.7378C14.5617 18.7378 14.7849 18.8469 14.9326 19.0345L16.8313 21.4139C16.9789 21.6015 17.2022 21.7106 17.4382 21.7106C17.6742 21.7106 17.8975 21.6015 18.0452 21.4139L19.9438 19.0345C20.0915 18.8469 20.3147 18.7378 20.5508 18.7378C20.7868 18.7378 21.01 18.8469 21.1577 19.0345L23.0564 21.4139C23.204 21.6015 23.4273 21.7106 23.6633 21.7106C23.8993 21.7106 24.1226 21.6015 24.2702 21.4139L26.1689 19.0345C26.3166 18.8469 26.5398 18.7378 26.7758 18.7378C27.0118 18.7378 27.2351 18.8469 27.3828 19.0345L29.2814 21.4139C29.4291 21.6015 29.6524 21.7106 29.8884 21.7106C30.1244 21.7106 30.3476 21.6015 30.4953 21.4139L32.394 19.0345C32.5417 18.8469 32.7649 18.7378 33.0009 18.7378C33.2369 18.7378 33.4602 18.8469 33.6079 19.0345L35.4054 21.3266L35.5688 26.2518Z" fill="white" fill-opacity="0.4"/>
<path fill-rule="evenodd" clip-rule="evenodd" d="M22.0816 6.74824L23.7243 3.06667L25.3671 6.74824C25.5104 7.07265 25.5138 7.47509 25.3759 7.80375C25.2381 8.13242 24.98 8.3373 24.699 8.34113H24.5104L24.5104 46.3171H22.9384L22.9384 8.34113H22.7575C22.4751 8.34106 22.2145 8.13766 22.0747 7.8083C21.9349 7.47895 21.9376 7.07427 22.0816 6.74824Z" fill="#110000" fill-opacity="0.1"/>
</g>
<mask id="path-14-outside-1_1106:40113" maskUnits="userSpaceOnUse" x="65.4004" y="0.458755" width="13" height="46" fill="black">
<rect fill="white" x="65.4004" y="0.458755" width="13" height="46"/>
<path fill-rule="evenodd" clip-rule="evenodd" d="M71.7746 1.45876C70.2905 1.45876 69.0875 2.6618 69.0875 4.14583V34.4414C67.4811 35.4107 66.4004 37.2223 66.4004 39.2972C66.4004 42.3931 68.8065 44.9029 71.7745 44.9029C74.7426 44.9029 77.1487 42.3931 77.1487 39.2972C77.1487 37.2223 76.068 35.4107 74.4616 34.4415V4.14583C74.4616 2.6618 73.2586 1.45876 71.7746 1.45876Z"/>
</mask>
<path d="M69.0875 34.4414L69.6041 35.2976L70.0875 35.006V34.4414H69.0875ZM74.4616 34.4415H73.4616V35.006L73.945 35.2977L74.4616 34.4415ZM70.0875 4.14583C70.0875 3.21408 70.8428 2.45876 71.7746 2.45876V0.458755C69.7383 0.458755 68.0875 2.10951 68.0875 4.14583H70.0875ZM70.0875 34.4414V4.14583H68.0875V34.4414H70.0875ZM67.4004 39.2972C67.4004 37.5733 68.2972 36.0862 69.6041 35.2976L68.5709 33.5852C66.6651 34.7351 65.4004 36.8713 65.4004 39.2972H67.4004ZM71.7745 43.9029C69.3981 43.9029 67.4004 41.881 67.4004 39.2972H65.4004C65.4004 42.9052 68.2149 45.9029 71.7745 45.9029V43.9029ZM76.1487 39.2972C76.1487 41.881 74.151 43.9029 71.7745 43.9029V45.9029C75.3342 45.9029 78.1487 42.9052 78.1487 39.2972H76.1487ZM73.945 35.2977C75.2519 36.0862 76.1487 37.5733 76.1487 39.2972H78.1487C78.1487 36.8713 76.884 34.7352 74.9783 33.5852L73.945 35.2977ZM73.4616 4.14583V34.4415H75.4616V4.14583H73.4616ZM71.7746 2.45876C72.7063 2.45876 73.4616 3.21409 73.4616 4.14583H75.4616C75.4616 2.10952 73.8109 0.458755 71.7746 0.458755V2.45876Z" fill="black" mask="url(#path-14-outside-1_1106:40113)"/>
<path fill-rule="evenodd" clip-rule="evenodd" d="M72.6994 16.4286H70.5994V35.2743C68.9462 35.7987 67.7432 37.4015 67.7432 39.2973C67.7432 41.6193 69.5477 43.5016 71.7738 43.5016C73.9998 43.5016 75.8044 41.6193 75.8044 39.2973C75.8044 37.3076 74.4793 35.6408 72.6994 35.2045V16.4286Z" fill="#98DD71"/>
<ellipse cx="69.55" cy="39.4286" rx="1.05" ry="1.09524" fill="white" fill-opacity="0.25"/>
<path d="M63.25 16.9762L59.3125 19.3475L59.3125 14.6049L63.25 16.9762Z" fill="#111111"/>
<defs>
<clipPath id="clip0_1106:40113">
<rect width="45.1321" height="46" fill="white" transform="translate(0.90918)"/>
</clipPath>
</defs>
</svg>
