<svg width="79" height="46" viewBox="0 0 79 46" fill="none" xmlns="http://www.w3.org/2000/svg">
<g clip-path="url(#clip0_1106:40102)">
<path d="M7.80032 35.5248L7.13156 38.5177C7.08625 38.7504 6.95484 38.9518 6.7689 39.0735C6.58297 39.1952 6.35933 39.2262 6.15174 39.159L1.63367 37.8592C1.43342 37.8029 1.26182 37.6612 1.15676 37.4654C1.0517 37.2697 1.02184 37.036 1.07377 36.816L1.77364 33.823L7.80032 35.5248Z" fill="#5AEAAD"/>
<path d="M45.1486 33.8315L45.8485 36.8159C45.9004 37.0359 45.8705 37.2696 45.7655 37.4654C45.6604 37.6611 45.4888 37.8028 45.2886 37.8592L40.7705 39.159C40.5629 39.2261 40.3393 39.1951 40.1533 39.0734C39.9674 38.9517 39.836 38.7503 39.7907 38.5176L39.0908 35.5247L45.1486 33.8315Z" fill="#5AEAAD"/>
<path d="M10.3195 7.0575C8.3876 7.22898 6.75326 8.69602 6.21361 10.7431L1.03455 30.5222C0.797386 31.4128 0.899463 32.3711 1.31736 33.1774C1.73526 33.9836 2.43311 34.5685 3.25081 34.7979L6.08141 35.6017C7.53928 36.0125 9.0555 35.2167 9.68187 33.7119L10.3195 7.0575Z" fill="#5AEAAD"/>
<path d="M37.2422 33.6948C37.8685 35.1996 39.3847 35.9954 40.8426 35.5846C43.7276 34.7808 44.3731 34.7295 45.1507 33.8743C45.9285 33.0029 46.2248 31.7417 45.9283 30.565L40.7104 10.7431C40.1708 8.69602 38.5364 7.22898 36.6045 7.0575L37.2422 33.6948Z" fill="#5AEAAD"/>
<path d="M11.7969 41.7244H35.126V45.1449C35.126 45.6172 34.7778 46 34.3483 46H12.5745C12.145 46 11.7969 45.6172 11.7969 45.1449V41.7244Z" fill="#5AEAAD"/>
<path d="M29.5809 2.69635L31.8671 3.44886C36.0453 4.82837 38.7968 9.20708 38.4926 13.9926L36.8285 40.1937C36.7426 41.54 35.7228 42.5829 34.4955 42.5796H12.4184C11.1912 42.5829 10.1714 41.54 10.0855 40.1937L8.42917 13.9926C8.12494 9.20708 10.8764 4.82837 15.0546 3.44886L17.3409 2.69635L29.5809 2.69635Z" fill="#5AEAAD"/>
<path d="M31.8658 3.44883C29.2374 2.5937 29.6651 2.69632 29.3541 2.69632C29.5562 2.85879 28.3276 1.53334 23.4596 1.53334C20.7223 1.53334 18.4049 2.02076 17.5729 2.69632H17.3396C16.2527 3.00375 15.1807 3.37193 14.1279 3.79943C14.509 6.80093 17.7051 8.37437 23.4596 8.37437C29.2141 8.37437 32.4102 6.80093 32.7912 3.79943C32.489 3.66358 32.18 3.54653 31.8658 3.44883Z" fill="#5AEAAD"/>
<path d="M23.4613 4.95385C26.8971 4.95385 29.6824 4.18815 29.6824 3.2436C29.6824 2.29905 26.8971 1.53334 23.4613 1.53334C20.0255 1.53334 17.2402 2.29905 17.2402 3.2436C17.2402 4.18815 20.0255 4.95385 23.4613 4.95385Z" fill="#5AEAAD"/>
<path d="M32.7922 3.79947C32.4111 6.80097 29.2151 8.37441 23.4605 8.37441C17.706 8.37441 14.5099 6.80097 14.1289 3.79947C14.681 3.53438 15.272 3.3719 17.3094 2.69635H17.5427C17.37 2.81728 17.258 3.0194 17.2395 3.24363C17.2395 4.18427 20.0234 4.95389 23.4605 4.95389C26.8977 4.95389 29.6816 4.18427 29.6816 3.24363C29.6567 3.01504 29.5358 2.8125 29.355 2.69635H29.5805C30.6674 3.00378 31.7394 3.37197 32.7922 3.79947Z" fill="#5AEAAD"/>
<path d="M7.80032 35.5248L7.13156 38.5177C7.08625 38.7504 6.95484 38.9518 6.7689 39.0735C6.58297 39.1952 6.35933 39.2262 6.15174 39.159L1.63367 37.8592C1.43342 37.8029 1.26182 37.6612 1.15676 37.4654C1.0517 37.2697 1.02184 37.036 1.07377 36.816L1.77364 33.823L7.80032 35.5248Z" fill="black" fill-opacity="0.25"/>
<path d="M45.1486 33.8315L45.8485 36.8159C45.9004 37.0359 45.8705 37.2696 45.7655 37.4654C45.6604 37.6611 45.4888 37.8028 45.2886 37.8592L40.7705 39.159C40.5629 39.2261 40.3393 39.1951 40.1533 39.0734C39.9674 38.9517 39.836 38.7503 39.7907 38.5176L39.0908 35.5247L45.1486 33.8315Z" fill="black" fill-opacity="0.25"/>
<path d="M10.3195 7.0575C8.3876 7.22898 6.75326 8.69602 6.21361 10.7431L1.03455 30.5222C0.797386 31.4128 0.899463 32.3711 1.31736 33.1774C1.73526 33.9836 2.43311 34.5685 3.25081 34.7979L6.08141 35.6017C7.53928 36.0125 9.0555 35.2167 9.68187 33.7119L10.3195 7.0575Z" fill="#110000" fill-opacity="0.1"/>
<path d="M37.2422 33.6948C37.8685 35.1996 39.3847 35.9954 40.8426 35.5846C43.7276 34.7808 44.3731 34.7295 45.1507 33.8743C45.9285 33.0029 46.2248 31.7417 45.9283 30.565L40.7104 10.7431C40.1708 8.69602 38.5364 7.22898 36.6045 7.0575L37.2422 33.6948Z" fill="#110000" fill-opacity="0.1"/>
<path d="M11.7969 41.7244H35.126V45.1449C35.126 45.6172 34.7778 46 34.3483 46H12.5745C12.145 46 11.7969 45.6172 11.7969 45.1449V41.7244Z" fill="black" fill-opacity="0.25"/>
<path d="M29.5809 2.69635L31.8671 3.44886C36.0453 4.82837 38.7968 9.20708 38.4926 13.9926L36.8285 40.1937C36.7426 41.54 35.7228 42.5829 34.4955 42.5796H12.4184C11.1912 42.5829 10.1714 41.54 10.0855 40.1937L8.42917 13.9926C8.12494 9.20708 10.8764 4.82837 15.0546 3.44886L17.3409 2.69635L29.5809 2.69635Z" fill="#5AEAAD"/>
<path d="M31.8658 3.44883C29.2374 2.5937 29.6651 2.69632 29.3541 2.69632C29.5562 2.85879 28.3276 1.53334 23.4596 1.53334C20.7223 1.53334 18.4049 2.02076 17.5729 2.69632H17.3396C16.2527 3.00375 15.1807 3.37193 14.1279 3.79943C14.509 6.80093 17.7051 8.37437 23.4596 8.37437C29.2141 8.37437 32.4102 6.80093 32.7912 3.79943C32.489 3.66358 32.18 3.54653 31.8658 3.44883Z" fill="#110000" fill-opacity="0.1"/>
<path d="M23.4613 4.95385C26.8971 4.95385 29.6824 4.18815 29.6824 3.2436C29.6824 2.29905 26.8971 1.53334 23.4613 1.53334C20.0255 1.53334 17.2402 2.29905 17.2402 3.2436C17.2402 4.18815 20.0255 4.95385 23.4613 4.95385Z" fill="black" fill-opacity="0.5"/>
<path d="M32.7922 3.79947C32.4111 6.80097 29.2151 8.37441 23.4605 8.37441C17.706 8.37441 14.5099 6.80097 14.1289 3.79947C14.681 3.53438 15.272 3.3719 17.3094 2.69635H17.5427C17.37 2.81728 17.258 3.0194 17.2395 3.24363C17.2395 4.18427 20.0234 4.95389 23.4605 4.95389C26.8977 4.95389 29.6816 4.18427 29.6816 3.24363C29.6567 3.01504 29.5358 2.8125 29.355 2.69635H29.5805C30.6674 3.00378 31.7394 3.37197 32.7922 3.79947Z" fill="#110000" fill-opacity="0.1"/>
</g>
<mask id="path-19-outside-1_1106:40102" maskUnits="userSpaceOnUse" x="65.4004" y="0.781723" width="13" height="45" fill="black">
<rect fill="white" x="65.4004" y="0.781723" width="13" height="45"/>
<path fill-rule="evenodd" clip-rule="evenodd" d="M71.7746 1.78172C70.2905 1.78172 69.0875 2.98477 69.0875 4.4688V33.9974C67.4811 34.9441 66.4004 36.7135 66.4004 38.7402C66.4004 41.7641 68.8065 44.2155 71.7745 44.2155C74.7426 44.2155 77.1487 41.7641 77.1487 38.7402C77.1487 36.7136 76.068 34.9441 74.4616 33.9974V4.4688C74.4616 2.98477 73.2586 1.78172 71.7746 1.78172Z"/>
</mask>
<path d="M69.0875 33.9974L69.5952 34.8589L70.0875 34.5688V33.9974H69.0875ZM74.4616 33.9974H73.4616V34.5688L73.9539 34.8589L74.4616 33.9974ZM70.0875 4.4688C70.0875 3.53705 70.8428 2.78172 71.7746 2.78172V0.781723C69.7383 0.781723 68.0875 2.43248 68.0875 4.4688H70.0875ZM70.0875 33.9974V4.4688H68.0875V33.9974H70.0875ZM67.4004 38.7402C67.4004 37.0759 68.2867 35.63 69.5952 34.8589L68.5798 33.1358C66.6755 34.2581 65.4004 36.3512 65.4004 38.7402H67.4004ZM71.7745 43.2155C69.3763 43.2155 67.4004 41.2295 67.4004 38.7402H65.4004C65.4004 42.2988 68.2367 45.2155 71.7745 45.2155V43.2155ZM76.1487 38.7402C76.1487 41.2295 74.1728 43.2155 71.7745 43.2155V45.2155C75.3124 45.2155 78.1487 42.2988 78.1487 38.7402H76.1487ZM73.9539 34.8589C75.2624 35.6301 76.1487 37.0759 76.1487 38.7402H78.1487C78.1487 36.3513 76.8736 34.2581 74.9694 33.1359L73.9539 34.8589ZM73.4616 4.4688V33.9974H75.4616V4.4688H73.4616ZM71.7746 2.78172C72.7063 2.78172 73.4616 3.53705 73.4616 4.4688H75.4616C75.4616 2.43248 73.8109 0.781723 71.7746 0.781723V2.78172Z" fill="black" mask="url(#path-19-outside-1_1106:40102)"/>
<path fill-rule="evenodd" clip-rule="evenodd" d="M72.6994 19.2558H70.5994V34.8109C68.9462 35.3231 67.7432 36.8886 67.7432 38.7404C67.7432 41.0083 69.5477 42.8468 71.7738 42.8468C73.9998 42.8468 75.8044 41.0083 75.8044 38.7404C75.8044 36.7969 74.4793 35.1688 72.6994 34.7427V19.2558Z" fill="#5AEAAD"/>
<ellipse cx="69.55" cy="38.5116" rx="1.05" ry="1.06977" fill="white" fill-opacity="0.25"/>
<path d="M63.25 20.8605L59.3125 23.1766L59.3125 18.5444L63.25 20.8605Z" fill="#111111"/>
<defs>
<clipPath id="clip0_1106:40102">
<rect width="45.1321" height="46" fill="white" transform="translate(0.90918)"/>
</clipPath>
</defs>
</svg>
