<svg width="79" height="47" viewBox="0 0 79 47" fill="none" xmlns="http://www.w3.org/2000/svg">
<g clip-path="url(#clip0_1106:40124)">
<g clip-path="url(#clip1_1106:40124)">
<path d="M11.8031 16.4411L9.06408 21.9928C8.30396 23.5443 7.90962 25.2552 7.91243 26.9893L7.91243 39.441C7.91243 39.8791 7.56405 40.2342 7.13429 40.2342H1.68732C1.25756 40.2342 0.90918 39.8791 0.90918 39.441L0.90918 23.2935C0.9215 21.9078 1.18532 20.5364 1.68732 19.2486L7.91243 3.7514L11.8031 16.4411Z" fill="#F2D227"/>
<path d="M39.0382 3.7514L45.2633 19.2486C45.7653 20.5364 46.0291 21.9078 46.0414 23.2935V39.441C46.0414 39.8791 45.693 40.2342 45.2633 40.2342H39.8163C39.3865 40.2342 39.0382 39.8791 39.0382 39.441L39.0382 26.9893C39.041 25.2552 38.6466 23.5443 37.8865 21.9928L35.1475 16.4411L39.0382 3.7514Z" fill="#F2D227"/>
<path d="M30.4782 7.62961L16.4717 7.62961V0.578919L30.4782 0.578919V7.62961Z" fill="#F2D227"/>
<path d="M23.4749 6.13064C29.7 6.13064 30.4781 0.578919 30.4781 0.578919C33.4309 1.33303 36.2993 2.39615 39.0377 3.75133C38.2595 8.77168 35.147 16.441 35.147 16.441L35.9251 44.0727C32.8126 45.7858 29.7 46.5789 23.4749 46.5789C17.2498 46.5789 14.1372 45.7858 11.0247 44.0727L11.8028 16.441C11.8028 16.441 8.69025 8.77168 7.91211 3.75133C10.6504 2.39615 13.5189 1.33303 16.4716 0.578919C16.4716 0.578919 17.2498 6.13064 23.4749 6.13064Z" fill="#F2D227"/>
<path d="M32.0347 18.0271V21.9926C32.0347 23.7447 30.6411 25.1651 28.9221 25.1651C27.2031 25.1651 25.8096 23.7447 25.8096 21.9926V18.0271C25.8096 17.5891 26.158 17.234 26.5877 17.234H31.2565C31.6863 17.234 32.0347 17.5891 32.0347 18.0271Z" fill="#F2D227"/>
<path d="M29.7003 20.4068C29.7003 20.8448 29.3519 21.1999 28.9221 21.1999H25.8096V19.6137H28.9221C29.3519 19.6137 29.7003 19.9688 29.7003 20.4068Z" fill="#F2D227"/>
<path d="M33.5911 1.45133C33.1632 6.20995 29.1558 9.30306 24.2535 9.30306H22.6972C17.8183 9.30306 13.8264 6.21789 13.3984 1.45133C14.4053 1.09924 15.4316 0.807934 16.4721 0.578919C16.4721 0.578919 17.2502 6.13064 23.4753 6.13064C29.7004 6.13064 30.4786 0.578919 30.4786 0.578919C31.5322 0.806415 32.5716 1.09774 33.5911 1.45133Z" fill="#F2D227"/>
</g>
<g clip-path="url(#clip2_1106:40124)">
<path d="M11.8031 16.4411L9.06408 21.9928C8.30396 23.5443 7.90962 25.2552 7.91243 26.9893L7.91243 39.441C7.91243 39.8791 7.56405 40.2342 7.13429 40.2342H1.68732C1.25756 40.2342 0.90918 39.8791 0.90918 39.441L0.90918 23.2935C0.9215 21.9078 1.18532 20.5364 1.68732 19.2486L7.91243 3.7514L11.8031 16.4411Z" fill="#110000" fill-opacity="0.1"/>
<path d="M39.0382 3.7514L45.2633 19.2486C45.7653 20.5364 46.0291 21.9078 46.0414 23.2935V39.441C46.0414 39.8791 45.693 40.2342 45.2633 40.2342H39.8163C39.3865 40.2342 39.0382 39.8791 39.0382 39.441L39.0382 26.9893C39.041 25.2552 38.6466 23.5443 37.8865 21.9928L35.1475 16.4411L39.0382 3.7514Z" fill="#110000" fill-opacity="0.1"/>
<path d="M30.4782 7.62961L16.4717 7.62961V0.578919L30.4782 0.578919V7.62961Z" fill="black" fill-opacity="0.25"/>
<path d="M23.4749 6.13064C29.7 6.13064 30.4781 0.578919 30.4781 0.578919C33.4309 1.33303 36.2993 2.39615 39.0377 3.75133C38.2595 8.77168 35.147 16.441 35.147 16.441L35.9251 44.0727C32.8126 45.7858 29.7 46.5789 23.4749 46.5789C17.2498 46.5789 14.1372 45.7858 11.0247 44.0727L11.8028 16.441C11.8028 16.441 8.69025 8.77168 7.91211 3.75133C10.6504 2.39615 13.5189 1.33303 16.4716 0.578919C16.4716 0.578919 17.2498 6.13064 23.4749 6.13064Z" fill="#F2D227"/>
<path d="M32.0347 18.0271V21.9926C32.0347 23.7447 30.6411 25.1651 28.9221 25.1651C27.2031 25.1651 25.8096 23.7447 25.8096 21.9926V18.0271C25.8096 17.5891 26.158 17.234 26.5877 17.234H31.2565C31.6863 17.234 32.0347 17.5891 32.0347 18.0271Z" fill="white" fill-opacity="0.66"/>
<path d="M29.7003 20.4068C29.7003 20.8448 29.3519 21.1999 28.9221 21.1999H25.8096V19.6137H28.9221C29.3519 19.6137 29.7003 19.9688 29.7003 20.4068Z" fill="#110000" fill-opacity="0.1"/>
<path d="M33.5911 1.45133C33.1632 6.20995 29.1558 9.30306 24.2535 9.30306H22.6972C17.8183 9.30306 13.8264 6.21789 13.3984 1.45133C14.4053 1.09924 15.4316 0.807934 16.4721 0.578919C16.4721 0.578919 17.2502 6.13064 23.4753 6.13064C29.7004 6.13064 30.4786 0.578919 30.4786 0.578919C31.5322 0.806415 32.5716 1.09774 33.5911 1.45133Z" fill="white" fill-opacity="0.66"/>
</g>
</g>
<mask id="path-15-outside-1_1106:40124" maskUnits="userSpaceOnUse" x="65.4004" y="1.71663" width="13" height="45" fill="black">
<rect fill="white" x="65.4004" y="1.71663" width="13" height="45"/>
<path fill-rule="evenodd" clip-rule="evenodd" d="M71.7746 2.71663C70.2905 2.71663 69.0875 3.91967 69.0875 5.4037V34.9323C67.4811 35.879 66.4004 37.6484 66.4004 39.6751C66.4004 42.699 68.8065 45.1504 71.7745 45.1504C74.7426 45.1504 77.1487 42.699 77.1487 39.6751C77.1487 37.6485 76.068 35.879 74.4616 34.9323V5.4037C74.4616 3.91967 73.2586 2.71663 71.7746 2.71663Z"/>
</mask>
<path d="M69.0875 34.9323L69.5952 35.7938L70.0875 35.5037V34.9323H69.0875ZM74.4616 34.9323H73.4616V35.5037L73.9539 35.7938L74.4616 34.9323ZM70.0875 5.4037C70.0875 4.47196 70.8428 3.71663 71.7746 3.71663V1.71663C69.7383 1.71663 68.0875 3.36739 68.0875 5.4037H70.0875ZM70.0875 34.9323V5.4037H68.0875V34.9323H70.0875ZM67.4004 39.6751C67.4004 38.0108 68.2867 36.5649 69.5952 35.7938L68.5798 34.0707C66.6755 35.193 65.4004 37.2861 65.4004 39.6751H67.4004ZM71.7745 44.1504C69.3763 44.1504 67.4004 42.1644 67.4004 39.6751H65.4004C65.4004 43.2337 68.2367 46.1504 71.7745 46.1504V44.1504ZM76.1487 39.6751C76.1487 42.1644 74.1728 44.1504 71.7745 44.1504V46.1504C75.3124 46.1504 78.1487 43.2337 78.1487 39.6751H76.1487ZM73.9539 35.7938C75.2624 36.565 76.1487 38.0108 76.1487 39.6751H78.1487C78.1487 37.2862 76.8736 35.193 74.9694 34.0708L73.9539 35.7938ZM73.4616 5.4037V34.9323H75.4616V5.4037H73.4616ZM71.7746 3.71663C72.7063 3.71663 73.4616 4.47196 73.4616 5.4037H75.4616C75.4616 3.36739 73.8109 1.71663 71.7746 1.71663V3.71663Z" fill="black" mask="url(#path-15-outside-1_1106:40124)"/>
<path fill-rule="evenodd" clip-rule="evenodd" d="M72.6994 13.4161H70.5994V35.7458C68.9462 36.258 67.7432 37.8235 67.7432 39.6752C67.7432 41.9432 69.5477 43.7817 71.7738 43.7817C73.9998 43.7817 75.8044 41.9432 75.8044 39.6752C75.8044 37.7318 74.4793 36.1037 72.6994 35.6775V13.4161Z" fill="#F2D227"/>
<ellipse cx="69.55" cy="39.0905" rx="1.05" ry="1.06977" fill="white" fill-opacity="0.25"/>
<path d="M63.25 13.951L59.3125 16.2671L59.3125 11.6349L63.25 13.951Z" fill="#111111"/>
<defs>
<clipPath id="clip0_1106:40124">
<rect width="45.1321" height="46" fill="white" transform="translate(0.90918 0.578918)"/>
</clipPath>
<clipPath id="clip1_1106:40124">
<rect width="45.1321" height="46" fill="white" transform="translate(0.90918 0.578918)"/>
</clipPath>
<clipPath id="clip2_1106:40124">
<rect width="45.1321" height="46" fill="white" transform="translate(0.90918 0.578918)"/>
</clipPath>
</defs>
</svg>
