<svg width="79" height="47" viewBox="0 0 79 47" fill="none" xmlns="http://www.w3.org/2000/svg">
<g clip-path="url(#clip0_1106:40146)">
<path d="M39.7934 9.18972L39.7934 5.49891C39.8605 4.55165 39.1677 3.72551 38.2392 3.64558L8.71031 3.64559C7.78504 3.72554 7.09347 4.54671 7.15615 5.49099L7.15616 9.18973L39.7934 9.18972Z" fill="#FF7324"/>
<path d="M1.71685 39.944C5.85866 42.32 12.1608 43.1517 17.0097 43.2467C17.6325 43.2521 18.1982 42.878 18.4473 42.2963L22.7601 32.2456C22.8821 31.9535 23.1635 31.7639 23.475 31.7639C23.7864 31.7639 24.0678 31.9535 24.1899 32.2456L28.5027 42.2963C28.7517 42.878 29.3175 43.2521 29.9403 43.2467C34.7426 43.1596 41.0447 42.3517 45.2331 39.944C45.8299 39.6109 46.1448 38.9209 46.0102 38.2411C45.8237 37.3462 45.1865 34.281 39.7936 8.40575L7.15638 8.40575C1.77901 34.3048 1.14181 37.3462 0.939772 38.2411C0.805144 38.9209 1.12002 39.6109 1.71685 39.944Z" fill="#FF7324"/>
<path d="M1.08043 37.7024C1.21763 37.9959 1.44009 38.2392 1.71763 38.3994C5.90607 40.7754 12.1848 41.6071 17.0105 41.7021C17.6332 41.7075 18.199 41.3334 18.4481 40.7517L22.7609 30.6613C22.8829 30.3693 23.1643 30.1797 23.4758 30.1797C23.7872 30.1797 24.0686 30.3693 24.1907 30.6613L28.5034 40.7121C28.7525 41.2938 29.3183 41.6679 29.941 41.6625C34.7822 41.5675 41.0921 40.7358 45.2339 38.3598C45.5057 38.2101 45.7275 37.9812 45.8711 37.7024L39.7944 8.39766L7.15716 8.39766L1.08043 37.7024Z" fill="#FF7324"/>
<path d="M34.6725 8.39766C34.6725 8.54814 41.2776 41.4883 41.3165 41.5833C41.8527 41.417 42.3422 41.2427 42.7852 41.0685L36.2422 8.39766L34.6725 8.39766Z" fill="#FF7324"/>
<path d="M4.16466 41.0766C4.6076 41.2508 5.09716 41.4251 5.63334 41.5914C5.67219 41.4963 12.2773 8.55623 12.2773 8.40575L10.7232 8.40575L4.16466 41.0766Z" fill="#FF7324"/>
<path d="M17.6701 6.81356C19.7837 5.46712 22.5968 6.2037 23.4749 6.48091C24.353 6.2037 27.166 5.46712 29.2796 6.81355C33.165 9.27674 33.6468 14.0289 29.2796 14.0289C27.9065 13.9949 26.5716 13.5606 25.4331 12.7775C26.1707 14.2568 27.2346 15.5418 28.5414 16.5316C28.7127 16.6491 28.831 16.8312 28.8704 17.0377C28.9098 17.2443 28.8669 17.4583 28.7512 17.6325C28.5141 17.9939 28.0354 18.0929 27.6788 17.8543C25.7636 16.4035 24.3031 14.4169 23.4749 12.1359C22.6382 14.4209 21.1665 16.408 19.2398 17.8543C18.8818 18.0861 18.4075 17.9824 18.1742 17.6214C17.9409 17.2604 18.0347 16.7754 18.385 16.5316C19.6817 15.5374 20.7437 14.2601 21.4933 12.7933C20.3588 13.5646 19.0334 13.9929 17.6701 14.0289C13.3029 14.0289 13.8158 9.26882 17.6701 6.81356ZM26.3967 11.5182C28.3083 12.7379 30.282 12.6111 30.725 11.9379C30.9029 11.4066 30.8282 10.8212 30.5229 10.3539C30.0362 9.44725 29.3231 8.6877 28.4559 8.15207C27.3058 7.41549 25.6662 7.52637 24.3452 7.87486C24.5705 8.97577 25.1611 10.7261 26.3967 11.5182ZM16.2247 11.9379C16.6444 12.6111 18.6414 12.7299 20.5531 11.5182C21.8663 10.6786 22.4025 8.84113 22.5968 7.87486C21.5399 7.59765 19.7294 7.37589 18.4938 8.15999C17.6266 8.69562 16.9136 9.45517 16.4268 10.3618C16.124 10.8271 16.0494 11.409 16.2247 11.9379Z" fill="#FF7324"/>
<path d="M39.7934 9.18972L39.7934 5.49891C39.8605 4.55165 39.1677 3.72551 38.2392 3.64558L8.71031 3.64559C7.78504 3.72554 7.09347 4.54671 7.15615 5.49099L7.15616 9.18973L39.7934 9.18972Z" fill="#110000" fill-opacity="0.1"/>
<path d="M1.71685 39.944C5.85866 42.32 12.1608 43.1516 17.0097 43.2467C17.6325 43.2521 18.1982 42.878 18.4473 42.2963L22.7601 32.2455C22.8821 31.9535 23.1635 31.7639 23.475 31.7639C23.7864 31.7639 24.0678 31.9535 24.1899 32.2455L28.5027 42.2963C28.7517 42.878 29.3175 43.2521 29.9403 43.2467C34.7426 43.1596 41.0447 42.3517 45.2331 39.944C45.8299 39.6109 46.1448 38.9209 46.0102 38.2411C45.8237 37.3461 45.1865 34.281 39.7936 8.40573L7.15638 8.40573C1.77901 34.3048 1.14181 37.3461 0.939772 38.2411C0.805144 38.9209 1.12002 39.6109 1.71685 39.944Z" fill="#110000" fill-opacity="0.1"/>
<path d="M1.08043 37.7024C1.21763 37.9959 1.44009 38.2392 1.71763 38.3994C5.90607 40.7754 12.1848 41.6071 17.0105 41.7021C17.6332 41.7075 18.199 41.3334 18.4481 40.7517L22.7609 30.6613C22.8829 30.3693 23.1643 30.1797 23.4758 30.1797C23.7872 30.1797 24.0686 30.3693 24.1907 30.6613L28.5034 40.7121C28.7525 41.2938 29.3183 41.6679 29.941 41.6625C34.7822 41.5675 41.0921 40.7358 45.2339 38.3598C45.5057 38.2101 45.7275 37.9812 45.8711 37.7024L39.7944 8.39766L7.15716 8.39766L1.08043 37.7024Z" fill="#FF7324"/>
<path d="M34.6725 8.39766C34.6725 8.54814 41.2776 41.4883 41.3165 41.5833C41.8527 41.417 42.3422 41.2427 42.7852 41.0685L36.2422 8.39766L34.6725 8.39766Z" fill="white" fill-opacity="0.4"/>
<path d="M4.16466 41.0766C4.6076 41.2508 5.09716 41.425 5.63334 41.5914C5.67219 41.4963 12.2773 8.55622 12.2773 8.40573L10.7232 8.40573L4.16466 41.0766Z" fill="white" fill-opacity="0.4"/>
<path d="M17.6701 7.49633C19.7837 6.14989 22.5968 6.88647 23.4749 7.16368C24.353 6.88647 27.166 6.14989 29.2796 7.49632C33.165 9.95951 33.6468 14.7116 29.2796 14.7116C27.9065 14.6777 26.5716 14.2434 25.4331 13.4602C26.1707 14.9396 27.2346 16.2246 28.5414 17.2144C28.7127 17.3319 28.831 17.514 28.8704 17.7205C28.9098 17.927 28.8669 18.1411 28.7512 18.3153C28.5141 18.6767 28.0354 18.7757 27.6788 18.5371C25.7636 17.0863 24.3031 15.0997 23.4749 12.8187C22.6382 15.1037 21.1665 17.0907 19.2398 18.5371C18.8818 18.7689 18.4075 18.6652 18.1742 18.3042C17.9409 17.9432 18.0347 17.4582 18.385 17.2144C19.6817 16.2202 20.7437 14.9429 21.4933 13.4761C20.3588 14.2473 19.0334 14.6757 17.6701 14.7116C13.3029 14.7116 13.8158 9.95159 17.6701 7.49633ZM26.3967 12.2009C28.3083 13.4206 30.282 13.2939 30.725 12.6207C30.9029 12.0894 30.8282 11.504 30.5229 11.0367C30.0362 10.13 29.3231 9.37047 28.4559 8.83484C27.3058 8.09826 25.6662 8.20914 24.3452 8.55763C24.5705 9.65854 25.1611 11.4089 26.3967 12.2009ZM16.2247 12.6207C16.6444 13.2939 18.6414 13.4127 20.5531 12.2009C21.8663 11.3614 22.4025 9.5239 22.5968 8.55763C21.5399 8.28043 19.7294 8.05866 18.4938 8.84276C17.6266 9.37839 16.9136 10.1379 16.4268 11.0446C16.124 11.5099 16.0494 12.0917 16.2247 12.6207Z" fill="white" fill-opacity="0.66"/>
</g>
<mask id="path-13-outside-1_1106:40146" maskUnits="userSpaceOnUse" x="65.4004" y="1.03674" width="13" height="46" fill="black">
<rect fill="white" x="65.4004" y="1.03674" width="13" height="46"/>
<path fill-rule="evenodd" clip-rule="evenodd" d="M71.7746 2.03674C70.2905 2.03674 69.0875 3.23979 69.0875 4.72382V35.0194C67.4811 35.9887 66.4004 37.8003 66.4004 39.8752C66.4004 42.9711 68.8065 45.4809 71.7745 45.4809C74.7426 45.4809 77.1487 42.9711 77.1487 39.8752C77.1487 37.8003 76.068 35.9887 74.4616 35.0194V4.72382C74.4616 3.23979 73.2586 2.03674 71.7746 2.03674Z"/>
</mask>
<path d="M69.0875 35.0194L69.6041 35.8756L70.0875 35.584V35.0194H69.0875ZM74.4616 35.0194H73.4616V35.584L73.945 35.8757L74.4616 35.0194ZM70.0875 4.72382C70.0875 3.79207 70.8428 3.03674 71.7746 3.03674V1.03674C69.7383 1.03674 68.0875 2.6875 68.0875 4.72382H70.0875ZM70.0875 35.0194V4.72382H68.0875V35.0194H70.0875ZM67.4004 39.8752C67.4004 38.1513 68.2972 36.6642 69.6041 35.8756L68.5709 34.1632C66.6651 35.3131 65.4004 37.4492 65.4004 39.8752H67.4004ZM71.7745 44.4809C69.3981 44.4809 67.4004 42.459 67.4004 39.8752H65.4004C65.4004 43.4832 68.2149 46.4809 71.7745 46.4809V44.4809ZM76.1487 39.8752C76.1487 42.459 74.151 44.4809 71.7745 44.4809V46.4809C75.3342 46.4809 78.1487 43.4832 78.1487 39.8752H76.1487ZM73.945 35.8757C75.2519 36.6642 76.1487 38.1513 76.1487 39.8752H78.1487C78.1487 37.4493 76.884 35.3132 74.9783 34.1632L73.945 35.8757ZM73.4616 4.72382V35.0194H75.4616V4.72382H73.4616ZM71.7746 3.03674C72.7063 3.03674 73.4616 3.79207 73.4616 4.72382H75.4616C75.4616 2.6875 73.8109 1.03674 71.7746 1.03674V3.03674Z" fill="black" mask="url(#path-13-outside-1_1106:40146)"/>
<path fill-rule="evenodd" clip-rule="evenodd" d="M72.6994 7.15034H70.5994V35.8523C68.9462 36.3767 67.7432 37.9795 67.7432 39.8753C67.7432 42.1973 69.5477 44.0796 71.7738 44.0796C73.9998 44.0796 75.8044 42.1973 75.8044 39.8753C75.8044 37.8856 74.4793 36.2187 72.6994 35.7824V7.15034Z" fill="#FF7324"/>
<ellipse cx="69.55" cy="40.0075" rx="1.05" ry="1.09524" fill="white" fill-opacity="0.25"/>
<path d="M63.25 7.69796L59.3125 10.0692L59.3125 5.3267L63.25 7.69796Z" fill="#111111"/>
<defs>
<clipPath id="clip0_1106:40146">
<rect width="45.1321" height="46" fill="white" transform="translate(0.90918 0.578918)"/>
</clipPath>
</defs>
</svg>
