<svg width="79" height="47" viewBox="0 0 79 47" fill="none" xmlns="http://www.w3.org/2000/svg">
<g clip-path="url(#clip0_1106:40157)">
<path d="M29.9993 18.8202C29.0499 19.8513 27.2836 20.922 24.0465 20.922C20.8095 20.922 19.0431 19.8513 18.0938 18.8202V7.20129C19.0431 8.23233 20.8095 9.30302 24.0465 9.30302C27.2836 9.30302 29.0499 8.23233 29.9993 7.20129V18.8202Z" fill="#FF3E3E"/>
<path d="M24.0458 46.5789C34.9397 46.5789 41.1648 44.9927 41.1648 44.9927L41.1648 27.5444C33.5002 26.8306 33.3212 5.77374 33.3835 1.37202C33.3835 0.934003 33.0351 0.578918 32.6053 0.578918L31.049 0.578918C30.6193 0.578918 30.2709 0.934003 30.2709 1.37202C30.1853 11.2541 28.5979 18.0272 24.0458 18.0272C19.4937 18.0272 17.9063 11.2541 17.8207 1.37202C17.8207 0.934003 17.4723 0.578918 17.0426 0.578918L15.4863 0.578918C15.0565 0.578918 14.7081 0.934003 14.7081 1.37202C14.7548 5.76581 14.5759 26.8227 6.92676 27.5444L6.92676 44.9927C6.92676 44.9927 13.1519 46.5789 24.0458 46.5789Z" fill="#FF3E3E"/>
<path d="M41.1648 41.8203V44.9927C41.1648 44.9927 34.9397 46.5789 24.0458 46.5789C13.1519 46.5789 6.92676 44.9927 6.92676 44.9927V41.8203C6.92676 41.8203 13.1519 43.4065 24.0458 43.4065C34.9397 43.4065 41.1648 41.8203 41.1648 41.8203Z" fill="#FF3E3E"/>
<path d="M29.9993 18.8202C29.0499 19.8513 27.2836 20.922 24.0465 20.922C20.8095 20.922 19.0431 19.8513 18.0938 18.8202V7.20129C19.0431 8.23233 20.8095 9.30302 24.0465 9.30302C27.2836 9.30302 29.0499 8.23233 29.9993 7.20129V18.8202Z" fill="black" fill-opacity="0.25"/>
<path d="M24.0458 46.5789C34.9397 46.5789 41.1648 44.9927 41.1648 44.9927L41.1648 27.5444C33.5002 26.8306 33.3212 5.77374 33.3835 1.37202C33.3835 0.934003 33.0351 0.578918 32.6053 0.578918L31.049 0.578918C30.6193 0.578918 30.2709 0.934003 30.2709 1.37202C30.1853 11.2541 28.5979 18.0272 24.0458 18.0272C19.4937 18.0272 17.9063 11.2541 17.8207 1.37202C17.8207 0.934003 17.4723 0.578918 17.0426 0.578918L15.4863 0.578918C15.0565 0.578918 14.7081 0.934003 14.7081 1.37202C14.7548 5.76581 14.5759 26.8227 6.92676 27.5444L6.92676 44.9927C6.92676 44.9927 13.1519 46.5789 24.0458 46.5789Z" fill="#FF3E3E"/>
<path d="M41.1648 41.8203V44.9927C41.1648 44.9927 34.9397 46.5789 24.0458 46.5789C13.1519 46.5789 6.92676 44.9927 6.92676 44.9927V41.8203C6.92676 41.8203 13.1519 43.4065 24.0458 43.4065C34.9397 43.4065 41.1648 41.8203 41.1648 41.8203Z" fill="white" fill-opacity="0.4"/>
</g>
<mask id="path-7-outside-1_1106:40157" maskUnits="userSpaceOnUse" x="65.4004" y="1.71571" width="13" height="45" fill="black">
<rect fill="white" x="65.4004" y="1.71571" width="13" height="45"/>
<path fill-rule="evenodd" clip-rule="evenodd" d="M71.7746 2.71571C70.2905 2.71571 69.0875 3.91876 69.0875 5.40279V34.9313C67.4811 35.8781 66.4004 37.6475 66.4004 39.6742C66.4004 42.6981 68.8065 45.1495 71.7745 45.1495C74.7426 45.1495 77.1487 42.6981 77.1487 39.6742C77.1487 37.6476 76.068 35.8781 74.4616 34.9314V5.40279C74.4616 3.91876 73.2586 2.71571 71.7746 2.71571Z"/>
</mask>
<path d="M69.0875 34.9313L69.5952 35.7929L70.0875 35.5027V34.9313H69.0875ZM74.4616 34.9314H73.4616V35.5028L73.9539 35.7929L74.4616 34.9314ZM70.0875 5.40279C70.0875 4.47104 70.8428 3.71571 71.7746 3.71571V1.71571C69.7383 1.71571 68.0875 3.36648 68.0875 5.40279H70.0875ZM70.0875 34.9313V5.40279H68.0875V34.9313H70.0875ZM67.4004 39.6742C67.4004 38.0098 68.2867 36.564 69.5952 35.7929L68.5798 34.0698C66.6755 35.1921 65.4004 37.2852 65.4004 39.6742H67.4004ZM71.7745 44.1495C69.3763 44.1495 67.4004 42.1635 67.4004 39.6742H65.4004C65.4004 43.2327 68.2367 46.1495 71.7745 46.1495V44.1495ZM76.1487 39.6742C76.1487 42.1635 74.1728 44.1495 71.7745 44.1495V46.1495C75.3124 46.1495 78.1487 43.2327 78.1487 39.6742H76.1487ZM73.9539 35.7929C75.2624 36.564 76.1487 38.0099 76.1487 39.6742H78.1487C78.1487 37.2852 76.8736 35.1921 74.9694 34.0699L73.9539 35.7929ZM73.4616 5.40279V34.9314H75.4616V5.40279H73.4616ZM71.7746 3.71571C72.7063 3.71571 73.4616 4.47104 73.4616 5.40279H75.4616C75.4616 3.36647 73.8109 1.71571 71.7746 1.71571V3.71571Z" fill="black" mask="url(#path-7-outside-1_1106:40157)"/>
<path fill-rule="evenodd" clip-rule="evenodd" d="M72.6994 4.85799H70.5994V35.7449C68.9462 36.2571 67.7432 37.8226 67.7432 39.6743C67.7432 41.9423 69.5477 43.7808 71.7738 43.7808C73.9998 43.7808 75.8044 41.9423 75.8044 39.6743C75.8044 37.7309 74.4793 36.1028 72.6994 35.6766V4.85799Z" fill="#FF3E3E"/>
<ellipse cx="69.55" cy="39.0905" rx="1.05" ry="1.06977" fill="white" fill-opacity="0.25"/>
<path d="M63.25 5.39288L59.3125 7.70899L59.3125 3.07676L63.25 5.39288Z" fill="#111111"/>
<defs>
<clipPath id="clip0_1106:40157">
<rect width="45.1321" height="46" fill="white" transform="translate(0.90918 0.578918)"/>
</clipPath>
</defs>
</svg>
