<svg width="79" height="47" viewBox="0 0 79 47" fill="none" xmlns="http://www.w3.org/2000/svg">
<g clip-path="url(#clip0_1106:40135)">
<path d="M7.77728 3.9255C7.77728 3.9255 4.02665 7.95447 0.945215 18.3838C0.835001 18.7404 0.984151 19.1271 1.30316 19.3117C4.46222 21.0948 8.17211 21.5745 11.668 20.652L7.77728 3.9255Z" fill="#FFAC30"/>
<path d="M38.9024 3.9255C38.9024 3.9255 42.653 7.95447 45.7345 18.3838C45.8447 18.7404 45.6955 19.1271 45.3765 19.3117C42.2175 21.0948 38.5076 21.5745 35.0117 20.652L38.9024 3.9255Z" fill="#FFAC30"/>
<path d="M45.3765 19.312C42.2187 21.0991 38.5073 21.579 35.0117 20.6524L35.7198 17.6069C38.8952 18.0893 42.1367 17.4453 44.9019 15.7827C45.182 16.5758 45.4621 17.472 45.7345 18.3841C45.8447 18.7407 45.6955 19.1274 45.3765 19.312Z" fill="#FFAC30"/>
<path d="M11.668 20.6524C8.17237 21.579 4.46096 21.0991 1.30316 19.312C0.984151 19.1274 0.835001 18.7407 0.945215 18.3841C1.21756 17.472 1.49769 16.5996 1.77782 15.7827C4.50019 17.4905 7.73428 18.1435 10.8898 17.6227C10.9988 17.5989 10.8898 17.2341 11.668 20.6524Z" fill="#FFAC30"/>
<path d="M35.0122 20.6524L35.7904 43.5651C35.8015 43.8751 35.6343 44.1633 35.3624 44.3027C32.3743 45.8255 29.2695 46.5789 23.3401 46.5789C17.4107 46.5789 14.3059 45.7858 11.3334 44.3027C11.0555 44.1679 10.8816 43.8788 10.8899 43.5651L11.668 20.6524C11.668 20.6524 8.55548 8.94616 7.77734 3.92581C10.4878 2.46287 13.3619 1.33909 16.3369 0.578918C16.3369 0.578918 17.115 6.92375 23.3401 6.92375C29.5652 6.92375 30.3434 0.578918 30.3434 0.578918C33.3184 1.33909 36.1924 2.46287 38.9029 3.92581C38.1248 8.94616 35.0122 20.6524 35.0122 20.6524Z" fill="#FFAC30"/>
<path d="M30.3424 0.578918C30.3424 0.578918 29.5643 9.18409 23.3392 9.18409C17.1141 9.18409 16.3359 0.578918 16.3359 0.578918L30.3424 0.578918Z" fill="#FFAC30"/>
<path d="M33.4544 1.49099C33.1456 6.46527 29.0035 10.2824 24.1168 10.0962H22.5605C17.6871 10.2647 13.5663 6.45129 13.2617 1.49099C14.2645 1.11526 15.2915 0.810509 16.3354 0.578918C16.3354 0.578918 17.1135 6.92375 23.3386 6.92375C29.5637 6.92375 30.3419 0.578918 30.3419 0.578918C31.399 0.808734 32.439 1.1135 33.4544 1.49099Z" fill="#FFAC30"/>
<path d="M7.77728 3.9255C7.77728 3.9255 4.02665 7.95447 0.945215 18.3838C0.835001 18.7404 0.984151 19.1271 1.30316 19.3117C4.46222 21.0948 8.17211 21.5745 11.668 20.652L7.77728 3.9255Z" fill="white" fill-opacity="0.4"/>
<path d="M38.9024 3.9255C38.9024 3.9255 42.653 7.95447 45.7345 18.3838C45.8447 18.7404 45.6955 19.1271 45.3765 19.3117C42.2175 21.0948 38.5076 21.5745 35.0117 20.652L38.9024 3.9255Z" fill="white" fill-opacity="0.4"/>
<path d="M45.3765 19.312C42.2187 21.0991 38.5073 21.579 35.0117 20.6524L35.7198 17.6069C38.8952 18.0893 42.1367 17.4453 44.9019 15.7827C45.182 16.5758 45.4621 17.472 45.7345 18.3841C45.8447 18.7407 45.6955 19.1274 45.3765 19.312Z" fill="white" fill-opacity="0.4"/>
<path d="M11.668 20.6524C8.17237 21.579 4.46096 21.0991 1.30316 19.312C0.984151 19.1274 0.835001 18.7407 0.945215 18.3841C1.21756 17.472 1.49769 16.5996 1.77782 15.7827C4.50019 17.4905 7.73428 18.1435 10.8898 17.6227C10.9988 17.5989 10.8898 17.2341 11.668 20.6524Z" fill="white" fill-opacity="0.4"/>
<path d="M35.0122 20.6524L35.7904 43.5651C35.8015 43.8751 35.6343 44.1633 35.3624 44.3027C32.3743 45.8255 29.2695 46.5789 23.3401 46.5789C17.4107 46.5789 14.3059 45.7858 11.3334 44.3027C11.0555 44.1679 10.8816 43.8788 10.8899 43.5651L11.668 20.6524C11.668 20.6524 8.55548 8.94616 7.77734 3.92581C10.4878 2.46287 13.3619 1.33909 16.3369 0.578918C16.3369 0.578918 17.115 6.92375 23.3401 6.92375C29.5652 6.92375 30.3434 0.578918 30.3434 0.578918C33.3184 1.33909 36.1924 2.46287 38.9029 3.92581C38.1248 8.94616 35.0122 20.6524 35.0122 20.6524Z" fill="#FFAC30"/>
<path d="M30.3424 0.578918C30.3424 0.578918 29.5643 7.54123 23.3392 7.54123C17.1141 7.54123 16.3359 0.578918 16.3359 0.578918L30.3424 0.578918Z" fill="#110000" fill-opacity="0.1"/>
<path d="M33.4544 1.49099C33.1456 6.46527 29.0035 10.2824 24.1168 10.0962H22.5605C17.6871 10.2647 13.5663 6.45129 13.2617 1.49099C14.2645 1.11526 15.2915 0.810509 16.3354 0.578918C16.3354 0.578918 17.1135 6.92375 23.3386 6.92375C29.5637 6.92375 30.3419 0.578918 30.3419 0.578918C31.399 0.808734 32.439 1.1135 33.4544 1.49099Z" fill="white" fill-opacity="0.4"/>
</g>
<mask id="path-15-outside-1_1106:40135" maskUnits="userSpaceOnUse" x="65.4004" y="1.35973" width="13" height="45" fill="black">
<rect fill="white" x="65.4004" y="1.35973" width="13" height="45"/>
<path fill-rule="evenodd" clip-rule="evenodd" d="M71.7746 2.35973C70.2905 2.35973 69.0875 3.56278 69.0875 5.04681V34.5754C67.4811 35.5221 66.4004 37.2916 66.4004 39.3182C66.4004 42.3422 68.8065 44.7935 71.7745 44.7935C74.7426 44.7935 77.1487 42.3422 77.1487 39.3182C77.1487 37.2916 76.068 35.5221 74.4616 34.5754V5.04681C74.4616 3.56278 73.2586 2.35973 71.7746 2.35973Z"/>
</mask>
<path d="M69.0875 34.5754L69.5952 35.4369L70.0875 35.1468V34.5754H69.0875ZM74.4616 34.5754H73.4616V35.1468L73.9539 35.4369L74.4616 34.5754ZM70.0875 5.04681C70.0875 4.11506 70.8428 3.35973 71.7746 3.35973V1.35973C69.7383 1.35973 68.0875 3.0105 68.0875 5.04681H70.0875ZM70.0875 34.5754V5.04681H68.0875V34.5754H70.0875ZM67.4004 39.3182C67.4004 37.6539 68.2867 36.208 69.5952 35.4369L68.5798 33.7139C66.6755 34.8361 65.4004 36.9292 65.4004 39.3182H67.4004ZM71.7745 43.7935C69.3763 43.7935 67.4004 41.8075 67.4004 39.3182H65.4004C65.4004 42.8768 68.2367 45.7935 71.7745 45.7935V43.7935ZM76.1487 39.3182C76.1487 41.8075 74.1728 43.7935 71.7745 43.7935V45.7935C75.3124 45.7935 78.1487 42.8768 78.1487 39.3182H76.1487ZM73.9539 35.4369C75.2624 36.2081 76.1487 37.6539 76.1487 39.3182H78.1487C78.1487 36.9293 76.8736 34.8361 74.9694 33.7139L73.9539 35.4369ZM73.4616 5.04681V34.5754H75.4616V5.04681H73.4616ZM71.7746 3.35973C72.7063 3.35973 73.4616 4.11506 73.4616 5.04681H75.4616C75.4616 3.0105 73.8109 1.35973 71.7746 1.35973V3.35973Z" fill="black" mask="url(#path-15-outside-1_1106:40135)"/>
<path fill-rule="evenodd" clip-rule="evenodd" d="M72.6994 10.2068H70.5994V35.3889C68.9462 35.9011 67.7432 37.4666 67.7432 39.3183C67.7432 41.5863 69.5477 43.4248 71.7738 43.4248C73.9998 43.4248 75.8044 41.5863 75.8044 39.3183C75.8044 37.3749 74.4793 35.7468 72.6994 35.3207V10.2068Z" fill="#FFAC30"/>
<ellipse cx="69.55" cy="39.0905" rx="1.05" ry="1.06977" fill="white" fill-opacity="0.25"/>
<path d="M63.25 10.7417L59.3125 13.0578L59.3125 8.4256L63.25 10.7417Z" fill="#111111"/>
<defs>
<clipPath id="clip0_1106:40135">
<rect width="45.1321" height="46" fill="white" transform="translate(0.90918 0.578918)"/>
</clipPath>
</defs>
</svg>
