<?xml version="1.0" standalone="no"?>
<!DOCTYPE svg PUBLIC "-//W3C//DTD SVG 1.1//EN" "http://www.w3.org/Graphics/SVG/1.1/DTD/svg11.dtd" >
<svg xmlns="http://www.w3.org/2000/svg">
<metadata></metadata>
<defs>
<font id="EzerBlock_OERegularRegular" horiz-adv-x="0" >
<font-face units-per-em="1000" ascent="700" descent="-300" />
<missing-glyph horiz-adv-x="192" />
<glyph />
<glyph horiz-adv-x="1000" />
<glyph unicode=" "  horiz-adv-x="192" />
<glyph unicode="&#x09;" horiz-adv-x="192" />
<glyph unicode="&#xa0;" horiz-adv-x="192" />
<glyph unicode="!" horiz-adv-x="238" d="M71 18v60l18 18h60l18 -18v-60l-18 -18h-60zM71 406v107l14 15h68l14 -15v-107l-23 -246l-15 -15h-20l-15 15z" />
<glyph unicode="&#x22;" horiz-adv-x="353" d="M35 386l41 215l22 12l56 -16l13 -22l-80 -204l-22 -12l-17 4zM186 386l41 215l22 12l56 -16l13 -22l-80 -204l-22 -12l-17 4z" />
<glyph unicode="#" horiz-adv-x="484" d="M35 160v21l20 20h67l19 106h-58l-20 20v21l20 20h68l22 123l23 16l21 -4l16 -22l-20 -113h97l22 125l23 16l21 -4l16 -23l-20 -114h58l19 -20v-21l-19 -20h-69l-19 -106h60l19 -20v-21l-19 -20h-70l-21 -116l-22 -15l-22 3l-16 23l19 105h-97l-21 -117l-22 -16l-22 4 l-16 22l19 107h-56zM178 196h107l20 116h-106z" />
<glyph unicode="$" horiz-adv-x="530" d="M71 96v59l14 14h53l16 -14v-36l45 -45h132l46 45v68l-40 40h-150l-102 102v89l96 96h43v58l14 14h53l15 -14v-58h44l95 -96v-48l-14 -14h-53l-15 14v23l-46 45h-104l-46 -45v-52l43 -42h154l95 -84v-119l-95 -96h-58v-59l-14 -15h-53l-15 15v59h-57z" />
<glyph unicode="%" horiz-adv-x="610" d="M71 291v175l48 48h90l48 -48v-175l-48 -48h-90zM122 320l19 -18h46l19 18v117l-19 18h-46l-19 -18v-117zM168 10l227 510l20 8l20 -9l8 -19l-228 -512l-20 -7l-20 9zM353 48v175l48 48h91l48 -48v-175l-48 -48h-91zM405 77l18 -18h47l18 18v116l-18 19h-47l-18 -19v-116z " />
<glyph unicode="&#x26;" horiz-adv-x="873" d="M66 449v50l14 15h497l15 -15v-50l-21 -21v-216l-14 -15h-54l-15 15v222h-319v-419l-14 -15h-54l-15 15v413zM282 298l12 17l53 8l17 -13l35 -252l237 29l43 48l63 371l16 13l54 -8l11 -19l-64 -383l-86 -92l-329 -41l-18 14z" />
<glyph unicode="'" horiz-adv-x="202" d="M35 386l41 215l22 12l56 -16l13 -22l-80 -204l-22 -12l-17 4z" />
<glyph unicode="(" horiz-adv-x="294" d="M66 257q0 110 35.5 206t94.5 160h42l6 -15q-89 -152 -89 -350q0 -200 89 -352l-6 -15h-42q-59 64 -94.5 160t-35.5 206z" />
<glyph unicode=")" horiz-adv-x="294" d="M50 -94q89 152 89 352q0 198 -89 350l6 15h43q59 -64 94.5 -160t35.5 -206q-1 -110 -36.5 -206t-93.5 -160h-43z" />
<glyph unicode="*" horiz-adv-x="380" d="M35 362l5 17l114 53l-114 53l-4 17l17 29l16 4l103 -72l-11 125l12 12h34l12 -12l-11 -125l103 72l16 -4l17 -29l-4 -17l-114 -53l114 -53l5 -17l-17 -29l-17 -4l-103 72l11 -125l-12 -13h-34l-12 13l11 125l-103 -72l-17 4z" />
<glyph unicode="+" horiz-adv-x="440" d="M35 233v50l16 15l131 -2l-2 132l15 15h50l15 -15l-2 -132l131 2l16 -15v-50l-15 -15l-132 2l2 -131l-15 -15h-50l-15 15l2 131l-132 -2z" />
<glyph unicode="," horiz-adv-x="263" d="M61 -108l40 215l23 12l55 -16l13 -22l-80 -204l-22 -12l-17 5z" />
<glyph unicode="-" horiz-adv-x="372" d="M35 233v50l16 15h271l15 -15v-50l-15 -15h-272z" />
<glyph unicode="." horiz-adv-x="228" d="M61 18v60l18 18h60l18 -18v-60l-18 -18h-60z" />
<glyph unicode="/" horiz-adv-x="344" d="M10 -70l232 676l19 10l38 -13l9 -19l-231 -677l-19 -10l-39 14z" />
<glyph unicode="0" horiz-adv-x="515" d="M71 96v350l96 96h181l96 -96v-350l-96 -96h-181zM153 125l46 -46h117l45 46v291l-45 46h-117l-46 -46v-291z" />
<glyph unicode="1" horiz-adv-x="341" d="M50 14v50l16 15h64v383h-55l-15 14v50l15 16h124l14 -16v-447h63l15 -15v-50l-15 -14h-210z" />
<glyph unicode="2" horiz-adv-x="436" d="M50 439l11 88l15 15h209l96 -96v-105l-229 -262h219l15 -14v-50l-15 -15h-296l-15 14v74l238 274v54l-45 46h-121l-6 -35l-17 -13l-46 6z" />
<glyph unicode="3" horiz-adv-x="442" d="M30 39l14 18l203 21l43 47l1 91l-31 31h-119l-16 14v51l16 15h116l28 28v61l-46 46h-172l-16 14v50l16 16h205l95 -96v-91l-52 -50l56 -62v-142l-87 -92l-228 -25l-19 14z" />
<glyph unicode="4" horiz-adv-x="450" d="M30 180v41l140 335l20 4l49 -20l4 -20l-114 -278h177v126l14 14h54l15 -14v-358l-14 -15h-54l-15 15v152h-259z" />
<glyph unicode="5" horiz-adv-x="450" d="M71 39l14 18l188 21l46 47l-1 96l-25 26h-207l-15 14v266l15 15h267l16 -16v-50l-16 -14h-199v-135h162l84 -80v-144l-90 -94l-214 -25l-18 14z" />
<glyph unicode="6" horiz-adv-x="483" d="M71 97v342l87 92l200 26l18 -15l7 -41l-14 -18l-174 -21l-46 -46v-76h187l96 -96v-148l-96 -96h-171zM152 125l45 -46h107l45 46v89l-45 46h-152v-135z" />
<glyph unicode="7" horiz-adv-x="447" d="M40 439l11 88l14 15h341l11 -17l-202 -527l-20 -4l-49 20l-4 20l162 428h-182l-6 -35l-17 -13l-47 6z" />
<glyph unicode="8" horiz-adv-x="530" d="M71 96v147l66 59l-52 55v89l96 96h169l95 -96v-89l-52 -55l66 -59v-147l-95 -96h-197zM153 125l46 -46h132l46 46v90l-40 40h-144l-40 -40v-90zM168 369l42 -42h110l43 42v47l-46 46h-104l-45 -46v-47z" />
<glyph unicode="9" horiz-adv-x="483" d="M50 297v149l96 96h172l94 -98v-343l-87 -92l-214 -25l-19 14l-7 41l14 18l189 21l46 47v77h-188zM133 327l46 -46h152v135l-46 46h-106l-46 -46v-89z" />
<glyph unicode=":" horiz-adv-x="238" d="M71 18v60l18 18h60l18 -18v-60l-18 -18h-60zM71 338v60l18 19h60l18 -18v-61l-18 -18h-60z" />
<glyph unicode=";" horiz-adv-x="263" d="M66 -108l40 215l23 12l55 -16l13 -22l-80 -204l-22 -12l-17 5zM95 338v60l18 19h60l18 -18v-61l-18 -18h-60z" />
<glyph unicode="&#x3c;" horiz-adv-x="439" d="M35 243l1 28l7 23l323 173l20 -7l18 -37l-7 -20l-273 -146l273 -146l6 -21l-18 -37l-19 -6l-324 173z" />
<glyph unicode="=" horiz-adv-x="423" d="M35 152v50l16 15h321l16 -15v-50l-15 -15h-323zM35 312v50l16 15h321l16 -15v-50l-15 -15h-323z" />
<glyph unicode="&#x3e;" horiz-adv-x="439" d="M35 423l18 37l20 7l323 -173l7 -23l1 -28l-7 -23l-324 -173l-19 6l-18 37l6 21l273 146l-273 146z" />
<glyph unicode="?" horiz-adv-x="435" d="M50 432l96 96h142l96 -96v-103l-142 -145l-2 -24l-15 -15h-20l-15 15l-6 60l117 121v66l-45 45h-77l-46 -45v-37l-15 -14h-53l-14 14zM168 18v60l18 18h60l18 -18v-60l-18 -18h-60z" />
<glyph unicode="@" horiz-adv-x="731" d="M46 196q0 140 97.5 243.5t237.5 103.5q125 0 204.5 -82t79.5 -208q0 -55 -17 -112.5t-59.5 -104.5t-100.5 -47q-27 0 -50 13t-33 36q-39 -42 -83 -42q-65 0 -95.5 49t-30.5 116q0 51 18 107t59.5 101t96.5 45q43 0 72 -31q0 2 1 7.5t1.5 7.5t2 5.5t4.5 5t7 1.5h43 q14 0 14 -17q-5 -29 -19 -107.5t-21 -114.5q-8 -67 -8 -75q0 -43 27 -43q40 0 69.5 64.5t29.5 136.5q0 96 -57 158.5t-153 62.5q-113 0 -186 -83.5t-73 -198.5q0 -100 49.5 -169t135.5 -99q8 -3 30 -7t36 -9t14 -12l1 -36q0 -5 -4.5 -9.5t-9.5 -4.5q-134 0 -232 107t-98 242 zM274 144q0 -85 49 -85q25 0 45 27.5t30 66.5t15 74.5t5 59.5t-12.5 42.5t-34.5 18.5q-26 0 -46.5 -23t-30.5 -57.5t-15 -66t-5 -57.5z" />
<glyph unicode="A" horiz-adv-x="558" d="M7 32q0 11 4 21q21 57 205 552q21 52 58 52q27 0 40.5 -12.5t23.5 -39.5q36 -95 112 -293q112 -293 112 -295t-3 -4l-77 -23h-1q-2 0 -4 3l-56 145h-289q-8 -19 -22.5 -58.5t-21.5 -58.5q-5 -13 -16.5 -22t-24.5 -9q-18 0 -29 12t-11 30zM157 213h241q-17 48 -57.5 159.5 t-63.5 174.5q-20 -57 -60 -167.5t-60 -166.5z" />
<glyph unicode="B" horiz-adv-x="492" d="M55 4v604q0 20 12.5 31t32.5 11h137q75 0 126.5 -47.5t51.5 -122.5q0 -90 -76 -128q56 -9 92 -54.5t36 -103.5q0 -84 -56.5 -139t-141.5 -55h-210q-4 0 -4 4zM139 76h119q50 0 86 33t36 83t-36 83t-86 33h-119v-232zM140 376h76q43 0 77.5 29t34.5 72q0 40 -30.5 67.5 t-72.5 27.5h-85v-196z" />
<glyph unicode="C" horiz-adv-x="550" d="M30 318q0 92 31 168t98 124.5t161 48.5q59 0 113.5 -29t79.5 -78q2 -2 -1 -5l-45 -40q-1 -1 -3 -1t-3 1q-30 28 -45.5 40t-42 22t-59.5 10q-64 0 -110 -40t-65 -95.5t-19 -118.5q0 -104 51.5 -179t151.5 -75q57 0 125 41q32 16 37 16q16 0 27 -12.5t11 -29.5 q0 -22 -34 -47l-3 -3q-66 -46 -165 -46q-134 0 -212.5 96t-78.5 232z" />
<glyph unicode="D" horiz-adv-x="579" d="M55 41v607q0 4 3 4h2q6 -2 53 -2h152q129 0 204.5 -93.5t75.5 -224.5q0 -143 -73 -237.5t-211 -94.5h-159q-20 0 -33.5 10.5t-13.5 30.5zM139 77h118q100 0 148.5 74t48.5 181q0 97 -50.5 168.5t-144.5 71.5h-120v-495z" />
<glyph unicode="E" horiz-adv-x="404" d="M55 46l1 602q0 4 5 4q12 -2 18 -2h244q16 0 28 -11.5t12 -27.5q0 -17 -12 -28t-29 -11h-181v-209h171q17 0 28.5 -11t11.5 -27q0 -17 -10.5 -28.5t-29.5 -11.5h-171v-207h244q4 0 4 -4v-70q0 -4 -4 -4h-287q-20 0 -31.5 13.5t-11.5 32.5z" />
<glyph unicode="F" horiz-adv-x="371" d="M55 4v602q0 20 13.5 32.5t33.5 12.5h246q4 0 4 -4v-71q0 -4 -4 -4h-207v-210h166q16 0 28.5 -11.5t12.5 -26.5q0 -16 -12 -28t-29 -12h-167v-280q0 -4 -4 -4h-77q-4 0 -4 4z" />
<glyph unicode="G" horiz-adv-x="621" d="M31 319q0 147 81.5 242.5t226.5 95.5q84 0 197 -79q3 -1 1 -5l-44 -58q-1 -3 -5 -1q-8 5 -34.5 22.5t-38.5 24t-37.5 14t-53.5 7.5q-98 0 -150.5 -77.5t-52.5 -179.5q0 -110 52.5 -183t156.5 -73q87 0 131 66.5t46 158.5h-109q-17 0 -29 11.5t-12 27.5q0 17 12.5 28.5 t29.5 11.5h128q39 0 52.5 -17.5t13.5 -58.5q0 -129 -68 -218t-194 -89q-140 0 -220 93t-80 236z" />
<glyph unicode="H" horiz-adv-x="617" d="M55 4v609q0 19 12.5 31.5t31.5 12.5q17 0 28.5 -12.5t11.5 -31.5v-242h334v276q0 4 4 4h78q4 0 4 -4v-613q0 -18 -13.5 -30.5t-31.5 -12.5q-16 0 -28.5 13t-12.5 29v261h-334v-291q0 -4 -4 -4l-76 1q-4 0 -4 4z" />
<glyph unicode="I" horiz-adv-x="193" d="M54 4v609q0 19 12.5 31.5t30.5 12.5q17 0 29 -12.5t12 -31.5v-609q0 -4 -4 -4h-76q-4 0 -4 4zM59 707q0 16 10 26.5t26 10.5q14 0 25 -10t11 -26q0 -14 -11 -25t-25 -11t-25 11t-11 24z" />
<glyph unicode="J" horiz-adv-x="332" d="M7 25l23 64q2 4 4 3q7 -3 21.5 -11t28.5 -13.5t27 -5.5q41 0 60 27t19 68v458q0 18 12.5 30.5t30.5 12.5q19 0 30.5 -12.5t11.5 -31.5v-448q0 -74 -42.5 -125t-115.5 -51q-52 0 -108 30q-3 1 -3 3q0 1 1 2z" />
<glyph unicode="K" horiz-adv-x="513" d="M55 4v611q0 17 12.5 30t29.5 13t29.5 -12.5t12.5 -30.5v-231q108 101 287 271q3 1 6 0l56 -51q3 -3 0 -6l-275 -254q94 -91 287 -280q14 -14 14 -32t-11.5 -29.5t-27.5 -11.5q-22 0 -35 16q-51 50 -150 147.5t-150 147.5v-298q0 -4 -4 -4h-77q-4 0 -4 4z" />
<glyph unicode="L" horiz-adv-x="344" d="M55 48v565q0 19 12 32t31 13q17 0 28.5 -12.5t11.5 -31.5v-535h192q4 0 4 -4l1 -71q0 -4 -4 -4l-233 -1q-22 0 -32.5 14.5t-10.5 34.5z" />
<glyph unicode="M" horiz-adv-x="770" d="M29 33q0 11 1 14q11 62 30 175.5t34.5 207.5t29.5 175q13 52 64 52q45 0 60 -49q25 -82 70 -237.5t66 -225.5q57 199 134 463q15 49 60 49q24 0 41.5 -14t21.5 -38q17 -97 50 -295.5t49 -295.5q0 -5 -3 -5l-77 -14q-5 0 -5 3l-78 537q-25 -84 -76 -254.5t-75 -255.5 q0 -3 -4 -3h-77q-4 0 -4 3l-151 511l-75 -504q-6 -40 -44 -40q-18 0 -30 11.5t-12 29.5z" />
<glyph unicode="N" horiz-adv-x="614" d="M55 5v609q0 19 12.5 31.5t31.5 12.5t34 -20q48 -70 105.5 -153t126.5 -183.5t106 -153.5v465q0 17 12 31t28 14q19 0 31.5 -13t12.5 -32v-580q0 -17 -13 -30t-30 -13q-23 0 -35 21h1q-58 83 -169.5 245.5t-169.5 245.5v-498q0 -4 -4 -4l-76 1q-4 0 -4 4z" />
<glyph unicode="O" horiz-adv-x="634" d="M31 326q0 87 31.5 161.5t97.5 122.5t155 48q90 0 156 -49t96.5 -123t30.5 -161t-31 -161.5t-97 -123.5t-156 -49q-132 0 -207.5 99t-75.5 236zM123 325q0 -47 10.5 -91t32 -82.5t59.5 -61.5t87 -23q66 0 111.5 38t64.5 92.5t19 118.5q0 51 -10.5 96t-32 84.5t-61 62.5 t-91.5 23q-65 0 -109.5 -41t-62 -97t-17.5 -119z" />
<glyph unicode="P" horiz-adv-x="485" d="M55 35v613q0 4 4 4q32 -4 73 -4q11 0 32 0.5t32 0.5q18 1 60 1q78 0 135.5 -45t73.5 -120q3 -18 3 -41q0 -88 -61 -146t-150 -58h-118v-205q0 -18 -12 -31t-29 -13q-18 0 -30.5 13t-12.5 31zM141 318h113q54 0 91 36.5t37 90.5q0 53 -37 90.5t-91 37.5h-113v-255z" />
<glyph unicode="Q" horiz-adv-x="635" d="M31 326q0 136 76 234t208 98q68 0 123 -28t89 -75.5t52.5 -106.5t18.5 -123q0 -120 -54 -202l93 -90q1 -1 1 -2.5t-1 -3.5l-48 -53q-1 -2 -3 -2l-3 2l-88 89q-75 -72 -180 -72q-132 0 -208 99t-76 236zM123 332q0 -68 16.5 -124.5t61.5 -98.5t113 -42q78 0 122 53 q-4 4 -20.5 19.5t-25.5 24.5t-18 23t-9 24q0 17 11 28t28 11q9 0 20.5 -8t20 -16t22 -22.5t16.5 -17.5q26 66 26 145q0 64 -19 119t-64.5 93.5t-111.5 38.5q-63 0 -107.5 -39.5t-63 -94t-18.5 -116.5zM479 181q2 4 2 5q1 0 2.5 -2t2.5 -2z" />
<glyph unicode="R" horiz-adv-x="481" d="M55 35v613q0 4 4 4q36 -4 80 -4q9 0 27 0.5t28 0.5t28.5 0.5t27.5 0.5q87 0 144.5 -54t57.5 -140q0 -83 -57 -128.5t-143 -45.5h-12l-1 -1l233 -246q2 -2 2 -3.5t-2 -2.5l-59 -50q-2 -1 -3.5 -1t-2.5 1l-267 297v-243q0 -17 -13 -30t-29 -13q-18 0 -30.5 13.5t-12.5 31.5 zM140 353h119q44 0 74.5 30t30.5 75q0 48 -34 80.5t-82 32.5h-108v-218z" />
<glyph unicode="S" horiz-adv-x="441" d="M-3 53l23 76l7 2q81 -31 89 -35q58 -25 92 -25q54 0 91 37.5t37 91.5q0 23 -10.5 41t-34 31.5t-39.5 20.5t-49 19q-31 10 -50 17.5t-45 22.5t-41 31.5t-26 42t-11 57.5q0 76 60 125.5t137 49.5q24 0 58.5 -7.5t66.5 -26.5t32 -44q0 -17 -10.5 -29t-26.5 -12q-14 0 -46 16 q-44 24 -76 24q-38 0 -70.5 -24t-32.5 -62q0 -22 8.5 -39t27 -29t33.5 -19t41.5 -16t37.5 -14q66 -23 111 -67t45 -109q0 -82 -64.5 -145.5t-145.5 -63.5q-49 0 -168 42q-10 3 -27 8.5t-21 6.5q-4 2 -3 5z" />
<glyph unicode="T" horiz-adv-x="397" d="M11 576v70q0 4 4 4h345q16 0 27.5 -12t11.5 -28q0 -17 -12 -27.5t-28 -10.5h-121v-536q0 -18 -12 -31t-29 -13q-18 0 -31 13.5t-13 30.5v536h-138q-4 0 -4 4z" />
<glyph unicode="U" horiz-adv-x="617" d="M55 231v418q0 4 4 4h76q4 0 4 -4v-419q0 -75 46 -119.5t122 -44.5q74 0 120 44.5t46 119.5v383q0 18 12 30.5t30 12.5q17 0 30 -13t13 -30v-382q0 -108 -71.5 -174.5t-180.5 -66.5t-180 66.5t-71 174.5z" />
<glyph unicode="V" horiz-adv-x="513" d="M-5 628q0 2 3 4l72 26h1q2 0 4 -3l180 -515q19 56 52.5 153t61.5 177.5t52 152.5q14 34 41 34q18 0 30 -12.5t12 -29.5q0 -13 -3 -21q-33 -93 -101 -280.5t-101 -280.5q-6 -21 -15 -31t-30 -10q-30 0 -44 41q-32 89 -105 289q-110 302 -110 306z" />
<glyph unicode="W" horiz-adv-x="751" d="M11 638q0 5 3 5l76 14q5 0 5 -3l90 -539q23 82 71.5 250t73.5 258q0 3 4 3h78q4 0 4 -3l146 -509l83 503q6 41 42 41q19 0 30.5 -12t11.5 -32q0 -10 -1 -13q-19 -103 -53.5 -297t-46.5 -262q-11 -51 -62 -51q-49 0 -60 44q-62 218 -133 471q-96 -339 -132 -471 q-11 -44 -61 -44q-25 0 -41.5 13.5t-20.5 37.5q-18 98 -53.5 298t-53.5 298z" />
<glyph unicode="X" horiz-adv-x="541" d="M7 33q0 13 10 27l202 289l-187 262q-2 4 1 5l65 40q4 2 5 -1l165 -243l151 222q17 23 38 23q17 0 29.5 -12.5t12.5 -29.5q0 -9 -10 -25l-172 -241q34 -49 101.5 -145t101.5 -144q10 -14 10 -28q0 -17 -12.5 -29t-29.5 -12t-35 22l-185 267q-33 -47 -95 -138t-88 -129 q-18 -22 -37 -22q-17 0 -29 12.5t-12 29.5z" />
<glyph unicode="Y" horiz-adv-x="457" d="M-4 614q0 4 2 5l65 41q2 1 3 1t2 -2l159 -269q38 64 148 244h-1q13 22 38 22q17 0 29.5 -11.5t12.5 -27.5q0 -11 -8 -25l-176 -287v-269q0 -19 -12.5 -32t-30.5 -13q-19 0 -31 13t-12 32v269q-37 62 -182 297v-1q-4 4 -4 7q0 1 -1 3t-1 3z" />
<glyph unicode="Z" horiz-adv-x="520" d="M26 48q0 14 10 29q54 81 164.5 248t164.5 249h-323q-4 0 -4 4v68q0 4 4 4h382q57 0 57 -36q0 -13 -16 -38l-333 -499h318q17 0 30.5 -11.5t13.5 -26.5q0 -16 -13.5 -27.5t-30.5 -11.5h-360q-64 0 -64 48z" />
<glyph unicode="[" horiz-adv-x="283" d="M76 -95v702l14 15h149l14 -15v-17l-14 -15h-98v-637h98l14 -15v-17l-14 -15h-149z" />
<glyph unicode="\" horiz-adv-x="276" d="M0 583h78l186 -583h-71z" />
<glyph unicode="]" horiz-adv-x="283" d="M30 -77l15 15h97v637h-97l-15 15v17l15 15h148l14 -15v-702l-14 -14h-148l-15 15v17z" />
<glyph unicode="^" horiz-adv-x="385" d="M13 213l154 342h53l155 -342h-58l-123 277l-123 -277h-58z" />
<glyph unicode="_" horiz-adv-x="504" d="M0 -71h504v-55h-504v55z" />
<glyph unicode="`" horiz-adv-x="333" d="M58 679h109l51 -169h-17z" />
<glyph unicode="a" horiz-adv-x="512" d="M30 242q0 97 57.5 171.5t152.5 74.5q78 0 130 -56q0 19 2 29t12 18.5t29 8.5q16 0 27.5 -12t11.5 -29v-447q0 -4 -4 -4h-76q-3 0 -3 4v56q-50 -65 -129 -65q-98 0 -154 75t-56 176zM118 243q0 -72 30.5 -125t95.5 -53q127 0 127 183q0 32 -6 59.5t-19 53t-38 40.5t-59 15 q-66 0 -98.5 -52.5t-32.5 -120.5z" />
<glyph unicode="b" horiz-adv-x="510" d="M55 32v651q0 4 4 4h76q4 0 4 -4v-255q51 60 133 60q93 0 148 -74.5t55 -170.5q0 -103 -54.5 -178t-154.5 -75q-80 0 -129 62v-11q0 -51 -39 -51q-17 0 -30 13t-13 29zM137 238q0 -74 29.5 -122.5t99.5 -48.5q42 0 70.5 28t39.5 65.5t11 80.5q0 69 -30.5 121t-95.5 52 q-46 0 -75.5 -28.5t-39 -65.5t-9.5 -82z" />
<glyph unicode="c" horiz-adv-x="407" d="M30 239q0 103 60 176t162 73q63 0 139 -43q2 -1 2 -2t-1 -3l-36 -62q-2 -4 -16 3q-60 31 -88 31q-65 0 -98.5 -50.5t-33.5 -118.5q0 -64 33.5 -118.5t92.5 -54.5q16 0 48 13.5t47 13.5t26.5 -11.5t11.5 -25.5q0 -25 -26 -41.5t-53.5 -21.5t-52.5 -5q-100 0 -158.5 72 t-58.5 175z" />
<glyph unicode="d" horiz-adv-x="513" d="M31 239q0 100 57.5 174.5t154.5 74.5q82 0 127 -63v258q0 4 3 4h76q4 0 4 -4v-651q0 -16 -12.5 -28.5t-28.5 -12.5q-43 0 -43 56v12q-51 -67 -134 -67q-62 0 -110 38t-71 93.5t-23 115.5zM118 243q0 -68 30.5 -120t93.5 -52t95.5 46.5t32.5 112.5q0 181 -123 181 q-63 0 -96 -51t-33 -117z" />
<glyph unicode="e" horiz-adv-x="485" d="M31 242q0 98 61 171.5t158 73.5q90 0 148.5 -71t58.5 -164q0 -27 -12 -36.5t-40 -9.5h-283q2 -57 40.5 -97.5t96.5 -40.5q38 0 96 18q3 1 5 -3l16 -59q0 -4 -3 -5q-71 -29 -117 -29q-104 0 -164.5 73t-60.5 179zM121 273h249q-3 55 -36.5 99.5t-85.5 44.5 q-58 0 -88.5 -42t-38.5 -102z" />
<glyph unicode="f" horiz-adv-x="228" d="M-3 445q0 14 6.5 22.5t16 10.5t21 3t22.5 0h8v114q0 45 26.5 74t71.5 29h33q19 0 34 -9.5t15 -28.5q0 -37 -46 -37h-19q-31 0 -31 -24v-118q1 0 5 0.5t5 0.5q8 1 15 1q65 0 65 -40q0 -38 -65 -38q-7 0 -16 1q-2 0 -5 0.5t-4 0.5v-592q0 -4 -4 -4h-75q-4 0 -4 4v592h-9 q-11 -1 -19 -1t-13 1q-11 1 -22.5 10t-11.5 28z" />
<glyph unicode="g" horiz-adv-x="510" d="M31 230q0 103 55 180t153 77q79 0 132 -62q0 15 1 23t4 19t12 16t23 5q16 0 27.5 -12.5t11.5 -29.5v-421q0 -96 -65.5 -160.5t-161.5 -64.5q-38 0 -58 6q-4 0 -4 9q0 30 5 67q0 6 5 3q29 -9 55 -9q74 0 109 47.5t35 122.5v9q-53 -67 -134 -67q-95 0 -150 72.5t-55 169.5z M118 241q0 -74 32 -125t101 -51q59 0 89 52t30 116q0 60 -12 99.5t-51 64.5v-1q-29 16 -58 16q-66 0 -98.5 -51t-32.5 -120z" />
<glyph unicode="h" horiz-adv-x="495" d="M55 2v651q0 17 12.5 30t29.5 13t29.5 -12.5t12.5 -29.5v-222q44 55 121 55q80 0 127.5 -51.5t47.5 -131.5v-272q0 -18 -12.5 -30t-29.5 -12q-16 0 -28 12.5t-12 28.5v273q0 44 -31.5 77.5t-76.5 33.5q-44 0 -75.5 -32.5t-31.5 -77.5v-303q0 -4 -4 -4h-75q-4 0 -4 4z" />
<glyph unicode="i" horiz-adv-x="193" d="M55 3v444q0 18 12.5 29.5t30.5 11.5q16 0 27.5 -12t11.5 -29v-444q0 -4 -4 -4h-74q-4 0 -4 4zM59 589q0 15 10.5 25.5t25.5 10.5q14 0 25 -10.5t11 -24.5q0 -15 -11 -25.5t-25 -10.5t-25 10.5t-11 24.5z" />
<glyph unicode="j" horiz-adv-x="191" d="M54 -184v630q0 18 11.5 31t28.5 13t29.5 -13t12.5 -30v-631q0 -4 -4 -4h-74q-4 0 -4 4zM59 589q0 15 10.5 25.5t25.5 10.5q14 0 25 -10.5t11 -24.5q0 -15 -11 -25.5t-25 -10.5t-25 10.5t-11 24.5z" />
<glyph unicode="k" horiz-adv-x="420" d="M55 5v652q0 17 12.5 29.5t29.5 12.5t29.5 -13t12.5 -30v-334q36 30 104.5 87t76.5 64q17 15 34 15q13 0 25 -12t12 -26q0 -20 -19 -34q-30 -24 -93.5 -74t-86.5 -68q75 -75 231 -229q1 -1 1 -3t-2 -3l-57 -46q-2 -1 -3 -1t-2 1l-222 228v-217q0 -4 -4 -4l-75 1q-4 0 -4 4 z" />
<glyph unicode="l" horiz-adv-x="191" d="M54 2v654q0 17 12.5 30t28.5 13q17 0 29 -13t12 -30v-653q0 -4 -4 -4l-74 -1q-4 0 -4 4z" />
<glyph unicode="m" horiz-adv-x="764" d="M56 4v442q0 17 13 29.5t30 12.5q37 0 39 -50q42 51 114 51q42 0 78 -20t55 -55q45 73 144 73q79 0 125.5 -45.5t46.5 -123.5v-285q0 -16 -12.5 -29t-28.5 -13t-29 13t-13 29v282q0 42 -28 71.5t-70 29.5q-41 0 -70 -29.5t-29 -71.5v-311q0 -4 -4 -4h-74q-4 0 -4 4v311 q0 42 -30 71.5t-71 29.5q-40 0 -69 -29.5t-29 -70.5v-312q0 -4 -4 -4h-76q-4 0 -4 4z" />
<glyph unicode="n" horiz-adv-x="495" d="M55 3v444q0 17 12.5 29.5t30.5 12.5q40 0 40 -46v-10q43 54 121 54q80 0 128 -50.5t48 -131.5v-273q0 -18 -12.5 -30t-29.5 -12q-16 0 -28 12.5t-12 28.5v273q0 44 -32 77.5t-77 33.5q-44 0 -75 -32.5t-31 -77.5v-302q0 -4 -4 -4h-75q-4 0 -4 4z" />
<glyph unicode="o" horiz-adv-x="494" d="M31 242q0 98 59 172t154 74q96 0 155 -74t59 -173t-58.5 -175t-154.5 -76q-97 0 -155.5 76t-58.5 176zM119 241q0 -67 31 -121t92 -54q45 0 75 28t42 66t12 82q0 67 -32.5 120t-95.5 53q-61 0 -92.5 -54.5t-31.5 -119.5z" />
<glyph unicode="p" horiz-adv-x="511" d="M55 -184v629q0 17 12 30t28 13q20 0 30 -10.5t11 -21.5q1 -7 1 -17v-15q48 65 135 65q92 0 148 -74t56 -170q0 -100 -55.5 -177.5t-151.5 -77.5q-82 0 -131 62v-236q0 -4 -4 -4h-75q-4 0 -4 4zM134 237q0 -70 31 -119.5t95 -49.5q63 0 95.5 51t32.5 120q0 66 -31.5 121.5 t-92.5 55.5q-29 0 -60 -17v1q-42 -26 -56 -65.5t-14 -97.5z" />
<glyph unicode="q" horiz-adv-x="512" d="M31 239q0 98 55.5 173.5t149.5 75.5q83 0 133 -62v13q0 24 9 36.5t34 12.5q16 0 28 -12.5t12 -29.5v-630q0 -4 -4 -4h-76q-3 0 -3 4v239q-52 -63 -132 -63q-93 0 -149.5 75.5t-56.5 171.5zM118 243q0 -69 31 -122t94 -53q65 0 96.5 47t31.5 115q0 36 -1.5 56t-12 48 t-31.5 46q-35 35 -82 35q-65 0 -95.5 -51.5t-30.5 -120.5z" />
<glyph unicode="r" horiz-adv-x="246" d="M54 2v443q0 18 12.5 29.5t30.5 11.5q15 0 28 -10t13 -26q0 -5 0.5 -9.5t-0.5 -12.5q15 25 37 43t45 18q20 0 34 -13t14 -32q0 -11 -7 -20t-14.5 -13t-20.5 -10q-19 -9 -30 -16.5t-27 -24.5t-23.5 -45t-7.5 -67v-245q0 -4 -4 -4l-76 -1q-4 0 -4 4z" />
<glyph unicode="s" horiz-adv-x="403" d="M18 71.5q0 1.5 1 2.5l48 51q1 1 3 0.5t3.5 -2l3.5 -3.5l2 -1q27 -20 39 -28t34.5 -15.5t49.5 -7.5q33 0 60.5 17.5t27.5 49.5q0 27 -27.5 45t-79.5 38q-35 14 -53 22.5t-44 25.5t-38 39t-12 50q0 61 50.5 97t113.5 36q26 0 62 -7.5t69 -27.5t33 -47q0 -15 -10.5 -27 t-26.5 -12q-12 0 -41 18q-49 30 -89 30q-30 0 -52.5 -16t-22.5 -44q0 -20 23 -34.5t68 -30.5q31 -13 46 -19.5t41.5 -22t39.5 -29.5t24 -36t11 -48q0 -67 -54.5 -105t-123.5 -38q-48 0 -99.5 21t-78.5 56q-1 1 -1 2.5z" />
<glyph unicode="t" horiz-adv-x="224" d="M0 443q0 19 11.5 28t22.5 10t31 0h7v102q0 18 11.5 32t29.5 14q17 0 29.5 -14.5t12.5 -31.5l-1 -102h7q11 1 23 0.5t22.5 -3t17 -11.5t6.5 -24q0 -14 -6.5 -22.5t-17 -10.5t-22.5 -3t-23 0h-6v-403q0 -4 -4 -4h-74q-4 0 -4 4v403h-6q-11 -1 -23 0t-21.5 3t-16 10.5 t-6.5 22.5z" />
<glyph unicode="u" horiz-adv-x="496" d="M55 180v287q0 4 4 4l76 1q4 0 4 -4v-287q0 -114 107 -114q109 0 109 114v265q0 17 12 29.5t29 12.5t29 -12t12 -31v-265q0 -93 -49.5 -141t-141.5 -48t-141.5 48t-49.5 141z" />
<glyph unicode="v" horiz-adv-x="390" d="M-3 461q0 2 3 4l70 22h1q2 0 4 -3l120 -348q10 31 48.5 145t58.5 177q11 29 39 29q16 0 29 -12.5t13 -29.5q0 -11 -88 -254q-11 -33 -25 -72.5t-22.5 -64t-11.5 -32.5q-11 -31 -41 -31t-44 34q-13 37 -70 197q-84 236 -84 239z" />
<glyph unicode="w" horiz-adv-x="687" d="M2 459q-1 3 3 5l74 23q3 1 5 -3l110 -353q17 52 50.5 158t50.5 158q0 3 4 3h84q4 0 4 -3l100 -315q59 183 103 326q5 13 17 21.5t25 8.5q17 0 29.5 -12t12.5 -29q0 -8 -3 -15q-90 -267 -134 -397q-8 -21 -18.5 -32.5t-30.5 -11.5q-31 0 -48 41l-99 317 q-15 -47 -48.5 -153t-51.5 -164q-17 -41 -48 -41q-21 0 -31.5 11t-18.5 33z" />
<glyph unicode="x" horiz-adv-x="429" d="M7 32q0 17 10 30v-1q19 25 68.5 91.5t76.5 102.5l-142 186q-2 4 1 5l61 40q4 2 5 -1l126 -168q18 25 54.5 74.5t55.5 73.5h-1q14 23 38 23q17 0 29 -11.5t12 -27.5q0 -17 -11 -29v1q-21 -28 -64 -83t-64 -83q23 -30 72 -95t75 -99v1q10 -11 10 -30q0 -16 -11.5 -28 t-28.5 -12q-22 0 -37 23q-21 30 -64.5 89t-64.5 89q-23 -33 -69.5 -96.5t-59.5 -81.5q-15 -23 -37 -23q-17 0 -28.5 11.5t-11.5 28.5z" />
<glyph unicode="y" horiz-adv-x="390" d="M0 455q0 2 3 4l72 22q3 1 5 -3l115 -342q72 219 105 323q14 29 40 29q16 0 29 -12t13 -28q0 -12 -48 -148.5t-101.5 -286t-61.5 -176.5q-14 -33 -40 -33q-17 0 -29.5 11t-12.5 29q0 24 58 164q2 4 2.5 7t1.5 5q-22 64 -73 210q-78 223 -78 225z" />
<glyph unicode="z" horiz-adv-x="407" d="M22 36q0 14 7 25l235 344h-229q-4 0 -4 4v68q0 4 4 4h307q17 0 27.5 -9.5t10.5 -26.5q0 -15 -10 -25v1q-42 -63 -121 -178.5t-113 -166.5h211q17 0 29.5 -11t12.5 -27t-12.5 -27t-29.5 -11h-286q-17 0 -28 10t-11 26z" />
<glyph unicode="{" horiz-adv-x="300" d="M40 241v31l16 16q49 23 49 70v146q0 66 38.5 91.5t111.5 26.5l14 -15v-16l-14 -15q-50 0 -70 -18t-20 -70v-142q0 -28 -12 -50l-63 -40l63 -40q12 -21 12 -49v-143q0 -51 20 -69t70 -19l14 -15v-15l-14 -15q-73 0 -111.5 25.5t-38.5 92.5v146q0 47 -49 70z" />
<glyph unicode="|" horiz-adv-x="217" d="M76 -102v717l14 15h37l15 -15v-717l-15 -15h-37z" />
<glyph unicode="}" horiz-adv-x="300" d="M30 -79l15 15q50 1 69.5 19t19.5 69v143q0 26 13 49l63 40l-63 40q-13 24 -13 50v142q0 52 -19.5 70t-69.5 18l-15 15v16l15 15q72 -1 110.5 -26.5t38.5 -91.5v-146q0 -47 49 -70l16 -16v-31l-16 -16q-49 -23 -49 -70v-146q0 -67 -38.5 -92.5t-110.5 -25.5l-15 15v15z " />
<glyph unicode="~" horiz-adv-x="408" d="M30 189q21 129 91 129q15 0 36.5 -13.5t50.5 -37.5t35 -28q25 -20 47 -20q24 0 39.5 19.5t28.5 51.5l3 10l17 -9q-14 -69 -34.5 -98.5t-54.5 -29.5q-16 0 -38 14t-49 36.5t-36 28.5q-28 20 -46 20q-40 0 -74 -81z" />
<glyph unicode="&#xa1;" horiz-adv-x="344" d="M117 579q0 25 15.5 41t39.5 16q23 0 39.5 -16.5t16.5 -40.5q0 -23 -16.5 -39t-39.5 -16t-39 16t-16 39zM120 21l20 412q0 16 14 16h38q5 0 9 -5t5 -10l19 -415q1 -13 -15 -23.5t-37 -10.5q-22 0 -38 10.5t-15 25.5z" />
<glyph unicode="&#xa2;" horiz-adv-x="544" d="M65 222q0 98 51.5 162.5t144.5 70.5v89q0 9 6 15.5t15 6.5q22 0 22 -22v-89q62 -4 127 -32q5 -2 10.5 -8.5t5.5 -13.5v-83q0 -5 -4.5 -10t-10.5 -5h-16q-13 0 -17 15q-18 85 -95 95v-382q69 10 92 86q1 5 7 10.5t14 5.5h16q14 0 18.5 -10t1.5 -19q-38 -104 -149 -115v-92 q0 -8 -6 -14.5t-15 -6.5t-15.5 6.5t-6.5 14.5v91q-93 7 -144.5 72t-51.5 162zM154 222q0 -177 107 -191v382q-107 -14 -107 -191z" />
<glyph unicode="&#xa3;" horiz-adv-x="398" d="M28 14v38q0 8 2.5 10.5t10.5 2.5h51q15 70 15 110q0 16 -2 40h-63q-9 0 -11.5 2.5t-2.5 11.5v38q0 8 2.5 10.5t11.5 2.5h50q-9 36 -9 72q0 68 46 110.5t134 42.5q45 0 85.5 -15t40.5 -30l-3 -9l-19 -38q-4 -6 -8 -6q-3 0 -14.5 7.5t-34.5 15.5t-52 8q-56 0 -77.5 -20 t-21.5 -63q0 -41 8 -75h113q9 0 11.5 -2.5t2.5 -10.5v-38q0 -9 -3 -11.5t-11 -2.5h-100q3 -21 3 -42q0 -24 -2 -42.5t-7 -42.5l-6 -23h210q13 0 13 -8q0 -5 -3 -13l-15 -34q-4 -10 -15 -10h-317q-8 0 -10.5 2.5t-2.5 11.5z" />
<glyph unicode="&#xa4;" horiz-adv-x="544" d="M55 68q-4 13 7 27l68 68q-34 49 -34 105q0 57 34 104l-69 69q-19 19 0 39q8 8 19 8t19 -8l69 -69q49 34 106 34q59 0 104 -34l69 69q8 8 19 8t19 -8t8 -19.5t-8 -19.5l-68 -68q34 -47 34 -105q0 -57 -34 -106l67 -67q20 -20 1 -39q-8 -8 -19.5 -8t-19.5 8l-68 68 q-47 -34 -104 -34q-59 0 -105 35l-69 -69q-11 -11 -26 -6t-19 18zM162 268q0 -47 31.5 -79.5t78.5 -32.5q48 0 80.5 32t32.5 80q0 47 -32.5 79.5t-80.5 32.5q-47 0 -78.5 -32.5t-31.5 -79.5z" />
<glyph unicode="&#xa5;" horiz-adv-x="544" d="M2 600q0 10 7 16.5t16 6.5h167q9 0 16 -6.5t7 -15.5t-7 -15.5t-16 -6.5h-41l143 -252l142 252h-38q-9 0 -16 6.5t-7 15.5t7 15.5t16 6.5h116q9 0 16 -7t7 -16t-7 -15t-16 -6h-27l-117 -207h79q10 0 17 -6t7 -15q0 -10 -7 -16.5t-16 -6.5h-106l-31 -53v-33h136 q11 0 17.5 -6t6.5 -16q0 -9 -7 -15.5t-16 -6.5h-137v-153h47q9 0 16 -6.5t7 -15.5t-7 -16t-16 -7h-178q-9 0 -15.5 6t-6.5 16q0 9 7 16t15 7h48v153h-136q-9 0 -16 6t-7 15t7 16t16 7h136v27l-34 59h-102q-9 0 -16 6.5t-7 15.5t7 15.5t16 6.5h76l-119 207h-25q-10 0 -17 6 t-7 15z" />
<glyph unicode="&#xa6;" horiz-adv-x="288" d="M108 -120v263q0 11 10 19.5t25 8.5t26 -8t11 -20v-263q0 -11 -10.5 -19.5t-25.5 -8.5t-25.5 8.5t-10.5 19.5zM108 308v263q0 11 10 19t25 8q16 0 26.5 -7.5t10.5 -19.5v-263q0 -11 -10.5 -19.5t-25.5 -8.5t-25.5 8.5t-10.5 19.5z" />
<glyph unicode="&#xa7;" horiz-adv-x="427" d="M38 300q0 82 95 108q-67 40 -67 106q0 60 45 90.5t107 30.5q60 0 113 -18q15 -7 15 -21v-54q0 -5 -4.5 -10t-9.5 -5h-10q-12 0 -16 16q-6 24 -28 36.5t-51 12.5q-39 0 -64.5 -18.5t-25.5 -56.5q0 -24 26 -47t63 -43t74 -42.5t63 -54.5t26 -70q0 -43 -24 -68t-68 -43 q64 -39 64 -110q0 -61 -47 -91t-111 -30q-63 0 -118 17q-19 9 -19 21v57q0 5 4.5 10.5t9.5 5.5h12q12 0 15 -20q13 -47 89 -47q40 0 67 19t27 57q0 28 -26 52t-63 44t-74 42t-63 54t-26 70zM106 314q0 -53 166 -147q48 33 48 80q0 12 -5.5 24t-12.5 22t-20.5 21.5t-23 19 t-27 17.5t-26 14.5t-26 13.5t-20.5 11q-53 -32 -53 -76z" />
<glyph unicode="&#xa8;" horiz-adv-x="427" d="M83 606q0 20 14 34.5t34 14.5q21 0 35 -14t14 -35q0 -22 -13.5 -35t-35.5 -13q-20 0 -34 14t-14 34zM247 606q0 21 14.5 35t34.5 14t34.5 -14.5t14.5 -34.5t-14 -34t-35 -14q-22 0 -35.5 13t-13.5 35z" />
<glyph unicode="&#xa9;" horiz-adv-x="556" d="M43 221q0 97 69 166t166 69t166 -69t69 -166t-69 -166t-166 -69q-98 0 -166.5 69t-68.5 166zM78 221q0 -83 59 -141.5t141 -58.5t141 58.5t59 141.5t-59 141.5t-141 58.5t-141 -58.5t-59 -141.5zM153 225q0 56 41 95t95 39q52 0 95 -39l-26 -33q-34 31 -69 31t-64 -25.5 t-29 -67.5q0 -43 28.5 -68t61.5 -25q39 0 72 30l26 -32q-43 -39 -95 -39q-55 0 -95.5 38.5t-40.5 95.5z" />
<glyph unicode="&#xaa;" horiz-adv-x="407" d="M49 409q0 18 4.5 33t15 25.5t20 18t28 12t29.5 7.5t34.5 4t33 1.5t34.5 0t30 -0.5v22q0 36 -24.5 55t-65.5 19q-63 0 -79 -48q-3 -10 -11 -10h-11q-4 0 -7 2.5t-4 5.5v2v44q0 10 12 13q55 20 104 20q70 0 108 -31.5t38 -93.5v-163h27q18 0 18 -16q0 -15 -18 -15h-69 q-18 0 -18 15v18q-38 -42 -105 -42q-55 0 -89.5 26.5t-34.5 75.5zM115 409q0 -34 22 -52.5t59 -18.5t59.5 20.5t22.5 54.5v66h-76q-87 0 -87 -70z" />
<glyph unicode="&#xab;" horiz-adv-x="523" d="M66 242v17q0 4 2 8t4 6l1 2l162 143q10 8 17 8q15 0 15 -15q0 -9 -5 -16l-124 -144l124 -145q5 -6 5 -16q0 -14 -15 -14q-9 0 -17 8l-162 143q-7 6 -7 15zM247 242v17q0 4 2 8t4 6l2 2l161 143q10 8 17 8q15 0 15 -15q0 -8 -4 -16l-125 -144l125 -145q4 -7 4 -16 q0 -14 -15 -14q-9 0 -17 8l-161 143q-8 6 -8 15z" />
<glyph unicode="&#xac;" horiz-adv-x="716" d="M90 327q0 13 10 23t23 10h469q14 0 24 -9t10 -22v-180q0 -14 -9.5 -24t-22.5 -10t-23 10.5t-10 23.5l-1 146h-437q-14 0 -23.5 9.5t-9.5 22.5z" />
<glyph unicode="&#xae;" horiz-adv-x="855" d="M118 310q0 128 90.5 219t218.5 91q129 0 219.5 -91t90.5 -219t-91 -219t-219 -91t-218.5 91t-90.5 219zM161 310q0 -110 78 -188.5t188 -78.5q112 0 189.5 77.5t77.5 189.5q0 111 -77.5 189t-189.5 78q-110 0 -188 -78.5t-78 -188.5zM269 158q0 12 14 12h27v288h-27 q-14 0 -14 12q0 5 4.5 9t9.5 4h168q51 0 82 -22.5t31 -67.5q0 -70 -85 -80q33 -9 52 -43l54 -100h21q13 0 13 -12q0 -5 -4 -8.5t-9 -3.5h-52q-10 0 -16 8l-53 99q-10 19 -16.5 27.5t-19.5 15t-33 6.5h-55v-132h33q13 0 13 -12q0 -5 -4 -8.5t-9 -3.5h-111q-14 0 -14 12z M361 327h73q73 0 73 66q0 65 -73 65h-73v-131z" />
<glyph unicode="&#xaf;" horiz-adv-x="1000" />
<glyph unicode="&#xb0;" horiz-adv-x="348" d="M35 395q0 58 41 98.5t98 40.5t98 -40.5t41 -98.5q0 -57 -41 -97.5t-98 -40.5t-98 40.5t-41 97.5zM92 395q0 -34 24 -57.5t58 -23.5t58 23.5t24 57.5t-24 58t-58 24t-58 -24t-24 -58z" />
<glyph unicode="&#xb1;" horiz-adv-x="716" d="M91 34q0 14 10.5 24.5t24.5 10.5h466q15 0 25 -9.5t10 -24.5t-10 -25t-25 -10l-466 -1q-14 0 -24.5 10t-10.5 25zM91 337q0 15 10.5 25t24.5 10h197v129q0 14 10 24.5t25 10.5q14 0 24.5 -10t10.5 -25v-129h199q15 0 25 -9.5t10 -24.5t-10 -25t-25 -10h-199v-126 q0 -14 -10 -24.5t-24 -10.5q-15 0 -25.5 10.5t-10.5 24.5v126h-197q-15 0 -25 9.5t-10 24.5z" />
<glyph unicode="&#xb2;" horiz-adv-x="343" d="M38 289v12q0 9 9 17l110 98q32 29 49.5 54t17.5 57q0 35 -20 55.5t-55 20.5q-60 0 -74 -49q-7 -13 -17 -13q-15 0 -15 15v40q0 13 10 16q48 22 104 22q51 0 90.5 -25t39.5 -73q0 -22 -18.5 -50.5t-30.5 -40.5t-41 -39l-99 -91h161v32q0 14 15 14t15 -13v-54 q0 -15 -15 -15h-224q-12 0 -12 10z" />
<glyph unicode="&#xb3;" horiz-adv-x="343" d="M42 307v46q0 14 15 14q13 0 16 -12q10 -52 79 -52q83 0 83 71q0 45 -23 61t-68 18q-17 0 -17 15q1 16 15 16q78 2 78 61q0 58 -65 58q-62 0 -72 -42q0 -3 -4.5 -7t-11.5 -4q-5 0 -10 3.5t-5 7.5v39q0 12 15 18q59 17 96 17q51 0 85.5 -20t34.5 -67q0 -32 -24.5 -52 t-59.5 -27q100 -12 100 -98q0 -53 -41 -75.5t-99 -22.5q-55 0 -104 18q-13 5 -13 16z" />
<glyph unicode="&#xb4;" horiz-adv-x="427" d="M177 541q0 9 13 25l75 108q7 9 19 9h33q18 0 18 -10t-7 -18l-108 -119q-10 -10 -23 -10q-20 0 -20 15z" />
<glyph unicode="&#xb5;" horiz-adv-x="556" d="M34 -156q0 9 7 16t16 7h41v532h-37q-10 0 -16.5 6t-6.5 16q0 9 7 16t16 7h92q9 0 16 -6.5t7 -15.5v-237q0 -25 1 -41t6 -37t14 -33t26.5 -21t42.5 -9q59 0 84 44t25 109v202h-34q-9 0 -16 6.5t-7 15.5t7.5 16t15.5 7h88q10 0 16.5 -6.5t6.5 -15.5v-377h41q9 0 16 -6.5 t7 -15.5t-7 -16t-16 -7h-95q-9 0 -16 6.5t-7 15.5v56q-43 -90 -120 -90q-40 0 -79 28v-149h40q9 0 15.5 -6t6.5 -16q0 -9 -7 -16t-15 -7h-159q-9 0 -16 6.5t-7 15.5z" />
<glyph unicode="&#xb6;" horiz-adv-x="544" d="M66 447q0 84 56.5 130t141.5 46h202q23 0 23 -23q0 -9 -6.5 -15.5t-15.5 -6.5l-28 1l-1 -642q0 -20 -20 -20q-23 0 -23 21v641h-97l1 -641q0 -21 -22 -21q-23 0 -23 21v333q-84 6 -136 50t-52 126z" />
<glyph unicode="&#xb7;" horiz-adv-x="272" d="M79 296q0 25 16 40.5t40 15.5q23 0 39.5 -16t16.5 -40q0 -23 -16.5 -39t-39.5 -16q-24 0 -40 15.5t-16 39.5z" />
<glyph unicode="&#xb8;" horiz-adv-x="427" d="M120 -134q0 21 26 23q7 0 20.5 -1.5t18.5 -1.5q22 1 37 10.5t14 30.5q0 14 -14 34t-14 26q0 13 16 13q17 0 31 -15q38 -41 38 -79t-29 -55t-71 -17q-73 0 -73 32z" />
<glyph unicode="&#xb9;" horiz-adv-x="343" d="M61 560q0 13 11 19l76 41q15 7 24 7h15q18 0 18 -19v-295l53 1q8 0 13.5 -5t5.5 -12q0 -18 -18 -18h-168q-7 0 -12.5 5t-5.5 12t5.5 13t12.5 6l54 -1v265l-60 -33q-7 -4 -15.5 0.5t-8.5 13.5z" />
<glyph unicode="&#xba;" horiz-adv-x="402" d="M39 471q0 74 44 119t117 45q74 0 118 -45t44 -119q0 -75 -43.5 -119t-118.5 -44q-74 0 -117.5 44.5t-43.5 118.5zM112 471q0 -132 88 -132q90 0 90 132t-90 132q-88 0 -88 -132z" />
<glyph unicode="&#xbb;" horiz-adv-x="523" d="M75 90q0 10 5 16l124 145l-124 144q-5 7 -5 16q0 15 15 15q7 0 17 -8l162 -143q7 -6 7 -16v-17l-7 -15l-162 -143q-8 -8 -17 -8q-15 0 -15 14zM256 90q0 10 5 16l125 145l-125 144q-5 7 -5 16q0 15 16 15q7 0 17 -8l161 -143q8 -6 8 -16v-17q0 -4 -2 -8t-4 -6l-2 -1 l-161 -143q-8 -8 -17 -8q-16 0 -16 14z" />
<glyph unicode="&#xbc;" horiz-adv-x="834" d="M52 573v60q31 10 68 36t60 56h52v-367h-70v270q-48 -38 -110 -55zM123 -28l538 756h76l-537 -756h-77zM511 60v60l198 232h60v-239h50v-53h-50v-75h-71v75h-187zM586 113h112v128z" />
<glyph unicode="&#xbd;" horiz-adv-x="834" d="M52 573v60q31 10 68 36t60 56h52v-367h-70v270q-48 -38 -110 -55zM111 -28l538 756h77l-538 -756h-77zM512 -15q3 26 24 55q30 44 100 93q70 51 84 66q18 20 18 41q0 25 -17.5 39t-50.5 14t-48.5 -11.5t-25.5 -43.5l-74 8q15 55 50.5 80.5t99.5 25.5q71 0 106.5 -27.5 t35.5 -72.5q0 -42 -28 -77q-23 -29 -100 -84q-42 -31 -58 -47h188v-59h-304z" />
<glyph unicode="&#xbe;" horiz-adv-x="834" d="M16 454l71 7q20 -55 76 -55q33 0 54.5 19t21.5 46q0 54 -76 54l-28 -2l11 54q37 0 56.5 14t19.5 36q0 19 -15.5 31t-42.5 12q-28 0 -43.5 -10.5t-26.5 -38.5l-70 11q20 52 50.5 72.5t89.5 20.5q67 0 100.5 -25.5t33.5 -66.5q0 -28 -17.5 -48.5t-49.5 -29.5q84 -22 84 -93 q0 -47 -40 -80t-108 -33q-131 0 -151 105zM123 -28l538 756h76l-537 -756h-77zM511 60v60l197 232h61v-239h50v-53h-50v-75h-71v75h-187zM586 113h112v128z" />
<glyph unicode="&#xbf;" horiz-adv-x="459" d="M58 154q0 158 186 197v90q0 5 4 11t11 6h22q6 0 10.5 -5t4.5 -10v-106q0 -7 -5.5 -13t-9.5 -7q-135 -42 -135 -164q0 -56 29 -89.5t85 -33.5q48 0 73.5 23.5t39.5 66.5q6 16 16 16h14q5 0 9.5 -5t4.5 -10v-80q0 -14 -14 -20q-84 -32 -147 -32q-83 0 -140.5 41.5 t-57.5 123.5zM214 579q0 24 15.5 40.5t39.5 16.5q25 0 40.5 -16t15.5 -41q0 -23 -16.5 -39t-39.5 -16t-39 16t-16 39z" />
<glyph unicode="&#xc0;" horiz-adv-x="617" d="M5 22q0 9 7 16t16 7h21l216 561q7 17 22 17h40q8 0 13.5 -4t7.5 -8l1 -4l215 -562h30q9 0 16 -7t7 -16t-7 -15.5t-16 -6.5h-163q-9 0 -16 6.5t-7 15.5t7 16t16 7h37l-52 136h-262l-52 -136h36q8 0 15.5 -7t7.5 -16t-7 -15.5t-16 -6.5h-110q-10 0 -16.5 6t-6.5 16z M171 226h229l-114 296zM217 783q0 10 18 10h32q5 0 10 -2.5t7 -4.5l2 -2l43 -62q13 -18 13 -25q0 -15 -20 -15q-14 0 -24 10l-74 73q-7 7 -7 18z" />
<glyph unicode="&#xc1;" horiz-adv-x="617" d="M5 22q0 9 7 16t16 7h21l216 561q7 17 22 17h40q8 0 13.5 -4t7.5 -8l1 -4l215 -562h30q9 0 16 -7t7 -16t-7 -15.5t-16 -6.5h-163q-9 0 -16 6.5t-7 15.5t7 16t16 7h37l-52 136h-262l-52 -136h36q8 0 15.5 -7t7.5 -16t-7 -15.5t-16 -6.5h-110q-10 0 -16.5 6t-6.5 16z M171 226h229l-114 296zM272 697q0 7 13 25l43 62q6 9 19 9h32q18 0 18 -10q0 -11 -8 -18l-74 -73q-10 -10 -23 -10q-20 0 -20 15z" />
<glyph unicode="&#xc2;" horiz-adv-x="617" d="M5 22q0 9 7 16t16 7h21l216 561q7 17 22 17h40q8 0 13.5 -4t7.5 -8l1 -4l215 -562h30q9 0 16 -7t7 -16t-7 -15.5t-16 -6.5h-163q-9 0 -16 6.5t-7 15.5t7 16t16 7h37l-52 136h-262l-52 -136h36q8 0 15.5 -7t7.5 -16t-7 -15.5t-16 -6.5h-110q-10 0 -16.5 6t-6.5 16z M171 226h229l-114 296zM197 697q0 10 13 25l53 62q7 9 19 9h52q6 0 10.5 -2.5t6.5 -4.5l2 -2l54 -62q13 -18 13 -25q0 -15 -15 -15q-13 0 -24 10l-72 58l-73 -58q-13 -10 -24 -10q-15 0 -15 15z" />
<glyph unicode="&#xc3;" horiz-adv-x="617" d="M5 22q0 9 7 16t16 7h21l216 561q7 17 22 17h40q8 0 13.5 -4t7.5 -8l1 -4l215 -562h30q9 0 16 -7t7 -16t-7 -15.5t-16 -6.5h-163q-9 0 -16 6.5t-7 15.5t7 16t16 7h37l-52 136h-262l-52 -136h36q8 0 15.5 -7t7.5 -16t-7 -15.5t-16 -6.5h-110q-10 0 -16.5 6t-6.5 16z M171 226h229l-114 296zM173 720q0 24 23 46t54 22q26 0 64 -21.5t55 -21.5q14 0 24 9t12 22q1 12 19 12q8 0 14 -7t6 -17q0 -25 -23 -46.5t-55 -21.5q-29 0 -65.5 21.5t-49.5 21.5q-15 0 -25.5 -9.5t-12.5 -21.5q-1 -12 -20 -12q-8 0 -14 7t-6 17z" />
<glyph unicode="&#xc4;" horiz-adv-x="617" d="M5 22q0 9 7 16t16 7h21l216 561q7 17 22 17h40q8 0 13.5 -4t7.5 -8l1 -4l215 -562h30q9 0 16 -7t7 -16t-7 -15.5t-16 -6.5h-163q-9 0 -16 6.5t-7 15.5t7 16t16 7h37l-52 136h-262l-52 -136h36q8 0 15.5 -7t7.5 -16t-7 -15.5t-16 -6.5h-110q-10 0 -16.5 6t-6.5 16z M171 226h229l-114 296zM179 738q0 20 14.5 34.5t33.5 14.5q20 0 34 -14.5t14 -34.5t-13.5 -34t-34.5 -14t-34.5 14t-13.5 34zM341 738q0 20 14.5 34.5t33.5 14.5q20 0 34.5 -14.5t14.5 -34.5q0 -21 -13.5 -34.5t-35.5 -13.5q-20 0 -34 14t-14 34z" />
<glyph unicode="&#xc5;" horiz-adv-x="617" d="M5 22q0 9 7 16t16 7h21l205 533q-61 32 -61 101q0 47 33.5 80.5t80.5 33.5q48 0 81.5 -33t33.5 -81q0 -69 -63 -101l205 -533h30q9 0 16 -7t7 -16t-7 -15.5t-16 -6.5h-163q-9 0 -16 6.5t-7 15.5t7 16t16 7h37l-52 136h-262l-52 -136h36q8 0 15.5 -7t7.5 -16t-7 -15.5 t-16 -6.5h-110q-10 0 -16.5 6t-6.5 16zM171 226h228l-113 296zM244 679q0 -27 18 -45t45 -18t45 18t18 45t-18.5 45t-44.5 18q-27 0 -45 -18t-18 -45z" />
<glyph unicode="&#xc6;" horiz-adv-x="856" d="M-5 22q0 9 7.5 16t15.5 7h22l246 534h-57q-9 0 -16 6t-7 15t7 16t16 7h553q15 0 19 -5t4 -17v-86q0 -10 -7.5 -15t-12.5 -5h-11q-6 0 -13.5 5t-7.5 16v56h-288v-209h207v39q0 11 7.5 16t13.5 5h10q6 0 13 -5t7 -15v-145q0 -10 -7 -15t-13 -5h-10q-6 0 -13.5 5t-7.5 16v54 h-207v-262h295v56q0 11 7.5 16t13.5 5h10q6 0 13 -5t7 -15v-88q0 -10 -7 -15t-13 -5h-456q-9 0 -15.5 6t-6.5 16q0 9 7 16t15 7h47v136h-224l-64 -136h36q9 0 16 -6.5t7 -15.5q0 -10 -7 -16.5t-16 -6.5h-112q-9 0 -16 6.5t-7 15.5zM178 226h204v353h-42z" />
<glyph unicode="&#xc7;" horiz-adv-x="655" d="M48 311q0 142 82 233t223 91q97 0 218 -49q15 -6 15 -21v-107q0 -21 -17 -21h-16q-7 0 -12 6t-6 11q-34 136 -189 136q-59 0 -100.5 -23.5t-63 -65.5t-30.5 -88t-9 -102q0 -279 203 -279q132 0 175 117q5 16 21 16h31q11 0 17.5 -10t3.5 -17q-55 -131 -204 -148 q43 -45 43 -84t-29 -55.5t-72 -16.5q-72 0 -72 32q0 21 26 23q7 0 20.5 -1.5t18.5 -1.5q51 2 51 41q0 20 -28 61h-2q-134 0 -216 93t-82 230z" />
<glyph unicode="&#xc8;" horiz-adv-x="624" d="M57 22q0 9 7 16t16 7h46v534h-46q-10 0 -16.5 6t-6.5 15q0 10 7 16.5t16 6.5h446q15 0 19 -5t4 -17v-86q0 -10 -7 -15t-13 -5h-10q-6 0 -13.5 5t-7.5 16v56h-287v-216h204v46q0 11 7.5 16t13.5 5h10q6 0 13 -5t7 -15v-145q0 -10 -7 -15t-13 -5h-10q-6 0 -13.5 5t-7.5 16 v47h-204v-255h293v56q0 11 7.5 16t13.5 5h11q6 0 13 -5t7 -15v-88q0 -10 -7 -15t-13 -5h-456q-10 0 -16.5 6t-6.5 16zM220 783q0 10 18 10h33q5 0 10 -2.5t7 -4.5l2 -2l42 -62q14 -20 14 -25q0 -15 -20 -15q-14 0 -24 10l-74 73q-8 7 -8 18z" />
<glyph unicode="&#xc9;" horiz-adv-x="624" d="M57 22q0 9 7 16t16 7h46v534h-46q-10 0 -16.5 6t-6.5 15q0 10 7 16.5t16 6.5h446q15 0 19 -5t4 -17v-86q0 -10 -7 -15t-13 -5h-10q-6 0 -13.5 5t-7.5 16v56h-287v-216h204v46q0 11 7.5 16t13.5 5h10q6 0 13 -5t7 -15v-145q0 -10 -7 -15t-13 -5h-10q-6 0 -13.5 5t-7.5 16 v47h-204v-255h293v56q0 11 7.5 16t13.5 5h11q6 0 13 -5t7 -15v-88q0 -10 -7 -15t-13 -5h-456q-10 0 -16.5 6t-6.5 16zM275 697q0 5 14 25l43 62q6 9 19 9h32q18 0 18 -10q0 -11 -8 -18l-74 -73q-10 -10 -24 -10q-20 0 -20 15z" />
<glyph unicode="&#xca;" horiz-adv-x="624" d="M57 22q0 9 7 16t16 7h46v534h-46q-10 0 -16.5 6t-6.5 15q0 10 7 16.5t16 6.5h446q15 0 19 -5t4 -17v-86q0 -10 -7 -15t-13 -5h-10q-6 0 -13.5 5t-7.5 16v56h-287v-216h204v46q0 11 7.5 16t13.5 5h10q6 0 13 -5t7 -15v-145q0 -10 -7 -15t-13 -5h-10q-6 0 -13.5 5t-7.5 16 v47h-204v-255h293v56q0 11 7.5 16t13.5 5h11q6 0 13 -5t7 -15v-88q0 -10 -7 -15t-13 -5h-456q-10 0 -16.5 6t-6.5 16zM200 697q0 9 14 25l53 62q7 9 19 9h52q6 0 10.5 -2.5t6.5 -4.5l2 -2l53 -62q14 -16 14 -25q0 -15 -16 -15q-12 0 -23 10l-72 58l-74 -58q-11 -10 -23 -10 q-16 0 -16 15z" />
<glyph unicode="&#xcb;" horiz-adv-x="624" d="M57 22q0 9 7 16t16 7h46v534h-46q-10 0 -16.5 6t-6.5 15q0 10 7 16.5t16 6.5h446q15 0 19 -5t4 -17v-86q0 -10 -7 -15t-13 -5h-10q-6 0 -13.5 5t-7.5 16v56h-287v-216h204v46q0 11 7.5 16t13.5 5h10q6 0 13 -5t7 -15v-145q0 -10 -7 -15t-13 -5h-10q-6 0 -13.5 5t-7.5 16 v47h-204v-255h293v56q0 11 7.5 16t13.5 5h11q6 0 13 -5t7 -15v-88q0 -10 -7 -15t-13 -5h-456q-10 0 -16.5 6t-6.5 16zM182 738q0 20 15 34.5t34 14.5q20 0 34 -14.5t14 -34.5t-14 -34t-34 -14q-21 0 -35 14t-14 34zM345 738q0 20 14.5 34.5t33.5 14.5q20 0 34.5 -14.5 t14.5 -34.5q0 -21 -13.5 -34.5t-35.5 -13.5q-20 0 -34 14t-14 34z" />
<glyph unicode="&#xcc;" horiz-adv-x="338" d="M57 22q0 9 7 16t16 7h46v534h-46q-10 0 -16.5 6t-6.5 15q0 10 7 16.5t16 6.5h177q10 0 16.5 -6t6.5 -16q0 -9 -7 -15.5t-16 -6.5h-46v-534h46q10 0 16.5 -6.5t6.5 -15.5q0 -10 -7 -16.5t-16 -6.5h-177q-10 0 -16.5 6t-6.5 16zM78 783q0 10 18 10h32q6 0 10.5 -2.5 t6.5 -4.5l2 -2l43 -62q13 -18 13 -25q0 -15 -20 -15q-13 0 -23 10l-75 73q-7 7 -7 18z" />
<glyph unicode="&#xcd;" horiz-adv-x="338" d="M57 22q0 9 7 16t16 7h46v534h-46q-10 0 -16.5 6t-6.5 15q0 10 7 16.5t16 6.5h177q10 0 16.5 -6t6.5 -16q0 -9 -7 -15.5t-16 -6.5h-46v-534h46q10 0 16.5 -6.5t6.5 -15.5q0 -10 -7 -16.5t-16 -6.5h-177q-10 0 -16.5 6t-6.5 16zM134 697q0 7 13 25l43 62q7 9 19 9h32 q18 0 18 -10q0 -11 -7 -18l-74 -73q-10 -10 -24 -10q-20 0 -20 15z" />
<glyph unicode="&#xce;" horiz-adv-x="338" d="M57 22q0 9 7 16t16 7h46v534h-46q-10 0 -16.5 6t-6.5 15q0 10 7 16.5t16 6.5h177q10 0 16.5 -6t6.5 -16q0 -9 -7 -15.5t-16 -6.5h-46v-534h46q10 0 16.5 -6.5t6.5 -15.5q0 -10 -7 -16.5t-16 -6.5h-177q-10 0 -16.5 6t-6.5 16zM58 697q0 8 13 25l53 62q7 9 19 9h53 q5 0 10 -2.5t7 -4.5l2 -2l53 -62q13 -15 13 -25q0 -15 -15 -15q-11 0 -24 10l-72 58l-73 -58q-13 -10 -24 -10q-15 0 -15 15z" />
<glyph unicode="&#xcf;" horiz-adv-x="338" d="M40 738q0 20 14.5 34.5t33.5 14.5q20 0 34.5 -14.5t14.5 -34.5t-14 -34t-35 -14q-20 0 -34 14t-14 34zM57 22q0 9 7 16t16 7h46v534h-46q-10 0 -16.5 6t-6.5 15q0 10 7 16.5t16 6.5h177q10 0 16.5 -6t6.5 -16q0 -9 -7 -15.5t-16 -6.5h-46v-534h46q10 0 16.5 -6.5 t6.5 -15.5q0 -10 -7 -16.5t-16 -6.5h-177q-10 0 -16.5 6t-6.5 16zM202 738q0 20 14.5 34.5t34.5 14.5q19 0 33.5 -15t14.5 -34q0 -20 -14 -34t-34 -14q-21 0 -35 14t-14 34z" />
<glyph unicode="&#xd0;" horiz-adv-x="686" d="M47 322v8q0 9 7 15.5t16 6.5h61v227h-48q-10 0 -16.5 6t-6.5 15q0 10 7 16.5t16 6.5h215q156 0 248.5 -79t92.5 -231t-93 -232.5t-248 -80.5h-215q-10 0 -16.5 6t-6.5 16q0 9 7 16t16 7h48v255h-61q-9 0 -16 6.5t-7 15.5zM215 45h77q125 0 188 70t63 198q0 127 -63 196.5 t-188 69.5h-77v-227h117q10 0 16.5 -6t6.5 -15v-8q0 -9 -7 -16t-16 -7h-117v-255z" />
<glyph unicode="&#xd1;" horiz-adv-x="748" d="M52 22q0 9 7.5 16t15.5 7h50v534h-50q-9 0 -16 6t-7 15t7 16t16 7h116q3 0 5.5 -0.5t4.5 -1.5t4 -3t3 -3.5t3.5 -4.5t3.5 -5l360 -473v447h-50q-8 0 -15 6.5t-7 15.5q0 10 6.5 16t15.5 6h152q9 0 16 -6.5t7 -16.5q0 -9 -6.5 -15t-16.5 -6h-51v-570q0 -21 -23 -21h-15 q-7 0 -12.5 3.5t-7.5 6.5l-3 4l-388 511v-468h51q9 0 16 -6.5t7 -15.5t-7 -16t-16 -7h-153q-9 0 -16 6.5t-7 15.5zM239 720q0 25 22.5 46.5t54.5 21.5q26 0 64 -21.5t54 -21.5q15 0 25 9t12 22q1 12 19 12q8 0 14 -7t6 -17q0 -25 -23 -46.5t-55 -21.5q-29 0 -65.5 21.5 t-49.5 21.5q-15 0 -25.5 -9.5t-12.5 -21.5q-3 -12 -20 -12q-8 0 -14 7t-6 17z" />
<glyph unicode="&#xd2;" horiz-adv-x="701" d="M48 311q0 140 82 232t221 92q140 0 221.5 -91t81.5 -233q0 -139 -83 -231t-220 -92q-138 0 -220.5 92t-82.5 231zM143 311q0 -279 208 -279q48 0 85 16t59.5 42t37 63t20 75t5.5 83q0 56 -9.5 102.5t-31.5 88t-64.5 65t-101.5 23.5q-208 0 -208 -279zM258 783q0 10 18 10 h33q5 0 10 -2.5t7 -4.5l2 -2l42 -62q14 -20 14 -25q0 -15 -20 -15q-14 0 -24 10l-74 73q-8 7 -8 18z" />
<glyph unicode="&#xd3;" horiz-adv-x="701" d="M48 311q0 140 82 232t221 92q140 0 221.5 -91t81.5 -233q0 -139 -83 -231t-220 -92q-138 0 -220.5 92t-82.5 231zM143 311q0 -279 208 -279q48 0 85 16t59.5 42t37 63t20 75t5.5 83q0 56 -9.5 102.5t-31.5 88t-64.5 65t-101.5 23.5q-208 0 -208 -279zM314 697q0 5 14 25 l42 62q7 9 19 9h33q18 0 18 -10q0 -11 -8 -18l-74 -73q-10 -10 -24 -10q-20 0 -20 15z" />
<glyph unicode="&#xd4;" horiz-adv-x="701" d="M48 311q0 140 82 232t221 92q140 0 221.5 -91t81.5 -233q0 -139 -83 -231t-220 -92q-138 0 -220.5 92t-82.5 231zM143 311q0 -279 208 -279q48 0 85 16t59.5 42t37 63t20 75t5.5 83q0 56 -9.5 102.5t-31.5 88t-64.5 65t-101.5 23.5q-208 0 -208 -279zM240 697q0 8 13 25 l53 62q7 9 19 9h53q5 0 10 -2.5t7 -4.5l2 -2l53 -62q13 -15 13 -25q0 -15 -15 -15q-11 0 -24 10l-72 58l-73 -58q-13 -10 -24 -10q-15 0 -15 15z" />
<glyph unicode="&#xd5;" horiz-adv-x="701" d="M48 311q0 140 82 232t221 92q140 0 221.5 -91t81.5 -233q0 -139 -83 -231t-220 -92q-138 0 -220.5 92t-82.5 231zM143 311q0 -279 208 -279q48 0 85 16t59.5 42t37 63t20 75t5.5 83q0 56 -9.5 102.5t-31.5 88t-64.5 65t-101.5 23.5q-208 0 -208 -279zM217 720 q1 25 23 46.5t53 21.5q27 0 65 -21.5t54 -21.5q15 0 24.5 9t11.5 22q2 12 20 12q8 0 14 -7t6 -17q-1 -25 -23.5 -46.5t-55.5 -21.5q-28 0 -64.5 21.5t-50.5 21.5t-25 -9t-13 -22q-1 -12 -19 -12q-8 0 -14 7t-6 17z" />
<glyph unicode="&#xd6;" horiz-adv-x="701" d="M48 311q0 140 82 232t221 92q140 0 221.5 -91t81.5 -233q0 -139 -83 -231t-220 -92q-138 0 -220.5 92t-82.5 231zM143 311q0 -279 208 -279q48 0 85 16t59.5 42t37 63t20 75t5.5 83q0 56 -9.5 102.5t-31.5 88t-64.5 65t-101.5 23.5q-208 0 -208 -279zM220 738 q0 20 15 34.5t34 14.5q20 0 34.5 -14.5t14.5 -34.5q0 -21 -14 -34.5t-35 -13.5t-35 14t-14 34zM383 738q0 20 14.5 34.5t34.5 14.5t34.5 -14.5t14.5 -34.5t-14 -34t-35 -14t-35 13.5t-14 34.5z" />
<glyph unicode="&#xd7;" horiz-adv-x="293" d="M30 321l51 50l66 -71l66 71l49 -50l-70 -65l71 -67l-51 -51l-66 72l-66 -71l-49 49l71 66z" />
<glyph unicode="&#xd8;" horiz-adv-x="701" d="M48 311q0 140 82 232t221 92q119 0 200 -70l58 64q15 17 31.5 3t1.5 -32l-60 -67q72 -87 72 -222q0 -139 -83 -231t-220 -92q-120 0 -200 72l-61 -68q-6 -7 -15 -7.5t-16 5.5t-7.5 16t5.5 16l63 70q-72 89 -72 219zM143 311q0 -97 28 -164l336 370q-53 73 -156 73 q-208 0 -208 -279zM193 106q53 -74 158 -74q48 0 85 16t59.5 42t37 63t20 75t5.5 83q0 96 -28 165z" />
<glyph unicode="&#xd9;" horiz-adv-x="720" d="M49 600q0 9 7 16t16 7h180q9 0 16 -6.5t7 -15.5t-7 -15.5t-16 -6.5h-48v-323q0 -109 35.5 -161t138.5 -52t138.5 52.5t35.5 160.5v323h-48q-8 0 -15 6.5t-7 15.5q0 10 6.5 16t15.5 6h146q9 0 16 -7t7 -16t-7 -15t-16 -6h-47v-331q0 -137 -53 -198.5t-188 -61.5t-188.5 61 t-53.5 199v331h-48q-9 0 -16 6t-7 15zM286 783q0 10 18 10h32q6 0 10.5 -2.5t6.5 -4.5l2 -2l43 -62q13 -18 13 -25q0 -15 -20 -15q-13 0 -23 10l-74 73q-8 7 -8 18z" />
<glyph unicode="&#xda;" horiz-adv-x="720" d="M49 600q0 9 7 16t16 7h180q9 0 16 -6.5t7 -15.5t-7 -15.5t-16 -6.5h-48v-323q0 -109 35.5 -161t138.5 -52t138.5 52.5t35.5 160.5v323h-48q-8 0 -15 6.5t-7 15.5q0 10 6.5 16t15.5 6h146q9 0 16 -7t7 -16t-7 -15t-16 -6h-47v-331q0 -137 -53 -198.5t-188 -61.5t-188.5 61 t-53.5 199v331h-48q-9 0 -16 6t-7 15zM341 697q0 7 13 25l43 62q7 9 19 9h32q18 0 18 -10q0 -12 -7 -18l-74 -73q-10 -10 -24 -10q-20 0 -20 15z" />
<glyph unicode="&#xdb;" horiz-adv-x="720" d="M49 600q0 9 7 16t16 7h180q9 0 16 -6.5t7 -15.5t-7 -15.5t-16 -6.5h-48v-323q0 -109 35.5 -161t138.5 -52t138.5 52.5t35.5 160.5v323h-48q-8 0 -15 6.5t-7 15.5q0 10 6.5 16t15.5 6h146q9 0 16 -7t7 -16t-7 -15t-16 -6h-47v-331q0 -137 -53 -198.5t-188 -61.5t-188.5 61 t-53.5 199v331h-48q-9 0 -16 6t-7 15zM264 697q0 10 13 25l53 62q7 9 19 9h52q6 0 10.5 -2.5t6.5 -4.5l2 -2l54 -62q13 -18 13 -25q0 -15 -15 -15q-13 0 -24 10l-72 58l-73 -58q-13 -10 -24 -10q-15 0 -15 15z" />
<glyph unicode="&#xdc;" horiz-adv-x="720" d="M49 600q0 9 7 16t16 7h180q9 0 16 -6.5t7 -15.5t-7 -15.5t-16 -6.5h-48v-323q0 -109 35.5 -161t138.5 -52t138.5 52.5t35.5 160.5v323h-48q-8 0 -15 6.5t-7 15.5q0 10 6.5 16t15.5 6h146q9 0 16 -7t7 -16t-7 -15t-16 -6h-47v-331q0 -137 -53 -198.5t-188 -61.5t-188.5 61 t-53.5 199v331h-48q-9 0 -16 6t-7 15zM247 738q0 19 14.5 34t33.5 15q20 0 35 -14.5t15 -34.5q0 -21 -14 -34.5t-36 -13.5q-20 0 -34 14t-14 34zM409 738q0 20 15 34.5t35 14.5q19 0 33 -14.5t14 -34.5q0 -21 -13 -34.5t-34 -13.5q-22 0 -36 13.5t-14 34.5z" />
<glyph unicode="&#xdd;" horiz-adv-x="564" d="M0 600q0 10 7 16.5t16 6.5h167q9 0 16 -6.5t7 -15.5t-7 -15.5t-16 -6.5h-41l156 -252l156 252h-38q-9 0 -16 6.5t-7 15.5q0 10 6.5 16t16.5 6h117q8 0 15 -6.5t7 -16.5q0 -9 -6.5 -15t-15.5 -6h-27l-187 -303v-231h47q10 0 16.5 -6.5t6.5 -15.5q0 -10 -7 -16.5t-16 -6.5 h-179q-10 0 -16.5 6t-6.5 16q0 9 7 16t16 7h47v224l-193 310h-25q-10 0 -16.5 6t-6.5 15zM246 697q0 7 13 25l43 62q7 9 19 9h32q18 0 18 -10q0 -12 -7 -18l-74 -73q-10 -10 -24 -10q-20 0 -20 15z" />
<glyph unicode="&#xde;" horiz-adv-x="578" d="M63 22q0 9 7 16t15 7h41v534h-41q-8 0 -15 6.5t-7 15.5q0 10 6.5 16t15.5 6h187q9 0 16 -6.5t7 -16.5q0 -9 -6.5 -15.5t-16.5 -6.5l-61 1v-92q13 0 53.5 1.5t63 0.5t56 -4.5t59.5 -15t47 -29.5q54 -48 54 -127q0 -82 -54 -130q-21 -18 -47 -29t-60 -15t-56 -4.5t-63 0.5 t-53 1v-92h61q9 0 16 -6t7 -15q0 -10 -7 -16.5t-16 -6.5h-187q-9 0 -15.5 6t-6.5 16zM211 181h110q127 0 127 132q0 130 -127 130h-110v-262z" />
<glyph unicode="&#xdf;" horiz-adv-x="571" d="M35 23q0 9 7 15.5t16 6.5h40l1 450q0 79 50.5 117t131.5 38q164 0 185 -151q1 -4 0 -9.5t-4.5 -10.5t-9.5 -5q-49 0 -86 -19.5t-37 -64.5q0 -22 15 -41t38 -32.5t49.5 -31.5t49.5 -36t38 -48t15 -66q0 -70 -51 -108.5t-123 -38.5t-126 25q-12 6 -12 20v60q0 22 18 22h11 q14 0 18 -22q14 -64 88 -64q45 0 72.5 24.5t27.5 69.5q0 36 -20.5 63t-49.5 44.5t-58.5 35.5t-50 45.5t-20.5 63.5q0 55 38.5 88.5t95.5 41.5q-3 50 -32 77t-79 27q-56 0 -80.5 -27.5t-24.5 -84.5v-475q0 -9 -7 -15.5t-16 -6.5h-95q-9 0 -16 7t-7 16z" />
<glyph unicode="&#xe0;" horiz-adv-x="510" d="M43 133q0 24 5.5 43.5t14 34t24 25.5t28 18t35 12t36.5 7.5t40.5 3.5t39 1.5t39 0t35.5 -0.5v31q0 52 -31.5 78.5t-85.5 26.5q-83 0 -102 -67q-6 -15 -15 -15h-14q-5 0 -9 3.5t-5 6.5l-1 4v62q0 14 16 20q71 28 135 28q91 0 140 -44.5t49 -134.5v-232h36q9 0 16 -7t7 -16 t-7 -15.5t-16 -6.5h-90q-9 0 -16 6.5t-7 15.5v26q-50 -60 -137 -60q-71 0 -115.5 37.5t-44.5 107.5zM112 673q0 10 18 10h33q6 0 10.5 -2.5t6.5 -4.5l2 -2l75 -108q14 -17 14 -25q0 -15 -20 -15q-15 0 -24 10l-107 119q-8 8 -8 18zM128 133q0 -48 28.5 -74.5t77.5 -26.5 q48 0 77 29.5t29 78.5v94h-99q-113 0 -113 -101z" />
<glyph unicode="&#xe1;" horiz-adv-x="510" d="M43 133q0 24 5.5 43.5t14 34t24 25.5t28 18t35 12t36.5 7.5t40.5 3.5t39 1.5t39 0t35.5 -0.5v31q0 52 -31.5 78.5t-85.5 26.5q-83 0 -102 -67q-6 -15 -15 -15h-14q-5 0 -9 3.5t-5 6.5l-1 4v62q0 14 16 20q71 28 135 28q91 0 140 -44.5t49 -134.5v-232h36q9 0 16 -7t7 -16 t-7 -15.5t-16 -6.5h-90q-9 0 -16 6.5t-7 15.5v26q-50 -60 -137 -60q-71 0 -115.5 37.5t-44.5 107.5zM128 133q0 -48 28.5 -74.5t77.5 -26.5q48 0 77 29.5t29 78.5v94h-99q-113 0 -113 -101zM201 541q0 8 14 25l75 108q6 9 19 9h33q18 0 18 -10t-8 -18l-107 -119 q-9 -10 -24 -10q-20 0 -20 15z" />
<glyph unicode="&#xe2;" horiz-adv-x="510" d="M43 133q0 24 5.5 43.5t14 34t24 25.5t28 18t35 12t36.5 7.5t40.5 3.5t39 1.5t39 0t35.5 -0.5v31q0 52 -31.5 78.5t-85.5 26.5q-83 0 -102 -67q-6 -15 -15 -15h-14q-5 0 -9 3.5t-5 6.5l-1 4v62q0 14 16 20q71 28 135 28q91 0 140 -44.5t49 -134.5v-232h36q9 0 16 -7t7 -16 t-7 -15.5t-16 -6.5h-90q-9 0 -16 6.5t-7 15.5v26q-50 -60 -137 -60q-71 0 -115.5 37.5t-44.5 107.5zM115 542q0 5 14 25l68 108q6 9 19 9h43q6 0 10.5 -2t6.5 -4l2 -3l68 -108q14 -20 14 -25q0 -15 -20 -15q-17 0 -24 9l-79 100l-77 -101q-7 -8 -25 -8q-20 0 -20 15z M128 133q0 -48 28.5 -74.5t77.5 -26.5q48 0 77 29.5t29 78.5v94h-99q-113 0 -113 -101z" />
<glyph unicode="&#xe3;" horiz-adv-x="510" d="M43 133q0 24 5.5 43.5t14 34t24 25.5t28 18t35 12t36.5 7.5t40.5 3.5t39 1.5t39 0t35.5 -0.5v31q0 52 -31.5 78.5t-85.5 26.5q-83 0 -102 -67q-6 -15 -15 -15h-14q-5 0 -9 3.5t-5 6.5l-1 4v62q0 14 16 20q71 28 135 28q91 0 140 -44.5t49 -134.5v-232h36q9 0 16 -7t7 -16 t-7 -15.5t-16 -6.5h-90q-9 0 -16 6.5t-7 15.5v26q-50 -60 -137 -60q-71 0 -115.5 37.5t-44.5 107.5zM101 567q0 36 21 66.5t59 30.5q31 0 64 -32.5t50 -32.5q29 0 38 47q3 18 19 18q9 0 15.5 -6t6.5 -15q0 -36 -21.5 -66.5t-59.5 -30.5q-25 0 -45 16t-36.5 32.5t-31.5 16.5 q-30 0 -38 -47q-3 -18 -19 -18q-9 0 -15.5 6t-6.5 15zM128 133q0 -48 28.5 -74.5t77.5 -26.5q48 0 77 29.5t29 78.5v94h-99q-113 0 -113 -101z" />
<glyph unicode="&#xe4;" horiz-adv-x="510" d="M43 133q0 24 5.5 43.5t14 34t24 25.5t28 18t35 12t36.5 7.5t40.5 3.5t39 1.5t39 0t35.5 -0.5v31q0 52 -31.5 78.5t-85.5 26.5q-83 0 -102 -67q-6 -15 -15 -15h-14q-5 0 -9 3.5t-5 6.5l-1 4v62q0 14 16 20q71 28 135 28q91 0 140 -44.5t49 -134.5v-232h36q9 0 16 -7t7 -16 t-7 -15.5t-16 -6.5h-90q-9 0 -16 6.5t-7 15.5v26q-50 -60 -137 -60q-71 0 -115.5 37.5t-44.5 107.5zM107 606q0 20 14.5 34.5t34.5 14.5t34.5 -14t14.5 -35q0 -22 -13.5 -35t-35.5 -13q-21 0 -35 14t-14 34zM128 133q0 -48 28.5 -74.5t77.5 -26.5q48 0 77 29.5t29 78.5v94 h-99q-113 0 -113 -101zM270 606q0 20 14.5 34.5t34.5 14.5t34.5 -14.5t14.5 -34.5t-14 -34t-35 -14q-22 0 -35.5 13t-13.5 35z" />
<glyph unicode="&#xe5;" horiz-adv-x="510" d="M43 133q0 24 5.5 43.5t14 34t24 25.5t28 18t35 12t36.5 7.5t40.5 3.5t39 1.5t39 0t35.5 -0.5v31q0 52 -31.5 78.5t-85.5 26.5q-83 0 -102 -67q-6 -15 -15 -15h-14q-5 0 -9 3.5t-5 6.5l-1 4v62q0 14 16 20q71 28 135 28q91 0 140 -44.5t49 -134.5v-232h36q9 0 16 -7t7 -16 t-7 -15.5t-16 -6.5h-90q-9 0 -16 6.5t-7 15.5v26q-50 -60 -137 -60q-71 0 -115.5 37.5t-44.5 107.5zM123 636q0 49 33 81.5t81 32.5q49 0 81.5 -32.5t32.5 -81.5q0 -48 -32.5 -81t-81.5 -33q-48 0 -81 33t-33 81zM128 133q0 -48 28.5 -74.5t77.5 -26.5q48 0 77 29.5t29 78.5 v94h-99q-113 0 -113 -101zM174 636q0 -28 17.5 -45.5t45.5 -17.5t46 17.5t18 45.5q0 27 -18.5 45t-45.5 18q-28 0 -45.5 -17.5t-17.5 -45.5z" />
<glyph unicode="&#xe6;" horiz-adv-x="804" d="M43 133q0 24 5.5 43.5t14 34t24 25.5t28 18t35 12t36.5 7.5t40.5 3.5t39 1.5t39 0t35.5 -0.5v31q0 52 -30 78.5t-83 26.5q-87 0 -106 -67q-6 -15 -15 -15h-14q-15 0 -15 14v62q0 14 16 20q71 28 135 28q118 0 162 -74q63 74 160 74q101 0 152.5 -59t57.5 -160 q0 -23 -23 -23h-307v-4q0 -181 133 -181q93 0 123 90q6 16 23 16h16q12 0 17.5 -9.5t1.5 -17.5q-46 -120 -189 -120q-103 0 -169 75q-69 -75 -171 -75q-77 0 -124.5 35.5t-47.5 109.5zM128 133q0 -48 28.5 -74.5t77.5 -26.5q48 0 77 29.5t29 78.5v94h-99q-113 0 -113 -101z M430 258h241q-6 156 -120 156q-41 0 -68.5 -24.5t-38.5 -57.5t-14 -74z" />
<glyph unicode="&#xe7;" horiz-adv-x="479" d="M43 222q0 103 56.5 168.5t157.5 65.5q78 0 152 -33q5 -2 10.5 -8.5t5.5 -13.5v-83q0 -5 -4.5 -10t-10.5 -5h-16q-13 0 -17 15q-19 96 -119 96q-126 0 -126 -192q0 -193 126 -193q89 0 116 88q1 5 7 10.5t14 5.5h16q14 0 18.5 -10t1.5 -19q-36 -99 -138 -114 q44 -48 44 -84q0 -39 -29 -55.5t-72 -16.5q-73 0 -73 32q0 21 27 23q7 0 20 -1.5t18 -1.5q51 2 52 41q0 22 -28 61q-98 1 -153.5 67.5t-55.5 166.5z" />
<glyph unicode="&#xe8;" horiz-adv-x="506" d="M43 222q0 101 55.5 167.5t154.5 66.5q101 0 152.5 -59t57.5 -160q0 -23 -23 -23h-308v-4q0 -78 30.5 -129.5t103.5 -51.5q93 0 123 90q6 16 23 16h16q12 0 17.5 -9.5t1.5 -17.5q-46 -120 -189 -120q-101 0 -158 66t-57 168zM130 673q0 10 18 10h33q5 0 10 -2.5t7 -4.5 l2 -2l75 -108q13 -16 13 -25q0 -15 -20 -15q-13 0 -23 10l-108 119q-7 8 -7 18zM132 258h240q-4 156 -119 156q-104 0 -121 -156z" />
<glyph unicode="&#xe9;" horiz-adv-x="506" d="M43 222q0 101 55.5 167.5t154.5 66.5q101 0 152.5 -59t57.5 -160q0 -23 -23 -23h-308v-4q0 -78 30.5 -129.5t103.5 -51.5q93 0 123 90q6 16 23 16h16q12 0 17.5 -9.5t1.5 -17.5q-46 -120 -189 -120q-101 0 -158 66t-57 168zM132 258h240q-4 156 -119 156 q-104 0 -121 -156zM216 541q0 5 13 25l75 108q7 9 19 9h33q18 0 18 -10t-7 -18l-108 -119q-10 -10 -23 -10q-20 0 -20 15z" />
<glyph unicode="&#xea;" horiz-adv-x="506" d="M43 222q0 101 55.5 167.5t154.5 66.5q101 0 152.5 -59t57.5 -160q0 -23 -23 -23h-308v-4q0 -78 30.5 -129.5t103.5 -51.5q93 0 123 90q6 16 23 16h16q12 0 17.5 -9.5t1.5 -17.5q-46 -120 -189 -120q-101 0 -158 66t-57 168zM131 542q0 2 13 25l68 108q7 9 19 9h44 q5 0 10 -2t7 -4l2 -3l68 -108q13 -23 13 -25q0 -15 -20 -15q-17 0 -24 9l-78 100l-78 -101q-7 -8 -24 -8q-20 0 -20 15zM132 258h240q-4 156 -119 156q-104 0 -121 -156z" />
<glyph unicode="&#xeb;" horiz-adv-x="506" d="M43 222q0 101 55.5 167.5t154.5 66.5q101 0 152.5 -59t57.5 -160q0 -23 -23 -23h-308v-4q0 -78 30.5 -129.5t103.5 -51.5q93 0 123 90q6 16 23 16h16q12 0 17.5 -9.5t1.5 -17.5q-46 -120 -189 -120q-101 0 -158 66t-57 168zM123 606q0 20 14.5 34.5t34.5 14.5t34 -14.5 t14 -34.5q0 -22 -13 -35t-35 -13t-35.5 13.5t-13.5 34.5zM132 258h240q-4 156 -119 156q-104 0 -121 -156zM286 606q0 20 14 34.5t34 14.5t34.5 -14.5t14.5 -34.5q0 -21 -13.5 -34.5t-35.5 -13.5t-35 13t-13 35z" />
<glyph unicode="&#xec;" horiz-adv-x="274" d="M12 673q0 10 18 10h34q5 0 10 -2.5t7 -4.5l2 -2l75 -108q13 -20 13 -25q0 -15 -20 -15q-15 0 -24 10l-107 119q-8 9 -8 18zM41 22q0 9 7 16t16 7h40v354h-40q-10 0 -16.5 6t-6.5 16q0 9 7 16t16 7h95q9 0 15.5 -6.5t6.5 -15.5v-377h40q10 0 16.5 -6.5t6.5 -15.5 q0 -10 -7 -16.5t-16 -6.5h-157q-10 0 -16.5 6t-6.5 16z" />
<glyph unicode="&#xed;" horiz-adv-x="274" d="M41 22q0 9 7 16t16 7h40v354h-40q-10 0 -16.5 6t-6.5 16q0 9 7 16t16 7h95q9 0 15.5 -6.5t6.5 -15.5v-377h40q10 0 16.5 -6.5t6.5 -15.5q0 -10 -7 -16.5t-16 -6.5h-157q-10 0 -16.5 6t-6.5 16zM102 541q0 9 13 25l75 108q7 9 19 9h33q18 0 18 -10t-7 -18l-108 -119 q-10 -10 -23 -10q-20 0 -20 15z" />
<glyph unicode="&#xee;" horiz-adv-x="274" d="M15 542q0 5 14 25l67 108q7 9 19 9h44q6 0 10.5 -2t6.5 -4l2 -3l68 -108q13 -23 13 -25q0 -15 -20 -15q-16 0 -23 9l-79 100l-78 -101q-5 -8 -24 -8q-20 0 -20 15zM41 22q0 9 7 16t16 7h40v354h-40q-10 0 -16.5 6t-6.5 16q0 9 7 16t16 7h95q9 0 15.5 -6.5t6.5 -15.5v-377 h40q10 0 16.5 -6.5t6.5 -15.5q0 -10 -7 -16.5t-16 -6.5h-157q-10 0 -16.5 6t-6.5 16z" />
<glyph unicode="&#xef;" horiz-adv-x="274" d="M7 606q0 20 14 34.5t34 14.5q21 0 35 -14t14 -35q0 -22 -13.5 -35t-35.5 -13q-20 0 -34 14t-14 34zM41 22q0 9 7 16t16 7h40v354h-40q-10 0 -16.5 6t-6.5 16q0 9 7 16t16 7h95q9 0 15.5 -6.5t6.5 -15.5v-377h40q10 0 16.5 -6.5t6.5 -15.5q0 -10 -7 -16.5t-16 -6.5h-157 q-10 0 -16.5 6t-6.5 16zM169 606q0 20 14.5 34.5t34.5 14.5t34.5 -14.5t14.5 -34.5q0 -21 -13.5 -34.5t-35.5 -13.5t-35.5 13t-13.5 35z" />
<glyph unicode="&#xf0;" horiz-adv-x="515" d="M43 217q0 98 57.5 158.5t155.5 60.5q21 0 67 -6q-18 43 -61 90l-116 -54q-4 -2 -13 -2q-6 0 -11 5.5t-5 9.5q2 13 9 17l109 50q-45 42 -111 63q-16 3 -16 19q-1 11 8.5 14.5t16.5 1.5q88 -24 154 -73l116 54q6 2 14 2q5 0 10 -5.5t5 -9.5q-2 -14 -9 -17l-106 -50 q155 -140 155 -323q0 -102 -57 -168t-158 -66q-98 0 -156 64t-58 165zM132 212q0 -47 9.5 -85t39 -68t76.5 -30q48 0 77.5 30.5t38.5 69t9 85.5q0 95 -39 174q-40 7 -69 7q-142 0 -142 -183z" />
<glyph unicode="&#xf1;" horiz-adv-x="551" d="M41 421q0 9 7 16t16 7h95q9 0 15.5 -6.5t6.5 -15.5v-57q43 91 134 91q79 0 111.5 -46t32.5 -128v-237h37q9 0 16 -6.5t7 -15.5t-7 -16t-16 -7h-149q-10 0 -16.5 6t-6.5 16q0 9 7 16t16 7h34v217q0 32 -2.5 52t-10.5 42t-27.5 33t-49.5 11q-110 0 -110 -153v-202h36 q9 0 15.5 -6.5t6.5 -15.5t-6.5 -16t-15.5 -7h-150q-9 0 -15.5 6t-6.5 16q0 9 7 16t15 7h37v354h-40q-10 0 -16.5 6t-6.5 16zM138 567q0 36 21 66.5t59 30.5q20 0 37 -10t27.5 -22.5t24 -22.5t25.5 -10q29 0 38 47q3 18 19 18q9 0 15.5 -6t6.5 -15q0 -36 -21 -66.5t-59 -30.5 q-25 0 -45 16t-36.5 32.5t-31.5 16.5q-32 0 -38 -47q-6 -18 -20 -18q-9 0 -15.5 6t-6.5 15z" />
<glyph unicode="&#xf2;" horiz-adv-x="515" d="M43 222q0 103 56.5 168.5t157.5 65.5t158 -66t57 -168t-57 -168t-158 -66q-100 0 -157 66t-57 168zM132 222q0 -193 125 -193t125 193q0 192 -125 192t-125 -192zM132 673q0 10 18 10h33q6 0 10.5 -2.5t6.5 -4.5l2 -2l75 -108q14 -17 14 -25q0 -15 -20 -15q-15 0 -24 10 l-107 119q-8 8 -8 18z" />
<glyph unicode="&#xf3;" horiz-adv-x="515" d="M43 222q0 103 56.5 168.5t157.5 65.5t158 -66t57 -168t-57 -168t-158 -66q-100 0 -157 66t-57 168zM132 222q0 -193 125 -193t125 193q0 192 -125 192t-125 -192zM220 541q0 8 14 25l75 108q6 9 19 9h33q18 0 18 -10t-8 -18l-107 -119q-9 -10 -24 -10q-20 0 -20 15z" />
<glyph unicode="&#xf4;" horiz-adv-x="515" d="M43 222q0 103 56.5 168.5t157.5 65.5t158 -66t57 -168t-57 -168t-158 -66q-100 0 -157 66t-57 168zM132 222q0 -193 125 -193t125 193q0 192 -125 192t-125 -192zM135 542q0 5 14 25l68 108q6 9 19 9h43q6 0 10.5 -2t6.5 -4l2 -3l68 -108q13 -23 13 -25q0 -15 -20 -15 q-16 0 -23 9l-79 100l-78 -101q-5 -8 -24 -8q-20 0 -20 15z" />
<glyph unicode="&#xf5;" horiz-adv-x="515" d="M43 222q0 103 56.5 168.5t157.5 65.5t158 -66t57 -168t-57 -168t-158 -66q-100 0 -157 66t-57 168zM122 567q0 36 21 66.5t59 30.5q20 0 37 -10t27.5 -22.5t24 -22.5t25.5 -10q29 0 38 47q3 18 19 18q9 0 15.5 -6t6.5 -15q0 -36 -21 -66.5t-60 -30.5q-32 0 -64 32.5 t-49 32.5q-30 0 -38 -47q-3 -18 -19 -18q-9 0 -15.5 6t-6.5 15zM132 222q0 -193 125 -193t125 193q0 192 -125 192t-125 -192z" />
<glyph unicode="&#xf6;" horiz-adv-x="515" d="M43 222q0 103 56.5 168.5t157.5 65.5t158 -66t57 -168t-57 -168t-158 -66q-100 0 -157 66t-57 168zM127 606q0 20 14.5 34.5t34.5 14.5t34 -14.5t14 -34.5q0 -22 -13 -35t-35 -13t-35.5 13.5t-13.5 34.5zM132 222q0 -193 125 -193t125 193q0 192 -125 192t-125 -192z M290 606q0 20 14 34.5t34 14.5t34.5 -14.5t14.5 -34.5q0 -21 -13.5 -34.5t-35.5 -13.5t-35 13t-13 35z" />
<glyph unicode="&#xf7;" horiz-adv-x="428" d="M30 233v42l8 10h352l8 -10v-42l-8 -9h-352zM175 103v59l8 10h62l8 -10v-59l-8 -10h-62zM175 346v60l8 9h62l8 -9v-60l-8 -9h-62z" />
<glyph unicode="&#xf8;" horiz-adv-x="515" d="M40.5 -10.5q-0.5 9.5 4.5 16.5l48 56q-50 64 -50 160q0 67 24 119.5t73 83.5t117 31q78 0 132 -41l44 52q9 11 21.5 8t16.5 -14t-4 -22l-46 -55q51 -65 51 -162q0 -102 -57 -168t-158 -66q-79 0 -133 43l-45 -54q-6 -7 -15 -8t-16 5t-7.5 15.5zM132 222q0 -56 12 -99 l205 245q-30 46 -92 46q-125 0 -125 -192zM164 78q32 -49 93 -49q125 0 125 193q0 58 -12 101z" />
<glyph unicode="&#xf9;" horiz-adv-x="551" d="M32 421q0 9 7.5 16t15.5 7h92q10 0 16.5 -6.5t6.5 -15.5v-241q0 -31 2.5 -51t10.5 -42t27.5 -33t49.5 -11q110 0 110 153v202h-35q-9 0 -15.5 6t-6.5 16q0 9 7 16t15 7h89q9 0 15.5 -6.5t6.5 -15.5v-377h41q10 0 16.5 -6.5t6.5 -15.5q0 -10 -7 -16.5t-16 -6.5h-95 q-9 0 -15.5 6t-6.5 16v57q-43 -91 -134 -91q-144 0 -144 173v238h-37q-9 0 -16 6.5t-7 15.5zM120 673q0 10 18 10h33q5 0 10 -2.5t7 -4.5l2 -2l75 -108q13 -16 13 -25q0 -15 -20 -15q-13 0 -23 10l-108 119q-7 8 -7 18z" />
<glyph unicode="&#xfa;" horiz-adv-x="551" d="M32 421q0 9 7.5 16t15.5 7h92q10 0 16.5 -6.5t6.5 -15.5v-241q0 -31 2.5 -51t10.5 -42t27.5 -33t49.5 -11q110 0 110 153v202h-35q-9 0 -15.5 6t-6.5 16q0 9 7 16t15 7h89q9 0 15.5 -6.5t6.5 -15.5v-377h41q10 0 16.5 -6.5t6.5 -15.5q0 -10 -7 -16.5t-16 -6.5h-95 q-9 0 -15.5 6t-6.5 16v57q-43 -91 -134 -91q-144 0 -144 173v238h-37q-9 0 -16 6.5t-7 15.5zM207 541q0 5 13 25l75 108q7 9 19 9h34q18 0 18 -10q0 -9 -8 -18l-107 -119q-9 -10 -24 -10q-20 0 -20 15z" />
<glyph unicode="&#xfb;" horiz-adv-x="551" d="M32 421q0 9 7.5 16t15.5 7h92q10 0 16.5 -6.5t6.5 -15.5v-241q0 -31 2.5 -51t10.5 -42t27.5 -33t49.5 -11q110 0 110 153v202h-35q-9 0 -15.5 6t-6.5 16q0 9 7 16t15 7h89q9 0 15.5 -6.5t6.5 -15.5v-377h41q10 0 16.5 -6.5t6.5 -15.5q0 -10 -7 -16.5t-16 -6.5h-95 q-9 0 -15.5 6t-6.5 16v57q-43 -91 -134 -91q-144 0 -144 173v238h-37q-9 0 -16 6.5t-7 15.5zM121 542q0 2 13 25l68 108q6 9 19 9h44q5 0 10 -2t7 -4l2 -3l67 -108q14 -20 14 -25q0 -15 -20 -15q-17 0 -24 9l-78 100l-78 -101q-7 -8 -24 -8q-20 0 -20 15z" />
<glyph unicode="&#xfc;" horiz-adv-x="551" d="M32 421q0 9 7.5 16t15.5 7h92q10 0 16.5 -6.5t6.5 -15.5v-241q0 -31 2.5 -51t10.5 -42t27.5 -33t49.5 -11q110 0 110 153v202h-35q-9 0 -15.5 6t-6.5 16q0 9 7 16t15 7h89q9 0 15.5 -6.5t6.5 -15.5v-377h41q10 0 16.5 -6.5t6.5 -15.5q0 -10 -7 -16.5t-16 -6.5h-95 q-9 0 -15.5 6t-6.5 16v57q-43 -91 -134 -91q-144 0 -144 173v238h-37q-9 0 -16 6.5t-7 15.5zM114 606q0 20 14 34.5t34 14.5t34.5 -14.5t14.5 -34.5q0 -22 -13.5 -35t-35.5 -13q-21 0 -34.5 13.5t-13.5 34.5zM276 606q0 20 14.5 34.5t34.5 14.5t34 -14.5t14 -34.5 q0 -21 -13.5 -34.5t-34.5 -13.5q-22 0 -35.5 13t-13.5 35z" />
<glyph unicode="&#xfd;" horiz-adv-x="483" d="M7 421q0 9 7 16t15 7h141q9 0 16 -6.5t7 -15.5t-7 -16t-16 -7h-39l125 -305l124 305h-34q-9 0 -16 6.5t-7 16.5q0 9 6.5 15.5t16.5 6.5h103q9 0 16 -7t7 -16q0 -10 -6.5 -16t-16.5 -6h-18l-203 -499q-19 -48 -44 -69t-75 -21q-37 0 -65 9q-5 1 -10.5 7t-5.5 13v52 q0 17 13 17h11q12 0 16 -16q9 -37 50 -37q30 0 43 19q9 12 17 28.5t13 28.5t12.5 32.5t10.5 28.5l-166 407h-19q-9 0 -15.5 6t-6.5 16zM204 541q0 8 14 25l75 108q6 9 19 9h33q18 0 18 -10t-8 -18l-107 -119q-9 -10 -24 -10q-20 0 -20 15z" />
<glyph unicode="&#xfe;" horiz-adv-x="547" d="M34 -156q0 9 7 16t16 7h42v738h-42q-9 0 -16 6.5t-7 16.5q0 9 7 15.5t16 6.5h96q9 0 16 -6.5t7 -15.5v-254q44 82 143 82q90 0 137.5 -69.5t47.5 -164.5q0 -60 -19 -111.5t-62 -87t-104 -35.5q-101 0 -143 81v-202h40q9 0 15.5 -6t6.5 -16q0 -9 -7 -16t-15 -7h-159 q-9 0 -16 6.5t-7 15.5zM176 199q0 -163 119 -163t119 186t-119 186t-119 -164v-45z" />
<glyph unicode="&#xff;" horiz-adv-x="483" d="M7 421q0 9 7 16t15 7h141q9 0 16 -6.5t7 -15.5t-7 -16t-16 -7h-39l125 -305l124 305h-34q-9 0 -16 6.5t-7 16.5q0 9 6.5 15.5t16.5 6.5h103q9 0 16 -7t7 -16q0 -10 -6.5 -16t-16.5 -6h-18l-203 -499q-19 -48 -44 -69t-75 -21q-37 0 -65 9q-5 1 -10.5 7t-5.5 13v52 q0 17 13 17h11q12 0 16 -16q9 -37 50 -37q30 0 43 19q9 12 17 28.5t13 28.5t12.5 32.5t10.5 28.5l-166 407h-19q-9 0 -15.5 6t-6.5 16zM111 606q0 20 14.5 34.5t34.5 14.5t34.5 -14.5t14.5 -34.5q0 -22 -13.5 -35t-35.5 -13t-35.5 13.5t-13.5 34.5zM275 606q0 21 14.5 35 t35.5 14q20 0 34 -14.5t14 -34.5t-14 -34t-34 -14q-23 0 -36.5 13t-13.5 35z" />
<glyph unicode="&#x152;" horiz-adv-x="973" d="M50 313q0 149 91.5 230t249.5 81l484 -1q15 0 19 -5t4 -17v-86q0 -10 -7 -15t-13 -5h-10q-6 0 -13.5 5t-7.5 16v56h-287v-216h204v46q0 11 7.5 16t13.5 5h10q3 0 7.5 -1.5t8.5 -6.5t4 -12v-145q0 -10 -7 -15t-13 -5h-10q-6 0 -13.5 5t-7.5 16v47h-204v-255h293v56 q0 11 7.5 16t13.5 5h11q6 0 13 -5t7 -15v-88q0 -10 -7 -15t-13 -5h-494q-158 1 -249.5 82t-91.5 231zM145 313q0 -128 64.5 -198.5t187.5 -70.5h78v535h-78q-123 0 -187.5 -69.5t-64.5 -196.5z" />
<glyph unicode="&#x153;" horiz-adv-x="845" d="M43 222q0 102 57 168t157 66q112 0 170 -82q62 82 166 82q101 0 152.5 -59t57.5 -160q0 -23 -23 -23h-308v-4q0 -180 133 -180q94 0 125 89q3 16 22 16h17q12 0 17 -9.5t2 -17.5q-47 -121 -189 -121q-113 0 -172 82q-58 -81 -170 -81q-100 0 -157 66t-57 168zM132 222 q0 -193 125 -193t125 193q0 192 -125 192t-125 -192zM472 258h240q-4 156 -119 156q-60 0 -88.5 -45t-32.5 -111z" />
<glyph unicode="&#x178;" horiz-adv-x="564" d="M0 600q0 10 7 16.5t16 6.5h167q9 0 16 -6.5t7 -15.5t-7 -15.5t-16 -6.5h-41l156 -252l156 252h-38q-9 0 -16 6.5t-7 15.5q0 10 6.5 16t16.5 6h117q8 0 15 -6.5t7 -16.5q0 -9 -6.5 -15t-15.5 -6h-27l-187 -303v-231h47q10 0 16.5 -6.5t6.5 -15.5q0 -10 -7 -16.5t-16 -6.5 h-179q-10 0 -16.5 6t-6.5 16q0 9 7 16t16 7h47v224l-193 310h-25q-10 0 -16.5 6t-6.5 15zM154 738q0 19 14.5 34t33.5 15q20 0 35 -14.5t15 -34.5q0 -21 -14 -34.5t-36 -13.5q-20 0 -34 14t-14 34zM316 738q0 20 15 34.5t35 14.5q19 0 33 -14.5t14 -34.5q0 -21 -13 -34.5 t-34 -13.5q-22 0 -36 13.5t-14 34.5z" />
<glyph unicode="&#x192;" horiz-adv-x="525" d="M10 334q0 13 9.5 22t22.5 9q17 0 26 -16l100 -175l55 -130h26l35 129l216 532q8 20 27 20q13 0 23 -9t10 -22q0 -4 -3 -12l-274 -663q-2 -6 -11.5 -12.5t-16.5 -6.5h-34q-17 0 -26 15l-180 303q-5 8 -5 16z" />
<glyph unicode="&#x2c6;" horiz-adv-x="427" d="M92 542q0 2 13 25l68 108q7 9 19 9h44q5 0 10 -2t7 -4l2 -3l68 -108q13 -23 13 -25q0 -15 -20 -15q-17 0 -24 9l-78 100l-78 -101q-7 -8 -24 -8q-20 0 -20 15z" />
<glyph unicode="&#x2c7;" horiz-adv-x="450" d="M101 697q0 15 20 15q19 0 24 -8l78 -101l79 100q7 9 23 9q20 0 20 -15q0 -2 -13 -25l-68 -108q-6 -9 -19 -9h-43q-6 0 -10.5 2.5t-6.5 4.5l-2 2l-68 108q-14 20 -14 25z" />
<glyph unicode="&#x2d8;" horiz-adv-x="450" d="M91 679q0 29 22 29q15 0 22 -20q17 -49 90 -49t90 49q7 20 22 20q22 0 22 -29q0 -37 -37 -67.5t-96 -30.5t-97 30.5t-38 67.5z" />
<glyph unicode="&#x2d9;" horiz-adv-x="450" d="M174 638q0 21 15 36t36 15t36 -15t15 -36q0 -22 -14 -36.5t-37 -14.5t-37 14.5t-14 36.5z" />
<glyph unicode="&#x2da;" horiz-adv-x="450" d="M105 670q0 51 34.5 85.5t85.5 34.5t85.5 -34.5t34.5 -85.5t-34.5 -86t-85.5 -35t-85.5 35t-34.5 86zM158 670q0 -28 19 -47.5t48 -19.5t48 19.5t19 47.5t-19.5 47t-47.5 19q-29 0 -48 -19t-19 -47z" />
<glyph unicode="&#x2db;" horiz-adv-x="450" d="M137 -94q0 38 38 79q14 15 31 15q16 0 16 -13q0 -6 -14 -26t-14 -34q-1 -21 14 -30.5t37 -10.5q5 0 18.5 1.5t20.5 1.5q26 -2 26 -23q0 -32 -73 -32q-42 0 -71 17t-29 55z" />
<glyph unicode="&#x2dc;" horiz-adv-x="427" d="M77 567q0 36 21 66.5t60 30.5q20 0 37 -10t27.5 -22.5t24 -22.5t25.5 -10q31 0 37 47q3 18 20 18q9 0 15.5 -6t6.5 -15q0 -36 -21.5 -66.5t-59.5 -30.5q-32 0 -64 32.5t-49 32.5q-32 0 -38 -47q-3 -18 -20 -18q-9 0 -15.5 6t-6.5 15z" />
<glyph unicode="&#x2dd;" horiz-adv-x="450" d="M80 541q0 9 13 25l75 108q7 9 19 9h33q18 0 18 -10t-7 -18l-108 -119q-10 -10 -23 -10q-20 0 -20 15zM221 541q0 9 13 25l75 108q7 9 19 9h33q18 0 18 -10t-7 -18l-108 -119q-10 -10 -23 -10q-20 0 -20 15z" />
<glyph unicode="&#x5b0;" d="M-40 -116q0 16 12 28t28 12t28 -12t12 -28t-12 -28t-28 -12t-28 12t-12 28zM-40 -237q0 17 12 28.5t28 11.5t28 -11.5t12 -28.5t-12 -28.5t-28 -11.5t-28 11.5t-12 28.5z" />
<glyph unicode="&#x5b1;" d="M-170 -116q0 16 12 28t28 12t28 -12t12 -28t-12 -28t-28 -12t-28 12t-12 28zM-104 -237q0 17 12 28.5t28 11.5t28 -11.5t12 -28.5t-12 -28.5t-28 -11.5t-28 11.5t-12 28.5zM-38 -116q0 16 12 28t28 12t28 -12t12 -28t-12 -28t-28 -12t-28 12t-12 28zM88 -116q0 16 12 28 t28 12t28 -12t12 -28t-12 -28t-28 -12t-28 12t-12 28zM88 -237q0 17 12 28.5t28 11.5t28 -11.5t12 -28.5t-12 -28.5t-28 -11.5t-28 11.5t-12 28.5z" />
<glyph unicode="&#x5b2;" d="M-154 -100q0 9 2.5 11.5t11.5 2.5h160q8 0 11 -2.5t3 -11.5v-22q0 -8 -2.5 -11t-11.5 -3h-160q-9 0 -11.5 3t-2.5 11v22zM74 -116q0 16 12 28t28 12t28 -12t12 -28t-12 -28t-28 -12t-28 12t-12 28zM74 -237q0 17 12 28.5t28 11.5t28 -11.5t12 -28.5t-12 -28.5t-28 -11.5 t-28 11.5t-12 28.5z" />
<glyph unicode="&#x5b3;" d="M-154 -100q0 9 2.5 11.5t11.5 2.5h160q8 0 11 -2.5t3 -11.5v-22q0 -8 -2.5 -11t-11.5 -3h-58l5 -39v-81q0 -12 -13 -12h-28q-8 0 -10.5 2t-2.5 10v81l5 39h-58q-9 0 -11.5 3t-2.5 11v22zM74 -116q0 16 12 28t28 12t28 -12t12 -28t-12 -28t-28 -12t-28 12t-12 28zM74 -237 q0 17 12 28.5t28 11.5t28 -11.5t12 -28.5t-12 -28.5t-28 -11.5t-28 11.5t-12 28.5z" />
<glyph unicode="&#x5b4;" d="M-40 -116q0 16 12 28t28 12t28 -12t12 -28t-12 -28t-28 -12t-28 12t-12 28z" />
<glyph unicode="&#x5b5;" d="M-110 -116q0 16 12 28t28 12t28 -12t12 -28t-12 -28t-28 -12t-28 12t-12 28zM30 -116q0 16 12 28t28 12t28 -12t12 -28t-12 -28t-28 -12t-28 12t-12 28z" />
<glyph unicode="&#x5b6;" d="M-108 -116q0 16 12 28t28 12t28 -12t12 -28t-12 -28t-28 -12t-28 12t-12 28zM-40 -237q0 17 12 28.5t28 11.5t28 -11.5t12 -28.5t-12 -28.5t-28 -11.5t-28 11.5t-12 28.5zM28 -116q0 16 12 28t28 12t28 -12t12 -28t-12 -28t-28 -12t-28 12t-12 28z" />
<glyph unicode="&#x5b7;" d="M-94 -100q0 9 2.5 11.5t11.5 2.5h160q8 0 11 -2.5t3 -11.5v-22q0 -8 -2.5 -11t-11.5 -3h-160q-9 0 -11.5 3t-2.5 11v22z" />
<glyph unicode="&#x5b8;" d="M-94 -100q0 9 2.5 11.5t11.5 2.5h160q8 0 11 -2.5t3 -11.5v-22q0 -8 -2.5 -11t-11.5 -3h-58l5 -39v-81q0 -12 -13 -12h-28q-8 0 -10.5 2t-2.5 10v81l5 39h-58q-9 0 -11.5 3t-2.5 11v22z" />
<glyph unicode="&#x5b9;" d="M-40 582q0 16 12 28t28 12t28 -12t12 -28t-12 -28t-28 -12t-28 12t-12 28z" />
<glyph unicode="&#x5bb;" d="M-144 -113q0 17 12 28.5t28 11.5t28 -11.5t12 -28.5t-12 -28.5t-28 -11.5t-28 11.5t-12 28.5zM-40 -175q0 17 12 28.5t28 11.5t28 -11.5t12 -28.5t-12 -28.5t-28 -11.5t-28 11.5t-12 28.5zM64 -237q0 17 12 28.5t28 11.5t28 -11.5t12 -28.5t-12 -28.5t-28 -11.5t-28 11.5 t-12 28.5z" />
<glyph unicode="&#x5bc;" d="M-40 240q0 16 12 28t28 12t28 -12t12 -28t-12 -28t-28 -12t-28 12t-12 28z" />
<glyph unicode="&#x5bd;" horiz-adv-x="1000" />
<glyph unicode="&#x5be;" horiz-adv-x="264" d="M35 449v50l16 15h162l16 -15v-50l-15 -15h-164z" />
<glyph unicode="&#x5bf;" horiz-adv-x="423" d="M35 233v50l16 15h321l16 -15v-50l-15 -15h-323z" />
<glyph unicode="&#x5c1;" d="M-40 582q0 16 12 28t28 12t28 -12t12 -28t-12 -28t-28 -12t-28 12t-12 28z" />
<glyph unicode="&#x5c2;" d="M-40 582q0 16 12 28t28 12t28 -12t12 -28t-12 -28t-28 -12t-28 12t-12 28z" />
<glyph unicode="&#x5d0;" horiz-adv-x="561" d="M35 22l89 331l23 14l-78 100l2 21l42 36l20 -2l210 -277l89 276l18 9l51 -17l9 -19l-92 -289l-27 -14l108 -140l-2 -21l-42 -36l-20 3l-237 313l-83 -310l-17 -11l-53 15z" />
<glyph unicode="&#x5d1;" horiz-adv-x="493" d="M35 15v50l15 15h257l-16 41v313h-241l-15 15v50l16 15h309l14 -14v-360l16 -60h53l15 -15v-50l-15 -15h-392z" />
<glyph unicode="&#x5d2;" horiz-adv-x="335" d="M10 32l3 20l178 134l-8 49l-16 199h-96l-15 15v50l15 15h163l15 -16l17 -272l54 -203l-10 -18l-53 -13l-18 12l-25 100l-151 -118l-20 3z" />
<glyph unicode="&#x5d3;" horiz-adv-x="470" d="M35 449v50l16 15h368l16 -15v-50l-15 -15h-53l-16 -60v-360l-14 -14h-54l-15 14v379l16 41h-234z" />
<glyph unicode="&#x5d4;" horiz-adv-x="535" d="M61 449v50l15 15h374l15 -15v-485l-15 -14h-54l-14 14v420h-306zM73 14v213l23 60l19 8l47 -16l8 -20l-14 -51v-194l-14 -14h-54z" />
<glyph unicode="&#x5d5;" horiz-adv-x="259" d="M35 449v50l16 15h123l14 -15v-485l-14 -14h-55l-14 14v420h-55z" />
<glyph unicode="&#x5d6;" horiz-adv-x="320" d="M35 449v50l16 15h218l16 -15v-50l-15 -15h-71l-16 -58l54 -358l-12 -16l-54 -8l-16 12l-55 388l16 40h-66z" />
<glyph unicode="&#x5d7;" horiz-adv-x="557" d="M61 449v50l14 15h407l14 -15v-50l-20 -21v-413l-15 -15h-54l-14 15v419h-229v-419l-14 -15h-54l-15 15v413z" />
<glyph unicode="&#x5d8;" horiz-adv-x="596" d="M50 494l13 17l53 8l16 -13l60 -439l170 22l44 46l50 299h-102l-44 -152l-19 -12l-45 11l-8 20l52 200l17 13h228l11 -17l-64 -388l-86 -92l-260 -32l-18 13z" />
<glyph unicode="&#x5d9;" horiz-adv-x="289" d="M35 449v50l16 15h158l15 -15v-257l-15 -14h-54l-14 14v192h-91z" />
<glyph unicode="&#x5da;" horiz-adv-x="439" d="M35 449v50l16 15h302l15 -15v-638l-15 -14h-54l-14 14v573h-235z" />
<glyph unicode="&#x5db;" horiz-adv-x="456" d="M35 15v50l15 15h208l45 45v309h-253l-15 15v50l16 15h320l14 -14v-405l-95 -95h-239z" />
<glyph unicode="&#x5dc;" horiz-adv-x="465" d="M35 449v193l15 15h54l14 -15v-128h285l12 -16l-45 -252l-157 -253l-20 -4l-46 30l-4 21l151 240l25 154h-269z" />
<glyph unicode="&#x5dd;" horiz-adv-x="558" d="M61 15v52l17 15v417l15 15h304l96 -95v-405l-15 -14h-402zM161 80h249v309l-45 45h-204v-354z" />
<glyph unicode="&#x5de;" horiz-adv-x="555" d="M45 449v50l16 15h332l96 -95v-405l-14 -14h-199l-15 15v50l15 15h130v309l-45 45h-148l-71 -433l-16 -12l-53 10l-12 17l73 418h-74z" />
<glyph unicode="&#x5df;" horiz-adv-x="259" d="M35 449v50l16 15h123l14 -15v-638l-14 -14h-55l-14 14v573h-55z" />
<glyph unicode="&#x5e0;" horiz-adv-x="321" d="M35 15v50l15 15h105l13 13v341h-85l-15 15v50l16 15h152l15 -14v-445l-55 -55h-145z" />
<glyph unicode="&#x5e1;" horiz-adv-x="577" d="M50 449v50l15 15h451l11 -17l-67 -405l-86 -92h-228l-18 13l-58 415zM149 434l54 -355h137l43 49l49 306h-283z" />
<glyph unicode="&#x5e2;" horiz-adv-x="517" d="M25 40l14 17l107 14l-90 422l11 17l53 12l17 -11l92 -430l50 6l44 48l63 371l15 13l54 -8l11 -19l-63 -383l-87 -92l-266 -33l-18 13z" />
<glyph unicode="&#x5e3;" horiz-adv-x="513" d="M50 449v50l16 15h362l15 -15v-638l-15 -14h-54l-14 14v573h-192l-18 -59v-148h73l15 -15v-51l-15 -15h-134l-15 15v214l22 59h-31z" />
<glyph unicode="&#x5e4;" horiz-adv-x="532" d="M50 449v50l16 15h381l15 -14v-405l-96 -95h-287l-16 15v50l15 15h256l45 45v309h-211l-18 -59v-118h91l14 -16v-50l-14 -15h-152l-15 15v184l22 59h-31z" />
<glyph unicode="&#x5e5;" horiz-adv-x="467" d="M25 470l4 20l46 31l20 -5l160 -254l111 251l19 8l49 -23l8 -20l-119 -268l-28 -11l79 -126v-212l-14 -14h-54l-15 14v186z" />
<glyph unicode="&#x5e6;" horiz-adv-x="467" d="M25 470l4 20l46 31l20 -5l160 -257l111 254l19 8l49 -23l8 -20l-119 -271l-30 -12l103 -127v-53l-15 -15h-339l-14 15v50l14 15h248l-75 95z" />
<glyph unicode="&#x5e7;" horiz-adv-x="543" d="M66 449v50l14 15h417l11 -16l-45 -248l-157 -252l-20 -5l-45 31l-5 20l152 241l24 149h-331zM83 -94v378l14 15h54l15 -15v-359l13 -50l-8 -20l-46 -17l-19 9z" />
<glyph unicode="&#x5e8;" horiz-adv-x="441" d="M25 449v50l16 15h239l95 -95v-405l-14 -14h-54l-14 14v375l-45 45h-208z" />
<glyph unicode="&#x5e9;" horiz-adv-x="666" d="M50 494l13 17l53 8l16 -13l60 -448l237 29l43 48l63 371l16 13l54 -8l11 -19l-64 -383l-86 -92l-329 -41l-18 14zM273 173l13 51v275l15 15h54l14 -15v-294l-23 -60l-19 -8l-46 16z" />
<glyph unicode="&#x5ea;" horiz-adv-x="565" d="M25 15v49l15 16h49l22 22v332h-61l-15 15v50l16 15h429l14 -15v-485l-14 -14h-55l-14 14v420h-217v-361l-72 -73h-82z" />
<glyph unicode="&#x5f3;" horiz-adv-x="202" d="M35 386l41 215l22 12l56 -16l13 -22l-80 -204l-22 -12l-17 4z" />
<glyph unicode="&#x5f4;" horiz-adv-x="353" d="M35 386l41 215l22 12l56 -16l13 -22l-80 -204l-22 -12l-17 4zM186 386l41 215l22 12l56 -16l13 -22l-80 -204l-22 -12l-17 4z" />
<glyph unicode="&#x2010;" horiz-adv-x="423" d="M35 233v50l16 15h321l16 -15v-50l-15 -15h-323z" />
<glyph unicode="&#x2013;" horiz-adv-x="264" d="M35 449v50l16 15h162l16 -15v-50l-15 -15h-164z" />
<glyph unicode="&#x2014;" horiz-adv-x="423" d="M35 233v50l16 15h321l16 -15v-50l-15 -15h-323z" />
<glyph unicode="&#x2018;" horiz-adv-x="202" d="M35 386l41 215l22 12l56 -16l13 -22l-80 -204l-22 -12l-17 4z" />
<glyph unicode="&#x2019;" horiz-adv-x="202" d="M35 386l41 215l22 12l56 -16l13 -22l-80 -204l-22 -12l-17 4z" />
<glyph unicode="&#x201a;" horiz-adv-x="162" d="M40 519l27 193h93l-60 -193h-60z" />
<glyph unicode="&#x201c;" horiz-adv-x="353" d="M35 386l41 215l22 12l56 -16l13 -22l-80 -204l-22 -12l-17 4zM186 386l41 215l22 12l56 -16l13 -22l-80 -204l-22 -12l-17 4z" />
<glyph unicode="&#x201d;" horiz-adv-x="353" d="M35 386l41 215l22 12l56 -16l13 -22l-80 -204l-22 -12l-17 4zM186 386l41 215l22 12l56 -16l13 -22l-80 -204l-22 -12l-17 4z" />
<glyph unicode="&#x201e;" horiz-adv-x="300" d="M30 519l28 193h92l-60 -193h-60zM150 519l28 193h92l-60 -193h-60z" />
<glyph unicode="&#x2020;" horiz-adv-x="427" d="M23 417q0 15 11 26t26 10l130 -15l-12 149q-1 14 9.5 25t25.5 11t26 -10.5t10 -25.5l-12 -148l131 14q15 1 25.5 -9.5t10.5 -25.5t-11 -26.5t-26 -10.5l-130 12l12 -441q0 -14 -10.5 -24.5t-25.5 -10.5t-26 10.5t-10 25.5l14 440l-132 -12q-13 -2 -24.5 9.5t-11.5 26.5z " />
<glyph unicode="&#x2021;" horiz-adv-x="427" d="M23 125q0 15 11 26.5t26 10.5l130 -15q-1 16 -7.5 58t-6.5 65t7 65t8 58l-132 -12q-13 -2 -24.5 9.5t-11.5 26.5t11 26t26 10l130 -15l-12 149q-1 14 9.5 25t25.5 11t26 -10.5t10 -25.5l-12 -148l131 14q15 1 25.5 -9.5t10.5 -25.5t-11 -26.5t-26 -10.5l-130 12 q2 -13 6 -38.5t6.5 -46t2.5 -38.5t-2.5 -38.5t-6.5 -46t-6 -37.5l131 14q15 1 25.5 -9.5t10.5 -25.5t-11 -26.5t-26 -10.5l-130 12l12 -150q1 -14 -10 -24.5t-26 -10.5t-26 10.5t-10 25.5l14 149l-132 -12q-13 -2 -24.5 9.5t-11.5 25.5z" />
<glyph unicode="&#x2022;" horiz-adv-x="350" d="M55 331q0 51 35.5 86.5t86.5 35.5t87 -35.5t36 -86.5q0 -52 -35.5 -87.5t-87.5 -35.5t-87 35.5t-35 87.5z" />
<glyph unicode="&#x2026;" horiz-adv-x="535" d="M20 31v28q0 44 44 44t44 -44v-28q0 -44 -44 -44t-44 44zM199 31v28q0 45 44 45t44 -45v-28q0 -46 -44 -46t-44 46zM377 31v28q0 44 44 44t44 -44v-28q0 -44 -44 -44t-44 44z" />
<glyph unicode="&#x2030;" horiz-adv-x="1148" d="M47 465q0 73 36.5 121.5t107.5 48.5t107.5 -48.5t36.5 -121.5t-36.5 -121.5t-107.5 -48.5t-107.5 48.5t-36.5 121.5zM114 465q0 -30 5.5 -57t24 -51t48.5 -24t48 24t23.5 51t5.5 57t-5.5 56.5t-23.5 50.5t-48 24t-49 -23.5t-24 -50t-5 -57.5zM199 13l4 15l357 591 q9 16 27 16q11 0 18 -8t7 -18q0 -9 -6 -18l-354 -589q-10 -15 -27 -15q-11 0 -18.5 8t-7.5 18zM477 158q0 73 36.5 121.5t107.5 48.5t108 -48.5t37 -121.5t-37 -121.5t-108 -48.5t-107.5 48t-36.5 122zM544 158q0 -30 5.5 -57t24 -50.5t47.5 -23.5q30 0 48.5 23.5t23.5 50 t5 57.5t-5 57.5t-23.5 50t-48.5 23.5t-48.5 -23.5t-23.5 -50t-5 -57.5zM812 158q0 73 37 121.5t108 48.5q70 0 106.5 -48.5t36.5 -121.5t-36.5 -121.5t-106.5 -48.5q-71 0 -108 48t-37 122zM879 158q0 -30 5.5 -57t24 -50.5t48.5 -23.5t48 23.5t23.5 50.5t5.5 57t-5.5 57 t-23.5 51t-48 24t-48.5 -24t-24 -51t-5.5 -57z" />
<glyph unicode="&#x2039;" horiz-adv-x="342" d="M66 242v17q0 4 2 8t4 6l1 2l162 143q10 8 17 8q15 0 15 -15q0 -9 -5 -16l-124 -144l124 -145q5 -6 5 -16q0 -14 -15 -14q-9 0 -17 8l-162 143q-7 6 -7 15z" />
<glyph unicode="&#x203a;" horiz-adv-x="342" d="M75 90q0 10 5 16l124 145l-124 144q-5 7 -5 16q0 15 15 15q7 0 17 -8l162 -143q7 -6 7 -16v-17l-7 -15l-162 -143q-8 -8 -17 -8q-15 0 -15 14z" />
<glyph unicode="&#x20aa;" horiz-adv-x="873" d="M66 449v50l14 15h497l15 -15v-50l-21 -21v-216l-14 -15h-54l-15 15v222h-319v-419l-14 -15h-54l-15 15v413zM282 298l12 17l53 8l17 -13l35 -252l237 29l43 48l63 371l16 13l54 -8l11 -19l-64 -383l-86 -92l-329 -41l-18 14z" />
<glyph unicode="&#x20ac;" horiz-adv-x="473" d="M27 278v16q0 7 0.5 10t4 5t10.5 2h51q17 86 68.5 134.5t126.5 48.5q46 0 95 -24t49 -38q0 -2 -1.5 -4.5t-1.5 -3.5l-21 -39q-4 -6 -6 -6l-15 12q-15 12 -41 24t-52 12q-103 0 -122 -116h166q7 0 10.5 -2t4 -5t0.5 -10v-16q0 -11 -17 -11h-168q-1 -9 -1 -27t1 -27h172 q7 0 10.5 -2t4 -5t0.5 -10v-16q0 -11 -17 -11h-166q18 -116 110 -116q29 0 58 10.5t46.5 20.5t18.5 10q2 0 6 -6l17 -42q0 -1 1.5 -3.5t1.5 -4.5q0 -6 -23.5 -18t-62 -23t-72.5 -11q-76 0 -124.5 48.5t-59.5 134.5h-48q-12 0 -12 11v16q0 7 0.5 10t4 5t10.5 2h41v12 q0 16 2 42h-48q-12 0 -12 11z" />
<glyph unicode="&#x2122;" horiz-adv-x="1000" d="M110 657v59h325v-59h-130v-339h-66v339h-129zM479 318v398h98l101 -318l97 318h96v-398h-61v334l-102 -334h-61l-106 339v-339h-62z" />
<glyph unicode="&#xe000;" horiz-adv-x="490" d="M0 0v490h490v-490h-490z" />
<glyph unicode="&#xfb01;" horiz-adv-x="570" d="M30 22q0 9 7.5 16t15.5 7h51v354h-50q-9 0 -16 6.5t-7 15.5t7.5 16t15.5 7h50q0 83 15 116q41 90 178 90q79 0 134 -19q16 -5 16 -22v-54q0 -14 -15 -14h-12q-11 0 -14 16q-11 52 -102 52q-34 0 -58 -8.5t-36.5 -21t-19 -36.5t-8 -44t-1.5 -55h274q9 0 16 -6.5t7 -15.5 v-377h51q9 0 16 -6.5t7 -15.5q0 -10 -7 -16.5t-16 -6.5h-178q-10 0 -16.5 6t-6.5 16q0 9 7 16t16 7h50v354h-220v-354h51q9 0 16 -6.5t7 -15.5t-7 -16t-16 -7h-179q-9 0 -16 6.5t-7 15.5z" />
<glyph unicode="&#xfb02;" horiz-adv-x="570" d="M30 22q0 9 7.5 16t15.5 7h51v354h-50q-9 0 -16 6.5t-7 15.5t7.5 16t15.5 7h50q0 83 15 116q41 90 178 90h152q10 0 16.5 -6.5t6.5 -15.5v-583h50q10 0 16.5 -6.5t6.5 -15.5q0 -10 -7 -16.5t-16 -6.5h-177q-10 0 -16.5 6t-6.5 16q0 9 7 16t16 7h50v560h-91q-43 0 -68.5 -9 t-37 -33t-14.5 -48t-3 -71h100q10 0 16.5 -6.5t6.5 -15.5q0 -10 -7 -16.5t-16 -6.5h-100v-354h51q9 0 16 -6.5t7 -15.5t-7 -16t-16 -7h-179q-9 0 -16 6.5t-7 15.5z" />
<glyph unicode="&#xfb1f;" horiz-adv-x="1000" />
<glyph unicode="&#xfb2a;" d="M-40 -116q0 16 12 28t28 12t28 -12t12 -28t-12 -28t-28 -12t-28 12t-12 28z" />
<glyph unicode="&#xfb2b;" d="M-40 -116q0 16 12 28t28 12t28 -12t12 -28t-12 -28t-28 -12t-28 12t-12 28z" />
<glyph unicode="&#xfb2c;" d="M-40 -116q0 16 12 28t28 12t28 -12t12 -28t-12 -28t-28 -12t-28 12t-12 28z" />
<glyph unicode="&#xfb2d;" d="M-40 -116q0 16 12 28t28 12t28 -12t12 -28t-12 -28t-28 -12t-28 12t-12 28z" />
<glyph unicode="&#xfb31;" d="M-40 -116q0 16 12 28t28 12t28 -12t12 -28t-12 -28t-28 -12t-28 12t-12 28z" />
<glyph unicode="&#xfb32;" d="M-40 -116q0 16 12 28t28 12t28 -12t12 -28t-12 -28t-28 -12t-28 12t-12 28z" />
<glyph unicode="&#xfb33;" d="M-40 -116q0 16 12 28t28 12t28 -12t12 -28t-12 -28t-28 -12t-28 12t-12 28z" />
<glyph unicode="&#xfb34;" d="M-40 -116q0 16 12 28t28 12t28 -12t12 -28t-12 -28t-28 -12t-28 12t-12 28z" />
<glyph unicode="&#xfb35;" d="M-40 -116q0 16 12 28t28 12t28 -12t12 -28t-12 -28t-28 -12t-28 12t-12 28z" />
<glyph unicode="&#xfb36;" d="M-40 -116q0 16 12 28t28 12t28 -12t12 -28t-12 -28t-28 -12t-28 12t-12 28z" />
<glyph unicode="&#xfb38;" d="M-40 -116q0 16 12 28t28 12t28 -12t12 -28t-12 -28t-28 -12t-28 12t-12 28z" />
<glyph unicode="&#xfb39;" d="M-40 -116q0 16 12 28t28 12t28 -12t12 -28t-12 -28t-28 -12t-28 12t-12 28z" />
<glyph unicode="&#xfb3a;" d="M-40 -116q0 16 12 28t28 12t28 -12t12 -28t-12 -28t-28 -12t-28 12t-12 28z" />
<glyph unicode="&#xfb3b;" d="M-40 -116q0 16 12 28t28 12t28 -12t12 -28t-12 -28t-28 -12t-28 12t-12 28z" />
<glyph unicode="&#xfb3c;" d="M-40 -116q0 16 12 28t28 12t28 -12t12 -28t-12 -28t-28 -12t-28 12t-12 28z" />
<glyph unicode="&#xfb3e;" d="M-40 -116q0 16 12 28t28 12t28 -12t12 -28t-12 -28t-28 -12t-28 12t-12 28z" />
<glyph unicode="&#xfb40;" d="M-40 -116q0 16 12 28t28 12t28 -12t12 -28t-12 -28t-28 -12t-28 12t-12 28z" />
<glyph unicode="&#xfb41;" d="M-40 -116q0 16 12 28t28 12t28 -12t12 -28t-12 -28t-28 -12t-28 12t-12 28z" />
<glyph unicode="&#xfb44;" d="M-40 -116q0 16 12 28t28 12t28 -12t12 -28t-12 -28t-28 -12t-28 12t-12 28z" />
<glyph unicode="&#xfb46;" d="M-40 -116q0 16 12 28t28 12t28 -12t12 -28t-12 -28t-28 -12t-28 12t-12 28z" />
<glyph unicode="&#xfb47;" d="M-40 -116q0 16 12 28t28 12t28 -12t12 -28t-12 -28t-28 -12t-28 12t-12 28z" />
<glyph unicode="&#xfb49;" d="M-40 -116q0 16 12 28t28 12t28 -12t12 -28t-12 -28t-28 -12t-28 12t-12 28z" />
<glyph unicode="&#xfb4a;" d="M-40 -116q0 16 12 28t28 12t28 -12t12 -28t-12 -28t-28 -12t-28 12t-12 28z" />
<glyph unicode="&#xfb4b;" d="M-40 -116q0 16 12 28t28 12t28 -12t12 -28t-12 -28t-28 -12t-28 12t-12 28z" />
</font>
</defs>
</svg>
